<?xml version="1.0" encoding="utf-8"?>
<!-- Generator: Adobe Illustrator 23.0.1, SVG Export Plug-In . SVG Version: 6.00 Build 0)  -->
<svg version="1.1" id="Layer_1" xmlns="http://www.w3.org/2000/svg" xmlns:xlink="http://www.w3.org/1999/xlink" x="0px" y="0px"
	 viewBox="0 0 683 126" style="enable-background:new 0 0 683 126;" xml:space="preserve">
<style type="text/css">
	.st0{fill:none;}
	.st1{enable-background:new    ;}
	.st2{fill:#FFFFFF;}
	.st3{fill:#FF01CB;}
</style>
<g>
	<g>
		<g>
			<rect class="st0" width="683" height="107"/>
		</g>
		<g id="Brand">
			<g class="st1">
				<path class="st2" d="M13.9,83H4.1L26.3,3l22.2,80h-9.8L26.3,39.3L13.9,83z"/>
				<path class="st2" d="M59,47.8V82h-9V12.3l23.3,41.5L97,12.3V83H87V47.8l-13.7,25L59,47.8z"/>
				<path class="st2" d="M144,17v9h-33v28h33v10h-33v9h33v9h-42V16L144,17L144,17z"/>
				<path class="st2" d="M149,17h9v57h33v9h-42L149,17L149,17z"/>
				<path class="st2" d="M204,83h-9V17h9V83z"/>
				<path class="st2" d="M214.9,83h-9.8l22.2-80l22.2,80h-9.8l-12.3-43.7L214.9,83z"/>
				<path class="st2" d="M300.4,17H315v9h-13.7c-5.9,0-11.6,2-16,5.9c-6,5.5-8.6,12.5-7.7,20.9c0.4,4,2,7.7,4.5,10.9
					c5,6.2,11.3,9.3,18.8,9.3h4V54h-9v-9h18v38h-13.5c-9.1-0.3-16.9-3.5-23.3-10c-6.4-6.4-9.7-14.2-9.7-23.3s3.2-16.9,9.7-23.3
					C283.5,19.9,291.3,16.7,300.4,17z"/>
				<path class="st2" d="M349.6,82.7c-9.1,0-16.9-3.2-23.3-9.7c-6.4-6.4-9.7-14.2-9.7-23.3s3.2-16.9,9.7-23.3
					c6.4-6.4,14.2-9.7,23.3-9.7c9.1,0,16.9,3.2,23.3,9.7c6.4,6.4,9.7,14.2,9.7,23.3s-3.2,16.9-9.7,23.3
					C366.5,79.5,358.7,82.7,349.6,82.7z M349.6,73.3c6.5,0,12.1-2.3,16.7-6.9s6.9-10.2,6.9-16.7s-2.3-12.1-6.9-16.7
					s-10.2-6.9-16.7-6.9s-12.1,2.3-16.7,6.9S326,43.2,326,49.7s2.3,12.1,6.9,16.7S343.1,73.3,349.6,73.3z"/>
				<path class="st2" d="M418.5,82.7c-9.1,0-16.9-3.2-23.3-9.7c-6.4-6.4-9.7-14.2-9.7-23.3s3.2-16.9,9.7-23.3
					c6.4-6.4,14.2-9.7,23.3-9.7c9.1,0,16.9,3.2,23.3,9.7c6.4,6.4,9.7,14.2,9.7,23.3s-3.2,16.9-9.7,23.3
					C435.4,79.5,427.6,82.7,418.5,82.7z M418.5,73.3c6.5,0,12.1-2.3,16.7-6.9s6.9-10.2,6.9-16.7s-2.3-12.1-6.9-16.7
					s-10.2-6.9-16.7-6.9s-12.1,2.3-16.7,6.9s-6.9,10.2-6.9,16.7s2.3,12.1,6.9,16.7S412,73.3,418.5,73.3z"/>
				<path class="st2" d="M469.2,17c9.1,0,16.9,3.2,23.3,9.7c6.4,6.4,9.7,14.2,9.7,23.3s-3.2,16.9-9.7,23.3
					c-6.4,6.4-14.2,9.7-23.3,9.7H455V17C455,17,469.2,17,469.2,17z M469,73.1c7.3,0,13.5-2.5,18.5-7.6c3.8-3.8,6.2-8.9,6.5-14.3
					c0.5-8.5-3-15.5-10.4-20.8c-4-2.9-8.9-4.3-13.9-4.3H464v47L469,73.1L469,73.1z"/>
				<path class="st2" d="M522.1,17.4c5.1,0,9.6,1.8,13.2,5.4c3.6,3.7,5.4,8,5.4,13.2h-9.3c0-2.6-0.9-4.7-2.8-6.6
					c-1.8-1.8-4.1-2.8-6.6-2.8c-2.6,0-4.7,0.9-6.6,2.8c-1.8,1.8-2.8,4.1-2.8,6.6c0,4.1,4.7,7.7,14,11c9.3,3.3,14,8.9,14,17
					c0,5.1-1.8,9.6-5.4,13.2c-3.7,3.6-8,5.4-13.2,5.4c-5.1,0-9.6-1.8-13.2-5.4c-3.6-3.7-5.4-8-5.4-13.2h9.3c0,2.6,0.9,4.7,2.8,6.6
					c1.8,1.8,4.1,2.8,6.6,2.8c2.6,0,4.7-0.9,6.6-2.8c1.8-1.8,2.8-4.1,2.8-6.6c0-4.1-4.7-7.7-14-11c-9.3-3.3-14-8.9-14-17
					c0-5.1,1.8-9.6,5.4-13.2C512.6,19.3,516.9,17.4,522.1,17.4z"/>
			</g>
			<g class="st1">
				<path class="st2" d="M639,38.7V83h-9V3.1l33,58.2V17h9v79.9L639,38.7z"/>
			</g>
		</g>
	</g>
	<path class="st3" d="M634,65.6L634,65.6v-0.3v-0.1v-0.1V65c0.9,0,1-0.1,1-0.1v-0.1v-0.1v-0.1c0,0-0.4-0.1-0.5-0.2l0,0
		c-0.1,0-0.1-0.1-0.2-0.1c-7.3-3.6-10-12.1-6.2-18.9c1.2-2.2,3.1-4,5.3-5.3l0.1-0.1l0.1-0.1l-0.6-0.1v-0.1c0,0,0.8-0.1,0.8-0.2l0,0
		c0-0.1,0.2-0.2,0.2-0.2v-0.1V39v-0.2v-0.2v-0.1c0-0.1-0.1-0.2-0.1-0.2c0-0.1-0.1-0.2,0.1-0.2V38c-0.2-0.1-0.3-0.1-0.3-0.1
		s0,0-0.1-0.1l-0.1-0.1c0,0,0,0-0.1-0.1c-0.1,0-0.1-0.1-0.2-0.1l0,0c-0.1-0.1-0.2-0.5-0.2-0.5h-0.1c0,0-0.1,0.4-0.2,1h-0.1h-0.1
		c-7.7-1-13.7-7.4-13.4-15.1c0.1-2.3,0.8-4.6,1.9-6.6c0,0,0-0.1,0-0.1v-0.1c0.1-0.1-0.1-0.2-0.1-0.2l0,0l1.1-0.2v-0.1v-0.2v-0.1
		c-0.8-0.1-1-0.1-1-0.1v-0.1c0,0,0.1-0.1,1-0.1v-0.1c-1-0.1-1.1-0.1-1.2-0.2c-0.1-0.1-0.1-0.1-0.2-0.7h-0.1h-0.1h-0.1h-0.1l-0.1,1
		h-0.2h-0.1c-0.1-0.7-0.2-0.4-0.2-0.4l0,0l-0.2-0.6h-0.1l-0.1,0.5c-6.7,3.9-15.2,1.6-19.1-5.1c-1.3-2.3-2.1-7.5-2.1-7.5V2l0,0
		c0.3-0.1,0.2-0.2,0-0.2V1.7c0.2,0,0.2-0.1,1-0.2V1.4l-1-0.1c0,0,0-0.1-0.1-0.1l-0.1-0.1L597.7,1l-0.1-1h-0.1c0.5,1,0.4,1,0.4,1
		c-0.2,0.1-0.3,0-0.4,0h-0.1h-0.2h-0.1H597h-0.1c-0.1,0-0.1,0-0.2,1h-0.1c-0.1-0.9,0.4-0.8,0.4-0.8v0.1c0,0-0.7,0.1-0.7,0.2l0,0
		c-0.1,0.1-0.1,0.1-0.1,0.2c-2.4,4.6-7.2,7.4-12.3,7.4c-4.8,0-9.3-2.5-11.9-6.6V2.4c0,0,0-0.1-0.1-0.1l-0.1-0.1l0,0
		c-0.1-0.1-0.1-0.1-0.2-0.2l0,0c-0.1,0-0.1-0.1-0.2,0h-0.1c-0.1-0.1-0.2,1-0.2,1H571h-0.2h-0.1c-0.1-1.1-0.2-1.1-0.2-1.1
		c-0.1,0-0.2,0.1-0.2,0.1h-0.1l-0.1,0.1L570,2.2L569.9,3h0.1c0-0.6-0.1-0.6-0.1-0.5l0,0c0,0.1-0.9,0.2-0.9,0.2v0.1l1,0.2l0,0v0.1
		c-0.4,7.7-6.9,13.7-14.6,13.4c-2.3-0.1-4.6-0.8-6.6-1.9l-0.1-0.6h-0.1c-0.1,0.5-0.2,0.4-0.2,0.4l0,0c-0.1,0-0.2,0.3-0.2,0.6H548
		h-0.2h-0.1c-0.1-0.6-0.1-1-0.1-1h-0.1l-0.1,1h-0.1c-0.1-0.4-0.1-0.3-0.2-0.2l0,0c-0.1,0.1-0.1,0.1-1.1,0.2v0.1l1,0.1v0.1v0.1v0.1
		c-0.2,0.1-0.2,0.1,0,0.2v0.1c-0.3,0.1-0.3,0.1-0.4,0.2l0,0c0.2,0.1,0.2,0.2,0.4,0.2v0.1c-0.2,0-0.2,0.1-0.1,0.1
		c3.9,6.7,1.6,15.2-5.1,19.1c-2.3,1.3-7.6,1.5-7.6,1.5H534c0,0-0.1,0.4-0.2,1h-0.1h-0.1l-0.1-0.5l-0.1,0.1l-0.1,0.1l-0.1,0.1
		l-0.1,0.1L533,38l-1,0.1v0.1c0.9,0.1,0.8,0.2,1,0.2v0.2v0.1v0.2V39v0.1v0.1c-0.2,0-1,0.1-1,0.1v0.1l1,0.1v0.1
		c0.1,0.1,0.1,0.1,0.2,0.2l0,0c0.1,0,0.1,0.1,0.2,0.1c4.6,2.4,7.4,7.2,7.4,12.3c0,4.8-6.6,11.8-6.6,11.8h-0.1l-0.1,0.2l-0.1,0.1
		l-0.1,0.1c-0.1,0.1-0.2,0.2-0.2,0.2l0,0c0,0,0.1,0.1-0.6,0.2v0.1c0.6,0,1,0.2,1,0.2v0.1V65l0,0c-0.4,0.1-0.4,0.2-0.4,0.2
		c0,0.1,0,0.1,0.4,0.2v0.1c-0.3,0-0.3,0.1-0.2,0.1c0,0,0,0.1,0.1,0.1l0.1,0.1l0.1,0.1l0.1,0.1l0.1,0.1l0.1-0.1h0.1h0.1h0.1h0.1
		l0.1,1h0.1c0-0.6,9.2,2.1,11.6,6.3c2.5,4.4,2.4,9.7-0.1,14c0,0,0,0.1-0.5,0.1v0.1c0.4,0.1,0.3,0.2,0.3,0.2l0,0
		c0.1,0.1,0,0.2-0.3,0.2V88v0.2v0.1v0.2v0.1c0.4,0.1,0.4,0.1,0,0.1v0.1c0.5,0.1,0.6,0.1,0.7,0.2s0.1,0.1,0.2,0h0.1l0.1,1h0.1h0.1
		l0.1-1h0.2h0.1l0,0h0.2l0,0c0.1,0.4,0.1,0.4,0.2,1h0.1h0.1c6.6-4.5,15.2-2.3,19,4.4c1.3,2.3,2,4.9,1.7,7.5v0.2l0,0
		c0.2,0.1,1,0.2,1,0.2v0.1c0,0-0.7,0.1-1,0.2v0.1l0.5,0.1l0.1,0.1l0.1,0.1l0.1,0.1l0.1-0.1h0.1c0.1,0.2,0.2,0.3,0.2,1h0.3l0,0h0.2
		h0.1h0.1h0.1l0.1-1h0.1c0,0,0.1,0.2,0.1,1h0.1c0.1-0.9,0.1-1,0.2-1l0,0l0.4-0.1v-0.1v-0.1c3.3-6.8,11.8-9.3,18.6-5.7
		c2.2,1.2,5.4,4.9,5.4,4.9v0.1l0,0.1c0,0,0,0.1,0.1,0.1c0,0,0,0.1,0.1,0.1l0.1,0.1l0.1,0.1l0.1-0.5h0.1h0.1h0.1h0.1h0.1h0.1l0,0h0.1
		h0.1c0.1,0.7,0.1,0.6,0.2,0.6c0.1,0,0.2-0.1,0.2,0.4h0.1l0.1-0.6c0,0,0.1,0,0.1-0.1l0.1-0.1c0,0,0,0,0.1-0.1c0-0.1,0.1-0.1,0.1-0.2
		l0,0c0-0.1-0.3-0.2-0.3-0.2v-0.1c0,0,0.4-0.1,1-0.2v-0.1v-0.1c-0.3-7.7,6.2-13.7,13.9-13.4c2.4,0.1,4.7,0.8,6.7,2l0.1-0.8h0.1
		c0.1,0.9,0.2,1,0.2,1l0,0h0.2l0,0h0.1h0.2l0.1-1h0.1h0.1c0,0.9,0.1,0.9,0.1,1h0.1c0.1-0.2,0.1-0.3,0.2-0.4s0.1-0.1-0.2-0.2v-0.1
		c0.4,0,0.5-0.1,1-0.2V89v-0.2l-1-0.1v-0.1v-0.1c0.1-0.1,0.1-0.2,0.3-0.2l0,0c-0.2-0.1-0.2-0.2-0.3-0.2V88c0,0,0-0.1-0.1-0.1
		c-3.8-6.7-1.5-15.2,4.9-19.1C628,67.5,633,67,633,67l0,0h0.1h0.1h0.1h0.1l0,0c0.3-0.1,0.6-0.4,0.7-0.6c0-0.1,0.1-0.1,0.1-0.2
		C634,65.8,634,65.7,634,65.6z M628.2,62.6L607.8,57c0.7-3.3,0.7-6.8,0-10.2l20.1-5.3C623,47.7,623.1,56.6,628.2,62.6L628.2,62.6z
		 M562.1,51.9c0-1.5,0.2-3,0.5-4.5l16.5,4.5l-16.6,4.4C562.2,54.9,562.1,53.4,562.1,51.9z M600.3,37.5c2,2.2,3.5,4.8,4.4,7.6
		l-16.5,4.4L600.3,37.5z M586.4,47.7l4.5-16.5c2.9,0.9,5.5,2.5,7.7,4.5L586.4,47.7z M583.9,47l-4.4-16.6c2.9-0.6,5.9-0.6,8.9,0
		L583.9,47z M581.5,47.7l-12-12.1c2.2-2,4.8-3.5,7.6-4.4L581.5,47.7z M579.7,49.5L563.2,45c0.9-2.9,2.5-5.5,4.5-7.7L579.7,49.5z
		 M579.7,54.4l-12.1,12c-2-2.2-3.5-4.8-4.4-7.6L579.7,54.4z M581.5,56.2L577,72.7c-2.9-0.9-5.5-2.5-7.7-4.5L581.5,56.2z M583.9,56.8
		l4.4,16.6c-2.9,0.6-5.9,0.6-8.9,0L583.9,56.8z M586.4,56.2l12,12.1c-2.2,2-4.8,3.5-7.6,4.4L586.4,56.2z M588.1,54.4l16.6,4.5
		c-0.9,2.9-2.5,5.5-4.5,7.7L588.1,54.4z M588.8,51.9l16.6-4.4c0.3,1.4,0.4,2.9,0.4,4.4s-0.2,3-0.5,4.5L588.8,51.9z M627.3,39.1
		l-20.1,5.3c-1-3.3-2.8-6.2-5-8.8l14.9-14.8C615.7,28.6,620,36.3,627.3,39.1L627.3,39.1z M604.3,17.1c3.3,1.9,7.2,2.6,11,2
		l-14.9,14.8c-2.6-2.3-5.5-4.1-8.8-5.1l5.5-20.4C598.4,12,600.9,15.1,604.3,17.1z M583.9,11.6c3.9,0,7.7-1.4,10.7-3.9l-5.5,20.4
		c-3.3-0.7-6.8-0.7-10.2,0L573.6,8C576.5,10.3,580.2,11.6,583.9,11.6z M563.9,16.9c3.3-1.9,5.8-4.8,7.2-8.3l5.3,20.1
		c-3.3,1-6.2,2.8-8.8,5.1l-14.8-15C556.7,19.4,560.6,18.8,563.9,16.9z M549.1,31.6c1.9-3.3,2.6-7.2,2-11l14.8,14.9
		c-2.3,2.6-4.1,5.6-5.1,8.9l-20.4-5.5C544,37.5,547.1,35,549.1,31.6z M539.7,41.3l20.4,5.5c-0.7,3.3-0.7,6.8,0,10.2L540,62.3
		c2.4-2.9,3.7-6.6,3.7-10.4C543.6,48,542.2,44.2,539.7,41.3z M540.6,64.7l20.1-5.3c1,3.3,2.8,6.2,5.1,8.8l-15,14.8
		C552.2,75.2,547.9,67.6,540.6,64.7L540.6,64.7z M563.6,86.8c-2.5-1.5-5.4-2.3-8.3-2.3c-0.9,0-1.8,0.1-2.7,0.2l15-14.8
		c2.6,2.3,5.5,4.1,8.8,5.1l-5.5,20.4C569.5,91.9,567,88.8,563.6,86.8L563.6,86.8z M583.9,92.3c-3.9,0-7.7,1.4-10.7,3.9l5.5-20.4
		c3.3,0.7,6.8,0.7,10.2,0l5.3,20.1C591.4,93.6,587.7,92.3,583.9,92.3L583.9,92.3z M603.9,87c-3.3,1.9-5.8,4.8-7.2,8.3l-5.4-20.1
		c3.3-1,6.2-2.7,8.8-5l14.8,15C611.2,84.4,607.3,85.1,603.9,87L603.9,87z M618.8,72.3c-1.9,3.3-2.6,7.2-2,11L602,68.4
		c2.3-2.6,4.1-5.6,5.1-8.8l20.4,5.5C623.9,66.3,620.7,68.9,618.8,72.3z"/>
	<g>
		<path class="st2" d="M26.3,97h2.6c0,0,0.5,0.6,0.6,0.7c0.2,0.1,0.3,0.3,0.3,0.5l4.4,14.9c0.1,0.3,0.2,0.6,0.2,0.9
			c0.1,0.3,0.1,0.6,0.2,1c0.1-0.3,0.1-0.7,0.2-1c0.1-0.3,0.1-0.6,0.2-0.9l5.1-14.9c0.1-0.2,0.2-0.3,0.4-0.5s0.4-0.2,0.6-0.7h0.8
			c0.3,0.5,0.5,0.6,0.6,0.7s0.3,0.3,0.4,0.5l5,14.9c0.2,0.5,0.3,1.1,0.5,1.8c0.1-0.3,0.1-0.6,0.2-0.9c0-0.3,0.1-0.6,0.2-0.8
			l4.5-14.9c0-0.2,0.2-0.3,0.3-0.5c0.2-0.1,0.6,0.2,0.6,0.2h2.2L50,119h-2.4L42,102.2c-0.1-0.3-0.2-0.7-0.3-1.1
			c-0.1,0.2-0.1,0.4-0.1,0.6c0,0.2-0.1,0.4-0.1,0.5L35.8,119h-2.7L26.3,97z"/>
		<path class="st2" d="M64.6,103.2c0.9,0,1.8,0.2,2.5,0.5c0.8,0.3,1.4,0.7,2,1.3c0.6,0.6,1,1.3,1.3,2.1c0.3,0.8,0.5,1.8,0.5,2.9
			c0,0.4,0,0.7-0.1,0.8c-0.1,0.1-0.3,0.2-0.5,0.2H60.1c0,1,0.1,1.8,0.4,2.5c0.2,0.7,0.6,1.3,1,1.8s0.9,0.8,1.5,1.1
			c0.6,0.2,1.2,0.4,2,0.4c0.7,0,1.2-0.1,1.7-0.2c0.5-0.2,0.9-0.3,1.3-0.5s0.6-0.3,0.9-0.5c0.2-0.2,0.4-0.2,0.6-0.2s0.4,0.1,0.5,0.3
			l0.8,1c-0.3,0.4-0.7,0.7-1.2,1s-1,0.5-1.5,0.7s-1.1,0.3-1.6,0.4s-1.1,0.1-1.7,0.1c-1,0-2-0.2-2.9-0.5c-0.9-0.4-1.6-0.9-2.3-1.6
			c-0.6-0.7-1.1-1.5-1.5-2.5s-0.5-2.2-0.5-3.5c0-1.1,0.2-2,0.5-3c0.3-0.9,0.8-1.7,1.4-2.4s1.4-1.2,2.2-1.6S63.5,103.2,64.6,103.2z
			 M64.7,105.8c-1.3,0-2.3,0.4-3,1.1s-1.2,1.8-1.4,3.1h8.3c0-0.6-0.1-1.2-0.3-1.7c-0.2-0.5-0.4-1-0.8-1.3s-0.7-0.7-1.2-0.9
			C65.8,105.9,65.3,105.8,64.7,105.8z"/>
		<path class="st2" d="M74,119V97h3v9c0.7-0.7,1.5-1.3,2.3-1.8c0.8-0.4,1.7-0.7,2.8-0.7c0.9,0,1.7,0.2,2.4,0.5
			c0.7,0.3,1.3,0.8,1.8,1.5s0.9,1.5,1.2,2.4s0.4,2.1,0.4,3.3c0,1.1-0.1,2.2-0.4,3.1c-0.3,1-0.7,1.8-1.3,2.5s-1.3,1.3-2.1,1.7
			c-0.8,0.4-1.7,0.6-2.8,0.6c-1,0-1.8-0.2-2.5-0.6s-1.3-0.9-1.8-1.6l-0.1,1.4c-0.1,0.4-0.3,0.6-0.7,0.6l-1.8,0.1H74z M81.1,105.7
			c-0.9,0-1.6,0.2-2.3,0.6c-0.7,0.4-1.3,1-1.8,1.7v7.3c0.5,0.7,1,1.1,1.6,1.4s1.2,0.4,2,0.4c1.4,0,2.5-0.5,3.3-1.5s1.1-2.5,1.1-4.3
			c0-1-0.1-1.8-0.3-2.5c-0.2-0.7-0.4-1.3-0.8-1.7s-0.7-0.8-1.2-1S81.7,105.7,81.1,105.7z"/>
		<path class="st2" d="M107.6,119c-0.4,0-0.6-0.2-0.7-0.6l-0.2-1.8c-0.6,0.8-1.4,1.4-2.2,1.9c-0.8,0.5-1.8,0.7-2.9,0.7
			c-0.9,0-1.7-0.2-2.4-0.5c-0.7-0.3-1.3-0.8-1.8-1.5s-0.9-1.5-1.2-2.4c-0.3-1-0.4-2.1-0.4-3.3c0-1.1,0.1-2.2,0.4-3.1
			c0.3-1,0.7-1.8,1.3-2.5c0.6-0.7,1.3-1.3,2.1-1.7s1.7-0.6,2.8-0.6c0.9,0,1.7,0.2,2.4,0.5c0.7,0.3,1.3,0.8,1.2,1.3V97h3v22H107.6z
			 M102.9,117c0.9,0,1.6-0.2,2.3-0.6c0.7-0.4,1.3-1,1.8-1.7v-7.3c-0.5-0.7-1-1.1-1.6-1.4s-1.2-0.4-1.9-0.4c-1.4,0-2.5,0.5-3.3,1.5
			s-1.1,2.5-1.1,4.3c0,1,0.1,1.8,0.3,2.5c0.2,0.7,0.4,1.3,0.8,1.7c0.3,0.5,0.7,0.8,1.2,1S102.3,117,102.9,117z"/>
		<path class="st2" d="M119.6,103.2c0.9,0,1.8,0.2,2.5,0.5c0.8,0.3,1.4,0.7,2,1.3c0.6,0.6,1,1.3,1.3,2.1c0.3,0.8,0.5,1.8,0.5,2.9
			c0,0.4,0,0.7-0.1,0.8c-0.1,0.1-0.3,0.2-0.5,0.2h-10.1c0,1,0.1,1.8,0.4,2.5c0.2,0.7,0.6,1.3,1,1.8s0.9,0.8,1.5,1.1
			c0.6,0.2,1.2,0.4,2,0.4c0.7,0,1.2-0.1,1.7-0.2c0.5-0.2,0.9-0.3,1.3-0.5s0.6-0.3,0.9-0.5c0.2-0.2,0.4-0.2,0.6-0.2s0.4,0.1,0.5,0.3
			l0.8,1c-0.3,0.4-0.7,0.7-1.2,1s-1,0.5-1.5,0.7s-1.1,0.3-1.6,0.4s-1.1,0.1-1.7,0.1c-1,0-2-0.2-2.9-0.5c-0.9-0.4-1.6-0.9-2.3-1.6
			c-0.6-0.7-1.1-1.5-1.5-2.5s-0.5-2.2-0.5-3.5c0-1.1,0.2-2,0.5-3c0.3-0.9,0.8-1.7,1.4-2.4s1.4-1.2,2.2-1.6S118.5,103.2,119.6,103.2z
			 M119.7,105.8c-1.3,0-2.3,0.4-3,1.1s-1.2,1.8-1.4,3.1h8.3c0-0.6-0.1-1.2-0.3-1.7c-0.2-0.5-0.4-1-0.8-1.3s-0.7-0.7-1.2-0.9
			C120.9,105.9,120.3,105.8,119.7,105.8z"/>
		<path class="st2" d="M138,106.3c-0.1,0.2-0.3,0.3-0.6,0.3c-0.1,0-0.3-0.1-0.5-0.2s-0.4-0.2-0.7-0.4s-0.6-0.3-1-0.4
			s-0.8-0.2-1.4-0.2c-0.4,0-0.9,0.1-1.2,0.2s-0.7,0.3-0.9,0.5c-0.3,0.2-0.5,0.4-0.6,0.7c-0.1,0.3-0.2,0.6-0.2,0.9
			c0,0.4,0.1,0.7,0.3,1s0.5,0.5,0.9,0.7s0.8,0.4,1.3,0.5s1,0.3,1.4,0.5s1,0.3,1.4,0.5c0.5,0.2,0.9,0.5,1.3,0.8
			c0.4,0.3,0.7,0.7,0.9,1.1s0.3,1,0.3,1.6c0,0.7-0.1,1.3-0.4,1.9c-0.3,0.6-0.6,1.1-1.1,1.5s-1.1,0.8-1.8,1s-1.5,0.4-2.5,0.4
			c-1.1,0-2-0.2-2.9-0.5s-1.6-0.8-2.2-1.3l0.6-1c0.1-0.1,0.2-0.2,0.3-0.3c0.1-0.1,0.3-0.1,0.4-0.1c0.2,0,0.4,0.1,0.6,0.2
			c0.2,0.1,0.4,0.3,0.7,0.5s0.6,0.3,1,0.5c0.4,0.1,0.9,0.2,1.5,0.2c0.5,0,1-0.1,1.4-0.2s0.7-0.3,1-0.5s0.5-0.5,0.6-0.8
			s0.2-0.6,0.2-1s-0.1-0.8-0.3-1c-0.2-0.3-0.5-0.5-0.9-0.7s-0.8-0.4-1.3-0.5s-1-0.3-1.5-0.5s-1-0.3-1.5-0.5s-0.9-0.5-1.3-0.8
			c-0.4-0.3-0.7-0.7-0.9-1.1s-0.3-1-0.3-1.7c0-0.6,0.1-1.1,0.4-1.7c0.2-0.5,0.6-1,1.1-1.4s1-0.7,1.7-1s1.4-0.4,2.3-0.4
			c1,0,1.9,0.2,2.7,0.5s1.5,0.7,2.1,1.3L138,106.3z"/>
		<path class="st2" d="M145.9,99c0,0.3-0.1,0.5-0.2,0.7c-0.1,0.2-0.2,0.4-0.4,0.6s-0.4,0.3-0.6,0.4c-0.2,0.1-0.5,0.1-0.7,0.1
			c-0.3,0-0.5,0-0.7-0.1s-0.4-0.2-0.6-0.4c-0.2-0.2-0.3-0.4-0.4-0.6c-0.1-0.2-0.1-0.5-0.1-0.7s0-0.5,0.1-0.7s0.2-0.4,0.4-0.6
			s0.4-0.3,0.6-0.4c0.2-0.1,0.5-0.1,0.7-0.1c0.3,0,0.5,0,0.7,0.1s0.4,0.2,0.6,0.4c0.2,0.2,0.3,0.4,0.4,0.6
			C145.9,98.5,145.9,98.8,145.9,99z M145,104v15h-3v-15H145z"/>
		<path class="st2" d="M155.6,103.2c0.7,0,1.3,0.1,1.8,0.2c0.6,0.1,1.1,0.4,1.6,0.6h4v1c0,0.3-0.2,0.5-0.6,0.6l-1.7,0.2
			c0.3,0.7,0.5,1.4,0.5,2.1c0,0.7-0.1,1.4-0.4,1.9c-0.3,0.6-0.7,1.1-1.2,1.6c-0.5,0.4-1.1,0.8-1.8,1s-1.5,0.3-2.2,0.3
			c-0.7,0-1.4-0.1-1.9-0.3c-0.3,0.2-0.6,0.4-0.7,0.7c-0.2,0.2-0.2,0.5-0.2,0.7c0,0.4,0.1,0.7,0.4,0.8s0.7,0.3,1.2,0.4
			c0.5,0.1,1,0.1,1.6,0.1s1.2,0,1.8,0c0.6,0,1.3,0.1,1.8,0.2c0.6,0.1,1.2,0.3,1.6,0.5s0.9,0.6,1.2,1c0.3,0.4,0.4,1,0.4,1.7
			s-0.2,1.3-0.5,1.8s-0.8,1.2-1.4,1.6c-0.6,0.5-1.4,0.9-2.1,1.2c-0.9,0.3-1.8,0.4-2.9,0.4s-2-0.1-2.8-0.3s-1.5-0.5-2-0.9
			c-0.6-0.4-1-0.8-1.2-1.3c-0.3-0.5-0.4-1-0.4-1.5c0-0.8,0.2-1.4,0.7-1.8s1.1-0.9,1.9-1.3c-0.4-0.2-0.8-0.5-1-0.8
			c-0.3-0.3-0.4-0.8-0.4-1.3c0-0.2,0-0.4,0.1-0.7c0.1-0.2,0.2-0.5,0.4-0.7s0.4-0.4,0.6-0.7c0.2-0.2,0.5-0.4,0.8-0.6
			c-0.8-0.4-1.3-1-1.8-1.7c-0.4-0.7-0.6-1.5-0.6-2.3c0-0.7,0.1-1.4,0.4-1.9c0.3-0.6,0.7-1.1,1.2-1.5s1.1-0.8,1.8-1
			C154,103.4,154.7,103.2,155.6,103.2z M159.9,119.8c0-0.4-0.1-0.7-0.3-0.9s-0.5-0.4-0.9-0.5s-0.8-0.2-1.2-0.3
			c-0.5-0.1-1-0.1-1.5-0.1s-1,0-1.6,0s-1.1-0.1-1.5-0.2c-0.6,0.3-1,0.6-1.4,1s-0.5,0.9-0.5,1.4c0,0.3,0.1,0.7,0.3,1s0.4,0.6,0.8,0.8
			c0.4,0.2,0.8,0.4,1.4,0.5c0.5,0.1,1.2,0.2,1.9,0.2s1.4-0.1,1.9-0.2s1.1-0.3,1.4-0.6c0.4-0.2,0.7-0.5,0.9-0.9
			C159.8,120.6,159.9,120.2,159.9,119.8z M155.2,111.6c0.5,0,1-0.1,1.4-0.2s0.8-0.4,1-0.6c0.3-0.3,0.5-0.6,0.6-1s0.2-0.8,0.2-1.2
			c0-0.9-0.3-1.7-0.8-2.2s-1.4-0.8-2.5-0.8s-1.9,0.3-2.5,0.8s-0.8,1.3-0.8,2.2c0,0.5,0.1,0.9,0.2,1.2c0.1,0.4,0.4,0.7,0.6,1
			c0.3,0.3,0.6,0.5,1,0.6C154.2,111.5,154.6,111.6,155.2,111.6z"/>
		<path class="st2" d="M165,119v-15h1.7c0.4,0,0.6,0.2,0.7,0.6l0.2,1.6c0.7-0.7,1.4-1.3,2.3-1.8c0.8-0.5,1.9-0.7,2.9-0.7
			c0.8,0,1.7,0.1,2.3,0.4c0.6,0.3,1.2,0.7,1.7,1.2s0.7,1.1,1,1.8c0.3,0.7,0.3,1.5,0.3,2.4v9.6h-3v-9.7c0-1.2-0.3-2-0.8-2.7
			c-0.4-0.6-1-0.9-1.7-1c-1.1-0.1-2.1,0.2-3,0.8c-0.5,0.4-1,0.8-1.5,1.3V119H165z"/>
		<path class="st2" d="M188.1,103.2c0.9,0,1.8,0.2,2.5,0.5c0.8,0.3,1.4,0.7,2,1.3c0.6,0.6,1,1.3,1.3,2.1c0.3,0.8,0.5,1.8,0.5,2.9
			c0,0.4,0,0.7-0.1,0.8c-0.1,0.1-0.3,0.2-0.5,0.2h-10.1c0,1,0.1,1.8,0.4,2.5c0.2,0.7,0.6,1.3,1,1.8s0.9,0.8,1.5,1.1
			c0.6,0.2,1.2,0.4,2,0.4c0.7,0,1.2-0.1,1.7-0.2c0.5-0.2,0.9-0.3,1.3-0.5s0.6-0.3,0.9-0.5c0.2-0.2,0.4-0.2,0.6-0.2
			c0.2,0,0.4,0.1,0.5,0.3l0.8,1c-0.3,0.4-0.7,0.7-1.2,1s-1,0.5-1.5,0.7s-1.1,0.3-1.6,0.4s-1.1,0.1-1.7,0.1c-1,0-2-0.2-2.9-0.5
			c-0.9-0.4-1.6-0.9-2.3-1.6c-0.6-0.7-1.1-1.5-1.5-2.5s-0.5-2.2-0.5-3.5c0-1.1,0.2-2,0.5-3c0.3-0.9,0.8-1.7,1.4-2.4s1.4-1.2,2.2-1.6
			S187,103.2,188.1,103.2z M188.1,105.8c-1.3,0-2.3,0.4-3,1.1s-1.2,1.8-1.4,3.1h8.3c0-0.6-0.1-1.2-0.3-1.7s-0.4-1-0.8-1.3
			s-0.7-0.7-1.2-0.9C189.3,105.9,188.7,105.8,188.1,105.8z"/>
		<path class="st2" d="M198,119l0-15h1.3c0.3-0.2,0.5-0.1,0.6,0s0.2,0.3,0.2,0.6l0.2,2.4c0.5-1.1,1.2-1.9,1.9-2.5
			c0.8-0.6,1.7-0.9,2.7-0.9c0.4,0,0.8,0,1.1,0.1s0.7,0.2,0.9,0.4l-0.3,2c-0.1,0.3-0.2,0.4-0.5,0.4c-0.1,0-0.4,0-0.6-0.1
			s-0.7-0.1-1.2-0.1c-0.9,0-1.7,0.3-2.3,0.8s-1.1,1.3-1,2.4v9.5H198L198,119L198,119z"/>
		<path class="st2" d="M215.8,119.9c-0.1,0.3-0.3,0.6-0.6,0.8c-0.3,0.2-0.6,0.3-0.8,0.3h-1.1l9.2-23c0.1-0.3,0.3-0.6,0.6-0.7
			c0.2-0.2,0.5-0.3,0.9-0.3h1.1L215.8,119.9z"/>
		<path class="st2" d="M243.3,119c-0.4,0-0.6-0.2-0.7-0.6l-0.2-1.8c-0.6,0.8-1.4,1.4-2.2,1.9s-1.8,0.7-2.9,0.7
			c-0.9,0-1.7-0.2-2.4-0.5s-1.3-0.8-1.8-1.5s-0.9-1.5-1.2-2.4c-0.3-1-0.4-2.1-0.4-3.3c0-1.1,0.1-2.2,0.4-3.1c0.3-1,0.7-1.8,1.3-2.5
			s1.3-1.3,2.1-1.7s1.7-0.6,2.8-0.6c0.9,0,1.7,0.2,2.4,0.5s1.3,0.8,1.5,1.3V97h3v22H243.3z M237.9,117c0.9,0,1.6-0.2,2.3-0.6
			s1.3-1,1.8-1.7v-7.3c-0.5-0.7-1-1.1-1.6-1.4s-1.2-0.4-1.9-0.4c-1.4,0-2.5,0.5-3.3,1.5s-1.1,2.5-1.1,4.3c0,1,0.1,1.8,0.3,2.5
			s0.4,1.3,0.8,1.7c0.3,0.5,0.7,0.8,1.2,1S237.2,117,237.9,117z"/>
		<path class="st2" d="M255.4,103.2c0.9,0,1.8,0.2,2.5,0.5c0.8,0.3,1.4,0.7,2,1.3c0.6,0.6,1,1.3,1.3,2.1c0.3,0.8,0.5,1.8,0.5,2.9
			c0,0.4,0,0.7-0.1,0.8c-0.1,0.1-0.3,0.2-0.5,0.2H251c0,1,0.1,1.8,0.4,2.5c0.2,0.7,0.6,1.3,1,1.8s0.9,0.8,1.5,1.1
			c0.6,0.2,1.2,0.4,2,0.4c0.7,0,1.2-0.1,1.7-0.2c0.5-0.2,0.9-0.3,1.3-0.5s0.6-0.3,0.9-0.5c0.2-0.2,0.4-0.2,0.6-0.2s0.4,0.1,0.5,0.3
			l0.8,1c-0.3,0.4-0.7,0.7-1.2,1s-1,0.5-1.5,0.7s-1.1,0.3-1.6,0.4s-1.1,0.1-1.7,0.1c-1,0-2-0.2-2.9-0.5c-0.9-0.4-1.6-0.9-2.3-1.6
			c-0.6-0.7-1.1-1.5-1.5-2.5s-0.5-2.2-0.5-3.5c0-1.1,0.2-2,0.5-3c0.3-0.9,0.8-1.7,1.4-2.4s1.4-1.2,2.2-1.6S254.3,103.2,255.4,103.2z
			 M255.5,105.8c-1.3,0-2.3,0.4-3,1.1s-1.2,1.8-1.4,3.1h8.3c0-0.6-0.1-1.2-0.3-1.7c-0.2-0.5-0.4-1-0.8-1.3s-0.7-0.7-1.2-0.9
			C256.6,105.9,256.1,105.8,255.5,105.8z"/>
		<path class="st2" d="M273.8,106.3c-0.1,0.2-0.3,0.3-0.6,0.3c-0.1,0-0.3-0.1-0.5-0.2s-0.4-0.2-0.7-0.4s-0.6-0.3-1-0.4
			s-0.8-0.2-1.4-0.2c-0.4,0-0.9,0.1-1.2,0.2s-0.7,0.3-0.9,0.5c-0.3,0.2-0.5,0.4-0.6,0.7c-0.1,0.3-0.2,0.6-0.2,0.9
			c0,0.4,0.1,0.7,0.3,1s0.5,0.5,0.9,0.7s0.8,0.4,1.3,0.5s1,0.3,1.4,0.5s1,0.3,1.4,0.5c0.5,0.2,0.9,0.5,1.3,0.8s0.7,0.7,0.9,1.1
			c0.2,0.4,0.3,1,0.3,1.6c0,0.7-0.1,1.3-0.4,1.9s-0.6,1.1-1.1,1.5s-1.1,0.8-1.8,1s-1.5,0.4-2.5,0.4c-1.1,0-2-0.2-2.9-0.5
			s-1.6-0.8-2.2-1.3l0.6-1c0.1-0.1,0.2-0.2,0.3-0.3c0.1-0.1,0.3-0.1,0.4-0.1c0.2,0,0.4,0.1,0.6,0.2s0.4,0.3,0.7,0.5
			c0.3,0.2,0.6,0.3,1,0.5c0.4,0.1,0.9,0.2,1.5,0.2c0.5,0,1-0.1,1.4-0.2s0.7-0.3,1-0.5s0.5-0.5,0.6-0.8s0.2-0.6,0.2-1s-0.1-0.8-0.3-1
			c-0.2-0.3-0.5-0.5-0.9-0.7s-0.8-0.4-1.3-0.5s-1-0.3-1.5-0.5s-1-0.3-1.5-0.5s-0.9-0.5-1.3-0.8s-0.7-0.7-0.9-1.1s-0.3-1-0.3-1.7
			c0-0.6,0.1-1.1,0.4-1.7c0.2-0.5,0.6-1,1.1-1.4s1-0.7,1.7-1s1.4-0.4,2.3-0.4c1,0,1.9,0.2,2.7,0.5c0.8,0.3,1.5,0.7,2.1,1.3
			L273.8,106.3z"/>
		<path class="st2" d="M281.7,99c0,0.3-0.1,0.5-0.2,0.7s-0.2,0.4-0.4,0.6c-0.2,0.2-0.4,0.3-0.6,0.4s-0.5,0.1-0.7,0.1
			c-0.3,0-0.5,0-0.7-0.1s-0.4-0.2-0.6-0.4c-0.2-0.2-0.3-0.4-0.4-0.6S278,99.2,278,99s0-0.5,0.1-0.7s0.2-0.4,0.4-0.6
			c0.2-0.2,0.4-0.3,0.6-0.4s0.5-0.1,0.7-0.1c0.3,0,0.5,0,0.7,0.1s0.4,0.2,0.6,0.4c0.2,0.2,0.3,0.4,0.4,0.6
			C281.7,98.5,281.7,98.8,281.7,99z M281,104v15h-3v-15H281z"/>
		<path class="st2" d="M291.6,103.2c0.7,0,1.3,0.1,1.8,0.2c0.6,0.1,1.1,0.4,1.6,0.6h4v1c0,0.3-0.2,0.5-0.6,0.6l-1.7,0.2
			c0.3,0.7,0.5,1.4,0.5,2.1c0,0.7-0.1,1.4-0.4,1.9s-0.7,1.1-1.2,1.6c-0.5,0.4-1.1,0.8-1.8,1c-0.7,0.2-1.5,0.3-2.2,0.3
			c-0.7,0-1.4-0.1-1.9-0.3c-0.3,0.2-0.6,0.4-0.7,0.7c-0.2,0.2-0.2,0.5-0.2,0.7c0,0.4,0.1,0.7,0.4,0.8s0.7,0.3,1.2,0.4s1,0.1,1.6,0.1
			s1.2,0,1.8,0c0.6,0,1.3,0.1,1.8,0.2s1.2,0.3,1.6,0.5s0.9,0.6,1.2,1c0.3,0.4,0.4,1,0.4,1.7s-0.2,1.3-0.5,1.8s-0.8,1.2-1.4,1.6
			c-0.6,0.5-1.4,0.9-2.1,1.2c-0.9,0.3-1.8,0.4-2.9,0.4s-2-0.1-2.8-0.3s-1.5-0.5-2-0.9c-0.6-0.4-1-0.8-1.2-1.3
			c-0.3-0.5-0.4-1-0.4-1.5c0-0.8,0.2-1.4,0.7-1.8s1.1-0.9,1.9-1.3c-0.4-0.2-0.8-0.5-1-0.8c-0.3-0.3-0.4-0.8-0.4-1.3
			c0-0.2,0-0.4,0.1-0.7c0.1-0.2,0.2-0.5,0.4-0.7c0.2-0.2,0.4-0.4,0.6-0.7c0.2-0.2,0.5-0.4,0.8-0.6c-0.8-0.4-1.3-1-1.8-1.7
			c-0.4-0.7-0.6-1.5-0.6-2.3c0-0.7,0.1-1.4,0.4-1.9c0.3-0.6,0.7-1.1,1.2-1.5s1.1-0.8,1.8-1C290,103.4,290.8,103.2,291.6,103.2z
			 M295.7,119.8c0-0.4-0.1-0.7-0.3-0.9s-0.5-0.4-0.9-0.5s-0.8-0.2-1.2-0.3c-0.5-0.1-1-0.1-1.5-0.1s-1,0-1.6,0s-1.1-0.1-1.5-0.2
			c-0.6,0.3-1,0.6-1.4,1s-0.5,0.9-0.5,1.4c0,0.3,0.1,0.7,0.3,1c0.2,0.3,0.4,0.6,0.8,0.8c0.4,0.2,0.8,0.4,1.4,0.5
			c0.5,0.1,1.2,0.2,1.9,0.2c0.7,0,1.4-0.1,1.9-0.2s1.1-0.3,1.4-0.6c0.4-0.2,0.7-0.5,0.9-0.9C295.6,120.6,295.7,120.2,295.7,119.8z
			 M290.9,111.6c0.5,0,1-0.1,1.4-0.2s0.8-0.4,1-0.6c0.3-0.3,0.5-0.6,0.6-1s0.2-0.8,0.2-1.2c0-0.9-0.3-1.7-0.8-2.2s-1.4-0.8-2.5-0.8
			s-1.9,0.3-2.5,0.8s-0.8,1.3-0.8,2.2c0,0.5,0.1,0.9,0.2,1.2c0.1,0.4,0.4,0.7,0.6,1c0.3,0.3,0.6,0.5,1,0.6
			C289.9,111.5,290.4,111.6,290.9,111.6z"/>
		<path class="st2" d="M301,119v-15h1.7c0.4,0,0.6,0.2,0.7,0.6l0.2,1.6c0.7-0.7,1.4-1.3,2.3-1.8s1.9-0.7,2.9-0.7
			c0.8,0,1.7,0.1,2.3,0.4c0.6,0.3,1.2,0.7,1.7,1.2s0.7,1.1,1,1.8c0.3,0.7,0.3,1.5,0.3,2.4v9.6h-3v-9.7c0-1.2-0.3-2-0.8-2.7
			c-0.4-0.6-1-0.9-1.7-1c-1.1-0.1-2.1,0.2-3,0.8c-0.5,0.4-1,0.8-1.5,1.3V119H301z"/>
		<path class="st2" d="M323.9,103.2c0.9,0,1.8,0.2,2.5,0.5c0.8,0.3,1.4,0.7,2,1.3c0.6,0.6,1,1.3,1.3,2.1c0.3,0.8,0.5,1.8,0.5,2.9
			c0,0.4,0,0.7-0.1,0.8c-0.1,0.1-0.3,0.2-0.5,0.2h-10.1c0,1,0.1,1.8,0.4,2.5c0.2,0.7,0.6,1.3,1,1.8s0.9,0.8,1.5,1.1
			c0.6,0.2,1.2,0.4,2,0.4c0.7,0,1.2-0.1,1.7-0.2c0.5-0.2,0.9-0.3,1.3-0.5s0.6-0.3,0.9-0.5c0.2-0.2,0.4-0.2,0.6-0.2s0.4,0.1,0.5,0.3
			l0.8,1c-0.3,0.4-0.7,0.7-1.2,1s-1,0.5-1.5,0.7s-1.1,0.3-1.6,0.4s-1.1,0.1-1.7,0.1c-1,0-2-0.2-2.9-0.5c-0.9-0.4-1.6-0.9-2.3-1.6
			c-0.6-0.7-1.1-1.5-1.5-2.5s-0.5-2.2-0.5-3.5c0-1.1,0.2-2,0.5-3c0.3-0.9,0.8-1.7,1.4-2.4s1.4-1.2,2.2-1.6S322.8,103.2,323.9,103.2z
			 M323.9,105.8c-1.3,0-2.3,0.4-3,1.1s-1.2,1.8-1.4,3.1h8.3c0-0.6-0.1-1.2-0.3-1.7c-0.2-0.5-0.4-1-0.8-1.3s-0.7-0.7-1.2-0.9
			C325.1,105.9,324.5,105.8,323.9,105.8z"/>
		<path class="st2" d="M333,119l0-15h2.1c0.3-0.2,0.5-0.1,0.6,0s0.2,0.3,0.2,0.6l0.2,2.4c0.5-1.1,1.2-1.9,1.9-2.5
			c0.8-0.6,1.7-0.9,2.7-0.9c0.4,0,0.8,0,1.1,0.1c0.3,0.1,0.7,0.2,0.9,0.4l-0.3,2c-0.1,0.3-0.2,0.4-0.5,0.4c-0.1,0-0.4,0-0.6-0.1
			s-0.7-0.1-1.2-0.1c-0.9,0-1.7,0.3-2.3,0.8c-0.6,0.5-1.1,1.3-1.8,2.4v9.5H333L333,119L333,119z"/>
		<path class="st2" d="M351.6,119.9c-0.1,0.3-0.3,0.6-0.6,0.8c-0.3,0.2-0.6,0.3-0.8,0.3h-1.1l9.2-23c0.1-0.3,0.3-0.6,0.6-0.7
			c0.2-0.2,0.5-0.3,0.9-0.3h1.1L351.6,119.9z"/>
		<path class="st2" d="M374.4,103.2c0.9,0,1.8,0.2,2.5,0.5c0.8,0.3,1.4,0.7,2,1.3c0.6,0.6,1,1.3,1.3,2.1c0.3,0.8,0.5,1.8,0.5,2.9
			c0,0.4,0,0.7-0.1,0.8s-0.3,0.2-0.5,0.2H370c0,1,0.2,1.8,0.4,2.5c0.2,0.7,0.6,1.3,1,1.8s0.9,0.8,1.5,1.1c0.6,0.2,1.2,0.4,2,0.4
			c0.7,0,1.2-0.1,1.7-0.2c0.5-0.2,0.9-0.3,1.3-0.5c0.3-0.2,0.6-0.3,0.9-0.5c0.2-0.2,0.4-0.2,0.6-0.2s0.4,0.1,0.5,0.3l0.8,1
			c-0.3,0.4-0.7,0.7-1.2,1s-1,0.5-1.5,0.7s-1.1,0.3-1.6,0.4c-0.6,0.1-1.1,0.1-1.7,0.1c-1.1,0-2-0.2-2.9-0.5
			c-0.9-0.4-1.6-0.9-2.3-1.6c-0.6-0.7-1.1-1.5-1.5-2.5s-0.5-2.2-0.5-3.5c0-1.1,0.2-2,0.5-3c0.3-0.9,0.8-1.7,1.4-2.4
			c0.6-0.7,1.4-1.2,2.2-1.6C372.3,103.4,373.3,103.2,374.4,103.2z M374.5,105.8c-1.3,0-2.3,0.4-3,1.1s-1.2,1.8-1.4,3.1h8.3
			c0-0.6-0.1-1.2-0.3-1.7c-0.2-0.5-0.4-1-0.8-1.3s-0.7-0.7-1.2-0.9C375.6,105.9,375.1,105.8,374.5,105.8z"/>
		<path class="st2" d="M384,119v-15h1.7c0.4,0,0.6,0.2,0.7,0.6l0.2,1.6c0.7-0.7,1.4-1.3,2.3-1.8c0.8-0.5,1.9-0.7,2.9-0.7
			c0.8,0,1.7,0.1,2.3,0.4c0.6,0.3,1.2,0.7,1.7,1.2s0.7,1.1,1,1.8c0.3,0.7,0.3,1.5,0.3,2.4v9.6h-3v-9.7c0-1.2-0.3-2-0.8-2.7
			c-0.5-0.6-1.3-1-2.5-1c-0.7,0-1.4,0.3-2.1,0.7c-0.6,0.4-1.2,0.9-1.7,1.4V119H384z"/>
		<path class="st2" d="M406.6,103.2c0.7,0,1.3,0.1,1.8,0.2c0.6,0.1,1.1,0.4,1.6,0.6h4v1c0,0.3-0.2,0.5-0.6,0.6l-1.7,0.2
			c0.3,0.7,0.5,1.4,0.5,2.1c0,0.7-0.1,1.4-0.4,1.9s-0.7,1.1-1.2,1.6c-0.5,0.4-1.1,0.8-1.8,1c-0.7,0.2-1.5,0.3-2.2,0.3
			c-0.7,0-1.4-0.1-1.9-0.3c-0.3,0.2-0.6,0.4-0.7,0.7c-0.2,0.2-0.2,0.5-0.2,0.7c0,0.4,0.1,0.7,0.4,0.8s0.7,0.3,1.2,0.4s1,0.1,1.6,0.1
			s1.2,0,1.8,0c0.6,0,1.3,0.1,1.8,0.2s1.2,0.3,1.6,0.5c0.5,0.3,0.9,0.6,1.2,1c0.3,0.4,0.4,1,0.4,1.7s-0.2,1.3-0.5,1.8
			s-0.8,1.2-1.4,1.6c-0.6,0.5-1.4,0.9-2.1,1.2c-0.9,0.3-1.8,0.4-2.9,0.4s-2-0.1-2.8-0.3s-1.5-0.5-2-0.9c-0.6-0.4-1-0.8-1.2-1.3
			c-0.3-0.5-0.4-1-0.4-1.5c0-0.8,0.2-1.4,0.7-1.8s1.1-0.9,1.9-1.3c-0.4-0.2-0.8-0.5-1-0.8c-0.3-0.3-0.4-0.8-0.4-1.3
			c0-0.2,0-0.4,0.1-0.7c0.1-0.2,0.2-0.5,0.4-0.7c0.2-0.2,0.4-0.4,0.6-0.7c0.2-0.2,0.5-0.4,0.8-0.6c-0.8-0.4-1.3-1-1.8-1.7
			c-0.4-0.7-0.6-1.5-0.6-2.3c0-0.7,0.1-1.4,0.4-1.9c0.3-0.6,0.7-1.1,1.2-1.5s1.1-0.8,1.8-1C405,103.4,405.8,103.2,406.6,103.2z
			 M410.7,119.8c0-0.4-0.1-0.7-0.3-0.9c-0.2-0.2-0.5-0.4-0.9-0.5s-0.8-0.2-1.2-0.3c-0.5-0.1-1-0.1-1.5-0.1s-1,0-1.6,0
			s-1.1-0.1-1.5-0.2c-0.6,0.3-1,0.6-1.4,1s-0.5,0.9-0.5,1.4c0,0.3,0.1,0.7,0.3,1c0.2,0.3,0.4,0.6,0.8,0.8c0.4,0.2,0.8,0.4,1.4,0.5
			s1.2,0.2,1.9,0.2c0.7,0,1.4-0.1,1.9-0.2s1.1-0.3,1.4-0.6c0.4-0.2,0.7-0.5,0.9-0.9C410.6,120.6,410.7,120.2,410.7,119.8z
			 M405.9,111.6c0.5,0,1-0.1,1.4-0.2s0.8-0.4,1-0.6c0.3-0.3,0.5-0.6,0.6-1s0.2-0.8,0.2-1.2c0-0.9-0.3-1.7-0.8-2.2
			c-0.6-0.5-1.4-0.8-2.5-0.8s-1.9,0.3-2.5,0.8s-0.8,1.3-0.8,2.2c0,0.5,0.1,0.9,0.2,1.2c0.1,0.4,0.4,0.7,0.6,1c0.3,0.3,0.6,0.5,1,0.6
			C404.9,111.5,405.4,111.6,405.9,111.6z"/>
		<path class="st2" d="M419.7,99c0,0.3-0.1,0.5-0.2,0.7s-0.2,0.4-0.4,0.6s-0.4,0.3-0.6,0.4s-0.5,0.1-0.7,0.1s-0.5,0-0.7-0.1
			s-0.4-0.2-0.6-0.4s-0.3-0.4-0.4-0.6S416,99.2,416,99s0-0.5,0.1-0.7s0.2-0.4,0.4-0.6s0.4-0.3,0.6-0.4s0.5-0.1,0.7-0.1
			s0.5,0,0.7,0.1s0.4,0.2,0.6,0.4s0.3,0.4,0.4,0.6C419.7,98.5,419.7,98.8,419.7,99z M419,104v15h-3v-15H419z"/>
		<path class="st2" d="M424,119v-15h1.7c0.4,0,0.6,0.2,0.7,0.6l0.2,1.6c0.7-0.7,1.4-1.3,2.3-1.8c0.8-0.5,1.9-0.7,2.9-0.7
			c0.8,0,1.7,0.1,2.3,0.4c0.6,0.3,1.2,0.7,1.7,1.2s0.7,1.1,1,1.8c0.3,0.7,0.3,1.5,0.3,2.4v9.6h-3v-9.7c0-1.2-0.3-2-0.8-2.7
			c-0.5-0.6-1.3-1-2.5-1c-0.7,0-1.4,0.3-2.1,0.7c-0.6,0.4-1.2,0.9-1.7,1.4V119H424z"/>
		<path class="st2" d="M446.5,103.2c0.9,0,1.8,0.2,2.5,0.5c0.8,0.3,1.4,0.7,2,1.3c0.6,0.6,1,1.3,1.3,2.1c0.3,0.8,0.5,1.8,0.5,2.9
			c0,0.4,0,0.7-0.1,0.8s-0.3,0.2-0.5,0.2h-10.1c0,1,0.2,1.8,0.4,2.5c0.2,0.7,0.6,1.3,1,1.8s0.9,0.8,1.5,1.1c0.6,0.2,1.2,0.4,2,0.4
			c0.7,0,1.2-0.1,1.7-0.2c0.5-0.2,0.9-0.3,1.3-0.5c0.3-0.2,0.6-0.3,0.9-0.5c0.2-0.2,0.4-0.2,0.6-0.2s0.4,0.1,0.5,0.3l0.8,1
			c-0.3,0.4-0.7,0.7-1.2,1s-1,0.5-1.5,0.7s-1.1,0.3-1.6,0.4c-0.6,0.1-1.1,0.1-1.7,0.1c-1.1,0-2-0.2-2.9-0.5
			c-0.9-0.4-1.6-0.9-2.3-1.6c-0.6-0.7-1.1-1.5-1.5-2.5s-0.5-2.2-0.5-3.5c0-1.1,0.2-2,0.5-3c0.3-0.9,0.8-1.7,1.4-2.4
			c0.6-0.7,1.4-1.2,2.2-1.6C444.4,103.4,445.4,103.2,446.5,103.2z M446.6,105.8c-1.3,0-2.3,0.4-3,1.1s-1.2,1.8-1.4,3.1h8.3
			c0-0.6-0.1-1.2-0.3-1.7c-0.2-0.5-0.4-1-0.8-1.3s-0.7-0.7-1.2-0.9C447.7,105.9,447.2,105.8,446.6,105.8z"/>
		<path class="st2" d="M462.2,103.2c0.9,0,1.8,0.2,2.5,0.5c0.8,0.3,1.4,0.7,2,1.3c0.6,0.6,1,1.3,1.3,2.1c0.3,0.8,0.5,1.8,0.5,2.9
			c0,0.4,0,0.7-0.1,0.8s-0.3,0.2-0.5,0.2h-10.1c0,1,0.2,1.8,0.4,2.5c0.2,0.7,0.6,1.3,1,1.8s0.9,0.8,1.5,1.1c0.6,0.2,1.2,0.4,2,0.4
			c0.7,0,1.2-0.1,1.7-0.2c0.5-0.2,0.9-0.3,1.3-0.5c0.3-0.2,0.6-0.3,0.9-0.5c0.2-0.2,0.4-0.2,0.6-0.2s0.4,0.1,0.5,0.3l0.8,1
			c-0.3,0.4-0.7,0.7-1.2,1s-1,0.5-1.5,0.7s-1.1,0.3-1.6,0.4c-0.6,0.1-1.1,0.1-1.7,0.1c-1.1,0-2-0.2-2.9-0.5
			c-0.9-0.4-1.6-0.9-2.3-1.6c-0.6-0.7-1.1-1.5-1.5-2.5s-0.5-2.2-0.5-3.5c0-1.1,0.2-2,0.5-3c0.3-0.9,0.8-1.7,1.4-2.4
			c0.6-0.7,1.4-1.2,2.2-1.6C460.1,103.4,461.1,103.2,462.2,103.2z M462.3,105.8c-1.3,0-2.3,0.4-3,1.1s-1.2,1.8-1.4,3.1h8.3
			c0-0.6-0.1-1.2-0.3-1.7c-0.2-0.5-0.4-1-0.8-1.3s-0.7-0.7-1.2-0.9C463.4,105.9,462.9,105.8,462.3,105.8z"/>
		<path class="st2" d="M472,119l0-15h1.4c0.3-0.2,0.5-0.1,0.6,0s0.2,0.3,0.2,0.6l0.2,2.4c0.5-1.1,1.2-1.9,1.9-2.5
			c0.8-0.6,1.7-0.9,2.7-0.9c0.4,0,0.8,0,1.1,0.1c0.3,0.1,0.7,0.2,0.9,0.4l-0.3,2c-0.1,0.3-0.2,0.4-0.5,0.4c-0.1,0-0.4,0-0.6-0.1
			s-0.7-0.1-1.2-0.1c-0.9,0-1.7,0.3-2.3,0.8s-1.1,1.3-1.1,2.4v9.5H472L472,119L472,119z"/>
	</g>
</g>
</svg>
