<?xml version="1.0" encoding="utf-8"?>
<!-- Generator: Adobe Illustrator 23.0.1, SVG Export Plug-In . SVG Version: 6.00 Build 0)  -->
<svg version="1.1" id="Layer_1" xmlns="http://www.w3.org/2000/svg" xmlns:xlink="http://www.w3.org/1999/xlink" x="0px" y="0px"
	 viewBox="0 0 683 126" style="enable-background:new 0 0 683 126;" xml:space="preserve">
<style type="text/css">
	.st0{fill:none;}
	.st1{enable-background:new    ;}
	.st2{fill:#FFFFFF;}
	.st3{fill:#FF01CB;}
</style>
<rect y="-1.4" width="683" height="127.4"/>
<g>
	<g>
		<rect class="st0" width="683" height="106.9"/>
	</g>
	<g id="Brand">
		<g class="st1">
			<path class="st2" d="M13.9,82.7H4.1l22.2-80l22.2,80h-9.8L26.3,39L13.9,82.7z"/>
			<path class="st2" d="M59.1,47.8v34.8h-9.4V12.3l23.6,41.5l23.6-41.5v70.4h-9.4V47.8l-14.2,25L59.1,47.8z"/>
			<path class="st2" d="M144,16.7v9.4h-33v28.3h33v9.4h-33v9.4h33v9.4h-42.4v-66L144,16.7L144,16.7z"/>
			<path class="st2" d="M148.7,16.7h9.4v56.6h33v9.4h-42.4L148.7,16.7L148.7,16.7z"/>
			<path class="st2" d="M203.9,82.7h-9.4v-66h9.4V82.7z"/>
			<path class="st2" d="M214.9,82.7h-9.8l22.2-80l22.2,80h-9.8L227.4,39L214.9,82.7z"/>
			<path class="st2" d="M300.4,16.7h14.1v9.4h-14.1c-6.5,0-12.1,2.3-16.7,6.9s-6.9,10.2-6.9,16.7s2.3,12.1,6.9,16.7
				s10.2,6.9,16.7,6.9h4.7V54.4h-9.4V45h18.9v37.7h-14.1c-9.1,0-16.9-3.2-23.3-9.7c-6.4-6.4-9.7-14.2-9.7-23.3s3.2-16.9,9.7-23.3
				C283.5,19.9,291.3,16.7,300.4,16.7z"/>
			<path class="st2" d="M349.6,82.7c-9.1,0-16.9-3.2-23.3-9.7c-6.4-6.4-9.7-14.2-9.7-23.3s3.2-16.9,9.7-23.3
				c6.4-6.4,14.2-9.7,23.3-9.7c9.1,0,16.9,3.2,23.3,9.7c6.4,6.4,9.7,14.2,9.7,23.3s-3.2,16.9-9.7,23.3
				C366.5,79.5,358.7,82.7,349.6,82.7z M349.6,73.3c6.5,0,12.1-2.3,16.7-6.9s6.9-10.2,6.9-16.7s-2.3-12.1-6.9-16.7
				s-10.2-6.9-16.7-6.9s-12.1,2.3-16.7,6.9S326,43.2,326,49.7s2.3,12.1,6.9,16.7S343.1,73.3,349.6,73.3z"/>
			<path class="st2" d="M418.5,82.7c-9.1,0-16.9-3.2-23.3-9.7c-6.4-6.4-9.7-14.2-9.7-23.3s3.2-16.9,9.7-23.3
				c6.4-6.4,14.2-9.7,23.3-9.7c9.1,0,16.9,3.2,23.3,9.7c6.4,6.4,9.7,14.2,9.7,23.3s-3.2,16.9-9.7,23.3
				C435.4,79.5,427.6,82.7,418.5,82.7z M418.5,73.3c6.5,0,12.1-2.3,16.7-6.9s6.9-10.2,6.9-16.7s-2.3-12.1-6.9-16.7
				s-10.2-6.9-16.7-6.9s-12.1,2.3-16.7,6.9s-6.9,10.2-6.9,16.7s2.3,12.1,6.9,16.7S412,73.3,418.5,73.3z"/>
			<path class="st2" d="M469.2,16.7c9.1,0,16.9,3.2,23.3,9.7c6.4,6.4,9.7,14.2,9.7,23.3S499,66.6,492.5,73
				c-6.4,6.4-14.2,9.7-23.3,9.7H455v-66C455,16.7,469.2,16.7,469.2,16.7z M469.2,73.3c6.5,0,12.1-2.3,16.7-6.9s6.9-10.2,6.9-16.7
				s-2.3-12.1-6.9-16.7s-10.2-6.9-16.7-6.9h-4.7v47.1h4.7V73.3z"/>
			<path class="st2" d="M522.1,16.7c5.2,0,9.7,1.8,13.3,5.5s5.5,8.1,5.5,13.3h-9.4c0-2.6-0.9-4.8-2.8-6.7c-1.8-1.8-4.1-2.8-6.7-2.8
				c-2.6,0-4.8,0.9-6.7,2.8c-1.8,1.8-2.8,4.1-2.8,6.7c0,4.1,4.7,7.8,14.1,11.1c9.4,3.3,14.1,9,14.1,17.2c0,5.2-1.8,9.7-5.5,13.3
				s-8.1,5.5-13.3,5.5s-9.7-1.8-13.3-5.5s-5.5-8.1-5.5-13.3h9.4c0,2.6,0.9,4.8,2.8,6.7c1.8,1.8,4.1,2.8,6.7,2.8
				c2.6,0,4.8-0.9,6.7-2.8c1.8-1.8,2.8-4.1,2.8-6.7c0-4.1-4.7-7.8-14.1-11.1c-9.4-3.3-14.1-9-14.1-17.2c0-5.2,1.8-9.7,5.5-13.3
				C512.5,18.6,516.8,16.7,522.1,16.7z"/>
		</g>
		<g class="st1">
			<path class="st2" d="M639.5,38.4v44.3H630V2.8L663,61V16.7h9.4v79.9L639.5,38.4z"/>
		</g>
	</g>
</g>
<path class="st3" d="M634.9,65.5L634.9,65.5c0-0.2,0-0.2,0-0.2v-0.1v-0.1V65c0,0,0-0.1-0.1-0.1v-0.1l-0.1-0.1c0,0,0,0,0-0.1
	c-0.1-0.1-0.1-0.1-0.2-0.2l0,0c-0.1,0-0.1-0.1-0.2-0.1c-7.3-3.6-10-12.1-6.2-18.9c1.2-2.2,3.1-4,5.3-5.3l0.1-0.1l0.1-0.1l0.1-0.1
	c0,0,0,0,0-0.1c0.1-0.1,0.1-0.1,0.1-0.2l0,0c0-0.1,0.1-0.1,0.1-0.2v-0.1c0,0,0-0.1,0-0.2v-0.2v-0.2v-0.1c0.1-0.1,0-0.2,0-0.2
	c0-0.1-0.1-0.2-0.1-0.2s0,0,0-0.1s-0.1-0.1-0.1-0.1s0,0-0.1-0.1l-0.1-0.1c0,0,0,0-0.1-0.1c-0.1,0-0.1-0.1-0.2-0.1l0,0
	c-0.1-0.1-0.1-0.1-0.2-0.1c0,0,0,0-0.1,0s-0.1,0-0.2-0.2h-0.1h-0.1c-7.7-0.2-13.7-6.6-13.4-14.3c0.1-2.3,0.8-4.6,1.9-6.6
	c0,0,0-0.1,0.1-0.1v-0.1c0-0.1-0.2-0.2-0.2-0.2l0,0l0.3-0.2v-0.1v-0.2v-0.1c0-0.1-0.1-0.1-0.1-0.1v-0.1c0,0,0-0.1-0.1-0.1v-0.1
	c0-0.1-0.1-0.1-0.2-0.2c-0.1-0.1-0.1-0.1-0.2-0.2h-0.1l-0.1-0.1h-0.1h-0.1l-0.1-0.1h-0.2h-0.1c-0.1,0-0.2,0.3-0.2,0.3l0,0l-0.2-0.2
	h-0.1l-0.1,0.1c-6.7,3.9-15.2,1.6-19.1-5.1c-1.3-2.3-2-4.9-1.9-7.5V2l0,0c0.1-0.1,0-0.2,0-0.2s0,0,0-0.1c0,0,0-0.1-0.1-0.2
	c0-0.1,0-0.1,0-0.1L598,1.3c0,0,0-0.1-0.1-0.1l-0.1-0.1L597.7,1l-0.1-0.1h-0.1C598,1,597.9,1,597.9,1c-0.2,0.1-0.3,0-0.4,0h-0.1
	h-0.2h-0.1c0,0-0.1,0-0.1,0h-0.1c-0.1,0-0.1,0-0.2,0.1h-0.1c-0.1,0-0.1,0.1-0.1,0.1v0.1c0,0-0.2,0.1-0.2,0.2l0,0
	c-0.1,0.1-0.1,0.1-0.1,0.2c-2.4,4.6-7.2,7.4-12.3,7.4c-4.8,0-9.3-2.5-11.9-6.6l0-0.1c0,0,0-0.1-0.1-0.1l-0.1-0.1l0,0
	c-0.1-0.1-0.1-0.1-0.2-0.2l0,0c-0.1,0-0.1-0.1-0.2-0.1h-0.1c-0.1,0-0.1,0-0.2,0.3H571h-0.2h-0.1c-0.1-0.3-0.2-0.3-0.2-0.3
	c-0.1,0-0.2,0.1-0.2,0.1h-0.1l-0.1,0.1L570,2.2l-0.1,0.1h0.1c0,0.1-0.1,0.1-0.1,0.2l0,0c0,0.1-0.1,0.1-0.1,0.2v0.1
	c0,0.1,0.1,0.2,0.1,0.2l0,0v0.1c-0.3,7.7-6.8,13.7-14.5,13.4c-2.3-0.1-4.6-0.8-6.6-1.9l-0.1-0.1h-0.1c-0.1,0-0.2-0.1-0.2-0.1l0,0
	c-0.1,0-0.2,0.3-0.2,0.3H548h-0.2h-0.1c-0.1-0.3-0.1-0.2-0.1-0.2h-0.1c-0.1,0-0.1,0.1-0.1,0.1h-0.1c-0.1,0-0.1,0.1-0.2,0.2l0,0
	c-0.1,0.1-0.1,0.1-0.2,0.2c0,0,0,0,0,0.1l-0.1,0.1v0.1c0,0.1,0,0.1,0,0.1v0.1c0,0.1,0,0.1-0.2,0.2v0.1c0.1,0.1,0.1,0.1,0,0.2l0,0
	c0.2,0.1,0.2,0.2,0.2,0.2v0.1c0,0,0,0.1,0.1,0.1c3.9,6.7,1.6,15.2-5.1,19.1c-2.3,1.3-7.6,1.8-7.6,1.8H534c0,0-0.1,0.1-0.2,0.1h-0.1
	h-0.1l-0.1,0.1l-0.1,0.1l-0.1,0.1l-0.1,0.1l-0.1,0.1L533,38l-0.1,0.1v0.1c0,0.1-0.1,0.2-0.1,0.2c0,0.1,0,0.2,0,0.2v0.1
	c0,0.1,0,0.1,0,0.2V39c0,0.1,0,0.1,0,0.1v0.1c0,0,0,0.1,0.1,0.1v0.1l0.1,0.1v0.1c0.1,0.1,0.1,0.1,0.2,0.2l0,0c0.1,0,0.1,0.1,0.2,0.1
	c4.6,2.4,7.4,7.2,7.4,12.3c0,4.8-2.5,9.3-6.6,11.9h-0.1l-0.1,0.1l-0.1,0.1l-0.1,0.1c-0.1,0.1-0.2,0.2-0.2,0.2l0,0c0,0,0.1,0.1,0,0.2
	v0.1c0,0,0,0.1,0.3,0.2v0.1V65l0,0c-0.3,0.1-0.3,0.2-0.3,0.2c0,0.1,0,0.1,0.1,0.2v0.1c0,0,0,0.1,0.1,0.1c0,0,0,0.1,0.1,0.1l0.1,0.1
	l0.1,0.1l0.1,0.1l0.1,0.1c0,0,0.1,0,0.1,0.1h0.1h0.1h0.1h0.1l0.1,0.2h0.1c0,0,9.2,2.7,11.6,6.9c2.5,4.4,2.4,9.7-0.1,14
	c0,0,0,0.1-0.1,0.1v0.1c0,0.1-0.1,0.2-0.1,0.2l0,0c0.1,0.1,0,0.2,0.3,0.2V88v0.2l-0.2,0.1c0,0.1,0,0.1,0,0.2v0.1
	c0,0.1,0,0.1,0.1,0.1v0.1c0,0.1,0.1,0.1,0.2,0.2s0.1,0.1,0.2,0.2h0.1l0.1,0.1h0.1h0.1l0.1,0.1h0.2h0.1l0,0c0.1,0,0.2,0,0.2,0l0,0
	c0.1,0,0.1,0,0.2-0.1h0.1h0.1c6.6-3.8,15.2-1.6,19,5.1c1.3,2.3,2,4.9,1.9,7.5c0,0.1,0,0.2,0,0.2l0,0c0,0.1,0,0.2,0.1,0.2v0.1
	c0,0.1,0,0.1,0.1,0.2c0,0,0,0,0,0.1l0.1,0.1l0.1,0.1l0.1,0.1l0.1,0.1l0.1,0.1c0,0,0,0,0.1,0s0.2,0.1,0.2,0.1c0.1,0,0.2,0,0.3,0l0,0
	c0.1,0,0.1,0,0.2,0h0.1h0.1h0.1l0.1-0.1h0.1c0,0,0.1,0,0.1-0.1h0.1c0.1,0,0.1-0.1,0.2-0.1l0,0l0.1-0.1v-0.1c0,0,0,0,0-0.1
	c3.6-6.8,12.1-9.3,18.9-5.7c2.2,1.2,4,2.8,5.3,4.9v0.1l0.1,0.1c0,0,0,0.1,0.1,0.1c0,0,0,0.1,0.1,0.1l0.1,0.1l0.1,0.1l0.1,0.1h0.1
	h0.1h0.1h0.1h0.1h0.1l0,0h0.1h0.1c0.1,0.1,0.1,0,0.2,0c0.1,0,0.2-0.1,0.2-0.1h0.1l0.1-0.1c0,0,0.1,0,0.1-0.1l0.1-0.1
	c0,0,0,0,0.1-0.1c0-0.1,0.1-0.1,0.1-0.2l0,0c0-0.1,0.1-0.1,0.1-0.2c0,0,0,0,0-0.1s0-0.1,0.1-0.2v-0.1v-0.1
	c0.2-7.7,6.7-13.7,14.4-13.4c2.4,0.1,4.7,0.8,6.7,2l0.1,0.1h0.1c0.1,0,0.2,0.1,0.2,0.1l0,0h0.2l0,0h0.1h0.2l0.1-0.1h0.1h0.1
	c0,0,0.1,0,0.1-0.1h0.1c0.1,0,0.1-0.1,0.2-0.2s0.1-0.1,0.2-0.2c0,0,0,0,0-0.1c0,0,0.1-0.1,0.1-0.2V89c0,0,0-0.1,0-0.2l-0.1-0.1v-0.2
	v-0.1c0.1-0.1,0.1-0.2,0.3-0.2l0,0c-0.2-0.1-0.2-0.2-0.3-0.2v-0.1c0,0,0-0.1-0.1-0.1c-3.9-6.7-1.6-15.2,5.1-19.1
	c2.3-1.3,7.5-1.8,7.5-1.8l0,0h0.1h0.1h0.1h0.1l0,0c0.3-0.1,0.6-0.4,0.7-0.6c0-0.1,0.1-0.1,0.1-0.2C634.9,65.7,634.9,65.6,634.9,65.5
	z M628.2,62.6L607.8,57c0.7-3.3,0.7-6.8,0-10.2l20.1-5.3C623,47.7,623.1,56.6,628.2,62.6L628.2,62.6z M562.1,51.9
	c0-1.5,0.2-3,0.5-4.5l16.5,4.5l-16.6,4.4C562.2,54.9,562.1,53.4,562.1,51.9z M600.3,37.5c2,2.2,3.5,4.8,4.4,7.6l-16.5,4.4
	L600.3,37.5z M586.4,47.7l4.5-16.5c2.9,0.9,5.5,2.5,7.7,4.5L586.4,47.7z M583.9,47l-4.4-16.6c2.9-0.6,5.9-0.6,8.9,0L583.9,47z
	 M581.5,47.7l-12-12.1c2.2-2,4.8-3.5,7.6-4.4L581.5,47.7z M579.7,49.5L563.2,45c0.9-2.9,2.5-5.5,4.5-7.7L579.7,49.5z M579.7,54.4
	l-12.1,12c-2-2.2-3.5-4.8-4.4-7.6L579.7,54.4z M581.5,56.2L577,72.7c-2.9-0.9-5.5-2.5-7.7-4.5L581.5,56.2z M583.9,56.8l4.4,16.6
	c-2.9,0.6-5.9,0.6-8.9,0L583.9,56.8z M586.4,56.2l12,12.1c-2.2,2-4.8,3.5-7.6,4.4L586.4,56.2z M588.1,54.4l16.6,4.5
	c-0.9,2.9-2.5,5.5-4.5,7.7L588.1,54.4z M588.8,51.9l16.6-4.4c0.3,1.4,0.4,2.9,0.4,4.4s-0.2,3-0.5,4.5L588.8,51.9z M627.3,39.1
	l-20.1,5.3c-1-3.3-2.8-6.2-5-8.8l14.9-14.8C615.7,28.6,620,36.3,627.3,39.1L627.3,39.1z M604.3,17.1c3.3,1.9,7.2,2.6,11,2
	l-14.9,14.8c-2.6-2.3-5.5-4.1-8.8-5.1l5.5-20.4C598.4,12,600.9,15.1,604.3,17.1z M583.9,11.6c3.9,0,7.7-1.4,10.7-3.9l-5.5,20.4
	c-3.3-0.7-6.8-0.7-10.2,0L573.6,8C576.5,10.3,580.2,11.6,583.9,11.6z M563.9,16.9c3.3-1.9,5.8-4.8,7.2-8.3l5.3,20.1
	c-3.3,1-6.2,2.8-8.8,5.1l-14.8-15C556.7,19.4,560.6,18.8,563.9,16.9z M549.1,31.6c1.9-3.3,2.6-7.2,2-11l14.8,14.9
	c-2.3,2.6-4.1,5.6-5.1,8.9l-20.4-5.5C544,37.5,547.1,35,549.1,31.6z M539.7,41.3l20.4,5.5c-0.7,3.3-0.7,6.8,0,10.2L540,62.3
	c2.4-2.9,3.7-6.6,3.7-10.4C543.6,48,542.2,44.2,539.7,41.3z M540.6,64.7l20.1-5.3c1,3.3,2.8,6.2,5.1,8.8l-15,14.8
	C552.2,75.2,547.9,67.6,540.6,64.7L540.6,64.7z M563.6,86.8c-2.5-1.5-5.4-2.3-8.3-2.3c-0.9,0-1.8,0.1-2.7,0.2l15-14.8
	c2.6,2.3,5.5,4.1,8.8,5.1l-5.5,20.4C569.5,91.9,567,88.8,563.6,86.8L563.6,86.8z M583.9,92.3c-3.9,0-7.7,1.4-10.7,3.9l5.5-20.4
	c3.3,0.7,6.8,0.7,10.2,0l5.3,20.1C591.4,93.6,587.7,92.3,583.9,92.3L583.9,92.3z M603.9,87c-3.3,1.9-5.8,4.8-7.2,8.3l-5.4-20.1
	c3.3-1,6.2-2.7,8.8-5l14.8,15C611.2,84.4,607.3,85.1,603.9,87L603.9,87z M618.8,72.3c-1.9,3.3-2.6,7.2-2,11L602,68.4
	c2.3-2.6,4.1-5.6,5.1-8.8l20.4,5.5C623.9,66.3,620.7,68.9,618.8,72.3z"/>
<g>
</g>
<g>
	<path class="st2" d="M48.7,91.6h2.4c0.3,0,0.5,0.1,0.6,0.2c0.2,0.1,0.3,0.3,0.3,0.5l4.4,14.9c0.1,0.3,0.2,0.6,0.2,0.9
		c0.1,0.3,0.1,0.6,0.2,1c0.1-0.3,0.1-0.7,0.2-1c0.1-0.3,0.1-0.6,0.2-0.9l5.1-14.9c0.1-0.2,0.2-0.3,0.4-0.5s0.4-0.2,0.6-0.2h0.8
		c0.3,0,0.5,0.1,0.6,0.2s0.3,0.3,0.4,0.5l5,14.9c0.2,0.5,0.3,1.1,0.5,1.8c0.1-0.3,0.1-0.6,0.2-0.9c0-0.3,0.1-0.6,0.2-0.8l4.5-14.9
		c0-0.2,0.2-0.3,0.3-0.5c0.2-0.1,0.4-0.2,0.6-0.2h2.3l-6.7,21.5h-2.6l-5.4-16.4c-0.1-0.3-0.2-0.7-0.3-1.1c-0.1,0.2-0.1,0.4-0.1,0.6
		c0,0.2-0.1,0.4-0.1,0.5L58,113.1h-2.6L48.7,91.6z"/>
	<path class="st2" d="M86.8,97.7c0.9,0,1.8,0.2,2.5,0.5c0.8,0.3,1.4,0.7,2,1.3c0.6,0.6,1,1.3,1.3,2.1c0.3,0.8,0.5,1.8,0.5,2.9
		c0,0.4,0,0.7-0.1,0.8c-0.1,0.1-0.3,0.2-0.5,0.2H82.3c0,1,0.1,1.8,0.4,2.5c0.2,0.7,0.6,1.3,1,1.8c0.4,0.5,0.9,0.8,1.5,1.1
		c0.6,0.2,1.2,0.4,2,0.4c0.7,0,1.2-0.1,1.7-0.2c0.5-0.2,0.9-0.3,1.3-0.5s0.6-0.3,0.9-0.5c0.2-0.2,0.4-0.2,0.6-0.2
		c0.2,0,0.4,0.1,0.5,0.3l0.8,1c-0.3,0.4-0.7,0.7-1.2,1c-0.5,0.3-1,0.5-1.5,0.7c-0.5,0.2-1.1,0.3-1.6,0.4s-1.1,0.1-1.7,0.1
		c-1,0-2-0.2-2.9-0.5c-0.9-0.4-1.6-0.9-2.3-1.6c-0.6-0.7-1.1-1.5-1.5-2.5s-0.5-2.2-0.5-3.5c0-1.1,0.2-2,0.5-3
		c0.3-0.9,0.8-1.7,1.4-2.4s1.4-1.2,2.2-1.6S85.7,97.7,86.8,97.7z M86.9,99.7c-1.3,0-2.3,0.4-3,1.1c-0.7,0.7-1.2,1.8-1.4,3.1h8.3
		c0-0.6-0.1-1.2-0.3-1.7c-0.2-0.5-0.4-1-0.8-1.3s-0.7-0.7-1.2-0.9C88,99.8,87.5,99.7,86.9,99.7z"/>
	<path class="st2" d="M96.6,113.1V91h2.7v9.1c0.6-0.7,1.4-1.3,2.2-1.8c0.8-0.4,1.7-0.7,2.8-0.7c0.9,0,1.7,0.2,2.4,0.5
		c0.7,0.3,1.3,0.8,1.8,1.5c0.5,0.7,0.9,1.5,1.2,2.4s0.4,2.1,0.4,3.3c0,1.1-0.1,2.2-0.4,3.1c-0.3,1-0.7,1.8-1.3,2.5s-1.3,1.3-2.1,1.7
		c-0.8,0.4-1.7,0.6-2.8,0.6c-1,0-1.8-0.2-2.5-0.6c-0.7-0.4-1.3-0.9-1.8-1.6l-0.1,1.4c-0.1,0.4-0.3,0.6-0.7,0.6H96.6z M103.4,99.8
		c-0.9,0-1.6,0.2-2.3,0.6c-0.7,0.4-1.3,1-1.8,1.7v7.3c0.5,0.7,1,1.1,1.6,1.4c0.6,0.3,1.2,0.4,2,0.4c1.4,0,2.5-0.5,3.3-1.5
		c0.8-1,1.1-2.5,1.1-4.3c0-1-0.1-1.8-0.3-2.5c-0.2-0.7-0.4-1.3-0.8-1.7s-0.7-0.8-1.2-1S104,99.8,103.4,99.8z"/>
	<path class="st2" d="M129.8,113.1c-0.4,0-0.6-0.2-0.7-0.6l-0.2-1.8c-0.6,0.8-1.4,1.4-2.2,1.9c-0.8,0.5-1.8,0.7-2.9,0.7
		c-0.9,0-1.7-0.2-2.4-0.5c-0.7-0.3-1.3-0.8-1.8-1.5c-0.5-0.7-0.9-1.5-1.2-2.4c-0.3-1-0.4-2.1-0.4-3.3c0-1.1,0.1-2.2,0.4-3.1
		c0.3-1,0.7-1.8,1.3-2.5c0.6-0.7,1.3-1.3,2.1-1.7s1.7-0.6,2.8-0.6c0.9,0,1.7,0.2,2.4,0.5c0.7,0.3,1.3,0.8,1.8,1.3V91h2.7v22.1H129.8
		z M124.6,111.2c0.9,0,1.6-0.2,2.3-0.6c0.7-0.4,1.3-1,1.8-1.7v-7.3c-0.5-0.7-1-1.1-1.6-1.4s-1.2-0.4-1.9-0.4c-1.4,0-2.5,0.5-3.3,1.5
		c-0.8,1-1.1,2.5-1.1,4.3c0,1,0.1,1.8,0.3,2.5c0.2,0.7,0.4,1.3,0.8,1.7c0.3,0.5,0.7,0.8,1.2,1S124,111.2,124.6,111.2z"/>
	<path class="st2" d="M141.8,97.7c0.9,0,1.8,0.2,2.5,0.5c0.8,0.3,1.4,0.7,2,1.3c0.6,0.6,1,1.3,1.3,2.1c0.3,0.8,0.5,1.8,0.5,2.9
		c0,0.4,0,0.7-0.1,0.8c-0.1,0.1-0.3,0.2-0.5,0.2h-10.1c0,1,0.1,1.8,0.4,2.5c0.2,0.7,0.6,1.3,1,1.8c0.4,0.5,0.9,0.8,1.5,1.1
		c0.6,0.2,1.2,0.4,2,0.4c0.7,0,1.2-0.1,1.7-0.2c0.5-0.2,0.9-0.3,1.3-0.5s0.6-0.3,0.9-0.5c0.2-0.2,0.4-0.2,0.6-0.2
		c0.2,0,0.4,0.1,0.5,0.3l0.8,1c-0.3,0.4-0.7,0.7-1.2,1c-0.5,0.3-1,0.5-1.5,0.7c-0.5,0.2-1.1,0.3-1.6,0.4s-1.1,0.1-1.7,0.1
		c-1,0-2-0.2-2.9-0.5c-0.9-0.4-1.6-0.9-2.3-1.6c-0.6-0.7-1.1-1.5-1.5-2.5s-0.5-2.2-0.5-3.5c0-1.1,0.2-2,0.5-3
		c0.3-0.9,0.8-1.7,1.4-2.4s1.4-1.2,2.2-1.6S140.7,97.7,141.8,97.7z M141.9,99.7c-1.3,0-2.3,0.4-3,1.1c-0.7,0.7-1.2,1.8-1.4,3.1h8.3
		c0-0.6-0.1-1.2-0.3-1.7c-0.2-0.5-0.4-1-0.8-1.3s-0.7-0.7-1.2-0.9C143.1,99.8,142.5,99.7,141.9,99.7z"/>
	<path class="st2" d="M160.2,100.4c-0.1,0.2-0.3,0.3-0.6,0.3c-0.1,0-0.3-0.1-0.5-0.2c-0.2-0.1-0.4-0.2-0.7-0.4s-0.6-0.3-1-0.4
		c-0.4-0.1-0.8-0.2-1.4-0.2c-0.4,0-0.9,0.1-1.2,0.2s-0.7,0.3-0.9,0.5c-0.3,0.2-0.5,0.4-0.6,0.7c-0.1,0.3-0.2,0.6-0.2,0.9
		c0,0.4,0.1,0.7,0.3,1s0.5,0.5,0.9,0.7c0.4,0.2,0.8,0.4,1.3,0.5c0.5,0.1,1,0.3,1.4,0.5s1,0.3,1.4,0.5c0.5,0.2,0.9,0.5,1.3,0.8
		c0.4,0.3,0.7,0.7,0.9,1.1c0.2,0.4,0.3,1,0.3,1.6c0,0.7-0.1,1.3-0.4,1.9c-0.3,0.6-0.6,1.1-1.1,1.5c-0.5,0.4-1.1,0.8-1.8,1
		s-1.5,0.4-2.5,0.4c-1.1,0-2-0.2-2.9-0.5c-0.9-0.3-1.6-0.8-2.2-1.3l0.6-1c0.1-0.1,0.2-0.2,0.3-0.3c0.1-0.1,0.3-0.1,0.4-0.1
		c0.2,0,0.4,0.1,0.6,0.2c0.2,0.1,0.4,0.3,0.7,0.5c0.3,0.2,0.6,0.3,1,0.5c0.4,0.1,0.9,0.2,1.5,0.2c0.5,0,1-0.1,1.4-0.2
		c0.4-0.1,0.7-0.3,1-0.5c0.3-0.2,0.5-0.5,0.6-0.8c0.1-0.3,0.2-0.6,0.2-1c0-0.4-0.1-0.8-0.3-1c-0.2-0.3-0.5-0.5-0.9-0.7
		c-0.4-0.2-0.8-0.4-1.3-0.5c-0.5-0.1-1-0.3-1.5-0.5c-0.5-0.2-1-0.3-1.5-0.5c-0.5-0.2-0.9-0.5-1.3-0.8c-0.4-0.3-0.7-0.7-0.9-1.1
		s-0.3-1-0.3-1.7c0-0.6,0.1-1.1,0.4-1.7c0.2-0.5,0.6-1,1.1-1.4s1-0.7,1.7-1s1.4-0.4,2.3-0.4c1,0,1.9,0.2,2.7,0.5
		c0.8,0.3,1.5,0.7,2.1,1.3L160.2,100.4z"/>
	<path class="st2" d="M168.1,93.2c0,0.3-0.1,0.5-0.2,0.7c-0.1,0.2-0.2,0.4-0.4,0.6c-0.2,0.2-0.4,0.3-0.6,0.4
		c-0.2,0.1-0.5,0.1-0.7,0.1c-0.3,0-0.5,0-0.7-0.1c-0.2-0.1-0.4-0.2-0.6-0.4c-0.2-0.2-0.3-0.4-0.4-0.6c-0.1-0.2-0.1-0.5-0.1-0.7
		s0-0.5,0.1-0.7c0.1-0.2,0.2-0.4,0.4-0.6c0.2-0.2,0.4-0.3,0.6-0.4c0.2-0.1,0.5-0.1,0.7-0.1c0.3,0,0.5,0,0.7,0.1
		c0.2,0.1,0.4,0.2,0.6,0.4c0.2,0.2,0.3,0.4,0.4,0.6C168.1,92.7,168.1,92.9,168.1,93.2z M167.5,97.9v15.2h-2.7V97.9H167.5z"/>
	<path class="st2" d="M177.4,97.7c0.7,0,1.3,0.1,1.9,0.2c0.6,0.1,1.1,0.4,1.6,0.6h4.1v1c0,0.3-0.2,0.5-0.6,0.6l-1.7,0.2
		c0.3,0.7,0.5,1.4,0.5,2.2c0,0.7-0.1,1.4-0.4,2c-0.3,0.6-0.7,1.1-1.2,1.6c-0.5,0.4-1.1,0.8-1.8,1c-0.7,0.2-1.5,0.3-2.3,0.3
		c-0.7,0-1.4-0.1-2-0.3c-0.3,0.2-0.6,0.4-0.7,0.7c-0.2,0.2-0.2,0.5-0.2,0.7c0,0.4,0.1,0.7,0.4,0.8s0.7,0.3,1.2,0.4s1,0.1,1.6,0.1
		s1.2,0,1.9,0c0.6,0,1.3,0.1,1.9,0.2s1.2,0.3,1.6,0.5s0.9,0.6,1.2,1s0.4,1,0.4,1.7c0,0.7-0.2,1.3-0.5,1.9c-0.3,0.6-0.8,1.2-1.4,1.6
		c-0.6,0.5-1.4,0.9-2.2,1.2c-0.9,0.3-1.9,0.4-3,0.4s-2.1-0.1-2.9-0.3s-1.5-0.5-2.1-0.9s-1-0.8-1.2-1.3c-0.3-0.5-0.4-1-0.4-1.5
		c0-0.8,0.2-1.4,0.7-1.9s1.1-0.9,2-1.3c-0.4-0.2-0.8-0.5-1-0.8c-0.3-0.3-0.4-0.8-0.4-1.3c0-0.2,0-0.4,0.1-0.7
		c0.1-0.2,0.2-0.5,0.4-0.7c0.2-0.2,0.4-0.4,0.6-0.7c0.2-0.2,0.5-0.4,0.8-0.6c-0.8-0.4-1.3-1-1.8-1.7c-0.4-0.7-0.6-1.5-0.6-2.4
		c0-0.7,0.1-1.4,0.4-2c0.3-0.6,0.7-1.1,1.2-1.5c0.5-0.4,1.1-0.8,1.8-1C175.8,97.8,176.5,97.7,177.4,97.7z M182.1,113.9
		c0-0.4-0.1-0.7-0.3-0.9s-0.5-0.4-0.9-0.5c-0.4-0.1-0.8-0.2-1.2-0.3c-0.5-0.1-1-0.1-1.5-0.1s-1,0-1.6,0s-1.1-0.1-1.5-0.2
		c-0.6,0.3-1,0.6-1.4,1s-0.5,0.9-0.5,1.4c0,0.3,0.1,0.7,0.3,1c0.2,0.3,0.4,0.6,0.8,0.8c0.4,0.2,0.8,0.4,1.4,0.5
		c0.5,0.1,1.2,0.2,1.9,0.2c0.7,0,1.4-0.1,1.9-0.2s1.1-0.3,1.4-0.6c0.4-0.2,0.7-0.5,0.9-0.9C182,114.7,182.1,114.3,182.1,113.9z
		 M177.4,105.7c0.5,0,1-0.1,1.4-0.2c0.4-0.1,0.8-0.4,1-0.6c0.3-0.3,0.5-0.6,0.6-1c0.1-0.4,0.2-0.8,0.2-1.2c0-0.9-0.3-1.7-0.8-2.2
		s-1.4-0.8-2.5-0.8c-1.1,0-1.9,0.3-2.5,0.8s-0.8,1.3-0.8,2.2c0,0.5,0.1,0.9,0.2,1.2c0.1,0.4,0.4,0.7,0.6,1c0.3,0.3,0.6,0.5,1,0.6
		C176.4,105.6,176.8,105.7,177.4,105.7z"/>
	<path class="st2" d="M187.6,113.1V97.9h1.6c0.4,0,0.6,0.2,0.7,0.6l0.2,1.6c0.7-0.7,1.4-1.3,2.2-1.8s1.8-0.7,2.8-0.7
		c0.8,0,1.6,0.1,2.2,0.4c0.6,0.3,1.2,0.7,1.6,1.2c0.4,0.5,0.7,1.1,1,1.8s0.3,1.5,0.3,2.4v9.7h-2.7v-9.7c0-1.2-0.3-2-0.8-2.7
		s-1.3-1-2.4-1c-0.8,0-1.5,0.2-2.2,0.6c-0.7,0.4-1.3,0.9-1.9,1.5v11.2H187.6z"/>
	<path class="st2" d="M210.3,97.7c0.9,0,1.8,0.2,2.5,0.5c0.8,0.3,1.4,0.7,2,1.3c0.6,0.6,1,1.3,1.3,2.1c0.3,0.8,0.5,1.8,0.5,2.9
		c0,0.4,0,0.7-0.1,0.8c-0.1,0.1-0.3,0.2-0.5,0.2h-10.1c0,1,0.1,1.8,0.4,2.5c0.2,0.7,0.6,1.3,1,1.8c0.4,0.5,0.9,0.8,1.5,1.1
		c0.6,0.2,1.2,0.4,2,0.4c0.7,0,1.2-0.1,1.7-0.2c0.5-0.2,0.9-0.3,1.3-0.5s0.6-0.3,0.9-0.5c0.2-0.2,0.4-0.2,0.6-0.2
		c0.2,0,0.4,0.1,0.5,0.3l0.8,1c-0.3,0.4-0.7,0.7-1.2,1c-0.5,0.3-1,0.5-1.5,0.7c-0.5,0.2-1.1,0.3-1.6,0.4s-1.1,0.1-1.7,0.1
		c-1,0-2-0.2-2.9-0.5c-0.9-0.4-1.6-0.9-2.3-1.6c-0.6-0.7-1.1-1.5-1.5-2.5s-0.5-2.2-0.5-3.5c0-1.1,0.2-2,0.5-3
		c0.3-0.9,0.8-1.7,1.4-2.4s1.4-1.2,2.2-1.6S209.2,97.7,210.3,97.7z M210.3,99.7c-1.3,0-2.3,0.4-3,1.1c-0.7,0.7-1.2,1.8-1.4,3.1h8.3
		c0-0.6-0.1-1.2-0.3-1.7c-0.2-0.5-0.4-1-0.8-1.3s-0.7-0.7-1.2-0.9C211.5,99.8,210.9,99.7,210.3,99.7z"/>
	<path class="st2" d="M220,113.1V97.9h1.5c0.3,0,0.5,0.1,0.6,0.2c0.1,0.1,0.2,0.3,0.2,0.6l0.2,2.4c0.5-1.1,1.2-1.9,1.9-2.5
		c0.8-0.6,1.7-0.9,2.7-0.9c0.4,0,0.8,0,1.1,0.1s0.7,0.2,0.9,0.4l-0.3,2c-0.1,0.3-0.2,0.4-0.5,0.4c-0.1,0-0.4,0-0.6-0.1
		s-0.7-0.1-1.2-0.1c-0.9,0-1.7,0.3-2.3,0.8c-0.6,0.5-1.1,1.3-1.6,2.4v9.7H220z"/>
	<path class="st2" d="M238.1,113.5c-0.1,0.3-0.3,0.6-0.6,0.8s-0.6,0.3-0.8,0.3h-1.1l9-22.5c0.1-0.3,0.3-0.6,0.6-0.7
		c0.2-0.2,0.5-0.3,0.9-0.3h1.1L238.1,113.5z"/>
	<path class="st2" d="M265.5,113.1c-0.4,0-0.6-0.2-0.7-0.6l-0.2-1.8c-0.6,0.8-1.4,1.4-2.2,1.9c-0.8,0.5-1.8,0.7-2.9,0.7
		c-0.9,0-1.7-0.2-2.4-0.5c-0.7-0.3-1.3-0.8-1.8-1.5c-0.5-0.7-0.9-1.5-1.2-2.4c-0.3-1-0.4-2.1-0.4-3.3c0-1.1,0.1-2.2,0.4-3.1
		c0.3-1,0.7-1.8,1.3-2.5c0.6-0.7,1.3-1.3,2.1-1.7s1.7-0.6,2.8-0.6c0.9,0,1.7,0.2,2.4,0.5c0.7,0.3,1.3,0.8,1.8,1.3V91h2.7v22.1H265.5
		z M260.4,111.2c0.9,0,1.6-0.2,2.3-0.6c0.7-0.4,1.3-1,1.8-1.7v-7.3c-0.5-0.7-1-1.1-1.6-1.4s-1.2-0.4-1.9-0.4c-1.4,0-2.5,0.5-3.3,1.5
		c-0.8,1-1.1,2.5-1.1,4.3c0,1,0.1,1.8,0.3,2.5c0.2,0.7,0.4,1.3,0.8,1.7c0.3,0.5,0.7,0.8,1.2,1S259.7,111.2,260.4,111.2z"/>
	<path class="st2" d="M277.6,97.7c0.9,0,1.8,0.2,2.5,0.5c0.8,0.3,1.4,0.7,2,1.3c0.6,0.6,1,1.3,1.3,2.1c0.3,0.8,0.5,1.8,0.5,2.9
		c0,0.4,0,0.7-0.1,0.8c-0.1,0.1-0.3,0.2-0.5,0.2h-10.1c0,1,0.1,1.8,0.4,2.5c0.2,0.7,0.6,1.3,1,1.8c0.4,0.5,0.9,0.8,1.5,1.1
		c0.6,0.2,1.2,0.4,2,0.4c0.7,0,1.2-0.1,1.7-0.2c0.5-0.2,0.9-0.3,1.3-0.5s0.6-0.3,0.9-0.5c0.2-0.2,0.4-0.2,0.6-0.2
		c0.2,0,0.4,0.1,0.5,0.3l0.8,1c-0.3,0.4-0.7,0.7-1.2,1c-0.5,0.3-1,0.5-1.5,0.7c-0.5,0.2-1.1,0.3-1.6,0.4s-1.1,0.1-1.7,0.1
		c-1,0-2-0.2-2.9-0.5c-0.9-0.4-1.6-0.9-2.3-1.6c-0.6-0.7-1.1-1.5-1.5-2.5s-0.5-2.2-0.5-3.5c0-1.1,0.2-2,0.5-3
		c0.3-0.9,0.8-1.7,1.4-2.4s1.4-1.2,2.2-1.6S276.5,97.7,277.6,97.7z M277.7,99.7c-1.3,0-2.3,0.4-3,1.1c-0.7,0.7-1.2,1.8-1.4,3.1h8.3
		c0-0.6-0.1-1.2-0.3-1.7c-0.2-0.5-0.4-1-0.8-1.3s-0.7-0.7-1.2-0.9C278.8,99.8,278.3,99.7,277.7,99.7z"/>
	<path class="st2" d="M285,97.9h2.2c0.2,0,0.4,0.1,0.5,0.2c0.1,0.1,0.2,0.2,0.3,0.4l3.9,9.8c0.1,0.4,0.2,0.7,0.3,1.1
		c0.1,0.4,0.2,0.7,0.2,1.1c0.1-0.3,0.2-0.7,0.3-1.1c0.1-0.4,0.2-0.7,0.3-1.1l3.9-9.8c0.1-0.2,0.2-0.3,0.3-0.4
		c0.1-0.1,0.3-0.2,0.5-0.2h2.1l-6.2,15.2h-2.4L285,97.9z"/>
	<path class="st2" d="M307.9,97.7c0.9,0,1.8,0.2,2.5,0.5c0.8,0.3,1.4,0.7,2,1.3c0.6,0.6,1,1.3,1.3,2.1c0.3,0.8,0.5,1.8,0.5,2.9
		c0,0.4,0,0.7-0.1,0.8c-0.1,0.1-0.3,0.2-0.5,0.2h-10.1c0,1,0.1,1.8,0.4,2.5c0.2,0.7,0.6,1.3,1,1.8c0.4,0.5,0.9,0.8,1.5,1.1
		c0.6,0.2,1.2,0.4,2,0.4c0.7,0,1.2-0.1,1.7-0.2c0.5-0.2,0.9-0.3,1.3-0.5s0.6-0.3,0.9-0.5c0.2-0.2,0.4-0.2,0.6-0.2
		c0.2,0,0.4,0.1,0.5,0.3l0.8,1c-0.3,0.4-0.7,0.7-1.2,1c-0.5,0.3-1,0.5-1.5,0.7c-0.5,0.2-1.1,0.3-1.6,0.4s-1.1,0.1-1.7,0.1
		c-1,0-2-0.2-2.9-0.5c-0.9-0.4-1.6-0.9-2.3-1.6c-0.6-0.7-1.1-1.5-1.5-2.5s-0.5-2.2-0.5-3.5c0-1.1,0.2-2,0.5-3
		c0.3-0.9,0.8-1.7,1.4-2.4s1.4-1.2,2.2-1.6S306.8,97.7,307.9,97.7z M308,99.7c-1.3,0-2.3,0.4-3,1.1c-0.7,0.7-1.2,1.8-1.4,3.1h8.3
		c0-0.6-0.1-1.2-0.3-1.7c-0.2-0.5-0.4-1-0.8-1.3s-0.7-0.7-1.2-0.9C309.1,99.8,308.6,99.7,308,99.7z"/>
	<path class="st2" d="M320.6,91v22.1h-2.7V91H320.6z"/>
	<path class="st2" d="M331.5,97.7c1.1,0,2.1,0.2,3,0.6c0.9,0.4,1.7,0.9,2.3,1.6c0.6,0.7,1.1,1.5,1.4,2.5c0.3,1,0.5,2,0.5,3.2
		c0,1.2-0.2,2.3-0.5,3.2s-0.8,1.8-1.4,2.5c-0.6,0.7-1.4,1.2-2.3,1.6c-0.9,0.4-1.9,0.5-3,0.5c-1.1,0-2.1-0.2-3-0.5
		c-0.9-0.4-1.7-0.9-2.3-1.6c-0.6-0.7-1.1-1.5-1.5-2.5s-0.5-2-0.5-3.2c0-1.2,0.2-2.3,0.5-3.2c0.3-1,0.8-1.8,1.5-2.5
		c0.6-0.7,1.4-1.2,2.3-1.6S330.3,97.7,331.5,97.7z M331.5,111.3c1.5,0,2.6-0.5,3.4-1.5c0.7-1,1.1-2.4,1.1-4.2c0-1.8-0.4-3.2-1.1-4.2
		c-0.7-1-1.9-1.5-3.4-1.5c-0.8,0-1.4,0.1-2,0.4c-0.6,0.3-1,0.6-1.4,1.1c-0.4,0.5-0.7,1.1-0.8,1.8c-0.2,0.7-0.3,1.5-0.3,2.4
		c0,0.9,0.1,1.7,0.3,2.4c0.2,0.7,0.5,1.3,0.8,1.8c0.4,0.5,0.8,0.9,1.4,1.1C330,111.1,330.7,111.3,331.5,111.3z"/>
	<path class="st2" d="M342,118.3V97.9h1.6c0.4,0,0.6,0.2,0.7,0.6l0.2,1.8c0.7-0.8,1.4-1.4,2.2-1.9c0.8-0.5,1.8-0.7,2.9-0.7
		c0.9,0,1.7,0.2,2.4,0.5c0.7,0.3,1.3,0.8,1.8,1.5c0.5,0.7,0.9,1.5,1.2,2.4c0.3,1,0.4,2.1,0.4,3.3c0,1.1-0.2,2.2-0.5,3.1
		s-0.7,1.8-1.3,2.5c-0.6,0.7-1.2,1.3-2.1,1.7c-0.8,0.4-1.7,0.6-2.8,0.6c-0.9,0-1.7-0.2-2.4-0.5s-1.3-0.8-1.8-1.3v6.7H342z
		 M348.8,99.8c-0.9,0-1.6,0.2-2.3,0.6c-0.7,0.4-1.3,1-1.8,1.7v7.3c0.5,0.7,1,1.1,1.6,1.4c0.6,0.3,1.2,0.4,2,0.4
		c1.4,0,2.5-0.5,3.3-1.5c0.8-1,1.1-2.5,1.1-4.3c0-1-0.1-1.8-0.3-2.5s-0.4-1.3-0.8-1.7s-0.7-0.8-1.2-1
		C349.9,99.9,349.4,99.8,348.8,99.8z"/>
	<path class="st2" d="M364.6,97.7c0.9,0,1.8,0.2,2.5,0.5c0.8,0.3,1.4,0.7,2,1.3c0.6,0.6,1,1.3,1.3,2.1c0.3,0.8,0.5,1.8,0.5,2.9
		c0,0.4,0,0.7-0.1,0.8s-0.3,0.2-0.5,0.2h-10.1c0,1,0.2,1.8,0.4,2.5c0.2,0.7,0.6,1.3,1,1.8c0.4,0.5,0.9,0.8,1.5,1.1
		c0.6,0.2,1.2,0.4,2,0.4c0.7,0,1.2-0.1,1.7-0.2c0.5-0.2,0.9-0.3,1.3-0.5c0.3-0.2,0.6-0.3,0.9-0.5c0.2-0.2,0.4-0.2,0.6-0.2
		c0.2,0,0.4,0.1,0.5,0.3l0.8,1c-0.3,0.4-0.7,0.7-1.2,1c-0.5,0.3-1,0.5-1.5,0.7c-0.5,0.2-1.1,0.3-1.6,0.4c-0.6,0.1-1.1,0.1-1.7,0.1
		c-1.1,0-2-0.2-2.9-0.5c-0.9-0.4-1.6-0.9-2.3-1.6c-0.6-0.7-1.1-1.5-1.5-2.5c-0.4-1-0.5-2.2-0.5-3.5c0-1.1,0.2-2,0.5-3
		c0.3-0.9,0.8-1.7,1.4-2.4c0.6-0.7,1.4-1.2,2.2-1.6C362.5,97.9,363.5,97.7,364.6,97.7z M364.6,99.7c-1.3,0-2.3,0.4-3,1.1
		s-1.2,1.8-1.4,3.1h8.3c0-0.6-0.1-1.2-0.3-1.7c-0.2-0.5-0.4-1-0.8-1.3s-0.7-0.7-1.2-0.9C365.8,99.8,365.2,99.7,364.6,99.7z"/>
	<path class="st2" d="M374.3,113.1V97.9h1.5c0.3,0,0.5,0.1,0.6,0.2c0.1,0.1,0.2,0.3,0.2,0.6l0.2,2.4c0.5-1.1,1.2-1.9,1.9-2.5
		c0.8-0.6,1.7-0.9,2.7-0.9c0.4,0,0.8,0,1.1,0.1c0.3,0.1,0.7,0.2,0.9,0.4l-0.3,2c-0.1,0.3-0.2,0.4-0.5,0.4c-0.1,0-0.4,0-0.6-0.1
		s-0.7-0.1-1.2-0.1c-0.9,0-1.7,0.3-2.3,0.8s-1.1,1.3-1.6,2.4v9.7H374.3z"/>
	<path class="st2" d="M392.4,113.5c-0.1,0.3-0.3,0.6-0.6,0.8c-0.3,0.2-0.6,0.3-0.8,0.3h-1.1l9-22.5c0.1-0.3,0.3-0.6,0.6-0.7
		c0.2-0.2,0.5-0.3,0.9-0.3h1.1L392.4,113.5z"/>
	<path class="st2" d="M415.1,97.7c0.9,0,1.8,0.2,2.5,0.5c0.8,0.3,1.4,0.7,2,1.3c0.6,0.6,1,1.3,1.3,2.1c0.3,0.8,0.5,1.8,0.5,2.9
		c0,0.4,0,0.7-0.1,0.8s-0.3,0.2-0.5,0.2h-10.1c0,1,0.2,1.8,0.4,2.5c0.2,0.7,0.6,1.3,1,1.8c0.4,0.5,0.9,0.8,1.5,1.1
		c0.6,0.2,1.2,0.4,2,0.4c0.7,0,1.2-0.1,1.7-0.2c0.5-0.2,0.9-0.3,1.3-0.5c0.3-0.2,0.6-0.3,0.9-0.5c0.2-0.2,0.4-0.2,0.6-0.2
		c0.2,0,0.4,0.1,0.5,0.3l0.8,1c-0.3,0.4-0.7,0.7-1.2,1c-0.5,0.3-1,0.5-1.5,0.7c-0.5,0.2-1.1,0.3-1.6,0.4c-0.6,0.1-1.1,0.1-1.7,0.1
		c-1.1,0-2-0.2-2.9-0.5c-0.9-0.4-1.6-0.9-2.3-1.6c-0.6-0.7-1.1-1.5-1.5-2.5c-0.4-1-0.5-2.2-0.5-3.5c0-1.1,0.2-2,0.5-3
		c0.3-0.9,0.8-1.7,1.4-2.4c0.6-0.7,1.4-1.2,2.2-1.6C413,97.9,414,97.7,415.1,97.7z M415.2,99.7c-1.3,0-2.3,0.4-3,1.1
		s-1.2,1.8-1.4,3.1h8.3c0-0.6-0.1-1.2-0.3-1.7c-0.2-0.5-0.4-1-0.8-1.3s-0.7-0.7-1.2-0.9C416.4,99.8,415.8,99.7,415.2,99.7z"/>
	<path class="st2" d="M424.8,113.1V97.9h1.6c0.4,0,0.6,0.2,0.7,0.6l0.2,1.6c0.7-0.7,1.4-1.3,2.2-1.8c0.8-0.5,1.8-0.7,2.8-0.7
		c0.8,0,1.6,0.1,2.2,0.4s1.2,0.7,1.6,1.2c0.4,0.5,0.7,1.1,1,1.8s0.3,1.5,0.3,2.4v9.7h-2.7v-9.7c0-1.2-0.3-2-0.8-2.7
		c-0.5-0.6-1.3-1-2.4-1c-0.8,0-1.5,0.2-2.2,0.6c-0.7,0.4-1.3,0.9-1.9,1.5v11.2H424.8z"/>
	<path class="st2" d="M446.6,97.7c0.7,0,1.3,0.1,1.9,0.2s1.1,0.4,1.6,0.6h4.1v1c0,0.3-0.2,0.5-0.6,0.6l-1.7,0.2
		c0.3,0.7,0.5,1.4,0.5,2.2c0,0.7-0.1,1.4-0.4,2c-0.3,0.6-0.7,1.1-1.2,1.6c-0.5,0.4-1.1,0.8-1.8,1c-0.7,0.2-1.5,0.3-2.3,0.3
		c-0.7,0-1.4-0.1-2-0.3c-0.3,0.2-0.6,0.4-0.7,0.7c-0.2,0.2-0.2,0.5-0.2,0.7c0,0.4,0.1,0.7,0.4,0.8s0.7,0.3,1.2,0.4
		c0.5,0.1,1,0.1,1.6,0.1s1.2,0,1.9,0c0.6,0,1.3,0.1,1.9,0.2c0.6,0.1,1.2,0.3,1.6,0.5c0.5,0.3,0.9,0.6,1.2,1s0.4,1,0.4,1.7
		c0,0.7-0.2,1.3-0.5,1.9c-0.3,0.6-0.8,1.2-1.4,1.6c-0.6,0.5-1.4,0.9-2.2,1.2c-0.9,0.3-1.9,0.4-3,0.4c-1.1,0-2.1-0.1-2.9-0.3
		s-1.5-0.5-2.1-0.9c-0.6-0.4-1-0.8-1.2-1.3c-0.3-0.5-0.4-1-0.4-1.5c0-0.8,0.2-1.4,0.7-1.9c0.5-0.5,1.1-0.9,2-1.3
		c-0.4-0.2-0.8-0.5-1-0.8c-0.3-0.3-0.4-0.8-0.4-1.3c0-0.2,0-0.4,0.1-0.7c0.1-0.2,0.2-0.5,0.4-0.7c0.2-0.2,0.4-0.4,0.6-0.7
		c0.2-0.2,0.5-0.4,0.8-0.6c-0.8-0.4-1.3-1-1.8-1.7c-0.4-0.7-0.6-1.5-0.6-2.4c0-0.7,0.1-1.4,0.4-2c0.3-0.6,0.7-1.1,1.2-1.5
		c0.5-0.4,1.1-0.8,1.8-1C445,97.8,445.8,97.7,446.6,97.7z M451.4,113.9c0-0.4-0.1-0.7-0.3-0.9c-0.2-0.2-0.5-0.4-0.9-0.5
		c-0.4-0.1-0.8-0.2-1.2-0.3c-0.5-0.1-1-0.1-1.5-0.1c-0.5,0-1,0-1.6,0s-1.1-0.1-1.5-0.2c-0.6,0.3-1,0.6-1.4,1
		c-0.4,0.4-0.5,0.9-0.5,1.4c0,0.3,0.1,0.7,0.3,1c0.2,0.3,0.4,0.6,0.8,0.8c0.4,0.2,0.8,0.4,1.4,0.5s1.2,0.2,1.9,0.2
		c0.7,0,1.4-0.1,1.9-0.2s1.1-0.3,1.4-0.6c0.4-0.2,0.7-0.5,0.9-0.9C451.3,114.7,451.4,114.3,451.4,113.9z M446.6,105.7
		c0.5,0,1-0.1,1.4-0.2c0.4-0.1,0.8-0.4,1-0.6c0.3-0.3,0.5-0.6,0.6-1c0.1-0.4,0.2-0.8,0.2-1.2c0-0.9-0.3-1.7-0.8-2.2
		c-0.6-0.5-1.4-0.8-2.5-0.8c-1.1,0-1.9,0.3-2.5,0.8c-0.6,0.5-0.8,1.3-0.8,2.2c0,0.5,0.1,0.9,0.2,1.2c0.1,0.4,0.4,0.7,0.6,1
		c0.3,0.3,0.6,0.5,1,0.6C445.6,105.6,446.1,105.7,446.6,105.7z"/>
	<path class="st2" d="M460.4,93.2c0,0.3-0.1,0.5-0.2,0.7c-0.1,0.2-0.2,0.4-0.4,0.6s-0.4,0.3-0.6,0.4c-0.2,0.1-0.5,0.1-0.7,0.1
		s-0.5,0-0.7-0.1c-0.2-0.1-0.4-0.2-0.6-0.4s-0.3-0.4-0.4-0.6c-0.1-0.2-0.1-0.5-0.1-0.7s0-0.5,0.1-0.7c0.1-0.2,0.2-0.4,0.4-0.6
		s0.4-0.3,0.6-0.4c0.2-0.1,0.5-0.1,0.7-0.1s0.5,0,0.7,0.1c0.2,0.1,0.4,0.2,0.6,0.4s0.3,0.4,0.4,0.6
		C460.4,92.7,460.4,92.9,460.4,93.2z M459.8,97.9v15.2h-2.7V97.9H459.8z"/>
	<path class="st2" d="M464.5,113.1V97.9h1.6c0.4,0,0.6,0.2,0.7,0.6l0.2,1.6c0.7-0.7,1.4-1.3,2.2-1.8c0.8-0.5,1.8-0.7,2.8-0.7
		c0.8,0,1.6,0.1,2.2,0.4s1.2,0.7,1.6,1.2c0.4,0.5,0.7,1.1,1,1.8s0.3,1.5,0.3,2.4v9.7h-2.7v-9.7c0-1.2-0.3-2-0.8-2.7
		c-0.5-0.6-1.3-1-2.4-1c-0.8,0-1.5,0.2-2.2,0.6c-0.7,0.4-1.3,0.9-1.9,1.5v11.2H464.5z"/>
	<path class="st2" d="M487.2,97.7c0.9,0,1.8,0.2,2.5,0.5c0.8,0.3,1.4,0.7,2,1.3c0.6,0.6,1,1.3,1.3,2.1c0.3,0.8,0.5,1.8,0.5,2.9
		c0,0.4,0,0.7-0.1,0.8s-0.3,0.2-0.5,0.2h-10.1c0,1,0.2,1.8,0.4,2.5c0.2,0.7,0.6,1.3,1,1.8c0.4,0.5,0.9,0.8,1.5,1.1
		c0.6,0.2,1.2,0.4,2,0.4c0.7,0,1.2-0.1,1.7-0.2c0.5-0.2,0.9-0.3,1.3-0.5c0.3-0.2,0.6-0.3,0.9-0.5c0.2-0.2,0.4-0.2,0.6-0.2
		c0.2,0,0.4,0.1,0.5,0.3l0.8,1c-0.3,0.4-0.7,0.7-1.2,1c-0.5,0.3-1,0.5-1.5,0.7c-0.5,0.2-1.1,0.3-1.6,0.4c-0.6,0.1-1.1,0.1-1.7,0.1
		c-1.1,0-2-0.2-2.9-0.5c-0.9-0.4-1.6-0.9-2.3-1.6c-0.6-0.7-1.1-1.5-1.5-2.5c-0.4-1-0.5-2.2-0.5-3.5c0-1.1,0.2-2,0.5-3
		c0.3-0.9,0.8-1.7,1.4-2.4c0.6-0.7,1.4-1.2,2.2-1.6C485.1,97.9,486.1,97.7,487.2,97.7z M487.3,99.7c-1.3,0-2.3,0.4-3,1.1
		s-1.2,1.8-1.4,3.1h8.3c0-0.6-0.1-1.2-0.3-1.7c-0.2-0.5-0.4-1-0.8-1.3s-0.7-0.7-1.2-0.9C488.4,99.8,487.9,99.7,487.3,99.7z"/>
	<path class="st2" d="M502.9,97.7c0.9,0,1.8,0.2,2.5,0.5c0.8,0.3,1.4,0.7,2,1.3c0.6,0.6,1,1.3,1.3,2.1c0.3,0.8,0.5,1.8,0.5,2.9
		c0,0.4,0,0.7-0.1,0.8s-0.3,0.2-0.5,0.2h-10.1c0,1,0.2,1.8,0.4,2.5c0.2,0.7,0.6,1.3,1,1.8c0.4,0.5,0.9,0.8,1.5,1.1
		c0.6,0.2,1.2,0.4,2,0.4c0.7,0,1.2-0.1,1.7-0.2c0.5-0.2,0.9-0.3,1.3-0.5c0.3-0.2,0.6-0.3,0.9-0.5c0.2-0.2,0.4-0.2,0.6-0.2
		c0.2,0,0.4,0.1,0.5,0.3l0.8,1c-0.3,0.4-0.7,0.7-1.2,1c-0.5,0.3-1,0.5-1.5,0.7c-0.5,0.2-1.1,0.3-1.6,0.4c-0.6,0.1-1.1,0.1-1.7,0.1
		c-1.1,0-2-0.2-2.9-0.5c-0.9-0.4-1.6-0.9-2.3-1.6c-0.6-0.7-1.1-1.5-1.5-2.5c-0.4-1-0.5-2.2-0.5-3.5c0-1.1,0.2-2,0.5-3
		c0.3-0.9,0.8-1.7,1.4-2.4c0.6-0.7,1.4-1.2,2.2-1.6C500.9,97.9,501.8,97.7,502.9,97.7z M503,99.7c-1.3,0-2.3,0.4-3,1.1
		s-1.2,1.8-1.4,3.1h8.3c0-0.6-0.1-1.2-0.3-1.7c-0.2-0.5-0.4-1-0.8-1.3s-0.7-0.7-1.2-0.9C504.2,99.8,503.6,99.7,503,99.7z"/>
	<path class="st2" d="M512.7,113.1V97.9h1.5c0.3,0,0.5,0.1,0.6,0.2c0.1,0.1,0.2,0.3,0.2,0.6l0.2,2.4c0.5-1.1,1.2-1.9,1.9-2.5
		c0.8-0.6,1.7-0.9,2.7-0.9c0.4,0,0.8,0,1.1,0.1c0.3,0.1,0.7,0.2,0.9,0.4l-0.3,2c-0.1,0.3-0.2,0.4-0.5,0.4c-0.1,0-0.4,0-0.6-0.1
		s-0.7-0.1-1.2-0.1c-0.9,0-1.7,0.3-2.3,0.8s-1.1,1.3-1.6,2.4v9.7H512.7z"/>
</g>
</svg>
