<?xml version="1.0" encoding="utf-8"?>
<!-- Generator: Adobe Illustrator 23.0.1, SVG Export Plug-In . SVG Version: 6.00 Build 0)  -->
<svg version="1.1" id="Layer_1" xmlns="http://www.w3.org/2000/svg" xmlns:xlink="http://www.w3.org/1999/xlink" x="0px" y="0px"
	 viewBox="0 0 335 334.9" style="enable-background:new 0 0 335 334.9;" xml:space="preserve">
<style type="text/css">
	.st0{fill:#FF01CB;}
</style>
<path class="st0" d="M335,211.9v-0.3c0-0.2,0-0.3,0-0.5c0-0.1,0-0.2,0-0.3s-0.1-0.3-0.1-0.4s-0.1-0.2-0.1-0.3
	c-0.1-0.1-0.1-0.3-0.2-0.4l-0.1-0.3c-0.1-0.1-0.2-0.3-0.3-0.4c0-0.1-0.1-0.1-0.1-0.2c-0.2-0.2-0.3-0.3-0.5-0.5l-0.1-0.1
	c-0.2-0.1-0.4-0.3-0.6-0.4c-22.4-11.9-30.8-39.7-18.9-62.1c3.8-7.2,9.5-13.2,16.3-17.4l0.2-0.2l0.2-0.2c0.1-0.1,0.3-0.2,0.4-0.4
	c0.1,0,0.1-0.1,0.1-0.2c0.2-0.2,0.3-0.4,0.4-0.6l0.1-0.1c0.1-0.2,0.2-0.4,0.3-0.6c0-0.1,0-0.2,0.1-0.3s0.1-0.3,0.1-0.5
	c0-0.1,0-0.2,0-0.3c0-0.2,0-0.3,0-0.5v-0.3c0-0.3-0.1-0.5-0.1-0.8c-0.1-0.2-0.2-0.5-0.3-0.7c0-0.1-0.1-0.1-0.1-0.2
	c-0.1-0.2-0.2-0.3-0.3-0.4c0-0.1-0.1-0.1-0.2-0.2s-0.2-0.2-0.4-0.4c-0.1-0.1-0.1-0.1-0.2-0.2c-0.2-0.1-0.3-0.3-0.5-0.4H330
	c-0.2-0.1-0.4-0.2-0.7-0.3c-0.1,0-0.1,0-0.2-0.1c-0.2,0-0.3-0.1-0.5-0.1h-0.3h-0.2c-25.3-0.9-45.1-22.2-44.2-47.5
	c0.3-7.7,2.5-15.2,6.4-21.8c0.1-0.1,0.1-0.2,0.2-0.3s0.1-0.2,0.1-0.2c0.1-0.2,0.2-0.5,0.2-0.7c0,0,0,0,0-0.1c0-0.2,0.1-0.5,0.1-0.7
	c0-0.1,0-0.2,0-0.2c0-0.2,0-0.3,0-0.5c0-0.1,0-0.2,0-0.3c0-0.2-0.1-0.3-0.1-0.4c0-0.1-0.1-0.2-0.1-0.3s-0.1-0.3-0.2-0.4l-0.1-0.2
	c-0.1-0.2-0.3-0.4-0.5-0.6c-0.2-0.2-0.4-0.3-0.6-0.5l-0.2-0.1c-0.1-0.1-0.3-0.2-0.4-0.2l-0.3-0.1c-0.1-0.1-0.3-0.1-0.4-0.1l-0.3-0.1
	h-0.5H287c-0.2,0-0.5,0-0.7,0.1h-0.1c-0.2,0.1-0.5,0.1-0.7,0.2l-0.2,0.1l-0.3,0.2c-21.9,12.7-50,5.2-62.7-16.8
	c-4.3-7.5-6.5-16.1-6.1-24.8c0-0.2,0-0.5,0-0.7l0,0c0-0.2-0.1-0.5-0.2-0.7c0-0.1-0.1-0.1-0.1-0.2s-0.1-0.3-0.2-0.5s-0.1-0.2-0.1-0.2
	l-0.3-0.4c-0.1-0.1-0.1-0.2-0.2-0.2s-0.2-0.2-0.3-0.3l-0.2-0.2c-0.1-0.1-0.3-0.2-0.4-0.3L214,0.2c-0.2-0.1-0.5-0.2-0.7-0.3
	c-0.8,0.2-1,0.1-1.3,0.1h-0.3c-0.2,0-0.3,0-0.5,0h-0.3c-0.2,0-0.3,0.1-0.5,0.1l-0.3,0.1c-0.2,0.1-0.3,0.1-0.5,0.2l-0.2,0.1
	c-0.2,0.1-0.3,0.2-0.5,0.3V1c-0.2,0.2-0.4,0.3-0.5,0.5l0,0c-0.2,0.2-0.3,0.4-0.4,0.6c-8,15-23.5,24.3-40.5,24.3
	c-15.9,0-30.7-8.2-39-21.7l-0.2-0.2c0-0.1-0.1-0.2-0.2-0.2c-0.1-0.1-0.3-0.3-0.4-0.4l-0.1-0.1c-0.2-0.2-0.4-0.3-0.6-0.5l0,0
	c-0.2-0.1-0.4-0.2-0.7-0.3h-0.2c-0.2-0.1-0.4-0.1-0.5-0.1h-0.2c-0.2,0-0.4,0-0.6,0h-0.2c-0.3,0-0.5,0.1-0.8,0.1
	c-0.2,0.1-0.5,0.2-0.7,0.3c-0.1,0-0.2,0.1-0.2,0.1c-0.1,0.1-0.3,0.2-0.4,0.3l-0.2,0.2c-0.1,0.1-0.2,0.2-0.4,0.3l-0.2,0.2
	c-0.1,0.2-0.2,0.3-0.4,0.5c0,0,0,0.1-0.1,0.1c-0.1,0.2-0.2,0.4-0.3,0.7l-0.1,0.2c-0.1,0.2-0.1,0.3-0.1,0.5c0,0.1,0,0.2,0,0.3
	c0,0.1,0,0.2,0,0.2c-0.8,25.2-22.1,45-47.5,44.1c-7.7-0.3-15.1-2.5-21.7-6.4l-0.3-0.2L51,44.3c-0.2-0.1-0.5-0.2-0.7-0.2h-0.1
	C50,44,49.7,44,49.5,44h-0.2c-0.2,0-0.3,0-0.5,0h-0.3c-0.2,0-0.3,0.1-0.4,0.1l-0.3,0.1c-0.2,0.1-0.3,0.2-0.4,0.2l-0.2,0.1
	c-0.2,0.1-0.4,0.3-0.6,0.5l0,0c-0.2,0.2-0.3,0.4-0.5,0.6c0,0.1-0.1,0.1-0.1,0.2c-0.1,0.1-0.2,0.3-0.2,0.4l-0.1,0.3
	c0,0.2-0.1,0.3-0.1,0.4c0,0.1,0,0.2-0.1,0.3c0,0.2,0,0.3-0.1,0.5c0,0.1,0,0.2,0,0.3c0,0.2,0,0.4,0.1,0.7v0.1
	c0.1,0.2,0.1,0.5,0.2,0.7c0,0.1,0.1,0.2,0.1,0.3s0.1,0.2,0.2,0.3c12.7,21.9,5.3,50-16.6,62.8c-7.6,4.4-16.2,6.5-25,6.2
	c-0.2,0-0.3,0-0.5,0c-0.2,0-0.3,0-0.5,0.1L3,119.3l-0.3,0.1l-0.4,0.2L2,119.8c-0.1,0.1-0.2,0.2-0.3,0.2l-0.3,0.2L1,120.5l-0.2,0.2
	c-0.1,0.1-0.2,0.3-0.3,0.4l-0.1,0.2c-0.1,0.2-0.2,0.5-0.3,0.7C0,122.3,0,122.5,0,122.8c0,0.1,0,0.2,0,0.3c0,0.2,0,0.3,0,0.5
	c0,0.1,0,0.2,0,0.3c0,0.2,0.1,0.3,0.1,0.4l0.1,0.3c0.1,0.1,0.1,0.3,0.2,0.4s0.1,0.2,0.1,0.3c0.1,0.1,0.2,0.3,0.3,0.4l0.1,0.2
	c0.2,0.2,0.3,0.3,0.5,0.5l0.1,0.1c0.2,0.1,0.4,0.3,0.6,0.4c15,8,24.4,23.6,24.4,40.5c0,15.9-8.2,30.7-21.7,39l-0.2,0.1l-0.2,0.2
	c-0.1,0.1-0.3,0.2-0.4,0.4l-0.2,0.2c-0.2,0.2-0.3,0.4-0.4,0.6v0.1c-0.1,0.2-0.2,0.4-0.3,0.6c0,0.1-0.1,0.2-0.1,0.3
	c-0.1,0.1-0.1,0.3-0.1,0.5c0,0.1,0,0.2,0,0.3c0,0.2,0,0.3,0,0.5c0,0.1,0,0.2,0,0.3c0,0.3,0.1,0.5,0.1,0.8c0.1,0.2,0.1,0.4,0.2,0.6
	l0.1,0.3c0.1,0.1,0.1,0.2,0.2,0.3c0.1,0.1,0.1,0.2,0.2,0.3l0.2,0.3l0.3,0.2l0.2,0.2l0.3,0.2c0.1,0.1,0.2,0.1,0.3,0.2l0.3,0.1
	l0.3,0.1l0.3,0.1l0.3,0.1c0.1,0,0.2,0,0.4,0.1c0.1,0,0.2,0,0.3,0c15.9,0.6,30.3,9.3,38.1,23.2c8.1,14.3,8,31.9-0.3,46.1
	c-0.1,0.1-0.1,0.2-0.2,0.3c0,0.1-0.1,0.2-0.1,0.2c-0.1,0.2-0.2,0.5-0.2,0.7v0.1c0,0.2-0.1,0.5-0.1,0.7c0,0.1,0,0.2,0,0.2
	c0,0.2,0,0.3,0,0.5l0.1,0.3c0,0.2,0.1,0.3,0.1,0.5c0,0.1,0.1,0.2,0.1,0.3c0.1,0.2,0.1,0.3,0.2,0.4c0,0.1,0.1,0.2,0.1,0.2
	c0.1,0.2,0.3,0.4,0.5,0.6s0.4,0.3,0.6,0.5l0.2,0.1l0.4,0.2l0.3,0.1c0.1,0.1,0.3,0.1,0.4,0.1l0.3,0.1c0.2,0,0.3,0,0.5,0h0.2l0,0
	c0.2,0,0.5,0,0.7-0.1l0,0c0.2,0,0.4-0.1,0.7-0.2l0.3-0.1l0.3-0.1c21.9-12.7,50-5.2,62.7,16.8c4.3,7.5,6.5,16.1,6.1,24.7
	c0,0.2,0,0.5,0,0.7l0,0c0,0.2,0.1,0.5,0.2,0.7l0.1,0.2c0.1,0.2,0.1,0.3,0.2,0.5c0,0.1,0.1,0.1,0.1,0.2c0.1,0.1,0.2,0.3,0.3,0.4
	l0.2,0.2c0.1,0.1,0.2,0.2,0.3,0.3l0.2,0.2c0.1,0.1,0.3,0.2,0.4,0.3c0.1,0.1,0.1,0.1,0.2,0.1c0.2,0.1,0.5,0.2,0.7,0.3
	c0.4,0.1,0.7,0.1,1.1,0.1h0.1c0.2,0,0.4,0,0.6,0h0.2l0.4-0.1l0.2-0.1l0.4-0.2l0.2-0.1c0.1-0.1,0.2-0.1,0.3-0.2l0.2-0.1
	c0.2-0.1,0.3-0.3,0.5-0.4l0.1-0.1c0.1-0.1,0.2-0.2,0.3-0.4l0.1-0.2c0.1-0.1,0.1-0.1,0.1-0.2c11.9-22.4,39.7-30.8,62.1-18.9
	c7.1,3.8,13.2,9.4,17.4,16.3v0.1c0.1,0.1,0.1,0.2,0.2,0.3s0.1,0.2,0.2,0.2c0.1,0.1,0.1,0.2,0.2,0.2l0.3,0.2l0.2,0.2l0.3,0.2l0.3,0.1
	l0.3,0.1l0.3,0.1l0.4,0.1h0.3h0.4h0.1h0.3h0.2c0.2,0,0.4-0.1,0.6-0.1c0.2-0.1,0.5-0.2,0.7-0.3l0.2-0.1c0.1-0.1,0.3-0.2,0.4-0.3
	c0.1-0.1,0.2-0.1,0.2-0.2c0.1-0.1,0.2-0.2,0.4-0.3c0.1-0.1,0.1-0.1,0.2-0.2c0.1-0.2,0.2-0.3,0.4-0.5l0.1-0.1
	c0.1-0.2,0.2-0.4,0.3-0.7c0-0.1,0-0.1,0.1-0.2c0.1-0.2,0.1-0.3,0.1-0.5c0-0.1,0-0.2,0-0.3c0-0.1,0-0.2,0-0.3
	c0.9-25.3,22.2-45.1,47.5-44.2c7.8,0.3,15.3,2.5,22,6.5l0.4,0.2l0.2,0.1c0.2,0.1,0.5,0.2,0.7,0.2h0.1c0.2,0,0.4,0,0.6,0h0.1h0.2h0.5
	l0.3-0.1l0.4-0.1l0.3-0.1c0.1-0.1,0.3-0.1,0.4-0.2l0.2-0.1c0.2-0.1,0.4-0.3,0.6-0.5s0.4-0.4,0.5-0.6c0-0.1,0.1-0.1,0.1-0.2
	c0.1-0.1,0.2-0.3,0.2-0.5c0-0.1,0.1-0.2,0.1-0.3c0-0.1,0.1-0.3,0.1-0.5l0.1-0.3c0-0.2,0-0.3,0-0.5s0-0.2,0-0.2c0-0.2,0-0.5-0.1-0.7
	c0,0,0,0,0-0.1c-0.1-0.2-0.1-0.5-0.2-0.7c0-0.1-0.1-0.2-0.1-0.2c0-0.1-0.1-0.2-0.2-0.4c-12.7-21.9-5.2-50,16.8-62.7
	c7.5-4.4,16.1-6.5,24.8-6.1h0.2h0.3h0.3l0.3-0.1l0.4-0.1l0.1-0.1c1-0.4,1.9-1.2,2.3-2.1c0.1-0.2,0.2-0.4,0.2-0.7
	C334.9,212.4,334.9,212.2,335,211.9z M313,202.4l-67.1-18.2c2.4-11,2.4-22.4,0.1-33.4l66.1-17.5C295.8,153.6,296.2,182.6,313,202.4
	L313,202.4z M95.6,167.4c0-4.9,0.5-9.9,1.5-14.7l54.3,14.7L97,181.8C96.1,177,95.6,172.2,95.6,167.4z M221.4,119.9
	c6.5,7.3,11.4,15.8,14.4,25.1l-54.3,14.4L221.4,119.9z M175.5,153.6l14.7-54.3c9.4,3.1,18,8.2,25.3,14.8L175.5,153.6z M167.5,151.3
	l-14.4-54.4c9.6-1.9,19.5-1.9,29.1,0.1L167.5,151.3z M159.5,153.4L120,113.5c7.3-6.5,15.8-11.4,25.1-14.4L159.5,153.4z M153.7,159.4
	l-54.4-14.7c3.1-9.4,8.2-18,14.8-25.3L153.7,159.4z M153.5,175.5L113.6,215c-6.5-7.3-11.4-15.8-14.4-25.1L153.5,175.5z M159.5,181.3
	l-14.8,54.3c-9.4-3.1-18-8.2-25.3-14.8L159.5,181.3z M167.5,183.5l14.4,54.4c-9.6,2-19.5,1.9-29.1-0.1L167.5,183.5z M175.5,181.4
	l39.5,39.8c-7.3,6.5-15.8,11.4-25.1,14.4L175.5,181.4z M181.3,175.4l54.4,14.7c-3.1,9.4-8.2,18-14.8,25.3L181.3,175.4z M183.6,167.4
	L238,153c1,4.7,1.4,9.6,1.4,14.4c0,4.9-0.5,9.9-1.5,14.7L183.6,167.4z M310,125.3l-66.2,17.5c-3.4-10.7-9.1-20.5-16.5-28.8
	l49.1-48.7C271.9,90.8,286,115.9,310,125.3L310,125.3z M234.4,52.8c10.9,6.4,23.8,8.7,36.3,6.6l-49.1,48.7
	c-8.4-7.6-18.2-13.4-29-16.9l18.2-67.1C214.9,36.2,223.3,46.4,234.4,52.8z M167.5,34.7c12.8,0,25.3-4.5,35.1-12.8L184.4,89
	c-11-2.4-22.4-2.4-33.4-0.1l-17.5-66.2C143.1,30.5,155.1,34.8,167.5,34.7z M101.8,52.2c10.8-6.1,19.1-15.8,23.6-27.3L142.9,91
	c-10.7,3.4-20.5,9.1-28.8,16.6L65.4,58.4C77.9,60.6,90.7,58.4,101.8,52.2z M52.9,100.5c6.4-10.9,8.7-23.8,6.6-36.3l48.7,49.1
	c-7.6,8.4-13.4,18.3-16.9,29.1l-67.1-18.1C36.2,120.1,46.4,111.6,52.9,100.5z M22,132.3l67.1,18.1c-2.4,11-2.4,22.4-0.1,33.4
	l-66.2,17.5c7.8-9.6,12-21.7,12-34.1C34.8,154.6,30.3,142.1,22,132.3z M25,209.5L91.2,192c3.4,10.7,9.1,20.5,16.6,28.8l-49.2,48.7
	C63.1,244,49,218.9,25,209.5L25,209.5z M100.6,282c-8.3-4.8-17.7-7.4-27.3-7.4c-3,0-6,0.2-8.9,0.7l49.2-48.6
	c8.4,7.6,18.2,13.4,29,16.9l-18.1,67.1C120.1,298.6,111.7,288.4,100.6,282L100.6,282z M167.5,300.1c-12.8,0-25.3,4.5-35.1,12.9
	l18.1-67.1c11,2.4,22.4,2.4,33.4,0.1l17.5,66.2C191.9,304.3,179.9,300,167.5,300.1L167.5,300.1z M233.2,282.6
	c-10.8,6.1-19.1,15.8-23.6,27.3L192,243.8c10.7-3.4,20.5-9,28.8-16.5l48.7,49.2C257,274.2,244.2,276.4,233.2,282.6L233.2,282.6z
	 M282,234.3c-6.4,10.9-8.7,23.8-6.6,36.3l-48.7-49.1c7.6-8.4,13.4-18.3,16.9-29l67.1,18.1C298.7,214.7,288.5,223.2,282,234.3z"/>
</svg>
