<?xml version="1.0" encoding="utf-8"?>
<!-- Generator: Adobe Illustrator 23.0.1, SVG Export Plug-In . SVG Version: 6.00 Build 0)  -->
<svg version="1.1" id="Layer_1" xmlns="http://www.w3.org/2000/svg" xmlns:xlink="http://www.w3.org/1999/xlink" x="0px" y="0px"
	 viewBox="0 0 452 83" style="enable-background:new 0 0 452 83;" xml:space="preserve">
<style type="text/css">
	.st0{fill:#FFFFFF;}
	.st1{font-family:'Rockout';}
	.st2{font-size:47.2397px;}
	.st3{letter-spacing:4.7;}
	.st4{letter-spacing:3.5;}
	.st5{letter-spacing:5.8;}
	.st6{fill:#FF01CB;}
</style>
<g>
	<rect width="452" height="83"/>
	<text transform="matrix(1.0568 0 0 1 5.5107 60.4624)"><tspan x="0" y="0" class="st0 st1 st2 st3">AMELI</tspan><tspan x="129.3" y="0" class="st0 st1 st2">a</tspan></text>
	<text transform="matrix(0.8558 0 0 1 238.4189 60.4624)"><tspan x="0" y="0" class="st1 st2 st4"> </tspan><tspan x="11.1" y="0" class="st0 st1 st2 st5">goodso</tspan><tspan x="227.6" y="0" class="st0 st1 st2">n</tspan></text>
	<path class="st6" d="M245,52.9L245,52.9c0-0.1,0-0.1,0-0.2c0,0,0,0,0-0.1s0-0.1,0-0.1s0,0,0-0.1c0,0,0-0.1,0-0.1l0-0.1
		c0,0,0-0.1-0.1-0.1c0,0,0,0,0,0c0,0-0.1-0.1-0.1-0.1l0,0c0,0-0.1-0.1-0.1-0.1c-5.5-2.9-7.5-9.7-4.6-15.2c0.9-1.8,2.3-3.2,4-4.3l0,0
		l0,0c0,0,0.1,0,0.1-0.1c0,0,0,0,0,0c0,0,0.1-0.1,0.1-0.1l0,0c0,0,0-0.1,0.1-0.1c0,0,0,0,0-0.1c0,0,0-0.1,0-0.1c0,0,0,0,0-0.1
		c0,0,0-0.1,0-0.1v-0.1c0-0.1,0-0.1,0-0.2c0,0,0-0.1-0.1-0.2c0,0,0,0,0,0c0,0,0-0.1-0.1-0.1c0,0,0,0,0,0c0,0,0,0-0.1-0.1
		c0,0,0,0,0,0c0,0-0.1-0.1-0.1-0.1h0c0,0-0.1,0-0.2-0.1c0,0,0,0,0,0c0,0-0.1,0-0.1,0h-0.1h0c-6.2-0.2-11-5.4-10.8-11.6
		c0.1-1.9,0.6-3.7,1.6-5.3c0,0,0,0,0-0.1c0,0,0,0,0,0c0,0,0-0.1,0-0.2c0,0,0,0,0,0c0,0,0-0.1,0-0.2c0,0,0,0,0,0c0,0,0-0.1,0-0.1
		c0,0,0,0,0-0.1c0,0,0-0.1,0-0.1c0,0,0,0,0-0.1c0,0,0-0.1,0-0.1l0,0c0,0-0.1-0.1-0.1-0.1c0,0-0.1-0.1-0.1-0.1l0,0c0,0-0.1,0-0.1,0
		l-0.1,0c0,0-0.1,0-0.1,0l-0.1,0h-0.1h0c0,0-0.1,0-0.2,0h0c0,0-0.1,0-0.2,0l0,0l-0.1,0c-5.4,3.1-12.2,1.3-15.3-4.1
		c-1.1-1.8-1.6-3.9-1.5-6.1c0,0,0-0.1,0-0.2l0,0c0,0,0-0.1,0-0.2c0,0,0,0,0,0c0,0,0-0.1,0-0.1c0,0,0,0,0,0l-0.1-0.1c0,0,0,0,0,0
		s0,0-0.1-0.1l0,0c0,0-0.1,0-0.1-0.1l0,0c0,0-0.1,0-0.2-0.1c-0.2,0-0.2,0-0.3,0h-0.1c0,0-0.1,0-0.1,0h-0.1c0,0-0.1,0-0.1,0l-0.1,0
		c0,0-0.1,0-0.1,0l0,0c0,0-0.1,0-0.1,0.1v0c0,0-0.1,0.1-0.1,0.1l0,0c0,0-0.1,0.1-0.1,0.1c-2,3.7-5.8,5.9-9.9,5.9
		c-3.9,0-7.5-2-9.5-5.3l0,0c0,0,0,0,0,0c0,0-0.1-0.1-0.1-0.1l0,0c0,0-0.1-0.1-0.1-0.1l0,0c0,0-0.1,0-0.2-0.1h0c0,0-0.1,0-0.1,0h0
		c0,0-0.1,0-0.1,0h0c-0.1,0-0.1,0-0.2,0c0,0-0.1,0-0.2,0.1c0,0,0,0,0,0c0,0-0.1,0-0.1,0.1l0,0c0,0,0,0-0.1,0.1l0,0
		c0,0,0,0.1-0.1,0.1c0,0,0,0,0,0c0,0,0,0.1-0.1,0.2l0,0c0,0,0,0.1,0,0.1c0,0,0,0,0,0.1c0,0,0,0,0,0c-0.2,6.2-5.4,11-11.6,10.8
		c-1.9-0.1-3.7-0.6-5.3-1.6l-0.1,0l0,0c0,0-0.1,0-0.2,0h0c0,0-0.1,0-0.2,0h0c0,0-0.1,0-0.1,0h-0.1c0,0-0.1,0-0.1,0l-0.1,0
		c0,0-0.1,0-0.1,0l0,0c0,0-0.1,0.1-0.1,0.1l0,0c0,0-0.1,0.1-0.1,0.1c0,0,0,0,0,0c0,0,0,0.1,0,0.1l0,0.1c0,0,0,0.1,0,0.1
		c0,0,0,0,0,0.1c0,0,0,0.1,0,0.1c0,0,0,0,0,0.1c0,0,0,0.1,0,0.2v0c0,0,0,0.1,0,0.2c0,0,0,0,0,0.1c0,0,0,0,0,0.1
		c3.1,5.4,1.3,12.2-4.1,15.4c-1.9,1.1-4,1.6-6.1,1.5c0,0-0.1,0-0.1,0c0,0-0.1,0-0.1,0l-0.1,0l-0.1,0l-0.1,0l-0.1,0c0,0,0,0-0.1,0
		l-0.1,0l-0.1,0.1l0,0c0,0,0,0.1-0.1,0.1l0,0c0,0,0,0.1-0.1,0.2c0,0.1,0,0.1,0,0.2c0,0,0,0,0,0.1c0,0,0,0.1,0,0.1c0,0,0,0,0,0.1
		c0,0,0,0.1,0,0.1l0,0.1c0,0,0,0.1,0,0.1c0,0,0,0,0,0.1c0,0,0,0.1,0.1,0.1l0,0c0,0,0.1,0.1,0.1,0.1l0,0c0,0,0.1,0.1,0.1,0.1
		c3.7,2,6,5.8,6,9.9c0,3.9-2,7.5-5.3,9.5l0,0l0,0c0,0-0.1,0-0.1,0.1l0,0c0,0-0.1,0.1-0.1,0.1v0c0,0,0,0.1-0.1,0.1c0,0,0,0,0,0.1
		c0,0,0,0.1,0,0.1c0,0,0,0,0,0.1c0,0,0,0.1,0,0.1c0,0,0,0,0,0.1c0,0.1,0,0.1,0,0.2c0,0,0,0.1,0,0.1l0,0.1c0,0,0,0,0,0.1s0,0,0,0.1
		l0,0.1l0.1,0l0,0l0.1,0c0,0,0,0,0.1,0l0.1,0l0.1,0l0.1,0l0.1,0c0,0,0,0,0.1,0c0,0,0,0,0.1,0c3.9,0.1,7.4,2.3,9.3,5.7
		c2,3.5,2,7.8-0.1,11.3c0,0,0,0,0,0.1c0,0,0,0,0,0c0,0,0,0.1,0,0.2v0c0,0,0,0.1,0,0.2c0,0,0,0,0,0c0,0,0,0.1,0,0.1l0,0.1
		c0,0,0,0.1,0,0.1c0,0,0,0,0,0.1c0,0,0,0.1,0,0.1c0,0,0,0,0,0c0,0,0.1,0.1,0.1,0.1c0,0,0.1,0.1,0.1,0.1l0,0l0.1,0l0.1,0
		c0,0,0.1,0,0.1,0l0.1,0c0,0,0.1,0,0.1,0h0l0,0c0,0,0.1,0,0.2,0l0,0c0,0,0.1,0,0.2,0l0.1,0l0.1,0c5.4-3.1,12.2-1.3,15.3,4.1
		c1.1,1.8,1.6,3.9,1.5,6c0,0,0,0.1,0,0.2l0,0c0,0,0,0.1,0,0.2l0,0c0,0,0,0.1,0,0.1c0,0,0,0,0,0c0,0,0,0.1,0.1,0.1l0,0
		c0,0,0,0,0.1,0.1l0,0c0,0,0.1,0,0.1,0.1c0,0,0,0,0,0c0,0,0.1,0,0.2,0.1c0.1,0,0.2,0,0.3,0h0c0,0,0.1,0,0.1,0h0l0.1,0l0,0l0.1,0l0,0
		c0,0,0,0,0.1,0l0,0c0,0,0.1-0.1,0.1-0.1l0,0c0,0,0,0,0.1-0.1l0,0c0,0,0,0,0,0c2.9-5.5,9.7-7.5,15.2-4.6c1.7,0.9,3.2,2.3,4.3,4v0
		c0,0,0,0,0,0.1c0,0,0,0,0,0c0,0,0,0,0,0l0.1,0l0,0l0.1,0l0.1,0l0.1,0l0.1,0l0.1,0h0.1h0.1h0h0.1h0c0,0,0.1,0,0.1,0
		c0,0,0.1,0,0.2-0.1l0,0c0,0,0.1,0,0.1-0.1c0,0,0,0,0,0c0,0,0,0,0.1-0.1c0,0,0,0,0,0c0,0,0-0.1,0.1-0.1l0,0c0,0,0-0.1,0.1-0.2
		c0,0,0,0,0,0c0,0,0-0.1,0-0.1c0,0,0,0,0-0.1c0,0,0,0,0-0.1c0.2-6.2,5.4-11,11.6-10.8c1.9,0.1,3.7,0.6,5.4,1.6l0.1,0l0,0
		c0,0,0.1,0,0.2,0h0c0,0,0.1,0,0.1,0h0h0h0.1l0.1,0l0.1,0l0.1,0c0,0,0.1,0,0.1,0l0,0c0,0,0.1-0.1,0.1-0.1c0,0,0.1-0.1,0.1-0.1
		c0,0,0,0,0,0c0,0,0-0.1,0-0.1c0,0,0,0,0-0.1c0,0,0-0.1,0-0.1l0-0.1c0,0,0-0.1,0-0.1s0,0,0,0c0,0,0-0.1,0-0.2c0,0,0,0,0,0
		c0,0,0-0.1,0-0.2c0,0,0,0,0,0c0,0,0,0,0-0.1c-3.1-5.4-1.3-12.2,4.1-15.3c1.8-1.1,3.9-1.6,6.1-1.5h0h0.1h0.1l0.1,0l0.1,0l0,0
		c0.2-0.1,0.5-0.3,0.6-0.5c0,0,0-0.1,0-0.2C245,53,245,52.9,245,52.9z M239.6,50.5l-16.4-4.5c0.6-2.7,0.6-5.5,0-8.2l16.2-4.3
		C235.4,38.6,235.5,45.7,239.6,50.5L239.6,50.5z M186.4,42c0-1.2,0.1-2.4,0.4-3.6l13.3,3.6l-13.3,3.5
		C186.5,44.3,186.4,43.2,186.4,42z M217.2,30.3c1.6,1.8,2.8,3.9,3.5,6.1L207.4,40L217.2,30.3z M206,38.6l3.6-13.3
		c2.3,0.8,4.4,2,6.2,3.6L206,38.6z M204,38l-3.5-13.3c2.3-0.5,4.8-0.5,7.1,0L204,38z M202,38.5l-9.7-9.8c1.8-1.6,3.9-2.8,6.1-3.5
		L202,38.5z M200.6,40l-13.3-3.6c0.8-2.3,2-4.4,3.6-6.2L200.6,40z M200.6,44l-9.8,9.7c-1.6-1.8-2.8-3.9-3.5-6.1L200.6,44z M202,45.4
		l-3.6,13.3c-2.3-0.8-4.4-2-6.2-3.6L202,45.4z M204,45.9l3.5,13.3c-2.3,0.5-4.8,0.5-7.1,0L204,45.9z M206,45.4l9.7,9.7
		c-1.8,1.6-3.9,2.8-6.1,3.5L206,45.4z M207.4,43.9l13.3,3.6c-0.8,2.3-2,4.4-3.6,6.2L207.4,43.9z M207.9,42l13.3-3.5
		c0.2,1.2,0.3,2.3,0.3,3.5c0,1.2-0.1,2.4-0.4,3.6L207.9,42z M238.9,31.7L222.7,36c-0.8-2.6-2.2-5-4-7l12-11.9
		C229.6,23.2,233,29.4,238.9,31.7L238.9,31.7z M220.4,13.9c2.7,1.6,5.8,2.1,8.9,1.6l-12,11.9c-2.1-1.9-4.5-3.3-7.1-4.1l4.5-16.4
		C215.6,9.9,217.7,12.4,220.4,13.9z M204,9.5c3.1,0,6.2-1.1,8.6-3.1l-4.5,16.4c-2.7-0.6-5.5-0.6-8.2,0l-4.3-16.2
		C198,8.5,201,9.5,204,9.5z M187.9,13.8c2.6-1.5,4.7-3.9,5.8-6.7l4.3,16.2c-2.6,0.8-5,2.2-7,4.1l-11.9-12
		C182.1,15.8,185.2,15.3,187.9,13.8z M175.9,25.6c1.6-2.7,2.1-5.8,1.6-8.9l11.9,12c-1.9,2.1-3.3,4.5-4.1,7.1l-16.4-4.4
		C171.9,30.4,174.4,28.3,175.9,25.6z M168.4,33.4l16.4,4.4c-0.6,2.7-0.6,5.5,0,8.2l-16.2,4.3c1.9-2.3,2.9-5.3,2.9-8.3
		C171.5,38.8,170.4,35.8,168.4,33.4z M169.1,52.3l16.2-4.3c0.8,2.6,2.2,5,4.1,7l-12,11.9C178.4,60.7,175,54.6,169.1,52.3L169.1,52.3
		z M187.6,70c-2-1.2-4.3-1.8-6.7-1.8c-0.7,0-1.5,0-2.2,0.2l12-11.9c2.1,1.9,4.5,3.3,7.1,4.1l-4.4,16.4
		C192.4,74.1,190.3,71.6,187.6,70L187.6,70z M204,74.5c-3.1,0-6.2,1.1-8.6,3.2l4.4-16.4c2.7,0.6,5.5,0.6,8.2,0l4.3,16.2
		C210,75.5,207,74.4,204,74.5L204,74.5z M220.1,70.2c-2.6,1.5-4.7,3.9-5.8,6.7L210,60.7c2.6-0.8,5-2.2,7-4l11.9,12
		C225.9,68.1,222.8,68.7,220.1,70.2L220.1,70.2z M232,58.4c-1.6,2.7-2.1,5.8-1.6,8.9l-11.9-12c1.9-2.1,3.3-4.5,4.1-7.1l16.4,4.4
		C236.1,53.6,233.6,55.6,232,58.4z"/>
</g>
</svg>
