<?xml version="1.0" encoding="utf-8"?>
<!-- Generator: Adobe Illustrator 23.0.1, SVG Export Plug-In . SVG Version: 6.00 Build 0)  -->
<svg version="1.1" id="Layer_1" xmlns="http://www.w3.org/2000/svg" xmlns:xlink="http://www.w3.org/1999/xlink" x="0px" y="0px"
	 viewBox="0 0 452 83" style="enable-background:new 0 0 452 83;" xml:space="preserve">
<style type="text/css">
	.st0{fill:#FFFFFF;}
	.st1{font-family:'Rockout';}
	.st2{font-size:45px;}
	.st3{font-family:'Lato-Regular';}
	.st4{font-size:20px;}
	.st5{fill:#FF01CB;}
</style>
<rect width="318.4" height="66.2"/>
<g id="Brand">
	<text transform="matrix(1 0 0 1 2.3753 38.5426)"><tspan x="0" y="0" class="st0 st1 st2">AMELIA GOODS      </tspan><tspan x="299.6" y="0" class="st0 st1 st2">N</tspan></text>
</g>
<text transform="matrix(1 0 0 1 2.3753 62.2991)" class="st0 st3 st4">Web developer / engineer</text>
<path class="st5" d="M297,30.6L297,30.6c0-0.1,0-0.1,0-0.1c0,0,0,0,0,0s0,0,0-0.1c0,0,0,0,0,0c0,0,0,0,0-0.1l0,0c0,0,0,0,0-0.1
	c0,0,0,0,0,0c0,0,0,0-0.1-0.1l0,0c0,0-0.1,0-0.1-0.1c-3.1-1.7-4.3-5.5-2.6-8.6c0.5-1,1.3-1.8,2.3-2.4l0,0l0,0c0,0,0,0,0.1-0.1
	c0,0,0,0,0,0c0,0,0-0.1,0.1-0.1l0,0c0,0,0-0.1,0-0.1c0,0,0,0,0,0s0,0,0-0.1c0,0,0,0,0,0c0,0,0,0,0-0.1v0c0,0,0-0.1,0-0.1
	c0,0,0-0.1,0-0.1c0,0,0,0,0,0c0,0,0,0,0-0.1c0,0,0,0,0,0s0,0-0.1-0.1c0,0,0,0,0,0c0,0,0,0-0.1-0.1h0c0,0-0.1,0-0.1,0c0,0,0,0,0,0
	c0,0,0,0-0.1,0h0h0c-3.5-0.1-6.3-3.1-6.1-6.6c0-1.1,0.3-2.1,0.9-3c0,0,0,0,0,0c0,0,0,0,0,0c0,0,0-0.1,0-0.1c0,0,0,0,0,0
	c0,0,0-0.1,0-0.1c0,0,0,0,0,0c0,0,0,0,0-0.1c0,0,0,0,0,0c0,0,0,0,0-0.1c0,0,0,0,0,0c0,0,0,0,0-0.1l0,0c0,0,0-0.1-0.1-0.1
	c0,0-0.1,0-0.1-0.1l0,0c0,0,0,0-0.1,0l0,0c0,0,0,0-0.1,0l0,0h-0.1h0c0,0-0.1,0-0.1,0h0c0,0-0.1,0-0.1,0l0,0l0,0
	c-3,1.8-6.9,0.7-8.7-2.3c-0.6-1-0.9-2.2-0.8-3.4c0,0,0-0.1,0-0.1l0,0c0,0,0-0.1,0-0.1c0,0,0,0,0,0c0,0,0,0,0-0.1s0,0,0,0l0-0.1
	c0,0,0,0,0,0s0,0,0,0l0,0c0,0,0,0-0.1,0l0,0c0,0-0.1,0-0.1,0c-0.1,0-0.1,0-0.2,0h0c0,0,0,0-0.1,0h0c0,0,0,0-0.1,0l0,0c0,0,0,0-0.1,0
	l0,0c0,0,0,0-0.1,0v0c0,0-0.1,0-0.1,0.1l0,0c0,0,0,0.1-0.1,0.1c-1.1,2.1-3.3,3.4-5.6,3.4c-2.2,0-4.3-1.1-5.4-3l0,0c0,0,0,0,0,0
	c0,0,0,0-0.1-0.1l0,0c0,0-0.1,0-0.1-0.1l0,0c0,0-0.1,0-0.1,0h0c0,0-0.1,0-0.1,0h0c0,0-0.1,0-0.1,0h0c0,0-0.1,0-0.1,0
	c0,0-0.1,0-0.1,0c0,0,0,0,0,0c0,0,0,0-0.1,0l0,0c0,0,0,0-0.1,0l0,0c0,0,0,0-0.1,0.1c0,0,0,0,0,0c0,0,0,0.1,0,0.1l0,0c0,0,0,0,0,0.1
	c0,0,0,0,0,0c0,0,0,0,0,0c-0.1,3.5-3.1,6.2-6.6,6.1c-1.1,0-2.1-0.3-3-0.9l0,0l0,0c0,0-0.1,0-0.1,0h0c0,0-0.1,0-0.1,0h0
	c0,0,0,0-0.1,0h0c0,0,0,0-0.1,0l0,0c0,0,0,0-0.1,0l0,0c0,0-0.1,0-0.1,0.1l0,0c0,0,0,0.1-0.1,0.1c0,0,0,0,0,0c0,0,0,0,0,0.1l0,0
	c0,0,0,0,0,0.1c0,0,0,0,0,0c0,0,0,0,0,0.1c0,0,0,0,0,0c0,0,0,0.1,0,0.1v0c0,0,0,0.1,0,0.1c0,0,0,0,0,0c0,0,0,0,0,0
	c1.8,3,0.7,6.9-2.3,8.7c-1.1,0.6-2.2,0.9-3.5,0.9c0,0,0,0-0.1,0c0,0,0,0-0.1,0l-0.1,0l0,0l-0.1,0l0,0c0,0,0,0,0,0l0,0l-0.1,0l0,0
	c0,0,0,0,0,0.1l0,0c0,0,0,0.1,0,0.1c0,0,0,0.1,0,0.1c0,0,0,0,0,0c0,0,0,0,0,0.1c0,0,0,0,0,0c0,0,0,0,0,0.1l0,0c0,0,0,0,0,0.1
	c0,0,0,0,0,0c0,0,0,0,0,0.1l0,0c0,0,0,0,0.1,0.1l0,0c0,0,0.1,0,0.1,0.1c2.1,1.1,3.4,3.3,3.4,5.6c0,2.2-1.1,4.3-3,5.4l0,0l0,0
	c0,0,0,0-0.1,0.1l0,0c0,0,0,0.1-0.1,0.1v0c0,0,0,0.1,0,0.1c0,0,0,0,0,0c0,0,0,0,0,0.1c0,0,0,0,0,0c0,0,0,0,0,0.1c0,0,0,0,0,0
	c0,0,0,0.1,0,0.1c0,0,0,0.1,0,0.1l0,0c0,0,0,0,0,0s0,0,0,0l0,0l0,0l0,0l0,0c0,0,0,0,0,0l0,0l0,0l0,0l0,0c0,0,0,0,0.1,0c0,0,0,0,0,0
	c2.2,0.1,4.2,1.3,5.3,3.2c1.1,2,1.1,4.4,0,6.4c0,0,0,0,0,0c0,0,0,0,0,0c0,0,0,0.1,0,0.1v0c0,0,0,0.1,0,0.1c0,0,0,0,0,0
	c0,0,0,0,0,0.1l0,0c0,0,0,0,0,0.1c0,0,0,0,0,0c0,0,0,0,0,0.1c0,0,0,0,0,0c0,0,0,0.1,0.1,0.1c0,0,0.1,0,0.1,0.1l0,0l0.1,0l0,0
	c0,0,0,0,0.1,0l0,0c0,0,0,0,0.1,0h0l0,0c0,0,0.1,0,0.1,0l0,0c0,0,0.1,0,0.1,0l0,0l0,0c3-1.8,6.9-0.7,8.7,2.3c0.6,1,0.9,2.2,0.8,3.4
	c0,0,0,0.1,0,0.1l0,0c0,0,0,0.1,0,0.1l0,0c0,0,0,0,0,0.1c0,0,0,0,0,0c0,0,0,0,0,0.1l0,0c0,0,0,0,0,0l0,0c0,0,0,0,0.1,0c0,0,0,0,0,0
	c0,0,0.1,0,0.1,0c0.1,0,0.1,0,0.2,0h0c0,0,0.1,0,0.1,0h0l0.1,0l0,0l0.1,0l0,0c0,0,0,0,0,0l0,0c0,0,0,0,0.1-0.1l0,0c0,0,0,0,0-0.1
	l0,0c0,0,0,0,0,0c1.7-3.1,5.5-4.3,8.6-2.6c1,0.5,1.8,1.3,2.4,2.3v0c0,0,0,0,0,0c0,0,0,0,0,0c0,0,0,0,0,0l0,0l0,0l0,0l0,0l0,0l0,0
	l0.1,0h0h0.1h0h0h0c0,0,0.1,0,0.1,0c0,0,0.1,0,0.1,0l0,0c0,0,0,0,0.1,0c0,0,0,0,0,0c0,0,0,0,0.1,0c0,0,0,0,0,0c0,0,0,0,0.1-0.1l0,0
	c0,0,0-0.1,0-0.1c0,0,0,0,0,0c0,0,0,0,0-0.1c0,0,0,0,0,0c0,0,0,0,0,0c0.1-3.5,3.1-6.3,6.6-6.1c1.1,0,2.1,0.3,3.1,0.9l0.1,0l0,0
	c0,0,0.1,0,0.1,0h0c0,0,0.1,0,0.1,0h0h0h0.1l0,0l0.1,0l0,0c0,0,0,0,0.1,0l0,0c0,0,0.1,0,0.1-0.1s0.1-0.1,0.1-0.1c0,0,0,0,0,0
	c0,0,0,0,0-0.1c0,0,0,0,0,0s0,0,0-0.1l0,0c0,0,0,0,0-0.1s0,0,0,0c0,0,0-0.1,0-0.1c0,0,0,0,0,0c0,0,0-0.1,0-0.1c0,0,0,0,0,0
	c0,0,0,0,0-0.1c-1.8-3-0.7-6.9,2.3-8.7c1-0.6,2.2-0.9,3.4-0.8h0h0h0l0,0l0.1,0l0,0c0.1-0.1,0.3-0.2,0.3-0.3
	C296.9,30.7,296.9,30.7,297,30.6C296.9,30.6,296.9,30.6,297,30.6z M293.9,29.2l-9.3-2.5c0.3-1.5,0.3-3.1,0-4.6l9.2-2.4
	C291.5,22.5,291.6,26.5,293.9,29.2L293.9,29.2z M263.7,24.4c0-0.7,0.1-1.4,0.2-2l7.5,2l-7.6,2C263.8,25.7,263.7,25,263.7,24.4z
	 M281.2,17.8c0.9,1,1.6,2.2,2,3.5l-7.5,2L281.2,17.8z M274.8,22.5l2-7.5c1.3,0.4,2.5,1.1,3.5,2.1L274.8,22.5z M273.7,22.1l-2-7.6
	c1.3-0.3,2.7-0.3,4,0L273.7,22.1z M272.6,22.4l-5.5-5.5c1-0.9,2.2-1.6,3.5-2L272.6,22.4z M271.8,23.3l-7.6-2
	c0.4-1.3,1.1-2.5,2.1-3.5L271.8,23.3z M271.8,25.5l-5.5,5.5c-0.9-1-1.6-2.2-2-3.5L271.8,25.5z M272.6,26.3l-2.1,7.5
	c-1.3-0.4-2.5-1.1-3.5-2.1L272.6,26.3z M273.7,26.6l2,7.6c-1.3,0.3-2.7,0.3-4,0L273.7,26.6z M274.8,26.3l5.5,5.5
	c-1,0.9-2.2,1.6-3.5,2L274.8,26.3z M275.6,25.5l7.6,2c-0.4,1.3-1.1,2.5-2.1,3.5L275.6,25.5z M275.9,24.4l7.6-2
	c0.1,0.7,0.2,1.3,0.2,2c0,0.7-0.1,1.4-0.2,2L275.9,24.4z M293.5,18.5l-9.2,2.4c-0.5-1.5-1.3-2.8-2.3-4l6.8-6.8
	C288.2,13.7,290.2,17.2,293.5,18.5L293.5,18.5z M283,8.5c1.5,0.9,3.3,1.2,5,0.9l-6.8,6.8c-1.2-1.1-2.5-1.9-4-2.3l2.5-9.3
	C280.3,6.2,281.5,7.6,283,8.5z M273.7,6c1.8,0,3.5-0.6,4.9-1.8l-2.5,9.3c-1.5-0.3-3.1-0.3-4.6,0L269,4.3C270.3,5.4,272,6,273.7,6z
	 M264.6,8.4c1.5-0.8,2.7-2.2,3.3-3.8l2.4,9.2c-1.5,0.5-2.8,1.3-4,2.3l-6.8-6.8C261.3,9.6,263,9.2,264.6,8.4z M257.8,15.1
	c0.9-1.5,1.2-3.3,0.9-5l6.8,6.8c-1.1,1.2-1.9,2.5-2.3,4l-9.3-2.5C255.5,17.8,256.9,16.6,257.8,15.1z M253.5,19.5l9.3,2.5
	c-0.3,1.5-0.3,3.1,0,4.6l-9.2,2.4c1.1-1.3,1.7-3,1.7-4.7C255.3,22.6,254.7,20.9,253.5,19.5z M253.9,30.2l9.2-2.4
	c0.5,1.5,1.3,2.8,2.3,4l-6.8,6.8C259.2,35,257.3,31.5,253.9,30.2L253.9,30.2z M264.4,40.3c-1.2-0.7-2.5-1-3.8-1
	c-0.4,0-0.8,0-1.2,0.1l6.8-6.7c1.2,1.1,2.5,1.9,4,2.3l-2.5,9.3C267.1,42.6,266,41.2,264.4,40.3L264.4,40.3z M273.7,42.8
	c-1.8,0-3.5,0.6-4.9,1.8l2.5-9.3c1.5,0.3,3.1,0.3,4.6,0l2.4,9.2C277.1,43.4,275.4,42.8,273.7,42.8L273.7,42.8z M282.8,40.4
	c-1.5,0.8-2.7,2.2-3.3,3.8l-2.4-9.2c1.5-0.5,2.8-1.2,4-2.3l6.8,6.8C286.1,39.2,284.4,39.5,282.8,40.4L282.8,40.4z M289.6,33.7
	c-0.9,1.5-1.2,3.3-0.9,5l-6.8-6.8c1.1-1.2,1.9-2.5,2.3-4l9.3,2.5C291.9,30.9,290.5,32.1,289.6,33.7z"/>
</svg>
