<?xml version="1.0" encoding="utf-8"?>
<!-- Generator: Adobe Illustrator 23.0.1, SVG Export Plug-In . SVG Version: 6.00 Build 0)  -->
<svg version="1.1" id="Layer_1" xmlns="http://www.w3.org/2000/svg" xmlns:xlink="http://www.w3.org/1999/xlink" x="0px" y="0px"
	 viewBox="0 0 64 64" style="enable-background:new 0 0 64 64;" xml:space="preserve">
<path d="M63,31h-3.7c-5.2-3-8.5-8.5-8.5-14.6c0-0.6,0-1.3,0.1-1.9l3.7-3.7c0.4-0.4,0.4-1,0-1.4c-0.4-0.4-1-0.4-1.4,0l-3.7,3.7
	c-0.6,0.1-1.3,0.1-1.9,0.1c-6,0-11.6-3.2-14.6-8.5V1c0-0.6-0.4-1-1-1s-1,0.4-1,1v3.7c-1.8,3.3-4.7,5.8-8.2,7.2
	c-0.5,0.2-0.8,0.8-0.5,1.3c0,0,0,0,0,0c0.2,0.5,0.8,0.7,1.3,0.5c2.9-1.2,5.4-3.1,7.4-5.5v4.4c-2,3.6-5.8,5.8-10,5.8
	c-0.4,0-0.8,0-1.2-0.1l-3.2-3.2c1,0,1.9-0.1,2.9-0.2c0.5-0.1,0.9-0.6,0.8-1.2c-0.1-0.5-0.6-0.9-1.2-0.8c-1.5,0.3-3.1,0.3-4.7,0.1
	l-3.7-3.7c-0.4-0.4-1-0.4-1.4,0c-0.4,0.4-0.4,1,0,1.4l3.7,3.7c0.1,0.6,0.1,1.3,0.1,1.9c0,6-3.2,11.6-8.5,14.6H1c-0.6,0-1,0.4-1,1
	s0.4,1,1,1h3.7c5.2,3,8.5,8.5,8.5,14.6c0,0.6,0,1.3-0.1,1.9l-3.7,3.7c-0.4,0.4-0.4,1,0,1.4c0.4,0.4,1,0.4,1.4,0l3.7-3.7
	c0.6-0.1,1.3-0.1,1.9-0.1c6,0,11.6,3.2,14.6,8.5V63c0,0.6,0.4,1,1,1s1-0.4,1-1v-3.7c0.9-1.5,1.9-2.9,3.2-4.1c0.4-0.4,0.4-1,0-1.4
	c-0.4-0.4-1-0.4-1.4-0.1c-0.7,0.6-1.3,1.3-1.9,2v-4.4c2-3.6,5.8-5.8,10-5.8c0.4,0,0.8,0,1.2,0.1l3.2,3.2c-3.2,0-6.3,0.9-9.1,2.4
	c-0.5,0.3-0.6,0.9-0.4,1.4c0,0,0,0,0,0c0.3,0.5,0.9,0.6,1.4,0.4c2.5-1.4,5.4-2.2,8.3-2.2c0.6,0,1.3,0,1.9,0.1l3.7,3.7
	c0.4,0.4,1,0.4,1.4,0c0.4-0.4,0.4-1,0-1.4l-3.7-3.7c-0.1-0.6-0.1-1.3-0.1-1.9c0-6,3.2-11.6,8.5-14.6H63c0.6,0,1-0.4,1-1
	S63.6,31,63,31z M55.7,31h-4.4c-3.6-2-5.8-5.8-5.8-10c0-0.4,0-0.8,0.1-1.2l3.2-3.2C48.8,22.2,51.4,27.5,55.7,31z M23.1,24.5
	c0,0.2,0,0.4,0,0.6c0,2.4-1.3,4.7-3.4,5.9h-3.6c2.6-2.4,4.1-5.6,4.4-9.1L23.1,24.5z M31,41.2c-1.3-1.2-2.9-1.9-4.6-2.2l4.6-4.6V41.2
	z M33,22.8c1.3,1.2,2.9,1.9,4.6,2.2L33,29.6V22.8z M39,26.4c0.3,1.7,1,3.3,2.2,4.6h-6.8L39,26.4z M39.5,23.1c-0.2,0-0.4,0-0.6,0
	c-2.4,0-4.7-1.3-5.9-3.4v-3.6c2.4,2.6,5.6,4.1,9.1,4.4L39.5,23.1z M31,29.6L26.4,25c1.7-0.3,3.3-1,4.6-2.2V29.6z M29.6,31h-6.8
	c1.2-1.3,1.9-2.9,2.2-4.6L29.6,31z M29.6,33L25,37.6c-0.3-1.7-1-3.3-2.2-4.6H29.6z M24.5,40.9c0.2,0,0.4,0,0.6,0
	c2.4,0,4.7,1.3,5.9,3.4v3.6c-2.4-2.6-5.6-4.1-9.1-4.4L24.5,40.9z M33,34.4l4.6,4.6c-1.7,0.3-3.3,1-4.6,2.2V34.4z M34.4,33h6.8
	c-1.2,1.3-1.9,2.9-2.2,4.6L34.4,33z M44.3,31c-2.1-1.2-3.4-3.5-3.4-5.9c0-0.2,0-0.4,0-0.6l2.6-2.6c0.2,3.5,1.8,6.8,4.4,9.1H44.3z
	 M47.4,15.2l-3.2,3.2c-0.4,0-0.8,0.1-1.2,0.1c-4.1,0-7.9-2.2-10-5.8V8.3C36.5,12.6,41.8,15.2,47.4,15.2L47.4,15.2z M31,16.1v3.6
	c-1.2,2.1-3.5,3.4-5.9,3.4c-0.2,0-0.4,0-0.6,0l-2.6-2.6C25.4,20.2,28.6,18.7,31,16.1z M15.2,16.6l3.2,3.2c0,0.4,0.1,0.8,0.1,1.2
	c0,4.1-2.2,7.9-5.8,9.9H8.3C12.6,27.5,15.2,22.2,15.2,16.6L15.2,16.6z M8.3,33h4.5c1.2,0.7,2.3,1.6,3.2,2.7c0.4,0.4,1,0.5,1.4,0.1
	c0.4-0.3,0.5-0.9,0.2-1.4c-0.4-0.5-0.9-1-1.4-1.5h3.6c2.1,1.2,3.4,3.5,3.4,5.9c0,0.2,0,0.4,0,0.6l-2.6,2.6c-0.1-1.3-0.3-2.6-0.8-3.9
	c-0.2-0.5-0.8-0.8-1.3-0.6c-0.5,0.2-0.8,0.8-0.6,1.3l0,0c0.5,1.3,0.7,2.6,0.7,4c0,0.4,0,0.8-0.1,1.2l-3.2,3.2
	C15.2,41.8,12.6,36.5,8.3,33z M16.6,48.8l3.2-3.2c0.4,0,0.8-0.1,1.2-0.1c4.1,0,7.9,2.2,10,5.8v4.4C27.5,51.4,22.2,48.8,16.6,48.8z
	 M33,47.9v-3.6c1.2-2.1,3.5-3.4,5.9-3.4c0.2,0,0.4,0,0.6,0l2.6,2.6C38.6,43.8,35.4,45.3,33,47.9z M48.8,47.4l-3.2-3.2
	c0-0.4-0.1-0.8-0.1-1.2c0-1.5,0.3-3,0.9-4.4c0.2-0.5,0-1.1-0.5-1.3s-1.1,0-1.3,0.5c-0.6,1.4-0.9,2.8-1,4.3l-2.6-2.6
	c0-0.2,0-0.4,0-0.6c0-2.4,1.3-4.7,3.4-5.9h3.6c-0.4,0.3-0.7,0.7-1.1,1.1c-0.4,0.4-0.3,1.1,0.1,1.4s1.1,0.3,1.4-0.1
	c0.8-1,1.8-1.8,2.9-2.4h4.5C51.4,36.5,48.8,41.8,48.8,47.4z"/>
</svg>
