<svg xmlns="http://www.w3.org/2000/svg" viewBox="0 0 438.82 476.13"><title>arrow-next</title><g id="Layer_2" data-name="Layer 2"><g id="Layer_1-2" data-name="Layer 1"><path d="M111.4,157.47c37.21-8.37,70.66,15.42,82.15,51.4,9.18,28.75-18.12,66.48-51,61.25C106,264.31,106,209,112.51,182.19c9.24-37.82,34.81-63.15,67.36-82.6a332,332,0,0,1,51.38-25.5c25.13-9.62,47.12-12.55,73.69-12.16,4.65.07,57.35,1.27,57.75,3,4.2,18.62,11.24,40,13.49,59.18-50.89-32.31-115.61-15.06-169.06,6C176.6,142.11,101.48,192,143.6,233c18.62,18.15,32.22-5.49,22.79-25.51C156.28,186.06,131,177.38,110,182.28c-22.76,5.3-40,25.23-51.1,44.7-17.65,30.87-32.68,59.49-36.46,95.21C18.75,357.14,12.69,392.08,7.93,427c-2.17,15.88,1,33.33.44,49.13C-10.15,386.05-6.7,184,111.4,157.47Z"/><polygon points="354.12 0 438.82 80.85 357.97 165.54 354.12 0"/></g></g></svg>