<?xml version="1.0" encoding="utf-8"?>
<!-- Generator: Adobe Illustrator 23.0.1, SVG Export Plug-In . SVG Version: 6.00 Build 0)  -->
<svg version="1.1" id="Layer_1" xmlns="http://www.w3.org/2000/svg" xmlns:xlink="http://www.w3.org/1999/xlink" x="0px" y="0px"
	 viewBox="0 0 3128.9 873" style="enable-background:new 0 0 3128.9 873;" xml:space="preserve">
<style type="text/css">
	.st0{fill:#FFFFFF;}
	.st1{font-family:'Rockout';}
	.st2{font-size:266.2387px;}
	.st3{fill:#FF01CB;}
	.st4{font-family:'Lato-Regular';}
	.st5{font-size:99.4935px;}
</style>
<image style="overflow:visible;enable-background:new    ;" width="2503" height="691" xlink:href="spider-web-top_2-long - Copy.png"  transform="matrix(1.1986 0 0 1.0854 83.7075 54.8098)">
</image>
<g id="Brand_1_">
	<text transform="matrix(1.1043 0 0 1 234.0669 481.8294)" class="st0 st1 st2">AMELIA GOODS      </text>
	<text transform="matrix(1.1043 0 0 1 2137.2422 481.8294)" class="st0 st1 st2">N</text>
</g>
<path class="st3" d="M2158.7,434.7L2158.7,434.7C2158.7,434.2,2158.7,434.2,2158.7,434.7c0-0.5,0-0.5,0-0.9v-0.5c0,0,0,0,0-0.5v-0.5
	V432c0,0,0-0.5-0.5-0.5l0,0l-0.5-0.5l0,0l-0.5-0.5c-20.5-9.9-28-32.6-17-51.1c3.5-5.9,8.5-10.9,15-14.5l0,0l0,0c0,0,0.5,0,0.5-0.5
	l0,0l0.5-0.5l0,0c0,0,0-0.5,0.5-0.5c0,0,0,0,0-0.5v-0.5c0,0,0,0,0-0.5v-0.5v0.5c0-0.5,0-0.5,0-0.5s0-0.5-0.5-0.5l0,0
	c0,0,0-0.5-0.5-0.5l0,0c0,0,0,0-0.5-0.5l0,0l-0.5-0.5l0,0c0,0-0.5,0-0.5-0.5l0,0h-0.5h-0.5l0,0c-23-0.9-41-18.1-40-38.9
	c0.5-6.3,2.5-12.7,6-18.1c0,0,0,0,0-0.5l0,0v-0.5l0,0v-0.5l0,0v-0.5c0,0,0,0,0-0.5v-0.5c0,0,0,0,0-0.5V299l0,0l-0.5-0.5l-0.5-0.5
	l0,0h-0.5h-0.5h-0.5h-0.5h-0.5l0,0h-0.5l0,0h-0.5l0,0h-0.5c-20,10.4-45.4,4.1-56.9-14c-4-6.3-6-13.1-5.5-20.4v-0.5l0,0v-0.5l0,0
	v-0.5l0,0l-0.5-0.5l0,0c0,0,0,0-0.5-0.5l0,0c0,0-0.5,0-0.5-0.5l0,0c0,0-0.5,0-0.5-0.5c-0.5,0-1,0-1,0h-0.5h-0.5h-1.5h-0.5h-0.5h-0.5
	l0,0c0,0-0.5,0-0.5,0.5l0,0l-0.5,0.5l0,0l-0.5,0.5c-7.5,12.2-21.5,19.9-37,19.9c-14.5,0-28-6.8-35.5-17.6l0,0l0,0l-0.5-0.5l0,0
	l-0.5-0.5l0,0c0,0-0.5,0-0.5-0.5l0,0h-0.5l0,0h-0.5l0,0c-0.5,0-0.5,0-0.5,0s-0.5,0-0.5,0.5l0,0c0,0-0.5,0-0.5,0.5l0,0
	c0,0,0,0-0.5,0.5l0,0c0,0,0,0.5-0.5,0.5l0,0c0,0,0,0.5-0.5,0.5l0,0v0.5c0,0,0,0,0,0.5l0,0c-0.5,20.8-20,37.1-42.9,36.2
	c-7-0.5-13.5-2.3-19.5-5.4h-0.5l0,0h-0.5l0,0h-0.5l0,0h-0.5h-0.5h-0.5h-0.5h-0.5l0,0l-0.5,0.5l0,0l-0.5,0.5l0,0v0.5v0.5v0.5
	c0,0,0,0,0,0.5v0.5c0,0,0,0,0,0.5v0.5l0,0v0.5c0,0,0,0,0,0.5c0,0,0,0,0,0.5c11.5,18.1,5,41.2-15,51.6c-7,3.6-14.5,5.4-22.5,5h-0.5
	h-0.5h-0.5h-0.5h-0.5h-0.5c0,0,0,0-0.5,0h-0.5l-0.5,0.5l0,0c0,0,0,0.5-0.5,0.5l0,0c0,0,0,0.5-0.5,0.5c0,0.5,0,0.5,0,0.5s0,0,0,0.5
	v0.5c0,0,0,0,0,0.5v0.5v0.5v0.5c0,0,0,0,0,0.5c0,0,0,0.5,0.5,0.5l0,0l0.5,0.5l0,0l0.5,0.5c13.5,6.8,22,19.4,22,33.5
	c0,13.1-7.5,25.3-19.5,32.1l0,0l0,0c0,0-0.5,0-0.5,0.5l0,0l-0.5,0.5l0,0c0,0,0,0.5-0.5,0.5c0,0,0,0,0,0.5v0.5c0,0,0,0,0,0.5v0.5
	c0,0,0,0,0,0.5s0,0.5,0,0.5v0.5v0.5c0,0,0,0,0,0.5s0,0,0,0.5v0.5h0.5l0,0h0.5c0,0,0,0,0.5,0h0.5h0.5h0.5h0.5c0,0,0,0,0.5,0
	c0,0,0,0,0.5,0c14.5,0.5,27.5,7.7,34.5,19c7.5,11.8,7.5,26.2-0.5,38c0,0,0,0,0,0.5l0,0v0.5l0,0v0.5l0,0v0.5v0.5v0.5c0,0,0,0,0,0.5
	v0.5l0,0l0.5,0.5l0.5,0.5l0,0h0.5h0.5h0.5h0.5h0.5l0,0l0,0h0.5l0,0h0.5h0.5h0.5c20-10.4,45.4-4.1,56.9,14c4,6.3,6,13.1,5.5,20.4v0.5
	l0,0v0.5l0,0v0.5l0,0c0,0,0,0.5,0.5,0.5l0,0c0,0,0,0,0.5,0.5l0,0c0,0,0.5,0,0.5,0.5l0,0c0,0,0.5,0,0.5,0.5c0.5,0,0.5,0,1,0l0,0h0.5
	l0,0h0.5l0,0h0.5l0,0c0,0,0,0,0.5,0l0,0l0.5-0.5l0,0c0,0,0,0,0.5-0.5l0,0l0,0c11-18.5,36-25.3,56.4-15.4c6.5,3.2,12,7.7,16,13.6l0,0
	c0,0,0,0,0,0.5l0,0l0,0h0.5l0,0h0.5h0.5h0.5h0.5h0.5h0.5h0.5l0,0h0.5l0,0h0.5c0,0,0.5,0,0.5-0.5l0,0c0,0,0.5,0,0.5-0.5l0,0
	c0,0,0,0,0.5-0.5l0,0c0,0,0-0.5,0.5-0.5l0,0c0,0,0-0.5,0.5-0.5l0,0V531c0,0,0,0,0-0.5c0,0,0,0,0-0.5c1-20.8,20-37.1,42.9-36.2
	c7,0.5,14,2.3,20,5.4h0.5l0,0h0.5l0,0h0.5l0,0l0,0h0.5h0.5h0.5h0.5h0.5l0,0l0.5-0.5l0.5-0.5l0,0V498c0,0,0,0,0-0.5v-0.5v-0.5v-0.5
	l0,0v-0.5l0,0v-0.5l0,0c0,0,0,0,0-0.5c-11.5-18.1-4.5-41.2,15.5-51.6c7-3.6,14.5-5.4,22.5-5l0,0h0.5h0.5h0.5h0.5l0,0
	c1-0.5,1.5-0.9,2-1.8v-0.5C2158.7,435.1,2158.7,434.7,2158.7,434.7z M2138.7,426.6l-60.9-14.9c2-9,2-18.5,0-27.6l59.9-14.5
	C2123.3,386.8,2123.3,410.7,2138.7,426.6L2138.7,426.6z M1941.5,398.1c0-4.1,0.5-8.1,1.5-12.2l49.4,12.2l-49.4,11.8
	C1942,405.8,1941.5,402.1,1941.5,398.1z M2055.8,359.2c6,5.9,10.5,13.1,13,20.8l-49.4,11.8L2055.8,359.2z M2013.9,386.8l13.5-44.8
	c8.5,2.7,16.5,6.8,23,12.2L2013.9,386.8z M2006.9,384.9l-13-44.8c8.5-1.4,17.5-1.4,26.5,0L2006.9,384.9z M1999.4,386.3l-36-32.6
	c6.5-5.4,14.5-9.5,23-11.8L1999.4,386.3z M1994.4,391.3l-49.4-12.2c3-7.7,7.5-14.9,13.5-20.8L1994.4,391.3z M1993.9,404.8l-36,32.6
	c-6-5.9-10.5-13.1-13-20.8L1993.9,404.8z M1999.4,409.4l-13.5,44.8c-8.5-2.7-16.5-6.8-23-12.2L1999.4,409.4z M2006.9,411.2l13,44.8
	c-8.5,1.8-17.5,1.4-26.5,0L2006.9,411.2z M2013.9,409.4l36,32.6c-6.5,5.4-14.5,9.5-23,11.8L2013.9,409.4z M2019.4,404.4l49.4,12.2
	c-3,7.7-7.5,14.9-13.5,20.8L2019.4,404.4z M2021.4,398.1l49.4-11.8c1,4.1,1.5,7.7,1.5,11.8s-0.5,8.1-1.5,12.2L2021.4,398.1z
	 M2136.2,363.2l-59.9,14.5c-3-8.6-8.5-16.7-15-23.5l44.4-39.8C2101.3,335.2,2114.3,355.6,2136.2,363.2L2136.2,363.2z M2067.3,304
	c10,5.4,21.5,7.2,33,5.4l-44.4,39.8c-7.5-6.3-16.5-10.9-26.5-14l16.5-55.2C2049.8,290.4,2057.3,298.6,2067.3,304z M2006.9,289.1
	c11.5,0,23-3.6,32-10.4l-16.5,55.2c-10-1.8-20.5-1.8-30.5,0l-16-54.3C1984.4,285.5,1995.4,289.1,2006.9,289.1z M1947,303.5
	c10-5,17.5-13.1,21.5-22.6l16,54.3c-9.5,2.7-18.5,7.7-26,13.6l-43.9-40.2C1925.5,310.3,1937,308.5,1947,303.5z M1903,342.9
	c6-9,8-19.4,6-29.8l43.9,40.2c-7,6.8-12,14.9-15.5,24l-60.9-14.5C1887.5,359.2,1897,352.4,1903,342.9z M1874.6,369.1l60.9,14.9
	c-2,9-2,18.5,0,27.6l-59.9,14.5c7-7.7,11-17.6,11-28S1882.5,377.3,1874.6,369.1z M1877.6,432.4l59.9-14.5c3,8.6,8.5,16.7,15,23.5
	l-44.4,39.8C1912,460.9,1899,440.1,1877.6,432.4L1877.6,432.4z M1946,492.1c-7.5-4.1-16-5.9-25-5.9c-2.5,0-5.5,0-8,0.5l44.4-39.8
	c7.5,6.3,16.5,10.9,26.5,14l-16.5,55.2C1964,505.7,1956,497.6,1946,492.1L1946,492.1z M2006.9,507.1c-11.5,0-23,3.6-32,10.4
	l16.5-55.2c10,1.8,20.5,1.8,30.5,0l16,54.3C2028.9,510.7,2017.9,507.1,2006.9,507.1L2006.9,507.1z M2066.3,492.6
	c-10,5-17.5,13.1-21.5,22.6l-16-54.3c9.5-2.7,18.5-7.2,26-13.6l43.9,40.2C2087.8,485.8,2076.3,487.6,2066.3,492.6L2066.3,492.6z
	 M2110.8,452.8c-6,9-8,19.4-6,29.8l-43.9-40.2c7-6.8,12-14.9,15.5-24l60.9,14.9C2125.8,437,2116.3,443.7,2110.8,452.8z"/>
<text transform="matrix(1.1043 0 0 1 234.0669 624.6322)" class="st0 st4 st5">Web Designer / Developer / Engineer</text>
</svg>
