<svg xmlns="http://www.w3.org/2000/svg" viewBox="0 0 207.11 171.95"><defs><style>.cls-1{fill:#fff;}</style></defs><title>spider-web2</title><g id="Layer_2" data-name="Layer 2"><g id="Layer_1-2" data-name="Layer 1"><path class="cls-1" d="M132.9,133.07a29.27,29.27,0,0,0,4.44-5.48c1.28-2,2.41-4,3.54-6.12,2.24-4.15,4.67-8.2,7-12.29s4.71-8.18,7-12.3l7-12.33q3.47-6.17,6.87-12.37l3.35-6.24,3.28-6.27c1.15-2.07,2.56-4,3.84-6s2.35-4.09,3.47-6.16L186,41.31c1.1-2.09,2.22-4.17,3.27-6.28h0c2.08-2.91,4.07-5.9,6-8.91,1-1.52,1.9-3.05,2.79-4.6s1.76-3.12,2.55-4.74l.07,0c-.75,1.63-1.56,3.23-2.45,4.8s-1.81,3.1-2.75,4.63c-1.9,3.05-3.93,6-6,8.92v0c-1.07,2.11-2.19,4.18-3.31,6.26l-3.36,6.23c-1.13,2.06-2.18,4.19-3.51,6.15s-2.68,3.88-3.82,5.95L172.23,66l-3.31,6.26q-3.36,6.24-6.8,12.42c-4.61,8.24-9.16,16.51-14,24.63-2.38,4.08-4.83,8.11-7.08,12.26-1.14,2.06-2.3,4.12-3.61,6.09a28.78,28.78,0,0,1-4.53,5.43Z"/><path class="cls-1" d="M127.26,133.85a103.81,103.81,0,0,0,.8-14,96,96,0,0,0-1.11-14A69.82,69.82,0,0,0,125.51,99c-.6-2.26-1.29-4.49-2-6.72-1.47-4.44-3.07-8.85-4.17-13.41-.57-2.28-.92-4.6-1.27-6.91s-.93-4.59-1.53-6.85c-1.18-4.53-2.61-9-3.39-13.63a48.28,48.28,0,0,1-.61-7c-.11-2.34-.28-4.67-.59-7-.16-1.16-.35-2.31-.58-3.46a25.06,25.06,0,0,1-.62-3.46,33.52,33.52,0,0,0-.32-3.49,5.13,5.13,0,0,0-.57-1.62,11.49,11.49,0,0,1-.86-1.54h0L103.92,0l.19,0,5,23.89v0A12,12,0,0,0,110,25.4a5,5,0,0,1,.59,1.67,32,32,0,0,1,.31,3.51A25.61,25.61,0,0,0,111.5,34c.23,1.15.41,2.31.57,3.47.3,2.32.47,4.66.58,7a48,48,0,0,0,.59,7c.77,4.62,2.18,9.1,3.36,13.63.59,2.27,1.13,4.55,1.51,6.86.18,1.16.35,2.32.55,3.47s.46,2.29.74,3.43c1.12,4.55,2.74,8.95,4.23,13.39.74,2.22,1.45,4.45,2.06,6.72a69.94,69.94,0,0,1,1.47,6.87,95.27,95.27,0,0,1,1.18,14,106.11,106.11,0,0,1-.73,14Z"/><path class="cls-1" d="M122.16,138.85s-1.86.52-5.15,1.32a126.8,126.8,0,0,1-13.76,2.66c-5.75.72-12.42,1.87-19.65,2.53-1.81.16-3.65.26-5.51.36l-5.64.36c-3.8.26-7.65.56-11.51.78a114.51,114.51,0,0,1-22.68-.5c-1.79-.26-3.55-.59-5.24-1s-3.32-1-4.92-1.4a20.33,20.33,0,0,0-9.23-.13c-2.83.57-5.37,1.37-7.65,2S7,146.9,5.28,147.2s-3,.47-3.89.57L0,147.89v-.08l1.38-.16c.9-.11,2.21-.31,3.87-.63s3.65-.81,5.91-1.45,4.8-1.47,7.66-2a20.4,20.4,0,0,1,9.33.21c1.6.45,3.2,1,4.9,1.44s3.44.77,5.23,1c7.17,1.1,14.94.89,22.64.4,3.86-.24,7.71-.56,11.51-.86l5.64-.39c1.86-.11,3.7-.22,5.5-.39,7.21-.64,13.89-1.75,19.65-2.43S113.68,140.77,117,140s5.17-1.24,5.17-1.24Z"/><path class="cls-1" d="M11.83,70.39s.49.14,1.4.49,2.2.89,3.85,1.6,3.64,1.6,5.91,2.63l3.62,1.67c1.25.6,2.62,1.21,3.94,2a91.74,91.74,0,0,1,8.24,5.55,77.11,77.11,0,0,0,9.28,6l10.44,5.6c3.55,1.93,7.15,3.89,10.57,6.15,6.87,4.49,13.24,9.67,19.5,14.11,3.13,2.24,6.26,4.24,9.25,6.09s5.87,3.54,8.56,5a125.3,125.3,0,0,0,13.41,6.36c1.66.67,3,1.16,3.88,1.48l1.39.5-.07.18-1.38-.5c-.91-.33-2.23-.82-3.89-1.5a125.61,125.61,0,0,1-13.41-6.39c-2.69-1.48-5.57-3.17-8.56-5s-6.11-3.88-9.23-6.12c-6.28-4.44-12.6-9.68-19.49-14.12C65.6,99.9,62,98,58.44,96.05L48,90.5a74.36,74.36,0,0,1-9.34-6A94.94,94.94,0,0,0,30.4,79c-1.33-.77-2.66-1.37-3.93-2l-3.61-1.66c-2.28-1-4.27-1.91-5.91-2.62S14,71.55,13.11,71.2s-1.38-.48-1.38-.48Z"/><path class="cls-1" d="M126.41,134.27a1.91,1.91,0,0,1-.16-.38,7.27,7.27,0,0,1-.27-1.13c-.18-1-.34-2.45-.56-4.3a39.18,39.18,0,0,0-1.39-6.53,80.54,80.54,0,0,0-3-8.16,89.73,89.73,0,0,0-4.34-9.33,80.77,80.77,0,0,0-6.36-9.55c-2.42-3.17-5-6.36-7.61-9.67S97.54,78.53,95,75.1s-5-6.93-7.25-10.43-4.41-7.06-6.33-10.55S77.71,47.22,75.91,44s-3.61-6.14-5.44-8.75c-.91-1.31-1.83-2.53-2.74-3.66-.47-.55-.9-1.12-1.38-1.61s-1-.92-1.48-1.34c-2-1.65-3.82-3-5.2-4.25a12.27,12.27,0,0,1-2.83-3.28,5.09,5.09,0,0,1-.42-1.08l-.06-.4.19,0,.06.38a4.51,4.51,0,0,0,.39,1,12.66,12.66,0,0,0,2.78,3.23c1.38,1.25,3.2,2.6,5.2,4.25.5.42,1,.86,1.49,1.36s.91,1.07,1.38,1.62c.91,1.14,1.83,2.36,2.74,3.68C72.42,37.83,74.22,40.79,76,44s3.6,6.6,5.52,10.1,4,7,6.31,10.55,4.71,7,7.23,10.44,5.11,6.8,7.71,10.09,5.22,6.47,7.65,9.64a79.82,79.82,0,0,1,6.42,9.55,89.46,89.46,0,0,1,4.39,9.33,81.58,81.58,0,0,1,3.06,8.17,38.19,38.19,0,0,1,1.43,6.58c.23,1.85.39,3.3.58,4.27a7.76,7.76,0,0,0,.25,1.08,3.17,3.17,0,0,0,.15.34Z"/><path class="cls-1" d="M128,115.69c1-1.79,2-3.59,2.88-5.43s1.72-3.73,2.46-5.64A121.9,121.9,0,0,0,137.21,93c1.13-3.94,2.14-7.92,3.22-11.89l1.65-5.93c.54-2,1-4,1.55-6,1-4,2-8,3.24-11.89s2.77-7.73,4.18-11.59c.71-1.92,1.41-3.85,2-5.8S154.3,36,154.92,34a30.08,30.08,0,0,1,2.36-5.69c.94-1.81,2.06-3.6,2.33-5.63h0l4.14-12.18.18.06-4.17,12.17h0c-.29,2.08-1.42,3.88-2.36,5.68A30.52,30.52,0,0,0,155,34c-.62,2-1.16,3.94-1.83,5.88s-1.35,3.88-2.06,5.81c-1.43,3.85-2.91,7.68-4.21,11.58s-2.25,7.89-3.22,11.88c-.49,2-1,4-1.52,6l-1.62,5.94c-1.06,4-2.05,8-3.16,11.91s-2.34,7.89-3.84,11.72c-.74,1.92-1.57,3.8-2.45,5.66s-1.85,3.68-2.86,5.47Z"/><path class="cls-1" d="M130.35,50.83l1-.36c.63-.23,1.53-.55,2.6-1s2.27-1,3.6-1.53c.66-.26,1.37-.49,2.06-.78s1.39-.6,2.08-.93c2.73-1.34,5.4-2.85,7.54-3.68,1.07-.43,2-.7,2.58-1a4.49,4.49,0,0,0,.89-.52l.11.16a5.09,5.09,0,0,1-.94.51c-.61.28-1.54.51-2.6.94-2.14.81-4.81,2.3-7.56,3.64-.68.34-1.37.66-2.06,1s-1.39.54-2,.82c-1.31.56-2.51,1.15-3.57,1.59l-3.52,1.46Z"/><path class="cls-1" d="M153.2,40a3.32,3.32,0,0,0-.45.07,13.29,13.29,0,0,0-1.29.44,13.48,13.48,0,0,1-2.1.48,23.66,23.66,0,0,0-2.67.67c-1,.28-2.06.52-3.17.85a28,28,0,0,0-3.39,1.34c-1.15.53-2.38,1-3.62,1.48s-2.5,1-3.8,1.39A18.66,18.66,0,0,0,129,48.29c-1.17.63-2.27,1.35-3.34,2s-2.12,1.32-3.13,1.89A31.78,31.78,0,0,0,119.78,54c-1.64,1.19-2.92,2.3-3.81,3.08l-1.38,1.24-.13-.14,1.4-1.22c.91-.77,2.21-1.85,3.86-3,.83-.59,1.74-1.21,2.75-1.79s2.07-1.2,3.14-1.88,2.17-1.39,3.35-2a18.8,18.8,0,0,1,3.74-1.52c1.29-.39,2.54-.92,3.77-1.42s2.46-1,3.6-1.52a27.26,27.26,0,0,1,3.4-1.38c1.12-.35,2.19-.6,3.16-.88a27.34,27.34,0,0,1,2.68-.72,15.11,15.11,0,0,0,2.05-.52,12.81,12.81,0,0,1,1.31-.48,1.79,1.79,0,0,1,.5-.08Z"/><path class="cls-1" d="M130.52,51.14l-2.34,1.65c-1.4,1-3.23,2.39-5.12,3.69s-3.78,2.62-5.1,3.71c-.67.54-1.15,1.07-1.55,1.39a4.68,4.68,0,0,1-.63.49l-.1-.16a6,6,0,0,0,.63-.45c.39-.31.91-.8,1.58-1.35,1.34-1.09,3.24-2.38,5.13-3.68s3.66-2.78,5-3.81l2.26-1.77Z"/><path class="cls-1" d="M113.46,53.13l6.47-2.4,6.61-2.49L134,45.07l13.92-6,6.31-2.77.08.17L148,39.13l-13.94,6-7.42,3.25L120,50.93l-6.42,2.52Z"/><path class="cls-1" d="M155.76,32.13c-5.46,2.22-10.88,4.53-16.24,7-2.67,1.24-5.31,2.53-8,3.81l-8,3.84h0l-10.76,2.05,0-.19,10.77-1.95h0L139.48,39c5.33-2.5,10.75-4.83,16.14-7.19Z"/><path class="cls-1" d="M112.81,43.85l5.51-1.3,12.11-2.94,12.08-3L148,35.16l0,.18-5.51,1.33-12.09,3-12.07,3.09-5.48,1.44Z"/><path class="cls-1" d="M111.77,35.92l7-.92,15.43-2.11,15.42-2.22,7-1.08,0,.19-22.44,3.16-15.41,2.27-7,1.06Z"/><path class="cls-1" d="M151.91,43.82l-2.9.9-6.35,2-6.32,2.14-2.86,1-.06-.18,2.89-.92,6.33-2.09,6.3-2.19,2.86-1Z"/><path class="cls-1" d="M143.28,70.82c-.75.62-1.5,1.22-2.26,1.82s-1.53,1.18-2.31,1.75l0,0h0c-1,.2-1.93.35-2.89.53s-1.92.37-2.87.6h0c-1.58.76-3.14,1.57-4.72,2.31h-.06L125.9,78c-.74,0-1.48.1-2.22.13-1.49.06-3,.15-4.46.17,0,0,0,0,0,0a0,0,0,0,1,0,0c1.48-.19,3-.3,4.44-.45.74-.07,1.48-.12,2.22-.17s1.48-.11,2.22-.15l-.06,0c1.59-.74,3.21-1.41,4.81-2.13h0c1-.18,1.92-.38,2.87-.6s1.9-.48,2.85-.68l-.06,0c.77-.59,1.56-1.15,2.34-1.72s1.59-1.11,2.4-1.64c0,0,0,0,0,0S143.28,70.81,143.28,70.82Z"/><path class="cls-1" d="M144,68c-.39.57-.8,1.13-1.24,1.66a20.35,20.35,0,0,1-1.38,1.55A17,17,0,0,0,140,72.74c-.42.55-.83,1.1-1.27,1.63l0-.18c.45.81.88,1.62,1.28,2.46l0,0q.64.86,1.23,1.77s0,0,0,0a0,0,0,0,1,0,0c-.5-.52-1-1-1.44-1.6h0v0c-.46-.8-.89-1.62-1.29-2.45l-.05-.1.07-.08c.45-.52.93-1,1.41-1.52a16.73,16.73,0,0,0,1.32-1.6c.42-.55.84-1.1,1.31-1.61a20.32,20.32,0,0,1,1.44-1.5h0A0,0,0,0,1,144,68Z"/><path class="cls-1" d="M120.75,84.06l1.18-1c.7-.58,1.62-1.38,2.54-2.18s1.81-1.62,2.48-2.25l1.1-1,.13.14-1.17,1c-.69.6-1.6,1.41-2.5,2.22s-1.79,1.66-2.44,2.29L121,84.32Z"/><path class="cls-1" d="M143.26,68.81A17.12,17.12,0,0,1,141.71,70,14.73,14.73,0,0,1,140,71a16.1,16.1,0,0,0-1.9,1.23,39.52,39.52,0,0,1-3.54,2.34c-1,.59-1.69.93-1.69.93h0s0,0,0,0,.6-.5,1.55-1.16A42.24,42.24,0,0,1,138,72.06a15.24,15.24,0,0,0,1.91-1.23,18.3,18.3,0,0,1,1.63-1.11c1-.6,1.69-.94,1.69-.94h0S143.27,68.81,143.26,68.81Z"/><path class="cls-1" d="M142.19,70.08a8.67,8.67,0,0,1-.92.85,8.1,8.1,0,0,1-1.06.72,7,7,0,0,0-1.18.88,17.28,17.28,0,0,1-2.17,1.69,11.53,11.53,0,0,1-1.08.64h0v0a11.05,11.05,0,0,1,.92-.86,16.8,16.8,0,0,1,2.24-1.59,7.55,7.55,0,0,0,1.18-.88,8.23,8.23,0,0,1,1-.81,9.31,9.31,0,0,1,1.08-.64s0,0,0,0S142.2,70.07,142.19,70.08Z"/><path class="cls-1" d="M119.73,80.43l1-.36c.6-.23,1.39-.55,2.18-.88s1.56-.69,2.14-1l1-.47.08.17-1,.39c-.6.24-1.38.58-2.16.93s-1.54.72-2.11,1l-.95.49Z"/><path class="cls-1" d="M139.88,76.71a4.09,4.09,0,0,1,.37-.77,3.12,3.12,0,0,1,.52-.69,3.16,3.16,0,0,0,.55-.83,8.31,8.31,0,0,1,1-1.58,5.52,5.52,0,0,1,.58-.63h0s0,0,0,0a5.08,5.08,0,0,1-.35.78,8.58,8.58,0,0,1-1.09,1.52,3.1,3.1,0,0,0-.55.82,3.53,3.53,0,0,1-.44.75,3.47,3.47,0,0,1-.58.63h0S139.88,76.72,139.88,76.71Z"/><path class="cls-1" d="M122.09,87.93l2.83-1,6.22-2.36,1.68-.67c.57-.19,1.13-.35,1.67-.52l3-.9,2.88-.92.06.18-2.91.83-3,.89c-.54.17-1.11.32-1.67.51l-1.68.65L125,87.09l-2.79,1.17Z"/><path class="cls-1" d="M140.74,80.6s-.8.24-2,.64-2.74,1-4.29,1.6-3.08,1.3-4.2,1.86-1.84,1-1.84,1l-.08-.16s.74-.38,1.88-.9,2.67-1.19,4.21-1.82c3.08-1.28,6.19-2.52,6.19-2.52Z"/><path class="cls-1" d="M123,90.64l2.72-1.08,6-2.44,1.6-.68a6.58,6.58,0,0,0,1.49-.78c.89-.63,1.68-1.29,2.35-1.86,1.33-1.14,2.17-2,2.17-2l.12.14s-.87.78-2.22,1.9c-.68.56-1.47,1.22-2.37,1.84a6.74,6.74,0,0,1-1.51.78l-1.61.68-5.9,2.58L123.13,91Z"/><path class="cls-1" d="M139.71,84.45l-.93.23c-.56.15-1.29.38-2,.61s-1.46.48-2,.69l-.9.35-.06-.18.93-.27c.55-.16,1.27-.4,2-.65s1.44-.52,2-.74l.89-.38Z"/><path class="cls-1" d="M122.54,89.26l2.14-.67c1.29-.42,3-1,4.69-1.58s3.4-1.19,4.66-1.66l2.11-.79.06.18-2.14.71c-1.27.42-3,1-4.67,1.62s-3.38,1.23-4.64,1.71l-2.09.81Z"/><path class="cls-1" d="M138.92,87.57,136.7,88.9l-4.85,3L127.05,95l-2.16,1.43-.11-.16L127,94.87l4.83-3,4.76-3.12,2.15-1.44Z"/><path class="cls-1" d="M123.85,93.38l1.1-.87c.65-.52,1.5-1.24,2.35-2s1.69-1.47,2.3-2l1-1,.13.14-1.08.89c-.65.53-1.49,1.27-2.33,2s-1.65,1.5-2.26,2.08l-1,1Z"/><path class="cls-1" d="M132.71,86.87s-2.17,1.85-4.28,3.76c-1.05,1-2.1,1.93-2.85,2.69s-1.21,1.29-1.21,1.29l-.15-.12.35-.35.94-.89,2.88-2.66c1-1,2.07-2,2.83-2.71l1.25-1.27Z"/><path class="cls-1" d="M125.76,99.73l1.76-.79c1-.48,2.44-1.14,3.83-1.81s2.77-1.36,3.8-1.89l1.71-.89.08.17-1.75.81c-1.05.49-2.43,1.17-3.81,1.86s-2.75,1.39-3.77,1.94l-1.7.91Z"/><path class="cls-1" d="M136.15,97.24l-1.46.29c-.87.18-2,.45-3.19.72s-2.31.57-3.17.81l-1.43.4,0-.18,1.45-.32c.87-.19,2-.48,3.18-.77s2.29-.61,3.15-.86l1.42-.43Z"/><path class="cls-1" d="M137.45,93l-1,.62c-.6.38-1.38.91-2.15,1.45s-1.54,1.09-2.1,1.51l-.94.72-.11-.15,1-.65c.59-.39,1.36-.93,2.12-1.48s1.52-1.13,2.07-1.57l.92-.74Z"/><path class="cls-1" d="M135,100.35l-.33-.41c-.21-.24-.5-.54-.79-.84s-.61-.57-.86-.77l-.41-.33.13-.13s.13.16.35.39.52.51.83.8.63.54.89.73.43.3.43.3Z"/><path class="cls-1" d="M129.87,93.26l-.75.7c-.44.43-1,1-1.57,1.6s-1.11,1.2-1.51,1.66l-.66.79-.14-.13.73-.72c.43-.44,1-1,1.53-1.64s1.08-1.22,1.47-1.7l.64-.8Z"/><path class="cls-1" d="M126.73,104l1.22-.27c.73-.17,1.69-.42,2.66-.67s1.92-.54,2.63-.76l1.19-.39,0,.19-1.21.29c-.73.18-1.69.45-2.65.73s-1.91.57-2.62.81l-1.18.41Z"/><path class="cls-1" d="M127.22,106.19l.71.39c.43.23,1,.5,1.6.78s1.18.52,1.63.7l.76.28-.08.17-.72-.37c-.43-.21-1-.47-1.62-.73s-1.19-.48-1.65-.64-.77-.26-.77-.26Z"/><path class="cls-1" d="M127.66,111.47s.17-.23.4-.58.53-.84.81-1.33.55-1,.73-1.37.3-.64.3-.64l.17.09s-.16.23-.38.59-.5.86-.77,1.36-.51,1-.68,1.4-.27.65-.27.65Z"/><path class="cls-1" d="M127.44,109.35s.13-.12.3-.31a8.15,8.15,0,0,0,.6-.71c.19-.27.39-.54.51-.76l.21-.37.15.11-.28.31c-.16.2-.35.47-.55.75s-.35.57-.47.79a3.89,3.89,0,0,0-.18.39Z"/><path class="cls-1" d="M130.71,107.88l-.36,1.07c-.21.64-.46,1.51-.71,2.37s-.47,1.74-.62,2.4l-.25,1.1-.18,0s.13-.43.34-1.08.42-1.51.66-2.38.43-1.75.57-2.41l.22-1.11Z"/><path class="cls-1" d="M133.08,106l-.77.08c-.47.06-1.08.16-1.7.26s-1.22.24-1.67.35-.76.2-.76.2l0-.19.77-.1c.46-.07,1.07-.19,1.68-.32s1.22-.27,1.67-.4.75-.22.75-.22Z"/><path class="cls-1" d="M132.69,106.82l-.51.05c-.3,0-.7.12-1.1.2s-.79.19-1.08.28l-.48.16,0-.18.5-.07,1.09-.25c.39-.11.78-.23,1.06-.34s.48-.19.48-.19Z"/><path class="cls-1" d="M130.25,112.32c.36,2.65.78,5.3,1.31,7.93.12.65.35,1.28.48,2s.26,1.31.38,2c.23,1.32.43,2.65.61,4h0c.53,1.07,1.09,2.13,1.64,3.2l-.17.08c-.52-1.08-1-2.17-1.56-3.24h0c-.18-1.33-.37-2.66-.59-4-.11-.66-.23-1.32-.37-2s-.38-1.28-.52-1.94c-.6-2.62-1-5.26-1.55-7.9Z"/><path class="cls-1" d="M144.68,115.23a9.74,9.74,0,0,1-1.3.2l-1.31.11c-.87.06-1.73.1-2.6.13h0l-2.43-.22h0c-2,1-3.92,2.06-5.85,3.14l-.08-.16c2-1,3.95-2,5.91-3h0l2.44.17h0c.87,0,1.73-.12,2.6-.22.43,0,.85-.1,1.28-.18a9,9,0,0,0,1.25-.28Z"/><path class="cls-1" d="M131.14,110.18l.9.85c.53.51,1.27,1.16,2,1.81s1.5,1.29,2.07,1.75l1,.76-.12.15-.91-.84c-.55-.49-1.3-1.13-2.05-1.77s-1.52-1.25-2.11-1.7l-1-.75Z"/><path class="cls-1" d="M131.83,121.08c1.17.58,2.35,1.13,3.54,1.66h0c1.81-.28,3.62-.58,5.42-1l0,.18c-1.82.23-3.63.53-5.44.86h0c-1.21-.5-2.42-1-3.65-1.42Z"/><path class="cls-1" d="M139.61,115.52l.35.65c.22.38.53.87.85,1.36s.66,1,.92,1.31.45.58.45.58l-.16.11s-.14-.26-.37-.63-.56-.86-.89-1.34-.69-.94-1-1.28-.47-.56-.47-.56Z"/><path class="cls-1" d="M135.38,122.77a6.21,6.21,0,0,1,.43.7c.12.21.24.47.37.75a7.93,7.93,0,0,1,.31.9,4.8,4.8,0,0,0,.34.9c.14.27.32.5.42.72a2.24,2.24,0,0,1,.24.79l-.07,0a2.2,2.2,0,0,1-.41-.71c-.1-.22-.15-.51-.26-.8a4.85,4.85,0,0,0-.43-.85c-.17-.28-.33-.57-.46-.84s-.23-.55-.31-.78a5.86,5.86,0,0,1-.22-.79Z"/><path class="cls-1" d="M132.54,124.22q2,2.39,4,4.72a0,0,0,0,1,0,.06h0l-2.61,1h0q-2.24,1.74-4.42,3.54l-.12-.15q2.28-1.68,4.5-3.44h0l2.6-1V129c-1.38-1.53-2.76-3.05-4.18-4.54Z"/><path class="cls-1" d="M133.1,128.29l-.88.65c-.53.4-1.21.95-1.89,1.5s-1.39,1.07-1.89,1.5-.84.71-.84.71l-.11-.15.89-.64c.53-.39,1.22-.92,1.9-1.47s1.32-1.17,1.8-1.61l.79-.76Z"/><path class="cls-1" d="M127.83,127.78l.53-1.62c.31-1,.69-2.27,1.08-3.57s.74-2.62,1-3.61l.42-1.64.18,0s-.2.65-.51,1.62-.66,2.28-1,3.59-.7,2.63-.94,3.62l-.39,1.65Z"/><path class="cls-1" d="M132.26,122.78l-.72,1c-.43.59-1,1.4-1.52,2.21s-1.06,1.63-1.43,2.26l-.63,1-.15-.11.7-1c.41-.61.94-1.42,1.46-2.24s1-1.66,1.39-2.3l.6-1.06Z"/><path class="cls-1" d="M132.77,126l-.8.64c-.49.38-1.11.92-1.73,1.45s-1.21,1.1-1.66,1.53-.73.72-.73.72l-.12-.14.79-.65c.47-.4,1.08-1,1.68-1.5s1.2-1.13,1.63-1.57l.71-.74Z"/><path class="cls-1" d="M131.45,109.25c1.75.21,3.51.37,5.27.54s3.52.32,5.28.45h0c1.57.42,3.13.84,4.7,1.22l0,.18c-1.56-.47-3.12-.9-4.68-1.32h0c-1.76-.16-3.52-.31-5.28-.41s-3.53-.25-5.29-.33Z"/><path class="cls-1" d="M133.32,105.07c2.86,1.79,5.76,3.51,8.69,5.19h0c1.24,1,2.48,2,3.74,2.91l-.12.15q-1.81-1.53-3.65-3h0c-2.92-1.7-5.85-3.36-8.83-4.94Z"/><path class="cls-1" d="M134.25,102.64l2.08,1.2,4.61,2.57c1.69.9,3.34,1.89,4.6,2.59l2.1,1.15-.1.17-2-1.24c-1.25-.71-2.89-1.71-4.58-2.62L136.23,104,134.08,103Z"/><path class="cls-1" d="M148.75,108.08s-.91-.38-2.29-.91l-2.36-.88-1.35-.46a6.39,6.39,0,0,1-1.36-.56c-1.75-.91-3.43-2-4.69-2.72l-2.11-1.27.1-.16s.81.55,2.06,1.35,2.93,1.82,4.67,2.75a5.44,5.44,0,0,0,1.36.51l1.36.43,2.39.81,2.34.78Z"/><path class="cls-1" d="M135.58,98.74c1.09.78,2.22,1.51,3.36,2.19.57.34,1.16.67,1.75,1s1.2.57,1.8.88c1.21.61,2.36,1.3,3.5,2s2.26,1.45,3.37,2.2h0c1.4,1.6,2.83,3.18,4.3,4.71s2.88,3.13,4.22,4.78l-.06.06c-1.51-1.5-2.93-3.09-4.31-4.7s-2.79-3.22-4.23-4.77h0c-2.29-1.4-4.61-2.74-7-4-.58-.31-1.2-.58-1.8-.9s-1.17-.66-1.74-1a31.47,31.47,0,0,1-3.25-2.38Z"/><path class="cls-1" d="M136.59,95.66c4.64,3.11,9.34,6.13,14,9.19l0,0,0,0-.66,1.14,0,0,0,0c-4.56-3.17-9.08-6.39-13.66-9.52l.11-.15c4.5,3.25,9.05,6.41,13.58,9.62h0l.66-1.15v0c-4.72-3-9.41-6-14.16-9Z"/><path class="cls-1" d="M137.14,93.61c2.47,1.51,4.89,3.07,7.3,4.65s4.78,3.22,7.15,4.86h0c1.52,1.74,3.06,3.46,4.65,5.14s3.12,3.41,4.57,5.21l-.06.06c-1.63-1.65-3.16-3.38-4.66-5.14s-3-3.49-4.58-5.19h0c-2.44-1.55-4.88-3.07-7.28-4.68s-4.79-3.21-7.13-4.88Z"/><path class="cls-1" d="M137.54,92.21c2.57,1.42,5.1,2.91,7.62,4.41s5,3.06,7.5,4.62h0c1.58,1.81,3.19,3.59,4.85,5.33s3.25,3.53,4.77,5.39l-.06.06c-1.7-1.71-3.29-3.5-4.86-5.32s-3.16-3.62-4.79-5.38h0c-2.54-1.46-5.09-2.91-7.6-4.43s-5-3.06-7.48-4.66Z"/><path class="cls-1" d="M137.78,91.34c2.7,1.25,5.36,2.57,8,3.9s5.28,2.73,7.91,4.12h0c1.7,1.82,3.41,3.63,5.18,5.38s3.48,3.56,5.11,5.45l-.06.05c-1.8-1.72-3.51-3.53-5.19-5.36s-3.39-3.66-5.13-5.43h0c-2.68-1.29-5.36-2.58-8-3.94s-5.29-2.73-7.89-4.16Z"/><path class="cls-1" d="M154.27,98.26c-1-1.13-2-2.26-3.08-3.36h0c-2.13-1-4.25-2.08-6.41-3.07s-4.29-2-6.45-3l.08-.17c2.12,1.06,4.26,2.06,6.4,3.08s4.3,2,6.45,3h0v0q1.59,1.64,3.21,3.24Z"/><path class="cls-1" d="M155.66,96l-.68-.22c-.41-.13-1-.27-1.51-.41s-1.11-.25-1.54-.32l-.7-.11,0-.19s.27.09.68.2,1,.24,1.53.36,1.12.21,1.55.27.71.08.71.08Z"/><path class="cls-1" d="M138.77,87.93c2.95,1,5.86,2.21,8.78,3.33,1.47.55,2.91,1.17,4.35,1.77l2.17.91,1.07.47.54.24.27.13.13.07.07,0,0,0h0s0,.09,0,.12V95c.87,1,1.73,2.08,2.62,3.11l2.7,3.06c.89,1,1.81,2,2.69,3s1.75,2.08,2.59,3.15l-.07.06q-1.39-1.48-2.73-3c-.89-1-1.74-2.08-2.62-3.11l-2.62-3.13c-.88-1-1.79-2-2.69-3.06V95s0,.1,0,.09h0L156,95l-.13-.06-.26-.12-.54-.22L154,94.15l-2.18-.87c-1.46-.57-2.92-1.12-4.37-1.72-2.89-1.2-5.81-2.33-8.68-3.58Z"/><path class="cls-1" d="M139.38,85.35c2.92,1.38,5.79,2.86,8.68,4.3,1.45.71,2.87,1.49,4.3,2.23l4.28,2.26h0c.93,1,1.84,2,2.79,3l2.85,3c.94,1,1.91,2,2.84,3s1.85,2,2.74,3.08l-.06.06c-1-1-1.94-2-2.88-3s-1.85-2-2.78-3l-2.77-3c-.93-1-1.9-2-2.84-3l0,0-4.34-2.16c-1.44-.73-2.89-1.43-4.32-2.19-2.85-1.51-5.73-3-8.55-4.54Z"/><path class="cls-1" d="M140,82.93c2.95,1.55,5.84,3.2,8.76,4.81,1.46.8,2.89,1.66,4.33,2.5l4.32,2.51h0c1,1,1.93,2,2.92,3l3,3c1,1,2,2,3,3s2,2,2.88,3.08l-.06.06c-1-1-2-2-3-3s-1.94-2-2.92-3l-2.92-3c-1-1-2-2-3-3h0L153,90.47c-1.46-.81-2.93-1.59-4.36-2.44-2.88-1.69-5.78-3.32-8.63-5.06Z"/><path class="cls-1" d="M140.18,82.24c1.49-.34,3-.69,4.48-1h0l0,0,3.73,1.91c1.24.65,2.49,1.27,3.72,1.93h0l6.73,5h0c1,1.07,2,2.16,3,3.21l3.09,3.16c1,1.06,2.07,2.09,3.08,3.17s2,2.14,3,3.25l-.06.06c-1.06-1-2.09-2.07-3.12-3.13s-2-2.15-3-3.22l-3-3.23c-1-1.07-2.05-2.11-3.07-3.17h0L152,85.38h0c-1.25-.63-2.47-1.31-3.71-2l-3.69-2h.07c-1.5.3-3,.56-4.51.83Z"/><path class="cls-1" d="M152.11,85.22c1.52.06,3,.14,4.57.24s3,.21,4.57.36h.06l0,0c2,1.92,3.88,3.92,5.9,5.8l3.06,2.79c1,.94,2,1.9,2.93,2.92l-.06.06c-1.06-.89-2.07-1.83-3.05-2.79l-2.94-2.92c-2-1.92-4.06-3.73-6.07-5.62l.1.05c-1.52-.1-3-.26-4.56-.39s-3-.31-4.56-.49Z"/><path class="cls-1" d="M144.58,81.49s-.2-.18-.52-.44-.75-.58-1.19-.9-.9-.61-1.24-.82L141,79l.1-.16s.21.18.54.42.77.55,1.22.86.92.57,1.28.77.6.32.6.32Z"/><path class="cls-1" d="M142.47,74c3.13,2,6.19,4.11,9.29,6.17a21.8,21.8,0,0,0,2.39,1.38c.82.43,1.66.83,2.5,1.23q2.52,1.19,5.07,2.31h0v0c1.08,1.17,2.15,2.36,3.25,3.52l3.32,3.47c1.11,1.15,2.23,2.29,3.32,3.47s2.17,2.35,3.21,3.56l-.06.06c-1.14-1.13-2.25-2.28-3.35-3.44s-2.16-2.35-3.25-3.53l-3.25-3.53c-1.09-1.17-2.21-2.32-3.31-3.47l0,0c-1.72-.72-3.43-1.45-5.13-2.21-.85-.38-1.69-.77-2.53-1.18a15,15,0,0,1-2.42-1.42c-3.05-2.12-6.13-4.2-9.14-6.38Z"/><path class="cls-1" d="M142.69,73.11c3.35,1.67,6.65,3.45,10,5.17.83.44,1.66.87,2.48,1.32s1.62,1,2.42,1.44c1.6,1,3.19,2,4.74,3h0c1.17,1.12,2.33,2.25,3.51,3.36l3.57,3.3c1.19,1.1,2.4,2.18,3.58,3.3s2.34,2.24,3.47,3.4l0,.06q-1.85-1.61-3.61-3.27c-1.19-1.1-2.34-2.24-3.51-3.36l-3.51-3.37c-1.18-1.11-2.38-2.2-3.57-3.3h0c-1.56-1-3.16-2-4.78-2.93-.81-.47-1.62-.94-2.44-1.39s-1.65-.88-2.47-1.32c-3.29-1.8-6.6-3.55-9.86-5.41Z"/><path class="cls-1" d="M160.79,79.13c1.3.18,2.59.38,3.88.59h0l0,0c1.21,1.24,2.42,2.47,3.6,3.73l3.51,3.82c1.17,1.28,2.39,2.5,3.63,3.71s2.42,2.46,3.54,3.79l-.06,0c-1.28-1.17-2.47-2.42-3.64-3.69s-2.32-2.57-3.55-3.78l-3.66-3.67c-1.22-1.23-2.39-2.5-3.58-3.76l.08,0c-1.28-.26-2.56-.53-3.84-.82Z"/><path class="cls-1" d="M150.12,73.37c-.6-1-1.23-1.87-1.88-2.78l0,0c-1.56-.31-3.11-.59-4.68-.79l0-.19c1.55.36,3.1.64,4.66.89h0c.67.89,1.37,1.76,2.09,2.62Z"/><path class="cls-1" d="M172.48,65.41l-7.34,1.65-7.35,1.61-7.35,1.61-7.37,1.53v-.25l7.21,1.62h0l7.08,4,1.77,1,.89.5.44.25.22.13a.52.52,0,0,1,.19.21c.35.55.75,1.11,1.14,1.66l1.16,1.66h0l3.35,2.88c1.12,1,2.25,1.91,3.35,2.89,2.2,2,4.43,3.88,6.6,5.87l0,.07c-2.27-1.88-4.49-3.83-6.73-5.74-1.12-1-2.21-2-3.32-2.92l-3.31-2.93h0L161.91,81c-.38-.56-.76-1.11-1.13-1.7,0,0,0-.08-.06-.11l-.08,0-.22-.14-.43-.25-.88-.51-1.76-1-7.13-3.88h0L143,71.81l-.59-.12.59-.13,7.35-1.62,7.36-1.55,7.37-1.54,7.37-1.49Z"/><path class="cls-1" d="M144.17,67.19c2,.54,3.91,1.07,5.86,1.63l1.47.41.73.2c.14,0,.22.06.36.08l.35.21c.49.3.86.57,1.29.86l1.26.86c1.68,1.14,3.31,2.34,5,3.52l4.94,3.55h0c1.11,1.13,2.2,2.28,3.34,3.37l3.4,3.32c1.12,1.12,2.28,2.2,3.38,3.34s2.22,2.26,3.3,3.42l-.06.06q-1.74-1.62-3.43-3.29c-1.13-1.11-2.22-2.26-3.33-3.39L168.69,82c-1.1-1.14-2.25-2.23-3.38-3.34h0l-5-3.46c-1.67-1.16-3.35-2.29-5-3.46L152.84,70a2,2,0,0,0-.3-.19l-.38-.1-.73-.21L150,69.05c-1.95-.57-3.89-1.18-5.82-1.81Z"/><path class="cls-1" d="M158.91,74c2.56.74,5.1,1.54,7.63,2.37h0l0,0c2.3,2.83,4.44,5.78,6.7,8.64,1.13,1.43,2.31,2.81,3.47,4.22s2.28,2.84,3.34,4.33l-.06,0c-1.21-1.37-2.36-2.78-3.47-4.23s-2.19-2.91-3.34-4.33c-2.27-2.84-4.67-5.59-6.9-8.47l.07.05c-2.52-.84-5-1.71-7.54-2.63Z"/><path class="cls-1" d="M143.74,68.79,145,69c.75.12,1.76.25,2.76.37s2,.21,2.78.27l1.27.09,0,.18-1.26-.17c-.75-.1-1.76-.21-2.77-.31s-2-.18-2.78-.22l-1.27-.06Z"/><path class="cls-1" d="M144.51,65.83c2,.64,3.89,1.28,5.82,2l2.9,1L154,69l.33.11.37.18L156,70c1.82.94,3.6,1.95,5.4,2.92l5.38,3h0c1,1.19,2,2.4,3.07,3.57L173,83c1,1.17,2.1,2.33,3.11,3.52s2,2.39,3,3.61l-.06.06q-1.61-1.73-3.15-3.49c-1-1.17-2-2.39-3.06-3.58l-3-3.58c-1-1.2-2.06-2.36-3.09-3.54l0,0-5.44-2.84c-1.81-1-3.64-1.88-5.43-2.86l-1.33-.71-.31-.18-.39-.13-.72-.26-2.89-1c-1.93-.68-3.84-1.4-5.76-2.13Z"/><path class="cls-1" d="M144.75,64.89c1.9.62,3.8,1.24,5.69,1.91l5.68,2h0q3,1.26,5.88,2.6L167.87,74h0l0,0,3.23,4.72,3.33,4.66c1.11,1.56,2.23,3.1,3.32,4.67S180,91.19,181,92.8l-.07,0c-1.16-1.52-2.24-3.09-3.36-4.64s-2.16-3.15-3.24-4.72l-3.24-4.72-3.33-4.66,0,0-5.91-2.53c-2-.84-3.94-1.69-5.89-2.57h0l-5.65-2c-1.89-.67-3.76-1.37-5.64-2.08Z"/><polygon class="cls-1" points="166.35 73.6 159.65 68.2 159.68 68.22 144.92 64.2 144.95 64.2 131.94 70.59 118.96 77.03 118.88 76.86 131.91 70.51 144.92 64.13 144.93 64.12 144.94 64.13 159.74 68.02 159.76 68.02 159.78 68.03 166.57 73.32 166.35 73.6"/><path class="cls-1" d="M146,60.41l4.32,1.66,4.31,1.71c2.87,1.15,5.74,2.27,8.59,3.47h0l5.69,4.85h0L172.27,77l3.42,4.76c1.14,1.59,2.31,3.16,3.42,4.77s2.25,3.2,3.32,4.84l-.07,0c-1.19-1.55-2.31-3.16-3.46-4.74s-2.23-3.21-3.35-4.82L172.21,77l-3.43-4.77,0,0L163,67.5l0,0c-2.88-1.11-5.73-2.31-8.58-3.49l-4.29-1.76-4.26-1.82Z"/><path class="cls-1" d="M117.43,69.56q7.36-3.27,14.76-6.45L147,56.7a.12.12,0,0,1,.1,0l27.3,5s.06,0,.05.07a.09.09,0,0,1,0,.05q-4.92,2.59-9.79,5.26l0-.11,6.6.84a.09.09,0,0,1,.06,0l3.62,5,3.61,5.06c2.38,3.39,4.79,6.75,7.13,10.17a0,0,0,0,1,0,.06.07.07,0,0,1-.06,0c-2.46-3.33-4.85-6.71-7.27-10.07L174.68,73,171.1,67.9l.06,0-6.59-.89a.07.07,0,0,1,0-.07s0,0,0,0q4.92-2.59,9.79-5.27l0,.11L147,57h.1l-14.83,6.31q-7.39,3.18-14.84,6.28s0,0,0,0S117.41,69.57,117.43,69.56Z"/><path class="cls-1" d="M148.36,53.08l4.09,1.33,9,2.84,9,2.76,4.12,1.22-.06.18-4.09-1.3-9-2.8-9.05-2.7-4.13-1.19Z"/><path class="cls-1" d="M149.29,51l.28.12c.17.06.41.12.71.25l2.88,1.18L162,56l8.82,3.38,4,1.51a.1.1,0,0,1,0,.12.1.1,0,0,1-.12.06h0l-4-1.59L161.93,56l-8.84-3.34-2.92-1.08a9.27,9.27,0,0,1-.91-.4L149,51.1a.14.14,0,0,1-.08-.17.13.13,0,0,1,.17-.07h0Z"/><path class="cls-1" d="M154.53,53.11c1.86.33,3.72.64,5.58,1l5.57,1c1.86.35,3.72.68,5.57,1.06l5.55,1.12a.15.15,0,0,1,.09.06l3.4,6.4c1.12,2.15,2.28,4.26,3.46,6.38l3.51,6.34,1.7,3.2c.58,1.06,1.13,2.14,1.67,3.22a0,0,0,0,1,0,0s0,0-.05,0c-.61-1-1.21-2.1-1.79-3.16L187,76.64l-3.39-6.41c-1.13-2.14-2.27-4.27-3.45-6.38l-3.51-6.34.09.06-5.58-1c-1.85-.35-3.7-.74-5.55-1.1l-5.56-1.12c-1.86-.36-3.7-.77-5.55-1.16,0,0,0,0,0,0S154.52,53.11,154.53,53.11Z"/><path class="cls-1" d="M116.63,65.83l8.31-4.38,8.33-4.34,8.33-4.34L150,48.48a.14.14,0,0,1,.11,0l21.13,7.84h0c2.39-.41,4.78-.86,7.18-1.3a.07.07,0,0,1,.06,0l7.07,13c1.19,2.16,2.33,4.35,3.49,6.52s2.32,4.35,3.45,6.54a0,0,0,0,1,0,0,0,0,0,0,1-.06,0q-1.8-3.22-3.56-6.48c-1.18-2.16-2.38-4.32-3.53-6.5L178.32,55.1l.06,0c-2.4.43-4.8.83-7.19,1.28h0L150,48.75h.12l-8.33,4.33-8.36,4.29L125,61.64l-8.39,4.24s0,0,0,0S116.62,65.84,116.63,65.83Z"/><path class="cls-1" d="M154.05,37.2C163,41.81,172,46.33,181,50.89l0,.06c-9.57-2.77-19.13-5.59-28.73-8.31l.06-.18c9.55,2.86,19.13,5.62,28.69,8.43l0,0c-9-4.47-18-9-27.06-13.43Z"/><path class="cls-1" d="M154.78,34.66c2.46.83,4.92,1.65,7.36,2.51l7.35,2.56c4.9,1.68,9.77,3.48,14.65,5.23l.05,0,0,.05,2.94,8.07c1,2.7,2,5.37,3,8l3.06,8c1,2.7,2,5.38,2.92,8.09l-.08,0C195,74.64,194,72,193,69.28l-3-8.08c-1-2.69-1.94-5.39-3-8.06l-3.06-8,.07.07c-4.9-1.71-9.81-3.37-14.68-5.15l-7.32-2.63c-2.45-.87-4.87-1.78-7.31-2.68Z"/><path class="cls-1" d="M156.15,31c2.1,2.08,4.2,4.16,6.27,6.27l-.07,0,12.16,1.41,12.15,1.55h.06l0,.06,2.46,8.06c.83,2.68,1.71,5.35,2.56,8l1.28,4,1.28,4c.81,2.68,1.67,5.36,2.43,8.06l-.08,0c-.91-2.66-1.74-5.34-2.6-8l-1.24-4-1.23-4c-.83-2.68-1.63-5.37-2.48-8l-2.57-8,.08.07L174.47,39l-12.14-1.53h-.05l0,0c-2.07-2.12-4.1-4.26-6.14-6.4Z"/><path class="cls-1" d="M157.18,28.83l8.06,1.48,8.06,1.52c2.69.51,5.38,1,8.06,1.53l8,1.6.08,0,0,.08,1.94,10.23q1,5.12,2,10.22l2.07,10.21,1,5.12q.51,2.55.94,5.12l-.08,0q-.56-2.55-1.07-5.1l-1-5.11-1.94-10.23c-.64-3.41-1.29-6.83-2-10.23L189.25,35.1l.1.1-8.06-1.51c-2.68-.5-5.36-1-8-1.58l-8.05-1.59-8-1.63Z"/><path class="cls-1" d="M156.69,29.51l4.95,1.2,10.91,2.56,10.93,2.47,5,1.09,0,.19-4.95-1.18-10.92-2.51L161.6,30.92l-5-1.07Z"/><path class="cls-1" d="M111.6,34.55,96.87,44.79c-.62.41-1.22.87-1.88,1.25L93,47.16l-3.91,2.2-7.84,4.35,0,0L46.85,89.78h0l-12,26.31-6,13.15a32.14,32.14,0,0,0-1.78,7c-.38,2.38-.63,4.78-.79,7.18l0-.06,36.47,19.76a.09.09,0,0,1,0,.13.11.11,0,0,1-.13,0h0L26.22,143.43a.06.06,0,0,1,0-.06c.16-2.41.42-4.81.8-7.19a31.93,31.93,0,0,1,1.8-7l6-13.15,12-26.3h0l34.35-36.2,0,0L89,49.13l3.91-2.21,1.93-1.12c.64-.37,1.23-.83,1.85-1.25l14.7-10.28h0a.16.16,0,0,1,.24,0,.18.18,0,0,1,0,.25Z"/><path class="cls-1" d="M51.81,92.29l-7.6,12.13c-2.51,4.06-5,8.11-7.39,12.26a17.08,17.08,0,0,0-1.41,3.26c-.37,1.13-.71,2.28-1,3.43-.63,2.29-1.21,4.61-1.76,6.93q-1.65,7-3.07,14v0l39.38,22.35a.09.09,0,0,1,0,.13.08.08,0,0,1-.12,0h0L29.5,144.31a0,0,0,0,1,0,0q1.44-7,3-14c.54-2.33,1.1-4.65,1.72-7,.31-1.16.64-2.3,1-3.44a17.16,17.16,0,0,1,1.41-3.3c2.33-4.17,4.84-8.23,7.32-12.31l7.53-12.17a.17.17,0,0,1,.3.18Z"/><path class="cls-1" d="M83.13,57l7.21-4.39,3.6-2.21c1.21-.72,2.38-1.5,3.62-2.18l14.69-8.32h0c7.45-.46,14.91-.9,22.36-1.41a.1.1,0,0,1,.1.09.09.09,0,0,1-.09.1h0c-7.46.39-14.91.86-22.37,1.3h0L97.63,48.36c-1.23.68-2.4,1.48-3.6,2.21l-3.58,2.24-7.14,4.5a.18.18,0,0,1-.24-.05.19.19,0,0,1,.05-.25Z"/><path class="cls-1" d="M32.49,145.3Q34.77,138.64,37,132l2.13-6.71,1-3.36c.32-1.13.65-2.26.9-3.4a4.18,4.18,0,0,0,.13-.84l0-.44a2.78,2.78,0,0,1,.13-.46,16.66,16.66,0,0,1,.7-1.63c.51-1.06,1-2.1,1.61-3.13,1.11-2.07,2.26-4.11,3.43-6.15,2.34-4.07,4.74-8.11,7.16-12.12h0l31-33.21h0L112.8,43.94a.09.09,0,0,1,.13,0,.09.09,0,0,1,0,.13h0L85.25,60.59v0l-31,33.2h0q-3.61,6-7.1,12.15c-1.16,2-2.31,4.09-3.41,6.16-.55,1-1.09,2.08-1.59,3.13a14.9,14.9,0,0,0-.68,1.61,3.43,3.43,0,0,0-.12.39l0,.43a4.34,4.34,0,0,1-.13.9c-.24,1.16-.57,2.28-.89,3.41l-1,3.38L37.23,132q-2.16,6.71-4.41,13.37a.16.16,0,0,1-.22.11.18.18,0,0,1-.11-.22Z"/><path class="cls-1" d="M57.49,95.44l-3.59,7.84-7.84,17.28-7.75,17.32c-2.09,4.74-3.49,7.89-3.49,7.89a.1.1,0,0,1-.13,0,.11.11,0,0,1,0-.13h0l3.57-7.85L46,120.54l7.7-17.34,3.47-7.9a.17.17,0,0,1,.32.14Z"/><path class="cls-1" d="M112.79,47.48l-4.18,2.25-9.14,5-9.11,5.1L86.24,62.2a.1.1,0,0,1-.13,0,.1.1,0,0,1,0-.13h0l4.16-2.27,9.13-5.06,9.07-5.15,4.11-2.37a.18.18,0,0,1,.24.06.17.17,0,0,1-.07.24Z"/><path class="cls-1" d="M38.66,146.31,62.48,98.18h0L89,66.49h0L113.87,55a.1.1,0,0,1,.13,0,.1.1,0,0,1,0,.13h0L89.09,66.59h0L62.56,98.23h0L39,146.46a.17.17,0,1,1-.31-.15Z"/><path class="cls-1" d="M115,60l-.82-3.32.17.08-6.07,2.82c-2,1-4,1.88-6.05,2.85-4,1.93-8,3.82-12,5.8a.1.1,0,0,1-.13,0,.1.1,0,0,1,0-.12h0c4-1.86,8.07-3.79,12.1-5.69,2-.95,4-1.94,6-2.91l6-2.92a.12.12,0,0,1,.15.06v0l.93,3.29a.19.19,0,0,1-.13.22A.18.18,0,0,1,115,60Z"/><path class="cls-1" d="M113.18,51,88,65l0,0L60.92,97.32h0L36.61,146.06l0-.08,4.72.65-.06,0L64,99a.1.1,0,0,1,.13,0,.09.09,0,0,1,0,.13h0L41.34,146.71a.07.07,0,0,1-.06,0l-4.73-.66a0,0,0,0,1,0-.06h0L60.82,97.26v0L87.88,64.82s0,0,0,0L113,50.73a.17.17,0,0,1,.24.07.18.18,0,0,1-.07.23Z"/><path class="cls-1" d="M116.08,63.26,92.74,71.92l0,0-27,28.35h0l-19,46.85a.09.09,0,0,1-.17-.07h0L65.72,100.2h0L92.62,71.74l0,0L116,62.93a.19.19,0,0,1,.23.1.18.18,0,0,1-.11.23Z"/><path class="cls-1" d="M94.58,74.41C86.76,84,78.85,93.47,71,103l0-.07c-1.86,10.33-3.84,20.63-5.76,31a.08.08,0,0,1,0,0L54.67,147.08l0-.08c4.72.33,9.44.61,14.15.9l14.16.86c4.72.29,9.44.56,14.15.89s9.44.63,14.15,1a.07.07,0,0,1,0,.05,0,0,0,0,1,0,0c-4.72-.24-9.44-.55-14.15-.83s-9.44-.61-14.15-.92l-14.15-1c-4.72-.32-9.44-.64-14.15-.92,0,0-.06,0-.05,0a0,0,0,0,1,0,0l10.49-13.24,0,.05c1.89-10.32,3.72-20.66,5.66-31a.21.21,0,0,1,0-.07c7.93-9.47,15.82-19,23.8-28.41h0A0,0,0,0,1,94.58,74.41Z"/><path class="cls-1" d="M99.51,143.16l1.74-18.36a0,0,0,0,1,0,0l6.46-12.3,6.43-12.33,0,0,11.64-.33a.1.1,0,0,1,0,.19h0l-11.65.23,0,0-6.45,12.31-6.4,12.34v0l-1.53,18.38a.18.18,0,0,1-.19.16.17.17,0,0,1-.16-.19Z"/><path class="cls-1" d="M112.29,97.32l-8.11,12-8.06,12v0l1.38,11.31h0L96,143.71a.1.1,0,0,1-.11.08.08.08,0,0,1-.08-.1h0l1.62-11.13h0l-1.35-11.31a0,0,0,0,1,0,0l8-12,8-12.07a.17.17,0,0,1,.24,0,.16.16,0,0,1,.05.24Z"/><path class="cls-1" d="M95.73,75.9l21.67-6.43a.11.11,0,0,1,.15.08h0l.44,1.92a.11.11,0,0,1-.08.14L96.7,77.35l0,0-11.61,14-11.57,14v0l-4.12,21.93v0l.66,18.93a.1.1,0,1,1-.19,0h0l-.62-18.94h0l4.17-21.92s0,0,0,0l11.6-14,11.56-14,0,0,21.19-5.83-.09.14-.45-1.92.15.09L95.83,76.23a.18.18,0,0,1-.22-.11.17.17,0,0,1,.12-.22Z"/><path class="cls-1" d="M68.54,146.23c-.29-5.33-.64-10.65-1-16v0c.79-4.33,1.53-8.68,2.28-13s1.51-8.69,2.22-13a.1.1,0,0,1,.11-.08.09.09,0,0,1,.07.11h0c-.8,4.33-1.56,8.68-2.32,13s-1.53,8.68-2.25,13h0c.39,5.32.77,10.65,1.2,16a.17.17,0,1,1-.34,0Z"/><path class="cls-1" d="M71.57,146l-.25-22.07v0l3.23-18.25s0,0,0,0c8-8.65,15.86-17.38,23.8-26.06l0,0L118.22,73a.1.1,0,0,1,.12.06.09.09,0,0,1-.06.12h0L98.45,79.67l0,0c-7.94,8.68-15.93,17.32-23.83,26l0,0-3.13,18.27v0L71.92,146a.17.17,0,0,1-.17.18.18.18,0,0,1-.18-.17Z"/><path class="cls-1" d="M63.13,146.58,65,133.83a.14.14,0,0,1,0-.06l12.3-19.36v.06l-1.46-7.58a.06.06,0,0,1,0-.06L88,94.31l12.07-12.56h0l18.48-6.57h0l15.83-13a.1.1,0,0,1,.14,0,.09.09,0,0,1,0,.13h0L118.63,75.29h0l-18.5,6.53h0L88,94.35,76,106.92l0-.06,1.5,7.58a.13.13,0,0,1,0,.06L65.28,133.92l0,0-1.82,12.76a.17.17,0,0,1-.2.15.17.17,0,0,1-.15-.19Z"/><path class="cls-1" d="M77.73,108.05l0,1c0,.62.09,1.43.15,2.24s.16,1.62.24,2.22l.15,1a.1.1,0,1,1-.19,0h0l0-1c0-.61-.12-1.42-.21-2.23s-.2-1.61-.29-2.22l-.18-1a.17.17,0,0,1,.15-.2.17.17,0,0,1,.2.14Z"/><path class="cls-1" d="M102.14,84.36,90.69,96.9,79.27,109.47v0l1.83,5.47v0l15.12,15.33a.1.1,0,0,1,0,.14.1.1,0,0,1-.13,0h0l-15-15.41v0l-1.82-5.47s0,0,0,0L90.57,96.79l11.31-12.66a.17.17,0,1,1,.26.23Z"/><path class="cls-1" d="M119.86,80.76l-16.07,5.8,0,0-11.46,12L81,110.62v-.05l2.77,4.64h0L94.39,127a.1.1,0,0,1,0,.14.11.11,0,0,1-.14,0h0L83.66,115.27h0l-2.77-4.64a0,0,0,0,1,0-.05L92.32,98.51,103.7,86.42l0,0,16-6a.17.17,0,1,1,.12.32Z"/><path class="cls-1" d="M120.24,82.08c-5,2.08-10,4.21-15,6.34l0,0q-5.47,6-10.88,12.07c-3.62,4-7.24,8.07-10.83,12.13a.09.09,0,1,1-.14-.12h0c3.66-4,7.28-8,10.91-12.06s7.25-8,10.84-12.11l0,0c5-2.16,9.93-4.33,14.87-6.53a.19.19,0,0,1,.24.08.18.18,0,0,1-.09.24Z"/><path class="cls-1" d="M85.28,113.84c3.49-4.06,6.94-8.15,10.4-12.23s6.91-8.18,10.34-12.29h0c4.83-2.08,9.66-4.15,14.47-6.27a.09.09,0,1,1,.07.17h0c-4.85,2-9.68,4.11-14.51,6.18h0q-5.17,6.12-10.3,12.31c-3.42,4.12-6.84,8.23-10.23,12.37a.18.18,0,0,1-.25,0,.19.19,0,0,1,0-.25Z"/><path class="cls-1" d="M107.44,91l-3.28,3.7L97,102.93l-7.09,8.24-3.2,3.77a.09.09,0,0,1-.13,0,.1.1,0,0,1,0-.14h0s1.3-1.49,3.26-3.71,4.53-5.23,7.12-8.22l7-8.29,3.18-3.79a.17.17,0,0,1,.24,0,.17.17,0,0,1,0,.25Z"/><path class="cls-1" d="M87.77,115.64c3.51-3.81,7-7.65,10.46-11.48s7-7.69,10.4-11.55h0c4.42-1.73,8.84-3.45,13.25-5.22a.09.09,0,0,1,.12.05.09.09,0,0,1,0,.12h0c-4.44,1.68-8.87,3.4-13.29,5.12h0q-5.22,5.76-10.37,11.57c-3.44,3.87-6.89,7.73-10.3,11.63a.18.18,0,0,1-.25,0,.18.18,0,0,1,0-.25Z"/><path class="cls-1" d="M122.65,89.6c-4.42,1.32-8.83,2.68-13.23,4l0,0c-3.31,3.88-6.62,7.78-9.89,11.7s-6.58,7.81-9.83,11.75a.09.09,0,0,1-.13,0,.09.09,0,0,1,0-.13h0c3.33-3.88,6.61-7.78,9.91-11.68s6.58-7.82,9.84-11.74a.05.05,0,0,1,0,0c4.39-1.41,8.78-2.81,13.17-4.25a.18.18,0,0,1,.22.11.17.17,0,0,1-.12.22Z"/><path class="cls-1" d="M124,93.68,122,94c-1.2.19-2.79.48-4.39.78s-3.18.61-4.37.86l-2,.44a.1.1,0,0,1-.11-.08.09.09,0,0,1,.07-.11h0l2-.34c1.19-.21,2.78-.52,4.37-.83s3.18-.66,4.36-.93l2-.45a.17.17,0,0,1,.21.13.18.18,0,0,1-.13.21Z"/><path class="cls-1" d="M126.37,102.36H115.53l.08,0L109.54,114l-6,11.73v0l-1.71,17.07a.09.09,0,0,1-.11.08.09.09,0,0,1-.08-.1h0l1.82-17.06h0l6-11.73,6-11.76a.1.1,0,0,1,.08,0l10.85-.16a.17.17,0,0,1,.18.17.19.19,0,0,1-.17.18Z"/><path class="cls-1" d="M116.41,103.42a1.18,1.18,0,0,1,0,.46c0,.16-.07.28-.1.42s-.17.52-.27.77c-.19.51-.4,1-.62,1.5-.43,1-.89,2-1.35,2.93-.92,2-1.88,3.87-2.85,5.79-2,3.84-4,7.65-5.94,11.46v0c-.61,5.33-1.25,10.65-1.82,16a.09.09,0,0,1-.1.09.1.1,0,0,1-.09-.11h0c.69-5.31,1.3-10.63,1.94-16v0c2-3.79,4-7.63,5.87-11.48,1-1.93,1.89-3.87,2.79-5.82.45-1,.88-2,1.29-3,.2-.49.4-1,.58-1.5a3.7,3.7,0,0,0,.32-1.45v0a.18.18,0,0,1,.14-.2A.18.18,0,0,1,116.41,103.42Z"/><path class="cls-1" d="M127.14,106.52l-9.83-.57.09-.07-1.86,12.6-1.78,12.61-.07-.05,8.07-2.94a.1.1,0,0,1,.13.06.11.11,0,0,1-.06.12h0l-8.11,2.85s0,0-.06,0v0l1.82-12.61,1.75-12.62a.08.08,0,0,1,.09-.08l9.84.4a.18.18,0,0,1,.17.18.18.18,0,0,1-.18.17Z"/><path class="cls-1" d="M119.7,110c2.78,2,5.63,3.82,8.44,5.73,0,0,0,0,0,0l-1.49,4.78-.75,2.38-.38,1.2-.19.59-.11.3-.06.15,0,.07,0,0,0,0a.1.1,0,0,1-.17-.06.1.1,0,0,1,.08-.11.11.11,0,0,1,.11.08.09.09,0,0,0-.14,0h0v0l0-.07,0-.14.12-.29.21-.58.41-1.18.78-2.38,1.51-4.77v0c-2.86-1.83-5.69-3.71-8.59-5.49a.18.18,0,0,1-.06-.24.19.19,0,0,1,.25,0Z"/><path class="cls-1" d="M127.83,112.8l-1.36-.72c-.81-.42-1.92-1-3-1.49s-2.22-1-3.07-1.41l-1.41-.61a.09.09,0,0,1,0-.12.1.1,0,0,1,.13,0h0l1.37.69c.83.41,1.94.93,3,1.45s2.24,1,3.09,1.36l1.42.58a.19.19,0,0,1,.1.23.17.17,0,0,1-.23.09Z"/><path class="cls-1" d="M127.54,109.62l-1.43-.46c-.86-.26-2-.59-3.17-.92s-2.31-.61-3.18-.82l-1.46-.34a.1.1,0,0,1-.07-.12.09.09,0,0,1,.11-.07h0l1.43.43c.86.25,2,.56,3.18.87s2.32.58,3.2.77l1.47.32a.17.17,0,1,1-.08.34Z"/><path class="cls-1" d="M120.71,112.33c.5,7.48,1.1,15,1.64,22.43h0l-.16,4.07-.07,0,1.68-3.55v0c-.26-5.53-.5-11.06-.79-16.59a.09.09,0,0,1,.09-.1.09.09,0,0,1,.09.09h0c.2,5.53.45,11.07.68,16.6v0l-1.69,3.54s0,0,0,0a.05.05,0,0,1,0,0l.16-4.06h0c-.64-7.46-1.23-14.94-1.92-22.4a.19.19,0,0,1,.16-.19.17.17,0,0,1,.19.16Z"/><path class="cls-1" d="M121.16,123.38c-1.5-4.15-3.07-8.27-4.62-12.4l.09,0c.52,3,1.11,6,1.66,9s1.12,6,1.71,8.94a.09.09,0,0,1-.07.11.1.1,0,0,1-.11-.08h0c-.52-3-1.06-6-1.61-9s-1.08-6-1.67-8.94c0,0,0,0,0-.06a.05.05,0,0,1,0,0c1.62,4.1,3.2,8.22,4.86,12.3a.18.18,0,0,1-.1.23.17.17,0,0,1-.22-.1Z"/><path class="cls-1" d="M110.52,141.53c.1-3.95.17-7.89.24-11.84v0l3.09-10.55,3-10.56s0,0,.06,0,0,0,0,0l4.06,8.8a.09.09,0,0,1,0,.12.09.09,0,0,1-.13,0h0l-4-8.85H117l-3.06,10.55-3,10.57v0c0,3.95,0,7.9,0,11.84a.18.18,0,0,1-.18.18.18.18,0,0,1-.17-.18Z"/><path class="cls-1" d="M117.48,105.93c-1.63,3.69-3.22,7.4-4.81,11.11s-3.19,7.42-4.74,11.15v0c.22,4.57.43,9.15.69,13.72,0,.05,0,.09-.09.1a.11.11,0,0,1-.1-.09h0c-.15-4.58-.37-9.15-.57-13.73h0c1.59-3.71,3.14-7.44,4.68-11.17s3.1-7.45,4.61-11.2a.18.18,0,0,1,.33.14Z"/><path class="cls-1" d="M113.73,131.09c-.08,1.67-.23,3.34-.4,5s-.39,3.33-.63,5l0-.06c1.22.81,2.44,1.6,3.72,2.31a34.75,34.75,0,0,1,3.67,2.37s0,0,0,.06a0,0,0,0,1-.06,0,35.26,35.26,0,0,1-3.72-2.28c-1.2-.85-2.44-1.61-3.69-2.35,0,0,0-.05,0-.07.12-1.68.24-3.35.44-5s.41-3.33.68-5l0,0S113.73,131.07,113.73,131.09Z"/><path class="cls-1" d="M122,129.92c-2.12.66-4.21,1.4-6.31,2.1l0,0c-.26,1.46-.46,2.92-.69,4.38s-.44,2.92-.62,4.38a.1.1,0,0,1-.11.08.08.08,0,0,1-.08-.1h0c.27-1.45.5-2.91.73-4.37s.48-2.91.68-4.37c0,0,0,0,0,0,2.07-.77,4.16-1.51,6.22-2.34a.19.19,0,0,1,.23.1.18.18,0,0,1-.1.23Z"/><path class="cls-1" d="M116.34,140.21c.2-2.58.31-5.16.4-7.74,0,0,0,0,0,0q2.65-.42,5.29-.91a.09.09,0,0,1,.11.08.09.09,0,0,1-.07.11h0q-2.65.34-5.31.78l0,0c-.08,2.58-.14,5.17-.11,7.76a.18.18,0,0,1-.17.17.17.17,0,0,1-.18-.17Z"/><path class="cls-1" d="M128.38,118.19l-.47,1.64c-.28,1-.63,2.3-1,3.62s-.65,2.64-.87,3.64l-.36,1.66a.1.1,0,0,1-.12.07.09.09,0,0,1-.07-.11h0l.45-1.64c.27-1,.59-2.31.91-3.63s.62-2.65.83-3.65.33-1.67.33-1.67a.17.17,0,1,1,.34.07Z"/><path class="cls-1" d="M124.2,122.5s.18-.47.46-1.17.6-1.65.93-2.59.62-1.9.83-2.62l.35-1.21a.09.09,0,0,1,.12-.06.09.09,0,0,1,.06.12h0l-.43,1.18c-.26.7-.57,1.65-.88,2.61s-.59,1.91-.79,2.64l-.32,1.21a.17.17,0,0,1-.21.12.17.17,0,0,1-.13-.21Z"/><path class="cls-1" d="M128,129.32l-.34.47c-.2.29-.44.68-.68,1.08s-.45.81-.6,1.12l-.23.53a.1.1,0,0,1-.13,0,.09.09,0,0,1,0-.12v0l.32-.48c.19-.3.41-.7.63-1.11s.41-.83.55-1.15.21-.54.21-.54a.18.18,0,0,1,.23-.1.16.16,0,0,1,.1.22A.08.08,0,0,1,128,129.32Z"/><path class="cls-1" d="M118.75,122.5l-.72.61c-.43.37-1,.88-1.52,1.4s-1.07,1-1.46,1.47l-.63.69a.1.1,0,0,1-.14,0,.09.09,0,0,1,0-.13h0l.7-.62c.42-.38,1-.91,1.49-1.44s1-1.09,1.42-1.51l.61-.71a.18.18,0,0,1,.25,0,.18.18,0,0,1,0,.25Z"/><path class="cls-1" d="M118.34,119.73l-.62.77c-.37.46-.83,1.1-1.29,1.74s-.9,1.29-1.22,1.78l-.53.84a.09.09,0,0,1-.13,0,.11.11,0,0,1,0-.13h0l.6-.78c.35-.47.8-1.12,1.25-1.77s.86-1.31,1.17-1.82l.5-.85a.18.18,0,0,1,.24-.06.17.17,0,0,1,.06.24Z"/><path class="cls-1" d="M117.68,116s-.19.36-.46.9-.6,1.27-.92,2-.63,1.48-.84,2l-.35.94a.09.09,0,0,1-.18-.06h0s.18-.36.44-.91.56-1.29.87-2,.59-1.49.79-2.06l.32-1a.18.18,0,0,1,.23-.11.18.18,0,0,1,.11.22Z"/><path class="cls-1" d="M104.92,108.36l-1.68,1.82c-1,1.11-2.3,2.58-3.62,4.06s-2.58,3-3.54,4.12-1.59,1.89-1.59,1.89a.09.09,0,0,1-.13,0,.1.1,0,0,1,0-.14h0L96,118.29l3.58-4.09,3.5-4.16,1.57-1.91a.18.18,0,0,1,.25,0,.19.19,0,0,1,0,.25Z"/><path class="cls-1" d="M97.15,135.78,96,137.12c-.71.8-1.63,1.9-2.54,3s-1.81,2.21-2.48,3l-1.09,1.42a.09.09,0,0,1-.13,0,.09.09,0,0,1,0-.13h0l1.17-1.36c.69-.81,1.6-1.92,2.5-3s1.78-2.23,2.43-3.08l1.07-1.43a.19.19,0,0,1,.25,0,.18.18,0,0,1,0,.25Z"/><path class="cls-1" d="M97.63,132.56l.4,10.85h-.21l1.43-20.66v0l14.07-23.8a.05.05,0,0,1,0,0l11.94-1.06a.09.09,0,0,1,.1.08.11.11,0,0,1-.09.11h0l-11.94,1,0,0L99.33,122.77v0L98,143.42a.1.1,0,0,1-.11.1.11.11,0,0,1-.1-.1l-.54-10.85a.18.18,0,1,1,.35,0Z"/><path class="cls-1" d="M108.27,132.79s-.22.6-.56,1.5-.74,2.11-1.15,3.33-.78,2.43-1.06,3.35-.44,1.53-.44,1.53a.1.1,0,0,1-.19-.05h0s.21-.61.53-1.51.71-2.12,1.1-3.34.75-2.45,1-3.37.42-1.54.42-1.54a.17.17,0,0,1,.21-.13.18.18,0,0,1,.13.22Z"/><path class="cls-1" d="M119.74,133.8s0,.35-.07.89-.06,1.24-.07,1.95,0,1.42,0,2,0,.89,0,.89a.08.08,0,0,1-.08.1.09.09,0,0,1-.11-.08v0s0-.35,0-.89,0-1.24,0-2,0-1.42-.08-1.95-.07-.89-.07-.89a.18.18,0,0,1,.16-.2.18.18,0,0,1,.19.16Z"/><path class="cls-1" d="M88.31,143.13l1-2.2L91.61,136l2.16-4.92,1-2.25a.1.1,0,0,1,.13-.05.09.09,0,0,1,.05.12h0s-.42.88-1,2.21l-2.2,4.91c-.77,1.79-1.54,3.59-2.11,4.94l-.93,2.26a.18.18,0,0,1-.33-.13Z"/><path class="cls-1" d="M91.27,139.62l.9-1.26c.54-.76,1.23-1.79,1.91-2.82s1.35-2.07,1.84-2.86l.8-1.32a.09.09,0,0,1,.13,0,.09.09,0,0,1,0,.13h0L96,132.73c-.52.77-1.2,1.81-1.87,2.85s-1.31,2.09-1.78,2.89l-.78,1.34a.18.18,0,0,1-.24.06.17.17,0,0,1-.07-.24Z"/><path class="cls-1" d="M93.74,131.74l-.52,1.37c-.31.83-.7,1.94-1.08,3s-.73,2.23-1,3.08l-.41,1.41a.11.11,0,0,1-.12.07.09.09,0,0,1-.06-.12h0l.5-1.38c.3-.84.66-2,1-3.07s.69-2.25.94-3.1.39-1.42.39-1.42a.17.17,0,1,1,.33.09v0Z"/><path class="cls-1" d="M96.77,137.38l-.89,1.05c-.53.64-1.21,1.51-1.89,2.38s-1.33,1.77-1.81,2.44l-.8,1.13a.09.09,0,0,1-.13,0,.09.09,0,0,1,0-.13h0s.35-.42.87-1.07,1.18-1.53,1.84-2.41,1.3-1.79,1.77-2.47l.78-1.14a.17.17,0,0,1,.24,0,.18.18,0,0,1,0,.24Z"/><path class="cls-1" d="M97.21,134.47q-2,2.61-4,5.16c-1.36,1.71-2.72,3.41-4.12,5.08l-.09-.24c3.08.7,6.14,1.43,9.24,2s6.2,1.12,9.25,1.92a0,0,0,0,1,0,.05s0,0,0,0c-3.12-.48-6.19-1.2-9.26-1.91s-6.18-1.23-9.28-1.81a.16.16,0,0,1-.12-.18s0-.05,0-.06c1.34-1.72,2.72-3.41,4.11-5.09s2.79-3.35,4.22-5a0,0,0,0,1,0,0A0,0,0,0,1,97.21,134.47Z"/><path class="cls-1" d="M89.44,123.67c-3.89-2.35-7.83-4.61-11.74-6.92l.06,0-3.09,7.65c-1,2.54-2,5.1-3,7.66a.1.1,0,0,1-.13.05.09.09,0,0,1-.05-.12h0c1.06-2.54,2.11-5.08,3.13-7.63l3.09-7.64a0,0,0,0,1,0,0h0c4,2.23,7.89,4.5,11.87,6.69a.17.17,0,0,1,.07.24.19.19,0,0,1-.24.07Z"/><path class="cls-1" d="M86.15,120.32c-2.86-1.7-5.76-3.32-8.65-5l.07,0c-1,2.1-2,4.22-3,6.33s-2,4.23-3,6.36a.1.1,0,0,1-.13,0,.09.09,0,0,1,0-.12h0c1-2.1,2.06-4.2,3.07-6.31s2-4.21,3-6.34a.06.06,0,0,1,.07,0h0c2.92,1.59,5.83,3.21,8.77,4.75a.18.18,0,0,1,.07.24.16.16,0,0,1-.23.07Z"/><path class="cls-1" d="M77,111.53l-.73,1.64c-.43,1-1,2.3-1.53,3.62s-1.06,2.66-1.44,3.66l-.62,1.68a.09.09,0,0,1-.12.05.09.09,0,0,1,0-.12h0l.7-1.65c.42-1,1-2.31,1.48-3.64s1-2.67,1.39-3.68l.6-1.69a.16.16,0,0,1,.22-.1.18.18,0,0,1,.11.22Z"/><path class="cls-1" d="M76.52,109.06l-.5,1.63c-.29,1-.66,2.29-1,3.6s-.69,2.64-.92,3.63l-.39,1.66a.09.09,0,0,1-.11.07.09.09,0,0,1-.07-.11h0L74,117.9c.28-1,.62-2.3,1-3.62s.65-2.65.87-3.64l.36-1.67a.18.18,0,0,1,.21-.13.17.17,0,0,1,.13.2Z"/><path class="cls-1" d="M76.23,107.62l-.65,1.72c-.38,1-.87,2.41-1.35,3.8S73.3,115.92,73,117s-.54,1.75-.54,1.75a.09.09,0,1,1-.18,0h0l.63-1.72c.37-1,.83-2.43,1.3-3.82s.89-2.8,1.21-3.85l.51-1.76a.18.18,0,0,1,.22-.12.19.19,0,0,1,.12.22Z"/><path class="cls-1" d="M78.08,118.19l-1,3-2.23,6.64c-.78,2.42-1.56,4.84-2.14,6.66s-.94,3-.94,3a.09.09,0,0,1-.12.06.08.08,0,0,1-.06-.11h0l1-3,2.18-6.65,2.09-6.68.92-3A.16.16,0,0,1,78,118a.17.17,0,0,1,.12.22Z"/><path class="cls-1" d="M71.76,143.63l1,.35c.58.2,1.36.44,2.14.68s1.57.44,2.17.58l1,.23a.1.1,0,0,1,.07.12.09.09,0,0,1-.11.07h0l-1-.32c-.58-.19-1.37-.41-2.16-.63s-1.58-.4-2.18-.53l-1-.21a.17.17,0,0,1-.14-.21.18.18,0,0,1,.21-.13Z"/><path class="cls-1" d="M71.77,142.5l1.09.52c.66.3,1.55.67,2.44,1s1.79.72,2.47,1l1.14.4a.09.09,0,0,1,.06.12.1.1,0,0,1-.12.06h0l-1.1-.48c-.67-.29-1.56-.65-2.46-1s-1.81-.68-2.5-.91l-1.14-.38a.17.17,0,0,1-.12-.22.18.18,0,0,1,.23-.11Z"/><path class="cls-1" d="M80.39,135.36l1.23,1.26c.74.75,1.76,1.72,2.77,2.7s2,1.93,2.83,2.64l1.31,1.17a.1.1,0,0,1,0,.14.09.09,0,0,1-.13,0h0L87.15,142c-.75-.74-1.78-1.7-2.8-2.66s-2.08-1.91-2.87-2.6l-1.33-1.16a.17.17,0,0,1,0-.24.17.17,0,0,1,.25,0Z"/><path class="cls-1" d="M80.84,138.83l1.08.82c.65.49,1.54,1.12,2.42,1.75s1.79,1.22,2.47,1.66l1.15.73a.1.1,0,0,1,0,.13.1.1,0,0,1-.13,0h0l-1.09-.8c-.66-.47-1.55-1.09-2.45-1.7s-1.81-1.19-2.51-1.62l-1.16-.7a.18.18,0,0,1,.19-.3Z"/><path class="cls-1" d="M81.17,141.35l6,3.35-.19,0L97.38,132.5v.12l-9.51-16.84,0,0-10.48-1.31,0,0,4.24,30.89a.1.1,0,0,1-.07.09h0l-9.94-4.21a.09.09,0,0,1,0-.12.1.1,0,0,1,.13-.05h0l9.92,4.24-.11.08-4.15-30.9s0,0,0,0h0l10.48,1.29a.05.05,0,0,1,0,0l9.61,16.78a.13.13,0,0,1,0,.12L87.2,144.94a.15.15,0,0,1-.19,0l-6-3.31a.19.19,0,0,1-.07-.24.17.17,0,0,1,.24-.07Z"/><path class="cls-1" d="M85.09,145.2l-.57-.35c-.35-.2-.82-.45-1.29-.69s-1-.46-1.33-.61-.62-.25-.62-.25a.09.09,0,0,1-.06-.12.09.09,0,0,1,.12-.05h0l.58.33c.35.19.83.42,1.31.64s1,.43,1.36.57l.63.22a.17.17,0,0,1,.11.22.18.18,0,0,1-.22.11Z"/><path class="cls-1" d="M83.4,145.36l-.28-.23a7,7,0,0,0-.66-.42c-.25-.13-.5-.26-.7-.34a3.24,3.24,0,0,0-.33-.12.09.09,0,0,1-.06-.12.1.1,0,0,1,.12-.07l0,0a2.84,2.84,0,0,0,.29.2c.18.12.43.25.68.38s.52.22.72.29l.35.1a.17.17,0,0,1,.13.21.18.18,0,0,1-.21.14Z"/><path class="cls-1" d="M92.52,134.23l-1.35.71c-.8.43-1.87,1-2.93,1.63s-2.1,1.24-2.88,1.72l-1.29.81a.1.1,0,0,1-.13,0,.09.09,0,0,1,0-.13h0l1.34-.74c.8-.44,1.85-1.06,2.9-1.68s2.09-1.26,2.86-1.76l1.28-.83a.17.17,0,0,1,.24,0,.18.18,0,0,1,0,.24Z"/><path class="cls-1" d="M84.57,139.66l1.1-.54c.66-.33,1.52-.79,2.38-1.25s1.71-1,2.34-1.34l1-.64a.11.11,0,0,1,.13,0,.11.11,0,0,1,0,.14h0l-1.09.56c-.65.34-1.5.82-2.35,1.3s-1.69,1-2.31,1.38l-1,.66a.18.18,0,0,1-.24-.05.17.17,0,0,1,0-.24Z"/><path class="cls-1" d="M76.29,123.56l.53,1.51c.33.91.79,2.11,1.25,3.31s1,2.39,1.33,3.28.64,1.47.64,1.47a.1.1,0,0,1-.05.13.09.09,0,0,1-.12,0h0s-.23-.6-.56-1.51-.81-2.09-1.3-3.28-1-2.38-1.38-3.26L76,123.69a.18.18,0,0,1,.09-.24.18.18,0,0,1,.23.09Z"/><path class="cls-1" d="M79.52,117.79s0,.17,0,.44,0,.69-.07,1.18c-.05,1-.07,2.29-.09,3.59s0,2.62,0,3.6l0,1.64a.09.09,0,0,1-.09.09.09.09,0,0,1-.1-.09h0s0-.66,0-1.64,0-2.29,0-3.6,0-2.61-.06-3.6l0-1.19c0-.3,0-.46,0-.46a.17.17,0,0,1,.19-.16.18.18,0,0,1,.16.19Z"/><path class="cls-1" d="M67.82,120.33l-2.22,3.36-4.81,7.43-4.73,7.48L54,142a.12.12,0,0,1-.14,0,.11.11,0,0,1,0-.13h0L56,138.54l4.76-7.45,4.68-7.52,2.1-3.43a.17.17,0,0,1,.3.18Z"/><path class="cls-1" d="M66.37,128.15,52,147.18a.12.12,0,0,1-.17,0,.13.13,0,0,1-.05-.14L68.88,102.2h0L93.55,73s0,0,0,0l23-7.24a.09.09,0,0,1,.12.06.09.09,0,0,1-.06.12h0l-23,7.19,0,0L68.94,102.24h0L52,147.15l-.21-.12,14.27-19.09a.18.18,0,0,1,.28.21Z"/><path class="cls-1" d="M69.25,112.55q-2.91,4.52-5.75,9l-5.72,9.07h0c-2.76,5.49-5.56,11-8.28,16.49a.1.1,0,0,1-.12,0,.1.1,0,0,1,0-.13h0c2.84-5.45,5.59-10.95,8.39-16.43h0l5.63-9.12Q66.18,117,69,112.37a.17.17,0,1,1,.3.18Z"/><path class="cls-1" d="M62.86,118.7c-2.18,3.34-4.31,6.7-6.45,10.06s-4.27,6.73-6.38,10.11h0c-2.45,2.65-4.9,5.31-7.31,8a.11.11,0,0,1-.14,0,.09.09,0,0,1,0-.13h0c2.48-2.62,4.94-5.27,7.39-7.92h0c2.13-3.37,4.25-6.74,6.34-10.14s4.2-6.77,6.26-10.18a.17.17,0,1,1,.3.18Z"/><path class="cls-1" d="M55.13,126.83l-1.89,2.43-4.1,5.42-4,5.47-1.8,2.5a.09.09,0,0,1-.13,0,.11.11,0,0,1,0-.14h0L45,140.09l4.06-5.45,4-5.5,1.78-2.52a.17.17,0,0,1,.24,0,.18.18,0,0,1,0,.24Z"/><path class="cls-1" d="M56.83,122.64l-1.74,2.22-3.77,5-3.7,5L46,137.1a.11.11,0,0,1-.14,0,.09.09,0,0,1,0-.13h0l1.73-2.24,3.73-5,3.65-5,1.63-2.31a.18.18,0,0,1,.25,0,.18.18,0,0,1,0,.24Z"/><path class="cls-1" d="M64.89,113.34s-.62,1-1.51,2.43-2,3.44-3.16,5.43-2.16,4-2.93,5.56-1.21,2.58-1.21,2.58a.1.1,0,0,1-.13,0,.1.1,0,0,1-.05-.12h0s.51-1,1.29-2.55,1.85-3.54,3-5.54,2.19-4,3-5.51l1.39-2.5a.18.18,0,0,1,.23-.07.17.17,0,0,1,.07.24Z"/><path class="cls-1" d="M76.69,45.17l-5.32,6.56L59.71,66.2c-4.2,5.29-8.41,10.57-11.57,14.54L42.9,87.36l-.14-.11,5.3-6.58c3.17-4,7.39-9.23,11.61-14.51L71.2,51.6,76.42,45Z"/><path class="cls-1" d="M132.86,133.12l-4.59.55h0l-1.7.63,0,0-1.13,1.13c-.38.37-.73.77-1.09,1.16l-2.16,2.36,0-.11c.31,2.46.66,4.92.93,7.39l-.14-.14,9.25.89h0l5.52-1.66c1.85-.55,3.68-1.14,5.52-1.72l0,.07-1.23-5.74v0l-1.84-3.42.1.07c-2.48-.48-5-1-7.43-1.46Zm.12-.07c2.47.4,4.94.84,7.41,1.27a.11.11,0,0,1,.09.07l1.8,3.45v0l1.13,5.76a.06.06,0,0,1,0,.07c-1.84.55-3.69,1.1-5.52,1.69l-5.5,1.75h0l-9.27-.76a.17.17,0,0,1-.15-.14c-.33-2.46-.6-4.93-.9-7.4a.12.12,0,0,1,0-.11l2.18-2.34c.36-.39.73-.79,1.12-1.16l1.14-1.12,0,0,1.7-.61h0l4.66-.41Z"/><path class="cls-1" d="M203.06,70.2c-5.17,5.41-10.39,10.77-15.6,16.14l-7.81,8-7.86,8-7.87,8-7.84,8-15.62,16.12,0-.16,1.83,3.43-.15-.08,32.46-4.35,32.48-4.18v0l-32.44,4.49L142.2,138l-.1,0,0-.1-1.81-3.45,0-.08.06-.07,15.73-16,7.82-8,7.81-8.06,7.81-8.06,7.85-8c5.24-5.34,10.47-10.69,15.75-16Z"/><path class="cls-1" d="M123.08,146.24l-2.73,1.08c-1.73.69-4.22,1.64-7.2,2.78L102.94,154,91.2,158.35c-4,1.49-8,2.92-11.73,4.38l-10.19,3.92c-3,1.15-5.49,2-7.24,2.7l-2.76,1,0-.07L62,169.17c1.75-.66,4.22-1.65,7.22-2.76l10.25-3.78c3.75-1.37,7.71-2.95,11.69-4.46l11.69-4.49,10.24-3.82c3-1.11,5.49-2,7.25-2.67l2.75-1Z"/><path class="cls-1" d="M143.37,143.62l2.18.13,5.77.41c2.38.15,5.16.45,8.13.71l4.59.43,4.75.35c6.36.43,12.71.94,17.47,1.4s7.93.78,7.93.78v0s-3.18-.18-7.95-.53-11.13-.88-17.47-1.5l-4.74-.43-4.59-.34c-3-.23-5.77-.39-8.15-.64l-5.75-.54-2.18-.23Z"/><path class="cls-1" d="M107.31,15.6l2.3.13c1.46.08,3.55.23,6,.4l8.56.6,9.81.82c3.33.26,6.67.59,9.8.78l8.56.57c2.51.17,4.59.38,6.05.49l2.29.23v.08l-2.3-.12c-1.46-.1-3.55-.21-6-.42l-8.55-.72c-3.13-.29-6.47-.46-9.81-.7l-9.81-.67-8.55-.69c-2.51-.2-4.59-.37-6.05-.52l-2.29-.21Z"/><path class="cls-1" d="M110.68,29.66l1.47-.52c.93-.34,2.27-.79,3.88-1.33L121.52,26l6.33-2c2.16-.69,4.33-1.31,6.33-2l5.48-1.86c3.22-1.09,5.4-1.67,5.4-1.67l0,.08s-2.11.82-5.35,1.83l-5.53,1.72c-2,.61-4.15,1.39-6.3,2.1l-6.28,2.13-5.53,1.75c-1.61.51-3,.94-3.91,1.21l-1.49.45Z"/><path class="cls-1" d="M136.11,17.83s-1.62.54-4.06,1.29l-4.2,1.24c-1.53.44-3.18.89-4.83,1.32s-3.3.87-4.83,1.34-3,.94-4.18,1.3c-2.45.73-4.12,1.09-4.12,1.09l0-.08s1.61-.58,4.08-1.27c1.23-.35,2.68-.7,4.22-1.13s3.18-.92,4.8-1.43,3.26-1,4.8-1.47L132,18.85c2.47-.67,4.13-1.07,4.13-1.07Z"/><path class="cls-1" d="M108.16,19.64s1.23-.05,3.07,0c.92,0,2,0,3.15.05s2.37.1,3.6.18,2.45.14,3.6.15,2.23,0,3.15,0c1.84,0,3.06.18,3.06.18v.08a29.18,29.18,0,0,1-3.07,0c-.92,0-2-.13-3.14-.18S119.2,20,118,20s-2.45,0-3.6,0l-3.15-.12c-1.84-.09-3.06-.2-3.06-.2Z"/><path class="cls-1" d="M162.89,13.37l-1.76.19c-1.12.12-2.71.27-4.63.44l-6.56.59-7.53.54c-2.56.2-5.13.33-7.52.58l-6.56.62c-3.84.35-6.41.44-6.41.44v-.08s2.55-.34,6.39-.62l6.57-.46c2.4-.15,5-.45,7.52-.67l7.51-.7,6.57-.49c1.92-.15,3.52-.27,4.64-.33l1.76-.1Z"/><rect class="cls-1" x="179.4" y="1.68" width="0.35" height="36.61" transform="translate(136.77 195.52) rotate(-82.65)"/><path class="cls-1" d="M105.72,8s.83.46,2,1.22c.61.38,1.3.84,2,1.33s1.51,1,2.27,1.61,1.54,1.12,2.29,1.59,1.48.88,2.07,1.28a18.69,18.69,0,0,1,1.92,1.39l0,.07a18,18,0,0,1-2-1.24c-.6-.39-1.25-.92-2-1.43s-1.53-1-2.34-1.5-1.62-1-2.36-1.48l-2-1.38C106.44,8.64,105.69,8,105.69,8Z"/><path class="cls-1" d="M109.08,23.92s-1.11,1.59-2.84,3.92l-3,4c-1.1,1.44-2.3,3-3.51,4.48s-2.4,3-3.48,4.49-2,2.85-2.93,4c-1.74,2.33-3,3.8-3,3.8l-.07,0s1.08-1.62,2.86-3.91c.88-1.16,2-2.46,3.07-3.89s2.26-3,3.41-4.56,2.28-3.12,3.37-4.57l3-3.93c1.79-2.28,3-3.78,3-3.78Z"/><path class="cls-1" d="M73.39,39.61s2-.73,4.92-1.76l5.08-1.73c1.86-.62,3.85-1.25,5.85-1.87s4-1.25,5.85-1.89l5-1.79c3-1,5-1.56,5-1.56l0,.08s-2,.77-4.93,1.74l-5.12,1.61c-1.86.6-3.84,1.29-5.81,2s-4,1.39-5.8,2l-5.1,1.66c-3,1-5,1.55-5,1.55Z"/><path class="cls-1" d="M107.32,26.23s-1.63.76-4.11,1.82L99,29.84c-1.56.64-3.23,1.3-4.91,1.94s-3.35,1.31-4.9,2-3,1.33-4.22,1.84c-2.48,1.06-4.18,1.63-4.18,1.63l0-.07s1.61-.8,4.11-1.8c1.25-.52,2.73-1.05,4.29-1.68s3.21-1.34,4.86-2.06,3.29-1.44,4.85-2.09l4.26-1.73c2.51-1,4.2-1.61,4.2-1.61Z"/><path class="cls-1" d="M106.28,10.73q-4.87,2.56-9.8,5c-3.28,1.66-6.54,3.36-9.84,5L76.76,25.6c-3.29,1.64-6.61,3.22-9.87,4.91l0,0-2.59,9.36C63.9,41.4,63.42,43,63,44.51s-.91,3.1-1.4,4.65l-.08,0c.4-1.57.83-3.14,1.27-4.69s.85-3.13,1.31-4.68l2.74-9.32v0h0c3.31-1.6,6.56-3.3,9.84-5l9.82-5c3.26-1.67,6.57-3.27,9.86-4.91s6.59-3.26,9.9-4.84Z"/><path class="cls-1" d="M70.4,35.06s1.72-1.35,4.34-3.3l4.49-3.31c1.66-1.2,3.44-2.46,5.22-3.71S88,22.23,89.66,21l4.46-3.36c2.63-1.94,4.46-3.13,4.46-3.13l0,.07s-1.7,1.38-4.35,3.28l-4.57,3.21c-1.66,1.19-3.41,2.5-5.15,3.81s-3.48,2.63-5.12,3.84L74.9,32c-2.66,1.89-4.47,3.11-4.47,3.11Z"/><path class="cls-1" d="M79.33,50.13s1.23-.94,3.13-2.29l3.25-2.28c1.2-.82,2.5-1.67,3.8-2.51s2.59-1.7,3.78-2.54,2.26-1.67,3.22-2.33c1.9-1.34,3.25-2.12,3.25-2.12l0,.07s-1.21,1-3.14,2.27c-1,.66-2.12,1.37-3.32,2.18s-2.47,1.71-3.73,2.62S87.1,45,85.91,45.85l-3.29,2.22c-1.94,1.28-3.26,2.1-3.26,2.1Z"/><path class="cls-1" d="M34,81.09c3.09-3.71,6.23-7.37,9.37-11s6.3-7.32,9.47-11,6.37-7.26,9.49-11l9.39-11,0,0,0,0,18-9.63c6-3.16,12-6.36,18.05-9.47l0,0c-6,3.29-11.94,6.5-17.91,9.75l-18,9.59,0,0L62.43,48.21c-3.18,3.63-6.28,7.34-9.42,11s-6.26,7.36-9.44,11S37.23,77.51,34,81.12Z"/><path class="cls-1" d="M37.92,83.84c-3.08,10-6.27,20-9.41,30-1.56,5-3.19,10-4.79,15l-4.83,14.95,0-.09,11.78,6,11.83,6c3.94,2,7.89,4,11.82,6s7.86,4,11.76,6.09l0,.07c-4-1.94-7.9-3.95-11.84-5.93s-7.86-4-11.79-6L30.6,149.75l-11.82-6-.05,0,0-.06,4.71-15c1.58-5,3.12-10,4.74-15,3.22-10,6.38-19.94,9.67-29.89Z"/><path class="cls-1" d="M30.17,78.73s-.06.68-.16,1.88-.25,2.91-.45,5-.44,4.44-.69,7l-.91,8c-.3,2.73-.66,5.46-.88,8s-.47,5-.66,7c-.39,4.11-.8,6.83-.8,6.83h-.08s.16-2.75.62-6.85c.24-2,.52-4.44.81-7s.52-5.3.79-8,.53-5.47.77-8,.55-5,.78-7,.42-3.76.57-5,.24-1.88.24-1.88Z"/><path class="cls-1" d="M27.89,100.61c-2.58,7.52-5.27,15-7.92,22.5-1.31,3.76-2.68,7.49-4,11.23l-4.07,11.2,0-.1,10,3.8L31.88,153c3.35,1.24,6.71,2.46,10.05,3.72s6.69,2.52,10,3.85l0,.07c-3.37-1.18-6.71-2.44-10.06-3.67s-6.68-2.54-10-3.8l-10-3.81-10-3.71-.08,0,0-.08,4-11.25c1.32-3.75,2.63-7.5,4-11.23,2.72-7.48,5.39-15,8.17-22.41Z"/><path class="cls-1" d="M25.56,76.46l1.24-.87c.78-.57,1.91-1.34,3.27-2.26l4.65-3.16,5.4-3.51c1.83-1.21,3.7-2.36,5.39-3.54l4.63-3.18c2.72-1.86,4.61-3,4.61-3l0,.07S53,58.35,50.28,60.15l-4.72,3.06c-1.73,1.1-3.51,2.38-5.33,3.61l-5.32,3.64-4.7,3.08c-1.38.9-2.52,1.65-3.34,2.15l-1.28.81Z"/><path class="cls-1" d="M58.83,52.25l3-26.06v-.07l.07,0,3.31-.86c1.11-.28,2.2-.59,3.32-.84l6.66-1.55c1.1-.27,2.22-.49,3.32-.8l3.31-.87c1.1-.28,2.2-.6,3.31-.85s2.22-.53,3.34-.74l0,.08c-1.09.35-2.2.61-3.3.91s-2.22.52-3.33.79l-3.33.77c-1.11.25-2.2.57-3.31.85L68.6,24.72c-1.1.3-2.22.54-3.33.81L62,26.31l.08-.09-3.15,26Z"/><path class="cls-1" d="M59.27,146.83l27.22,1.34c9.08.48,18.16.9,27.23,1.43h0l13.82,6h-.06l24.67-2.25h0l16.65-7.7-.05.07,1-11.57v0q-.54-7-1-14c-.32-4.66-.66-9.31-.94-14h.08c.4,4.65.74,9.3,1.1,14s.7,9.31,1,14h0L169,145.76v.05h0l-16.68,7.64h0l-24.66,2.4h0l0,0-13.85-5.95h0c-9.08-.44-18.15-1-27.22-1.47l-27.22-1.56Z"/><path class="cls-1" d="M76.13,148.41l30,4.07h0l20.26,5.23h-.06l29.09-2.55h0l17.89-9.08,0,0,1.44-12.33h0L174,117.19l-.7-16.61,0,.09c-4.36-4.3-8.75-8.58-13.09-12.91l.06-.06c4.43,4.23,8.81,8.52,13.21,12.78l0,0v0l.65,16.61.64,16.62h0l-1.44,12.33v0h0l-17.84,9.18h0l-29.07,2.7h-.06l-20.23-5.3h0l-30-4.28Z"/><path class="cls-1" d="M86.63,160,85,159.48c-1-.32-2.49-.82-4.24-1.41l-6-2L68,153.63c-2.32-.82-4.62-1.7-6.82-2.41l-6-2c-3.5-1.18-5.78-2.1-5.78-2.1a0,0,0,0,1,0,0,0,0,0,0,1,0,0s2.37.68,5.84,1.92l5.94,2.13c2.16.8,4.52,1.53,6.85,2.32l6.85,2.29,5.94,2.11c1.74.62,3.19,1.13,4.2,1.51l1.59.59s0,0,0,0S86.64,160,86.63,160Z"/><path class="cls-1" d="M44.77,147.08c3,1.22,6.06,2.43,9.08,3.67l9,3.72C69,156.92,75,159.51,81,162h0l10.22,1c3.41.35,6.83.63,10.24,1l10.23.94c3.41.36,6.82.67,10.23,1.09,0,0,0,0,0,0a0,0,0,0,1,0,0c-3.42-.25-6.83-.6-10.24-.9l-10.23-1c-3.41-.34-6.81-.72-10.22-1l-10.24-.94h0c-6-2.49-12.1-4.91-18.1-7.47l-9-3.79c-3-1.25-6-2.55-9-3.83,0,0,0,0,0,0S44.76,147.08,44.77,147.08Z"/><path class="cls-1" d="M36.57,146l1.66.75c1.06.48,2.55,1.19,4.34,2l6.13,2.91,7,3.45c2.38,1.16,4.72,2.39,7,3.43l6.14,2.88c3.59,1.7,5.93,3,5.93,3s0,0,0,.06,0,0,0,0-2.44-1-6-2.81l-6.08-3c-2.21-1.12-4.63-2.2-7-3.34l-7-3.32-6.09-3c-1.79-.87-3.27-1.6-4.3-2.14l-1.62-.83a0,0,0,0,1,0,0A0,0,0,0,1,36.55,146.05Z"/><path class="cls-1" d="M79.65,145.45l1.52.12c1,.07,2.36.21,4,.37l5.67.56,6.48.77c2.21.25,4.42.56,6.49.74l5.68.53c3.32.32,5.52.68,5.52.68s0,0,0,0a0,0,0,0,1,0,0s-2.23-.12-5.54-.51l-5.66-.68c-2.06-.27-4.28-.42-6.5-.65l-6.5-.62-5.66-.65c-1.66-.19-3-.35-4-.49l-1.52-.2s0,0,0,0S79.63,145.45,79.65,145.45Z"/><path class="cls-1" d="M116.64,148.82h0l-23-4.56a.19.19,0,0,1-.14-.2.18.18,0,0,1,.21-.14l23,4.55a.19.19,0,0,1,.14.21A.18.18,0,0,1,116.64,148.82Z"/><path class="cls-1" d="M111.51,141.3c1.4,1,2.82,2,4.2,3l4.18,3,0,0c1.77.51,3.55,1,5.32,1.52l5.29,1.58h0l6.36-1c1.06-.18,2.13-.34,3.18-.54l3.17-.58h0l4.42-4.36,0,.15c-.4-1.09-.77-2.18-1.16-3.26s-.77-2.18-1.13-3.28c0,0,0,0,0-.05a0,0,0,0,1,.05,0c.44,1.07.85,2.15,1.25,3.23s.83,2.16,1.22,3.24a.16.16,0,0,1,0,.15l-4.51,4.27,0,0-3.18.52c-1.07.17-2.12.38-3.18.57l-6.34,1.17h-.05l-5.32-1.48c-1.78-.49-3.54-1-5.31-1.56a.05.05,0,0,1,0,0l-4.14-3.1c-1.38-1-2.73-2.08-4.1-3.13a0,0,0,0,1,0,0S111.5,141.29,111.51,141.3Z"/><path class="cls-1" d="M118.34,139.78c.67,1.11,1.36,2.21,2,3.34l2,3.36-.09-.06c1.54.34,3.1.65,4.64,1l4.62,1.09h-.06l4.15-1c1.38-.35,2.77-.67,4.13-1.07h0l5.46-2.76-.07.15c-.65-2-1.26-3.93-1.81-5.93a.05.05,0,0,1,0-.05s.05,0,.05,0c.72,1.94,1.37,3.9,2,5.87a.14.14,0,0,1-.06.16l-5.53,2.62h0c-1.39.33-2.75.73-4.13,1.1l-4.12,1.13h0l-4.65-1c-1.54-.33-3.08-.71-4.62-1.07a.13.13,0,0,1-.09-.07l-1.91-3.4c-.64-1.12-1.24-2.28-1.86-3.42a0,0,0,0,1,0,0A0,0,0,0,1,118.3,139.8Z"/><path class="cls-1" d="M121,139.13a5.92,5.92,0,0,1,.41.8c.11.25.22.54.34.85a10.12,10.12,0,0,1,.28,1,6.13,6.13,0,0,0,.3,1c.13.31.31.58.4.83a2.79,2.79,0,0,1,.21.87,0,0,0,0,1,0,.05l0,0a2.84,2.84,0,0,1-.39-.81c-.09-.25-.12-.57-.22-.89a5.68,5.68,0,0,0-.4-1c-.16-.32-.31-.65-.43-1s-.2-.62-.27-.87a5.85,5.85,0,0,1-.19-.88s0,0,0,0Z"/><path class="cls-1" d="M108.56,147.22h0l-11.59-3.49a.18.18,0,0,1,.1-.34l11.59,3.5a.17.17,0,0,1,.12.22A.17.17,0,0,1,108.56,147.22Z"/><path class="cls-1" d="M100.9,143s.7.22,1.71.61l1.71.71c.62.28,1.27.6,1.91.92s1.3.65,1.93.9,1.24.44,1.73.65a11.47,11.47,0,0,1,1.62.81,0,0,0,0,1,0,.06l0,0a11.84,11.84,0,0,1-1.69-.64c-.5-.22-1.05-.54-1.67-.82s-1.28-.55-2-.81-1.36-.5-2-.77-1.2-.53-1.69-.77c-1-.47-1.61-.82-1.61-.82a.06.06,0,0,1,0,0S100.89,143,100.9,143Z"/><path class="cls-1" d="M106.14,142.28s.58.31,1.39.83l1.38.93c.5.35,1,.75,1.51,1.16s1,.8,1.53,1.13,1,.6,1.41.87a8.62,8.62,0,0,1,1.27,1s0,0,0,.06h0a9.12,9.12,0,0,1-1.37-.86c-.4-.28-.82-.66-1.31-1a19,19,0,0,0-1.59-1.05c-.55-.34-1.1-.68-1.6-1s-.95-.68-1.34-1c-.77-.59-1.26-1-1.26-1s0,0,0,0Z"/><path class="cls-1" d="M112,144.5a5.79,5.79,0,0,1,.65.54c.19.17.39.38.61.6s.41.5.6.78a5.91,5.91,0,0,0,.63.76c.23.21.48.38.65.56a2.5,2.5,0,0,1,.5.68,0,0,0,0,1,0,.06h0a2.56,2.56,0,0,1-.64-.56c-.17-.18-.31-.44-.51-.69a5.64,5.64,0,0,0-.7-.68,9.51,9.51,0,0,1-.73-.67l-.56-.65a6.54,6.54,0,0,1-.48-.7s0,0,0,0Z"/><path class="cls-1" d="M97.34,144.8s.94.18,2.33.53c.69.17,1.49.4,2.36.63s1.77.53,2.67.83,1.82.58,2.68.8,1.69.38,2.38.58a16.4,16.4,0,0,1,2.27.73s0,0,0,0,0,0,0,0a19.69,19.69,0,0,1-2.32-.56c-.69-.19-1.47-.49-2.33-.74s-1.78-.49-2.71-.71-1.85-.44-2.72-.68-1.66-.47-2.34-.69c-1.37-.42-2.26-.75-2.26-.75s0,0,0,0S97.33,144.8,97.34,144.8Z"/><path class="cls-1" d="M93.05,150.76s.68.1,1.69.32l1.71.41c.62.17,1.28.37,1.94.58s1.31.41,1.94.55,1.22.23,1.72.36a9.17,9.17,0,0,1,1.64.52,0,0,0,0,1,0,.05s0,0,0,0a10,10,0,0,1-1.68-.34c-.5-.13-1.07-.35-1.69-.53s-1.29-.32-2-.46-1.35-.27-2-.42-1.21-.33-1.7-.48c-1-.29-1.63-.54-1.63-.54s0,0,0,0Z"/><path class="cls-1" d="M63.32,154.78s.95.46,2.34,1.22c.69.38,1.49.84,2.35,1.33s1.75,1,2.65,1.62,1.79,1.12,2.65,1.6,1.7.88,2.39,1.27a22.62,22.62,0,0,1,2.23,1.4,0,0,0,0,1,0,.06s0,0,0,0a23.36,23.36,0,0,1-2.33-1.25c-.68-.39-1.44-.92-2.29-1.43s-1.78-1-2.71-1.51-1.86-1-2.72-1.48-1.65-1-2.32-1.38c-1.35-.83-2.23-1.42-2.23-1.42a0,0,0,0,1,0,0Z"/><path class="cls-1" d="M40.57,85.75,42,83.9,46,79.09c1.61-2,3.58-4.26,5.66-6.71l3.21-3.78,3.25-3.95c4.33-5.33,8.71-10.6,12.06-14.51s5.59-6.49,5.59-6.49l0,0s-2.14,2.68-5.4,6.66-7.66,9.24-12.13,14.44l-3.31,3.9L51.79,72.5c-2,2.48-3.92,4.83-5.6,6.77l-4,4.73L40.6,85.77Z"/><path class="cls-1" d="M78.49,48.56,77.05,50.3,73.2,54.82c-1.58,1.88-3.51,4-5.55,6.31l-3.14,3.54-3.18,3.71c-4.24,5-8.53,10-11.81,13.63S44,88.1,44,88.1l0,0s2.09-2.52,5.28-6.26,7.5-8.68,11.88-13.56l3.24-3.66L67.5,61c2-2.33,3.84-4.54,5.49-6.36l4-4.44,1.52-1.66Z"/><polygon class="cls-1" points="74.89 42.2 74.77 41.87 102.86 31.8 102.98 32.13 74.89 42.2"/><path class="cls-1" d="M111,32.23c-3.08,2.39-6.23,4.69-9.35,7-1.55,1.17-3.15,2.29-4.72,3.44l-4.74,3.43h0c-2,1-3.91,2-5.85,3.09l-5.82,3.13,0,0c-3.12,3.71-6.3,7.37-9.45,11C69.57,65.23,68,67,66.36,68.87s-3.19,3.64-4.81,5.44l0,0c1.54-1.87,3.1-3.73,4.66-5.58s3.12-3.71,4.7-5.54c3.17-3.67,6.31-7.36,9.51-11l0,0h0l5.87-3c2-1,3.91-2,5.85-3.09h0l4.68-3.51c1.57-1.16,3.11-2.35,4.7-3.48,3.16-2.28,6.3-4.6,9.5-6.83Z"/><path class="cls-1" d="M106.94,13.83s-1,.92-2.52,2.2c-.76.66-1.69,1.38-2.69,2.13s-2,1.59-3.06,2.48c-2,1.76-4.08,3.46-5.67,4.69s-2.69,2-2.69,2l0,0s1-.91,2.51-2.21,3.61-3,5.75-4.6c1.08-.8,2.12-1.65,3.06-2.48s1.83-1.59,2.63-2.2c1.57-1.25,2.68-2,2.68-2Z"/><polygon class="cls-1" points="140.97 133.97 133.52 132.65 133.58 132.31 141.03 133.63 140.97 133.97"/><polygon class="cls-1" points="141.6 133.31 134.54 131.54 134.63 131.2 141.69 132.97 141.6 133.31"/><path class="cls-1" d="M137,128.16c1.07.49,2.1,1,3.12,1.6s2,1.17,3,1.8l0,0v0a27.5,27.5,0,0,0,1.06,2.92,17.08,17.08,0,0,1,1,2.95l-.08,0a17.89,17.89,0,0,1-1.09-2.91,25,25,0,0,0-1-2.94l0,0c-1-.52-2.09-1-3.09-1.64s-2-1.19-3-1.84Z"/><path class="cls-1" d="M138.13,126.58s.41.21,1,.57l.94.66c.33.25.67.54,1,.84a9.75,9.75,0,0,0,1,.83c.35.23.71.4,1,.6a4.29,4.29,0,0,1,.84.74l0,.07a4.08,4.08,0,0,1-1-.59c-.27-.2-.54-.49-.87-.75a9.8,9.8,0,0,0-1.08-.75c-.39-.23-.77-.47-1.11-.71s-.64-.49-.9-.71a9.91,9.91,0,0,1-.83-.76Z"/><path class="cls-1" d="M139.07,125c1,.72,2.05,1.47,3,2.25s2,1.57,2.9,2.4l0,0v0c.39,1.26.8,2.51,1.31,3.72a24.43,24.43,0,0,1,1.29,3.72l-.08,0a24.37,24.37,0,0,1-1.36-3.69c-.38-1.26-.84-2.48-1.34-3.7l0,.05c-1-.75-2-1.5-3-2.31s-1.93-1.61-2.86-2.46Z"/><path class="cls-1" d="M139.93,123.42c2.11,1.65,4.23,3.29,6.33,5a.09.09,0,0,1,0,.06l2.55,8.53a.06.06,0,0,1,0,0c0,2.36,0,4.72,0,7.07a.21.21,0,0,1,0,.11L144.33,149s0,0-.07,0L130,151.33h0L118.59,148h0c-1.89-.94-3.78-1.91-5.66-2.89s-3.76-2-5.62-3a0,0,0,0,1,0,0,0,0,0,0,1,.06,0c1.91.91,3.8,1.87,5.69,2.83s3.78,1.91,5.66,2.89h0L130,151.25h0l14.23-2.44-.07,0,4.43-4.87,0,.11c0-2.35,0-4.71,0-7.07v0l-2.47-8.56,0,.05c-2.09-1.68-4.15-3.4-6.22-5.1,0,0,0,0,0,0A0,0,0,0,1,139.93,123.42Z"/><path class="cls-1" d="M140.46,122.47c1.11.83,2.21,1.68,3.28,2.56s2.13,1.77,3.16,2.71l0,0v0c.52,1.52,1,3,1.66,4.52a34.27,34.27,0,0,1,1.68,4.5l-.08,0a35.73,35.73,0,0,1-1.73-4.48c-.5-1.53-1.12-3-1.74-4.48l0,0c-1.1-.84-2.17-1.73-3.22-2.63s-2.09-1.83-3.1-2.78Z"/><path class="cls-1" d="M141.32,120.91c2.28,1.84,4.53,3.71,6.78,5.6h0v0c1.37,3.32,2.8,6.62,4.12,10v0h0l1.31,7.92v.06l-.05,0-3.46,2.86c-1.16,1-2.32,1.9-3.46,2.88h0l-8.81,1.55c-1.46.28-2.94.5-4.41.73s-2.94.47-4.42.67l0-.08c1.47-.3,2.93-.56,4.4-.81s2.94-.53,4.41-.75l8.84-1.4h0c1.17-.95,2.3-1.93,3.44-2.9l3.42-2.91,0,.08-1.43-7.9v0c-1.41-3.31-2.7-6.66-4.06-10l0,0q-3.36-2.85-6.66-5.75Z"/><path class="cls-1" d="M141.74,120.14s.48.29,1.16.8c.34.25.73.56,1.14.89s.82.72,1.23,1.11a15.46,15.46,0,0,0,1.25,1.09c.42.32.85.58,1.17.84a6.63,6.63,0,0,1,1,1l-.05.06a7,7,0,0,1-1.15-.82c-.32-.27-.66-.64-1.06-1a13.72,13.72,0,0,0-1.31-1c-.46-.33-.92-.66-1.33-1l-1.1-.94c-.62-.57-1-1-1-1Z"/><path class="cls-1" d="M143,118s.51.34,1.22.91c.35.28.76.62,1.19,1s.86.79,1.28,1.22a16,16,0,0,0,1.31,1.2c.44.36.89.65,1.23.95a8,8,0,0,1,1.08,1.06l-.06.06a8,8,0,0,1-1.2-.92c-.34-.29-.69-.7-1.11-1.08a17.54,17.54,0,0,0-1.37-1.13c-.48-.36-1-.73-1.39-1.1s-.82-.73-1.15-1c-.65-.62-1.06-1.08-1.06-1.08Z"/><path class="cls-1" d="M143.65,116.77a9.16,9.16,0,0,1,.78.81c.22.25.46.55.73.88s.5.7.74,1.08a10.6,10.6,0,0,0,.76,1.06c.28.32.57.58.78.85a4.16,4.16,0,0,1,.61.93l-.07.05a4.32,4.32,0,0,1-.75-.82c-.21-.26-.39-.61-.63-1a8.75,8.75,0,0,0-.85-1,13,13,0,0,1-.87-1l-.67-.92c-.38-.55-.6-1-.6-1Z"/><path class="cls-1" d="M145.09,114.28c1.34,1.18,2.69,2.35,4,3.55l4,3.59,0,0v0c.39,1.2.79,2.39,1.16,3.6l1.12,3.6,2.23,7.22v0h0c-.22,1.46-.46,2.92-.64,4.39l-.59,4.4v0l0,0c-1.31,1.11-2.59,2.24-3.91,3.32s-2.65,2.17-4,3.22l0-.06c1.27-1.15,2.56-2.26,3.87-3.36s2.65-2.17,4-3.26l0,.06.68-4.39c.24-1.46.42-2.93.62-4.4v0l-2.37-7.17L154,125.18c-.39-1.2-.75-2.4-1.13-3.6l0,.06L148.94,118c-1.31-1.21-2.59-2.45-3.88-3.68Z"/><path class="cls-1" d="M146.21,112.33s.53.47,1.27,1.22c.37.38.79.83,1.24,1.32s.9,1,1.34,1.58.9,1.09,1.36,1.56.93.89,1.28,1.28a10.32,10.32,0,0,1,1.12,1.36l-.06.06a11.08,11.08,0,0,1-1.25-1.24c-.36-.39-.72-.9-1.16-1.4s-.92-1-1.43-1.49-1-1-1.45-1.48-.86-.95-1.2-1.36c-.68-.8-1.1-1.38-1.1-1.38Z"/><path class="cls-1" d="M149,115.4c2,1.36,3.94,2.73,5.88,4.13l0,0v0c.64,2.68,1.35,5.34,1.94,8l1.83,8.05h0c.06,1.54.09,3.08.16,4.62l.24,4.62v0l0,0c-1.34,1-2.67,2.08-4,3.09s-2.72,2-4.11,3l-.05-.07c1.31-1.07,2.65-2.11,4-3.13s2.73-2,4.09-3l0,.07-.14-4.62c0-1.54-.15-3.08-.23-4.62h0l-2-8c-.69-2.67-1.26-5.36-1.89-8l.05.08q-2.9-2.11-5.76-4.29Z"/><path class="cls-1" d="M147,111s.58.44,1.4,1.16c.42.36.88.79,1.38,1.25s1,1,1.5,1.52,1,1.05,1.53,1.5,1,.84,1.41,1.21a11.33,11.33,0,0,1,1.26,1.31l-.05.06a11.13,11.13,0,0,1-1.39-1.17c-.4-.38-.81-.87-1.29-1.35s-1-1-1.59-1.42-1.11-.94-1.61-1.41-1-.91-1.34-1.3c-.76-.77-1.24-1.32-1.24-1.32Z"/><path class="cls-1" d="M148,109.22c2.77,2.92,5.52,5.88,8.25,8.84l0,0v0l2.07,8.66,2,8.67v0h0l.15,9.57v0l0,0L155,148.51,149.57,152h0l-9.46.91c-3.16.25-6.32.56-9.48.76v-.08c3.15-.37,6.31-.63,9.46-1l9.48-.79h0l5.47-3.4,5.42-3.46,0,.06-.26-9.56v0L158,126.86l-2-8.68,0,.06q-4.08-4.47-8.1-9Z"/><path class="cls-1" d="M148.44,108.56q2.24,2.11,4.4,4.3c1.45,1.45,2.88,2.91,4.28,4.41l0,0v0c.37,2.55.72,5.09,1.2,7.62s1,5,1.24,7.61h-.08c-.57-2.51-.94-5.05-1.28-7.6s-.85-5.07-1.33-7.6l0,.07q-2.2-2.15-4.33-4.37t-4.2-4.49Z"/><path class="cls-1" d="M149.93,106q2.26,2.35,4.44,4.78c1.46,1.61,2.88,3.25,4.29,4.91v0c.62,2.26,1.27,4.51,2,6.73s1.46,4.45,2,6.73l-.08,0c-.81-2.2-1.47-4.45-2.07-6.71s-1.33-4.49-2.07-6.71l0,0c-1.48-1.59-2.95-3.19-4.37-4.84s-2.85-3.28-4.24-5Z"/><path class="cls-1" d="M193.69,28.86l1.68,11.08L197,51l1.61,11.1,1.55,11.1v0h0l-.42,14.27q-.23,7.14-.35,14.27l-.3,14.28-.2,7.14q-.1,3.57-.25,7.13h-.08q0-3.57.11-7.14l.15-7.14.43-14.27q.23-7.14.37-14.27l.3-14.28v0l-1.64-11.09-1.57-11.11L195.15,40l-1.51-11.12Z"/><path class="cls-1" d="M182,49.05s.86,1.47,2.08,3.73c.6,1.13,1.31,2.44,2.06,3.86s1.5,2.94,2.25,4.48,1.52,3.06,2.28,4.46,1.52,2.7,2.11,3.84c1.21,2.26,1.9,3.82,1.9,3.82l-.08,0s-.89-1.46-2.06-3.74c-.59-1.13-1.22-2.49-1.94-3.92S189,62.7,188.21,61.2s-1.65-3-2.4-4.4-1.41-2.75-2-3.89c-1.15-2.29-1.87-3.84-1.87-3.84Z"/><path class="cls-1" d="M175.07,60.38c4.9,7.86,9.67,15.79,14.5,23.68a.16.16,0,0,1,0,.09l-.25,23.74c-.06,4-.08,7.91-.07,11.86v11.87a.08.08,0,0,1,0,.07c-.88,1.45-1.82,2.86-2.73,4.29s-1.84,2.86-2.79,4.26c0,0,0,0,0,0a0,0,0,0,1,0-.05c.87-1.46,1.77-2.9,2.67-4.34s1.78-2.89,2.71-4.3l0,.06.13-11.87c.06-4,.08-7.91.07-11.86l0-23.74,0,.09c-4.75-7.95-9.57-15.85-14.26-23.83,0,0,0,0,0,0A0,0,0,0,1,175.07,60.38Z"/><path class="cls-1" d="M170,70.05c1.18,1.63,2.38,3.24,3.54,4.88l3.51,4.91c1.17,1.65,2.35,3.27,3.5,4.92l3.45,5a.14.14,0,0,1,0,.06l.81,7.79c.25,2.6.55,5.19.87,7.78l.93,7.78.4,3.89c.14,1.3.27,2.6.37,3.9a.07.07,0,0,1,0,0,0,0,0,0,1,0,0c-.19-1.29-.35-2.59-.5-3.88l-.46-3.89-.8-7.79c-.26-2.6-.54-5.2-.86-7.79l-.93-7.77,0,.06L180.3,85c-1.17-1.64-2.31-3.3-3.46-4.95l-3.45-5c-1.16-1.65-2.28-3.32-3.42-5a.06.06,0,0,1,0,0S170,70,170,70.05Z"/><path class="cls-1" d="M163.84,81.33s.94.85,2.3,2.18c.68.67,1.46,1.45,2.3,2.3s1.7,1.77,2.56,2.71,1.72,1.86,2.57,2.69,1.67,1.58,2.34,2.26c1.35,1.34,2.16,2.32,2.16,2.32l-.06.06a30.66,30.66,0,0,1-2.29-2.2c-.67-.67-1.39-1.52-2.21-2.38s-1.73-1.74-2.65-2.62-1.83-1.76-2.67-2.6-1.6-1.65-2.25-2.34c-1.3-1.39-2.14-2.34-2.14-2.34Z"/><path class="cls-1" d="M126.85,157s-1.16-.25-2.89-.71l-2.94-.82c-1.07-.31-2.2-.68-3.33-1s-2.27-.73-3.35-1-2.1-.51-3-.76a27.82,27.82,0,0,1-2.83-.92l0-.08a29.79,29.79,0,0,1,2.89.74c.86.25,1.84.61,2.9.94s2.22.63,3.38.92,2.31.59,3.38.9,2.07.61,2.92.88c1.71.53,2.83.93,2.83.93Z"/><path class="cls-1" d="M160.79,92.13l4.91,5.66,4.88,5.69,0,0v0l.48,7.58.43,7.57.82,15.16h0c-.19,2-.4,4-.56,6l-.51,6V146l0,0L167,148.18c-1.43.72-2.84,1.45-4.27,2.16-2.86,1.39-5.7,2.83-8.59,4.19l0-.08c2.81-1.49,5.67-2.9,8.5-4.35,1.42-.72,2.86-1.41,4.28-2.12l4.29-2.11,0,.07.58-6c.2-2,.37-4,.54-6h0l-1-15.15-.49-7.57-.42-7.58,0,.08-4.83-5.73-4.79-5.77Z"/><path class="cls-1" d="M201.76,71.51a1.07,1.07,0,0,1-.1-.25l-.22-.71c-.17-.6-.41-1.47-.67-2.52s-.53-2.28-.78-3.6-.58-2.73-1-4.12c-.75-2.79-1.39-5.59-1.82-7.71s-.67-3.54-.67-3.54h0s.41,1.38.93,3.47,1.17,4.91,1.71,7.73c.27,1.42.59,2.82.95,4.13s.66,2.52.88,3.58.41,1.93.54,2.55l.13.72c.05.18,0,.24.05.24Z"/><path class="cls-1" d="M196.14,25s.08,1.16.07,2.91c0,.88,0,1.89-.1,3s-.09,2.25-.06,3.42c.06,2.33,0,4.66-.06,6.41s-.18,2.91-.18,2.91h0s-.07-1.17-.08-2.92,0-4.08.17-6.4c.07-1.17.09-2.33.06-3.43s0-2.11,0-3c.05-1.75.18-2.91.18-2.91Z"/><path class="cls-1" d="M178.05,70.06s.63,1,1.45,2.59c.43.78.88,1.72,1.33,2.74s1,2.08,1.58,3.12c1.16,2.08,2.23,4.2,3,5.81S186.62,87,186.62,87l0,0s-.62-1-1.46-2.59-1.91-3.7-2.9-5.86a34.93,34.93,0,0,0-1.57-3.12c-.55-1-1-1.89-1.41-2.7-.79-1.6-1.23-2.71-1.23-2.71Z"/><path class="cls-1" d="M175.61,66a24.13,24.13,0,0,1,1,3.89,16.55,16.55,0,0,0,.56,2.26,43.66,43.66,0,0,1,1.09,4.23c.24,1.17.34,2,.34,2h0s-.28-.75-.61-1.89-.7-2.7-1-4.26a18.84,18.84,0,0,0-.55-2.27,18.66,18.66,0,0,1-.54-2c-.26-1.16-.35-2-.35-2Z"/><path class="cls-1" d="M123.83,34.18s2.17-.66,5.45-1.5c1.64-.44,3.56-.9,5.63-1.37s4.25-1,6.44-1.62c4.35-1.2,8.73-2.31,12-3.08s5.51-1.25,5.51-1.25v0s-2.18.63-5.45,1.5-7.66,2-12.07,3c-2.2.52-4.4,1-6.44,1.61S131,32.57,129.35,33c-3.29.8-5.51,1.25-5.51,1.25Z"/><path class="cls-1" d="M194.91,78.55c-.16,8.76-.47,17.52-.7,26.27l-1,26.26v0h0c-2.72,5.31-5.31,10.69-8,16h0c-2.14,2.35-4.26,4.72-6.43,7s-4.32,4.67-6.52,7l-.06-.06c2.1-2.38,4.26-4.71,6.39-7.07s4.32-4.66,6.47-7v0c2.68-5.33,5.42-10.64,8-16v0l.73-26.27c.33-8.75.59-17.51,1-26.26Z"/><path class="cls-1" d="M192.42,81.11c-.24,16.74-.63,33.48-.94,50.23v0l0,0-7.93,15.7,0,0h0L165.3,160.83h0c-7,.4-13.95.76-20.93,1.21l-20.92,1.31h0c-5.46-.79-10.93-1.56-16.39-2.39s-10.92-1.62-16.38-2.48l0-.08c5.47.74,10.93,1.54,16.4,2.32s10.92,1.6,16.38,2.41h0L144.33,162c7-.38,13.95-.86,20.92-1.28l0,0,18.12-13.77,0,.05,7.87-15.73,0,.07c.41-16.74.74-33.48,1.23-50.22Z"/><path class="cls-1" d="M190.62,83l.07,2c.06,1.25.1,3,.15,5.16s.11,4.62.17,7.29,0,5.52.06,8.36,0,5.7.1,8.36l.2,7.3c.06,2.13,0,3.91.06,5.15,0,.63,0,1.12,0,1.45,0,.17,0,.3,0,.38v.12h0v0h-.06v0h.08s0,0,0,0h-.08v-.13l0-.38c0-.33-.05-.82-.06-1.44,0-1.25-.11-3-.13-5.16s0-4.62,0-7.29-.13-5.52-.19-8.36-.15-5.69-.22-8.36,0-5.16-.07-7.3,0-3.91,0-5.15,0-2,0-2Z"/><path class="cls-1" d="M182.42,91.36l1.1,20.44,1.06,20.45a.13.13,0,0,1,0,.06l-5.21,14.35s0,.07-.07.08l-18.43,11.61-.05,0-18.11,1.38c-6,.45-12.08.95-18.12,1.45h0l-14-2.43c-4.66-.81-9.32-1.6-14-2.45h0c-5.65-1.52-11.31-3-17-4.57,0,0,0,0,0-.05s0,0,0,0c5.67,1.43,11.33,2.93,17,4.4h0c4.66.8,9.31,1.66,14,2.49l14,2.51h0c6-.47,12.08-.92,18.12-1.43l18.11-1.48h-.05l18.37-11.69-.06.08,5.22-14.36v.06l-1-20.45-.92-20.45s0,0,0,0A0,0,0,0,1,182.42,91.36Z"/><path class="cls-1" d="M181,92.82l1.1,39.65a.09.09,0,0,1,0,.05l-4.26,14a.16.16,0,0,1-.06.08l-18.29,11-.07,0-34.17,2.44h0l-18.26-3.56c-3-.57-6.08-1.23-9.14-1.73l-9.18-1.53-36.72-6L52,147l20.26,5.34,20.24,5.41a0,0,0,0,1,0,0,0,0,0,0,1,0,0l-20.27-5.26-20.26-5.34a.12.12,0,0,1,0-.23l36.7,6.18,9.17,1.52c3.07.48,6.1,1.13,9.15,1.69l18.28,3.48h0l34.17-2.56-.08,0,18.3-11-.07.09,4.3-14v0l-.89-39.66a0,0,0,0,1,0,0S181,92.81,181,92.82Z"/><path class="cls-1" d="M176.45,97.48l.16,4.46.12,4.47.12,4.47c0,1.49,0,3,.06,4.47l.09,8.94c0,1.49,0,3,.07,4.47l.12,4.47s0,0,0,0c-.57,1.7-1.1,3.41-1.7,5.11s-1.17,3.39-1.81,5.06a0,0,0,0,1-.06,0s0,0,0,0c.51-1.72,1.09-3.41,1.65-5.12s1.18-3.38,1.77-5.08v0l0-4.47c0-1.49-.06-3-.1-4.47l-.25-8.93c0-1.49-.1-3-.11-4.47l0-4.47L176.4,102V97.48s0,0,0,0A0,0,0,0,1,176.45,97.48Z"/><path class="cls-1" d="M174.85,99.12s0,1.46,0,3.66c0,1.1,0,2.38,0,3.76s-.1,2.83-.17,4.3-.14,2.92-.15,4.3,0,2.66,0,3.75c0,2.2-.18,3.66-.18,3.66a0,0,0,0,1,0,0,0,0,0,0,1,0,0s-.09-1.47,0-3.66c0-1.1.13-2.38.17-3.75s.06-2.84.05-4.31,0-2.93,0-4.3.08-2.66.11-3.75c.09-2.2.2-3.66.2-3.66a0,0,0,0,1,0,0S174.85,99.1,174.85,99.12Z"/><path class="cls-1" d="M194.14,101.2s.1-1.59.38-4c.13-1.19.33-2.56.57-4s.42-3.06.59-4.64c.31-3.16.7-6.32,1.07-8.68s.63-3.92.63-3.92l0,0a0,0,0,0,1,0,0s-.12,1.59-.38,4-.66,5.53-1.17,8.67c-.23,1.57-.47,3.14-.59,4.63s-.3,2.87-.47,4c-.33,2.36-.64,3.92-.64,3.92l0,0S194.14,101.21,194.14,101.2Z"/><path class="cls-1" d="M154.83,97.38c3.71,3.61,7.32,7.32,11,11l.05,0v.07l.24,6.53.22,6.53c.08,2.18.12,4.36.24,6.53l.34,6.53h0c-.21,1.81-.38,3.63-.63,5.44s-.45,3.62-.73,5.42h-.08c.15-1.82.37-3.63.56-5.44s.45-3.63.67-5.44v0l-.22-6.53c-.06-2.18-.21-4.35-.31-6.53l-.33-6.53-.31-6.53,0,.11c-3.59-3.73-7.24-7.4-10.77-11.18Z"/><path class="cls-1" d="M172.32,102s.06,1.73.08,4.33c0,1.3,0,2.82,0,4.44s-.07,3.36-.13,5.1-.1,3.46-.09,5.09.06,3.14.05,4.44c0,2.61-.13,4.34-.13,4.34H172s-.11-1.74-.06-4.34c0-1.3.1-2.82.13-4.44s0-3.36,0-5.09-.05-3.47,0-5.1.05-3.14.08-4.44c.06-2.6.15-4.34.15-4.34Z"/><path class="cls-1" d="M143.84,137.67c-.33-.84-.64-1.69-.91-2.55s-.55-1.72-.77-2.6l.08.08c-1.1-.43-2.19-.89-3.33-1.21a18,18,0,0,1-3.36-1.16l0-.08a19.07,19.07,0,0,1,3.37,1.13,35,35,0,0,0,3.38,1.07l.06,0,0,.07c.31.85.57,1.72.82,2.59s.47,1.74.66,2.63Z"/><path class="cls-1" d="M149.54,125.05a16.17,16.17,0,0,1,.74,1.73,15.93,15.93,0,0,1,.58,1.83,16.13,16.13,0,0,0,.73,2.08,38.16,38.16,0,0,1,1.41,3.87c.33,1.08.49,1.82.49,1.82h0s-.34-.68-.75-1.73a40.59,40.59,0,0,1-1.3-3.91,14.54,14.54,0,0,0-.72-2.08,14.88,14.88,0,0,1-.68-1.8,17.9,17.9,0,0,1-.5-1.81Z"/><path class="cls-1" d="M151.27,123.29s.17.67.35,1.69c.09.51.17,1.11.27,1.75s.14,1.33.19,2,.11,1.38.22,2,.26,1.23.33,1.74a10.37,10.37,0,0,1,.14,1.72l-.08,0a10.21,10.21,0,0,1-.33-1.7c-.07-.52-.07-1.12-.14-1.77s-.19-1.32-.32-2-.26-1.36-.36-2-.15-1.24-.2-1.76c-.1-1-.12-1.73-.12-1.73Z"/><path class="cls-1" d="M152.13,122.48s.3.83.67,2.09c.19.64.39,1.38.61,2.17s.4,1.66.58,2.52.38,1.72.62,2.51.49,1.52.66,2.16a16,16,0,0,1,.47,2.15l-.08,0A15.65,15.65,0,0,1,155,134c-.17-.64-.3-1.4-.49-2.21s-.44-1.64-.71-2.48-.52-1.68-.74-2.48-.39-1.54-.54-2.18c-.3-1.29-.45-2.16-.45-2.16Z"/><path class="cls-1" d="M164,110.23s.26,1.18.52,3c.15.89.27,1.94.36,3.06s.26,2.31.47,3.5c.42,2.37.74,4.75.93,6.54s.27,3,.27,3h0s-.25-1.18-.53-3-.6-4.16-.82-6.56a34.17,34.17,0,0,0-.47-3.49c-.2-1.11-.36-2.15-.45-3-.22-1.79-.28-3-.28-3Z"/><path class="cls-1" d="M162.29,112c.31,1.89.59,3.78.87,5.68s.54,3.8.76,5.7c.47,3.81.82,7.63,1.39,11.42h0c.22,3,.43,6,.42,9.05h-.08c-.3-3-.38-6-.45-9.05h0c-.42-3.81-1.08-7.59-1.6-11.39-.28-1.9-.5-3.81-.74-5.71s-.44-3.81-.63-5.72Z"/><path class="cls-1" d="M160.81,113.5s.3.9.68,2.27c.19.68.39,1.48.6,2.34s.41,1.79.59,2.71.38,1.86.61,2.71.49,1.64.66,2.33a17.73,17.73,0,0,1,.48,2.31l-.08,0a17,17,0,0,1-.66-2.27c-.17-.69-.29-1.51-.49-2.37s-.44-1.77-.7-2.68-.53-1.82-.74-2.68-.4-1.66-.55-2.36c-.3-1.38-.45-2.32-.45-2.32Z"/><path class="cls-1" d="M159.41,114.94c.42,1.66.85,3.32,1.23,5l1.19,5c.38,1.67.8,3.33,1.16,5l1.11,5h0l0,5.19c0,1.72-.06,3.45,0,5.18v0h0l-6.84,3.55c-1.14.6-2.29,1.16-3.44,1.73s-2.3,1.14-3.47,1.67l0-.07c1.12-.62,2.26-1.22,3.4-1.81s2.28-1.19,3.44-1.74l6.9-3.41,0,0c0-1.73,0-3.46,0-5.18l0-5.19v0l-1.19-5c-.4-1.67-.75-3.34-1.13-5l-1.11-5c-.38-1.67-.71-3.36-1.07-5Z"/><path class="cls-1" d="M157.88,116.51c.43,1.54.87,3.08,1.27,4.64l1.22,4.65c.84,3.1,1.55,6.23,2.32,9.34v0h0l-.21,5c-.09,1.67-.11,3.34-.15,5v0l0,0c-3.16,2-6.29,4-9.55,5.81l0-.07c3.09-2.09,6.31-3.95,9.51-5.86l0,0c.07-1.67.16-3.34.18-5l.11-5v0c-.81-3.11-1.67-6.2-2.4-9.32l-1.15-4.68c-.39-1.55-.74-3.12-1.1-4.68Z"/><path class="cls-1" d="M132.35,147.06s-.76,1.6-2,3.95c-.62,1.18-1.39,2.53-2.24,4s-1.69,3-2.52,4.57c-1.62,3.16-3.32,6.28-4.66,8.59s-2.26,3.82-2.26,3.82h0s.79-1.6,2-4,3-5.47,4.76-8.53c.88-1.54,1.77-3.08,2.51-4.57s1.49-2.86,2.16-4c1.3-2.33,2.25-3.83,2.25-3.83Z"/><path class="cls-1" d="M137.9,145.34s2.35,1.21,5.81,3.13c1.74.95,3.74,2.1,5.87,3.37s4.45,2.53,6.76,3.8c4.65,2.51,9.26,5.08,12.68,7.08s5.69,3.35,5.69,3.35l0,0s-2.34-1.22-5.81-3.12-8.08-4.5-12.63-7.17c-2.29-1.33-4.57-2.65-6.76-3.81s-4.21-2.28-5.92-3.28c-3.44-2-5.69-3.35-5.69-3.35Z"/><path class="cls-1" d="M144.61,137.56q.9,3.13,1.71,6.28a.11.11,0,0,1,0,.13l-4.53,3.63-.07,0c-1.8.38-3.61.73-5.41,1.1l-5.41,1.08s0,0,0,0c-1.64-.49-3.28-1-4.94-1.47l-5-1.39a.09.09,0,0,1,0,0c-1.8-2.12-3.56-4.27-5.24-6.48a0,0,0,0,1,0-.06h.06c1.85,2.08,3.62,4.22,5.34,6.4l0,0,4.94,1.5c1.64.51,3.3,1,5,1.42h0l5.39-1.19c1.79-.4,3.59-.81,5.39-1.19l-.07,0,4.59-3.56,0,.13q-.79-3.16-1.52-6.33s0,0,0,0A0,0,0,0,1,144.61,137.56Z"/><path class="cls-1" d="M146.83,137.27s.07.34.13.84.11,1.19.14,1.87,0,1.35,0,1.86-.06.85-.06.85-.07-.33-.13-.84-.11-1.18-.14-1.86,0-1.36,0-1.87S146.83,137.27,146.83,137.27Z"/><path class="cls-1" d="M117.55,148.29c2,.52,4,1.14,6,1.78s4,1.4,6,2h0c2.58-.49,5.16-1,7.75-1.46,1.29-.23,2.59-.44,3.89-.63s2.6-.4,3.9-.56c0,0,0,0,0,0s0,0,0,0c-1.28.29-2.57.54-3.86.8s-2.58.49-3.88.72c-2.59.46-5.19.83-7.78,1.25h0c-2-.69-4-1.2-6-1.82s-4-1.29-6-2c0,0,0,0,0,0S117.54,148.29,117.55,148.29Z"/><path class="cls-1" d="M151.27,136.57a36,36,0,0,1,.49,3.86c.05.65.06,1.3.11,1.95s.11,1.29.2,1.93a.06.06,0,0,1,0,.07h0a64.28,64.28,0,0,1-6.2,5.45h0v0a67,67,0,0,1,6.12-5.55l0,.07c0-.65-.08-1.3-.16-1.94s-.19-1.29-.27-1.93a38.86,38.86,0,0,1-.24-3.89l0,0Z"/><path class="cls-1" d="M115.66,149.24c2.17.72,4.32,1.49,6.47,2.25l3.23,1.14,3.21,1.21h-.06c3.18-.5,6.37-.94,9.54-1.52l9.51-1.66-.08,0q3.6-3.13,7.25-6.22l0,.12c0-2.81,0-5.63.12-8.44h0c.09,2.81.11,5.63.15,8.44v.07l0,.05q-3.59,3.15-7.23,6.24l0,0h0l-9.55,1.48c-3.18.46-6.35,1.07-9.52,1.61h-.06l-3.23-1.14-3.21-1.21c-2.14-.8-4.28-1.6-6.41-2.45Z"/><path class="cls-1" d="M202.06,129.91c-3.85,5.92-7.75,11.8-11.64,17.69v0h0c-6.12,5.68-12.33,11.27-18.5,16.91l0,0h0l-12.72.79-12.72.85L121,167.91h0c-7.44-.66-14.87-1.27-22.3-2l-22.28-2.07v0l22.31,1.82c7.43.59,14.86,1.29,22.29,1.93h0L146.38,166l12.72-.78,12.72-.85-.06,0c6.15-5.66,12.26-11.36,18.46-17l0,0c3.93-5.86,7.85-11.74,11.83-17.57Z"/><polygon class="cls-1" points="84.02 160.93 122.61 164.63 122.59 164.63 169.67 163.09 169.57 163.13 188.24 147.27 188.21 147.31 196.62 130.57 196.61 130.61 197.73 102.54 198.8 74.47 198.8 74.48 191.44 31.99 191.53 32.1 159.68 22.73 159.7 22.65 191.61 31.84 191.69 31.86 191.7 31.95 198.92 74.46 198.93 74.47 198.93 74.47 197.84 102.55 196.81 130.62 196.81 130.64 196.8 130.66 188.44 147.42 188.43 147.45 188.41 147.46 169.79 163.39 169.74 163.43 169.68 163.43 122.6 164.83 122.59 164.83 122.59 164.83 84.02 160.98 84.02 160.93"/><path class="cls-1" d="M94.42,157l29.72,4.85h0l19.07-1.48,19.07-1.42-.07,0,18.73-12.36,0,0,6.3-14.78v0l.17-11.53.13-11.53.25-23.06,0,.07-7-11.41L173.7,63s0,0,0,0,0,0,.06,0l7.12,11.36L188,85.69a.19.19,0,0,1,0,.07l-.38,23.06-.18,11.53-.15,11.53v0l-6.23,14.82,0,0L162.34,159.2a.11.11,0,0,1-.07,0l-19.07,1.46-19.07,1.41h0l-29.68-5,0,0Z"/><path class="cls-1" d="M101.72,154.25l12.07,2.3,12.07,2.35h0l15.86-1.48L157.55,156l-.05,0L175,146.22l0,0c1.35-4.42,2.65-8.85,3.95-13.29v0l-.07-19.07,0-9.54c0-3.18,0-6.36.07-9.53a0,0,0,1,1,.08,0c.05,3.17.06,6.35.07,9.53l0,9.54L179.06,133v0c-1.34,4.42-2.67,8.84-4,13.28,0,0,0,0,0,0l-17.45,9.95-.05,0-15.86,1.48-15.86,1.41h0l-12.06-2.41-12-2.46s0,0,0,0S101.71,154.25,101.72,154.25Z"/><path class="cls-1" d="M111.24,150.69s.81.29,2,.76,2.81,1.14,4.4,1.81,3.18,1.39,4.35,2,2,.94,2,.94-.82-.29-2-.76-2.81-1.14-4.4-1.81-3.18-1.39-4.35-2S111.24,150.69,111.24,150.69Z"/><path class="cls-1" d="M117.32,151.29c3.58,1.16,7.16,2.32,10.72,3.52h0l11.62-1.06q5.8-.54,11.62-1h0l15.58-7.23,0,0,.61-5.56.56-5.56h0l-.65-13.54c-.12-2.26-.18-4.52-.27-6.78s-.17-4.52-.23-6.78h.09c.14,2.25.25,4.51.36,6.77s.23,4.52.31,6.77l.51,13.56h0l-.61,5.56-.55,5.57v0l0,0L151.31,153h-.05c-3.87.36-7.74.72-11.62,1L128,155h0c-3.57-1.2-7.11-2.44-10.66-3.68Z"/><path class="cls-1" d="M128.94,153.21s-.58-.21-1.43-.55-2-.85-3.1-1.35-2.22-1.05-3-1.48-1.36-.74-1.36-.74.59.21,1.44.56,2,.84,3.1,1.34,2.21,1.06,3,1.49S128.94,153.21,128.94,153.21Z"/><path class="cls-1" d="M72.15,165.44s-2.51-1.15-6.23-3c-1.86-.92-4-2-6.3-3.26s-4.77-2.45-7.25-3.68c-5-2.42-9.93-4.92-13.61-6.85s-6.11-3.26-6.11-3.26,0,0,0,0h0s2.5,1.18,6.23,3,8.66,4.35,13.55,6.95c2.46,1.28,4.91,2.57,7.26,3.68s4.5,2.21,6.34,3.17c3.7,1.9,6.12,3.25,6.12,3.25a0,0,0,0,1,0,0Z"/><path class="cls-1" d="M68.87,166.65s2.45-.11,6.13-.13c1.84,0,4,0,6.29,0s4.75,0,7.2,0c4.9-.1,9.81-.13,13.49-.07s6.13.12,6.13.12,0,0,0,0,0,0,0,0-2.46.09-6.13.14-8.59.05-13.49,0c-2.45,0-4.91-.06-7.2,0s-4.45.08-6.29.06c-3.68,0-6.13-.12-6.13-.12s0,0,0,0S68.86,166.65,68.87,166.65Z"/></g></g></svg>