<?xml version="1.0" encoding="utf-8"?>
<!-- Generator: Adobe Illustrator 23.0.1, SVG Export Plug-In . SVG Version: 6.00 Build 0)  -->
<svg version="1.1" id="Layer_1" xmlns="http://www.w3.org/2000/svg" xmlns:xlink="http://www.w3.org/1999/xlink" x="0px" y="0px"
	 viewBox="0 0 1000 1000" style="enable-background:new 0 0 1000 1000;" xml:space="preserve">
<style type="text/css">
	.st0{fill:#FFFFFF;}
	.st1{font-family:'Rockout';}
	.st2{font-size:58.8707px;}
	.st3{fill:#FF01CB;}
	.st4{font-family:'Lato-Regular';}
	.st5{font-size:22px;}
</style>
<image style="overflow:visible;" width="2503" height="691" xlink:href="spider-web-top_2-long - Copy.png"  transform="matrix(0.24 0 0 0.24 200 417)">
</image>
<g id="Brand">
	<text transform="matrix(1 0 0 1 230.1074 511.423)" class="st0 st1 st2">AMELIA GOODS      </text>
	<text transform="matrix(1 0 0 1 611.2 511.4231)" class="st0 st1 st2">N</text>
</g>
<path class="st3" d="M615.5,501L615.5,501C615.5,500.9,615.5,500.9,615.5,501c0-0.1,0-0.1,0-0.2v-0.1c0,0,0,0,0-0.1v-0.1v-0.1
	c0,0,0-0.1-0.1-0.1l0,0l-0.1-0.1l0,0l-0.1-0.1c-4.1-2.2-5.6-7.2-3.4-11.3c0.7-1.3,1.7-2.4,3-3.2l0,0l0,0c0,0,0.1,0,0.1-0.1l0,0
	l0.1-0.1l0,0c0,0,0-0.1,0.1-0.1c0,0,0,0,0-0.1v-0.1c0,0,0,0,0-0.1v-0.1v0.1c0-0.1,0-0.1,0-0.1s0-0.1-0.1-0.1l0,0c0,0,0-0.1-0.1-0.1
	l0,0c0,0,0,0-0.1-0.1l0,0l-0.1-0.1l0,0c0,0-0.1,0-0.1-0.1l0,0h-0.1h-0.1l0,0c-4.6-0.2-8.2-4-8-8.6c0.1-1.4,0.5-2.8,1.2-4
	c0,0,0,0,0-0.1l0,0v-0.1l0,0v-0.1l0,0v-0.1c0,0,0,0,0-0.1v-0.1c0,0,0,0,0-0.1V471l0,0l-0.1-0.1l-0.1-0.1l0,0h-0.1h-0.1h-0.1H607
	h-0.1l0,0h-0.1l0,0h-0.1l0,0h-0.1c-4,2.3-9.1,0.9-11.4-3.1c-0.8-1.4-1.2-2.9-1.1-4.5v-0.1l0,0V463l0,0v-0.1l0,0l-0.1-0.1l0,0
	c0,0,0,0-0.1-0.1l0,0c0,0-0.1,0-0.1-0.1l0,0c0,0-0.1,0-0.1-0.1c-0.1,0-0.2,0-0.2,0h-0.1h-0.1H593h-0.1h-0.1h-0.1l0,0
	c0,0-0.1,0-0.1,0.1l0,0l-0.1,0.1l0,0l-0.1,0.1c-1.5,2.7-4.3,4.4-7.4,4.4c-2.9,0-5.6-1.5-7.1-3.9l0,0l0,0l-0.1-0.1l0,0l-0.1-0.1l0,0
	c0,0-0.1,0-0.1-0.1l0,0h-0.1l0,0h-0.1l0,0c-0.1,0-0.1,0-0.1,0s-0.1,0-0.1,0.1l0,0c0,0-0.1,0-0.1,0.1l0,0c0,0,0,0-0.1,0.1l0,0
	c0,0,0,0.1-0.1,0.1l0,0c0,0,0,0.1-0.1,0.1l0,0v0.1c0,0,0,0,0,0.1l0,0c-0.1,4.6-4,8.2-8.6,8c-1.4-0.1-2.7-0.5-3.9-1.2h-0.1l0,0h-0.1
	l0,0H564l0,0h-0.1h-0.1h-0.1h-0.1h-0.1l0,0l-0.1,0.1l0,0l-0.1,0.1l0,0v0.1v0.1v0.1c0,0,0,0,0,0.1v0.1c0,0,0,0,0,0.1v0.1l0,0v0.1
	c0,0,0,0,0,0.1c0,0,0,0,0,0.1c2.3,4,1,9.1-3,11.4c-1.4,0.8-2.9,1.2-4.5,1.1h-0.1h-0.1h-0.1h-0.1h-0.1h-0.1c0,0,0,0-0.1,0H555
	l-0.1,0.1l0,0c0,0,0,0.1-0.1,0.1l0,0c0,0,0,0.1-0.1,0.1c0,0.1,0,0.1,0,0.1s0,0,0,0.1v0.1c0,0,0,0,0,0.1v0.1v0.1v0.1c0,0,0,0,0,0.1
	c0,0,0,0.1,0.1,0.1l0,0l0.1,0.1l0,0l0.1,0.1c2.7,1.5,4.4,4.3,4.4,7.4c0,2.9-1.5,5.6-3.9,7.1l0,0l0,0c0,0-0.1,0-0.1,0.1l0,0l-0.1,0.1
	l0,0c0,0,0,0.1-0.1,0.1c0,0,0,0,0,0.1v0.1c0,0,0,0,0,0.1v0.1c0,0,0,0,0,0.1c0,0.1,0,0.1,0,0.1v0.1v0.1c0,0,0,0,0,0.1
	c0,0.1,0,0,0,0.1v0.1h0.1l0,0h0.1c0,0,0,0,0.1,0h0.1h0.1h0.1h0.1c0,0,0,0,0.1,0c0,0,0,0,0.1,0c2.9,0.1,5.5,1.7,6.9,4.2
	c1.5,2.6,1.5,5.8-0.1,8.4c0,0,0,0,0,0.1l0,0v0.1l0,0v0.1l0,0v0.1v0.1v0.1c0,0,0,0,0,0.1v0.1l0,0l0.1,0.1l0.1,0.1l0,0h0.1h0.1h0.1
	h0.1h0.1l0,0l0,0h0.1l0,0h0.1h0.1h0.1c4-2.3,9.1-0.9,11.4,3.1c0.8,1.4,1.2,2.9,1.1,4.5v0.1l0,0v0.1l0,0v0.1l0,0c0,0,0,0.1,0.1,0.1
	l0,0c0,0,0,0,0.1,0.1l0,0c0,0,0.1,0,0.1,0.1l0,0c0,0,0.1,0,0.1,0.1c0.1,0,0.1,0,0.2,0l0,0h0.1l0,0h0.1l0,0h0.1l0,0c0,0,0,0,0.1,0
	l0,0l0.1-0.1l0,0c0,0,0,0,0.1-0.1l0,0l0,0c2.2-4.1,7.2-5.6,11.3-3.4c1.3,0.7,2.4,1.7,3.2,3l0,0c0,0,0,0,0,0.1l0,0l0,0h0.1l0,0h0.1
	h0.1h0.1h0.1h0.1h0.1h0.1l0,0h0.1l0,0h0.1c0,0,0.1,0,0.1-0.1l0,0c0,0,0.1,0,0.1-0.1l0,0c0,0,0,0,0.1-0.1l0,0c0,0,0-0.1,0.1-0.1l0,0
	c0,0,0-0.1,0.1-0.1l0,0v-0.1c0,0,0,0,0-0.1c0,0,0,0,0-0.1c0.2-4.6,4-8.2,8.6-8c1.4,0.1,2.8,0.5,4,1.2h0.1l0,0h0.1l0,0h0.1l0,0l0,0
	h0.1h0.1h0.1h0.1h0.1l0,0l0.1-0.1l0.1-0.1l0,0V515c0,0,0,0,0-0.1v-0.1v-0.1v-0.1l0,0v-0.1l0,0v-0.1l0,0c0,0,0,0,0-0.1
	c-2.3-4-0.9-9.1,3.1-11.4c1.4-0.8,2.9-1.2,4.5-1.1l0,0h0.1h0.1h0.1h0.1l0,0c0.2-0.1,0.3-0.2,0.4-0.4v-0.1
	C615.5,501.1,615.5,501,615.5,501z M611.5,499.2l-12.2-3.3c0.4-2,0.4-4.1,0-6.1l12-3.2C608.4,490.4,608.4,495.7,611.5,499.2
	L611.5,499.2z M572,492.9c0-0.9,0.1-1.8,0.3-2.7l9.9,2.7l-9.9,2.6C572.1,494.6,572,493.8,572,492.9z M594.9,484.3
	c1.2,1.3,2.1,2.9,2.6,4.6l-9.9,2.6L594.9,484.3z M586.5,490.4l2.7-9.9c1.7,0.6,3.3,1.5,4.6,2.7L586.5,490.4z M585.1,490l-2.6-9.9
	c1.7-0.3,3.5-0.3,5.3,0L585.1,490z M583.6,490.3l-7.2-7.2c1.3-1.2,2.9-2.1,4.6-2.6L583.6,490.3z M582.6,491.4l-9.9-2.7
	c0.6-1.7,1.5-3.3,2.7-4.6L582.6,491.4z M582.5,494.4l-7.2,7.2c-1.2-1.3-2.1-2.9-2.6-4.6L582.5,494.4z M583.6,495.4l-2.7,9.9
	c-1.7-0.6-3.3-1.5-4.6-2.7L583.6,495.4z M585.1,495.8l2.6,9.9c-1.7,0.4-3.5,0.3-5.3,0L585.1,495.8z M586.5,495.4l7.2,7.2
	c-1.3,1.2-2.9,2.1-4.6,2.6L586.5,495.4z M587.6,494.3l9.9,2.7c-0.6,1.7-1.5,3.3-2.7,4.6L587.6,494.3z M588,492.9l9.9-2.6
	c0.2,0.9,0.3,1.7,0.3,2.6s-0.1,1.8-0.3,2.7L588,492.9z M611,485.2l-12,3.2c-0.6-1.9-1.7-3.7-3-5.2l8.9-8.8
	C604,479,606.6,483.5,611,485.2L611,485.2z M597.2,472.1c2,1.2,4.3,1.6,6.6,1.2l-8.9,8.8c-1.5-1.4-3.3-2.4-5.3-3.1l3.3-12.2
	C593.7,469.1,595.2,470.9,597.2,472.1z M585.1,468.8c2.3,0,4.6-0.8,6.4-2.3l-3.3,12.2c-2-0.4-4.1-0.4-6.1,0l-3.2-12
	C580.6,468,582.8,468.8,585.1,468.8z M573.1,472c2-1.1,3.5-2.9,4.3-5l3.2,12c-1.9,0.6-3.7,1.7-5.2,3l-8.8-8.9
	C568.8,473.5,571.1,473.1,573.1,472z M564.3,480.7c1.2-2,1.6-4.3,1.2-6.6l8.8,8.9c-1.4,1.5-2.4,3.3-3.1,5.3l-12.2-3.2
	C561.2,484.3,563.1,482.8,564.3,480.7z M558.6,486.5l12.2,3.3c-0.4,2-0.4,4.1,0,6.1l-12,3.2c1.4-1.7,2.2-3.9,2.2-6.2
	S560.2,488.3,558.6,486.5z M559.2,500.5l12-3.2c0.6,1.9,1.7,3.7,3,5.2l-8.9,8.8C566.1,506.8,563.5,502.2,559.2,500.5L559.2,500.5z
	 M572.9,513.7c-1.5-0.9-3.2-1.3-5-1.3c-0.5,0-1.1,0-1.6,0.1l8.9-8.8c1.5,1.4,3.3,2.4,5.3,3.1l-3.3,12.2
	C576.5,516.7,574.9,514.9,572.9,513.7L572.9,513.7z M585.1,517c-2.3,0-4.6,0.8-6.4,2.3l3.3-12.2c2,0.4,4.1,0.4,6.1,0l3.2,12
	C589.5,517.8,587.3,517,585.1,517L585.1,517z M597,513.8c-2,1.1-3.5,2.9-4.3,5l-3.2-12c1.9-0.6,3.7-1.6,5.2-3l8.8,8.9
	C601.3,512.3,599,512.7,597,513.8L597,513.8z M605.9,505c-1.2,2-1.6,4.3-1.2,6.6l-8.8-8.9c1.4-1.5,2.4-3.3,3.1-5.3l12.2,3.3
	C608.9,501.5,607,503,605.9,505z"/>
<text transform="matrix(1 0 0 1 230.1074 543)" class="st0 st4 st5">Web Designer / Developer / Engineer</text>
</svg>
