<?xml version="1.0" encoding="utf-8"?>
<!-- Generator: Adobe Illustrator 23.0.1, SVG Export Plug-In . SVG Version: 6.00 Build 0)  -->
<svg version="1.1" id="Layer_1" xmlns="http://www.w3.org/2000/svg" xmlns:xlink="http://www.w3.org/1999/xlink" x="0px" y="0px"
	 viewBox="0 0 3128.9 873" style="enable-background:new 0 0 3128.9 873;" xml:space="preserve">
<style type="text/css">
	.st0{fill:#FF01CB;}
</style>
<image style="overflow:visible;enable-background:new    ;" width="2503" height="691" xlink:href="spider-web-top_2-long - Copy.png"  transform="matrix(1.1986 0 0 1.0854 83.7075 54.8098)">
</image>
<path class="st0" d="M986.9,592.5L986.9,592.5C986.9,591.1,986.9,591.1,986.9,592.5c0-1.4,0-1.4,0-2.8v-1.4c0,0,0,0,0-1.4v-1.4v-1.4
	c0,0,0-1.4-1.5-1.4l0,0l-1.5-1.4l0,0l-1.5-1.4c-60.9-30.7-83.2-100.6-50.5-157.8c10.4-18.2,25.3-33.5,44.6-44.7l0,0l0,0
	c0,0,1.5,0,1.5-1.4l0,0l1.5-1.4l0,0c0,0,0-1.4,1.5-1.4c0,0,0,0,0-1.4v-1.4c0,0,0,0,0-1.4v-1.4v1.4c0-1.4,0-1.4,0-1.4s0-1.4-1.5-1.4
	l0,0c0,0,0-1.4-1.5-1.4l0,0c0,0,0,0-1.5-1.4l0,0l-1.5-1.4l0,0c0,0-1.5,0-1.5-1.4l0,0h-1.5h-1.5l0,0
	c-68.3-2.8-121.8-55.9-118.8-120.1c1.5-19.6,7.4-39.1,17.8-55.9c0,0,0,0,0-1.4l0,0v-1.4l0,0v-1.4l0,0v-1.4c0,0,0,0,0-1.4v-1.4
	c0,0,0,0,0-1.4v-1.4l0,0l-1.5-1.4l-1.5-1.4l0,0h-1.5h-1.5h-1.5h-1.5h-1.5l0,0h-1.5l0,0h-1.5l0,0h-1.5
	c-59.4,32.1-135.2,12.6-169.4-43.3c-11.9-19.6-17.8-40.5-16.3-62.8v-1.4l0,0v-1.4l0,0v-1.4l0,0l-1.5-1.4l0,0c0,0,0,0-1.5-1.4l0,0
	c0,0-1.5,0-1.5-1.4l0,0c0,0-1.5,0-1.5-1.4c-1.5,0-3,0-3,0h-1.5h-1.5h-4.5h-1.5h-1.5h-1.5l0,0c0,0-1.5,0-1.5,1.4l0,0l-1.5,1.4l0,0
	l-1.5,1.4c-22.3,37.7-63.9,61.5-109.9,61.5c-43.1,0-83.2-20.9-105.5-54.5l0,0l0,0l-1.5-1.4l0,0l-1.5-1.4l0,0c0,0-1.5,0-1.5-1.4l0,0
	h-1.5l0,0h-1.5l0,0c-1.5,0-1.5,0-1.5,0s-1.5,0-1.5,1.4l0,0c0,0-1.5,0-1.5,1.4l0,0c0,0,0,0-1.5,1.4l0,0c0,0,0,1.4-1.5,1.4l0,0
	c0,0,0,1.4-1.5,1.4l0,0v1.4c0,0,0,0,0,1.4l0,0c-1.5,64.2-59.4,114.5-127.8,111.7c-20.8-1.4-40.1-7-57.9-16.8h-1.5l0,0h-1.5l0,0h-1.5
	l0,0h-1.5h-1.5h-1.5h-1.5h-1.5l0,0l-1.5,1.4l0,0l-1.5,1.4l0,0v1.4v1.4v1.4c0,0,0,0,0,1.4v1.4c0,0,0,0,0,1.4v1.4l0,0v1.4
	c0,0,0,0,0,1.4c0,0,0,0,0,1.4c34.2,55.9,14.9,127.1-44.6,159.2c-20.8,11.2-43.1,16.8-66.9,15.4h-1.5h-1.5h-1.5h-1.5h-1.5h-1.5
	c0,0,0,0-1.5,0h-1.5l-1.5,1.4l0,0c0,0,0,1.4-1.5,1.4l0,0c0,0,0,1.4-1.5,1.4c0,1.4,0,1.4,0,1.4s0,0,0,1.4v1.4c0,0,0,0,0,1.4v1.4v1.4
	v1.4c0,0,0,0,0,1.4c0,0,0,1.4,1.5,1.4l0,0l1.5,1.4l0,0l1.5,1.4c40.1,20.9,65.4,60.1,65.4,103.3c0,40.5-22.3,78.2-57.9,99.2l0,0l0,0
	c0,0-1.5,0-1.5,1.4l0,0l-1.5,1.4l0,0c0,0,0,1.4-1.5,1.4c0,0,0,0,0,1.4v1.4c0,0,0,0,0,1.4v1.4c0,0,0,0,0,1.4c0,1.4,0,1.4,0,1.4v1.4
	v1.4c0,0,0,0,0,1.4c0,1.4,0,0,0,1.4v1.4h1.5l0,0h1.5c0,0,0,0,1.5,0h1.5h1.5h1.5h1.5c0,0,0,0,1.5,0c0,0,0,0,1.5,0
	c43.1,1.4,81.7,23.7,102.5,58.7c22.3,36.3,22.3,81-1.5,117.3c0,0,0,0,0,1.4l0,0v1.4l0,0v1.4l0,0v1.4v1.4v1.4c0,0,0,0,0,1.4v1.4l0,0
	l1.5,1.4l1.5,1.4l0,0h1.5h1.5h1.5h1.5h1.5l0,0l0,0h1.5l0,0h1.5h1.5h1.5c59.4-32.1,135.2-12.6,169.4,43.3
	c11.9,19.6,17.8,40.5,16.3,62.8v1.4l0,0v1.4l0,0v1.4l0,0c0,0,0,1.4,1.5,1.4l0,0c0,0,0,0,1.5,1.4l0,0c0,0,1.5,0,1.5,1.4l0,0
	c0,0,1.5,0,1.5,1.4c1.5,0,1.5,0,3,0l0,0h1.5l0,0h1.5l0,0h1.5l0,0c0,0,0,0,1.5,0l0,0l1.5-1.4l0,0c0,0,0,0,1.5-1.4l0,0l0,0
	c32.7-57.3,107-78.2,167.9-47.5c19.3,9.8,35.7,23.7,47.5,41.9l0,0c0,0,0,0,0,1.4l0,0l0,0h1.5l0,0h1.5h1.5h1.5h1.5h1.5h1.5h1.5l0,0
	h1.5l0,0h1.5c0,0,1.5,0,1.5-1.4l0,0c0,0,1.5,0,1.5-1.4l0,0c0,0,0,0,1.5-1.4l0,0c0,0,0-1.4,1.5-1.4l0,0c0,0,0-1.4,1.5-1.4l0,0V890
	c0,0,0,0,0-1.4c0,0,0,0,0-1.4c3-64.2,59.4-114.5,127.8-111.7c20.8,1.4,41.6,7,59.4,16.8h1.5l0,0h1.5l0,0h1.5l0,0l0,0h1.5h1.5h1.5
	h1.5h1.5l0,0l1.5-1.4l1.5-1.4l0,0V788c0,0,0,0,0-1.4v-1.4v-1.4v-1.4l0,0v-1.4l0,0v-1.4l0,0c0,0,0,0,0-1.4
	c-34.2-55.9-13.4-127.1,46.1-159.2c20.8-11.2,43.1-16.8,66.9-15.4l0,0h1.5h1.5h1.5h1.5l0,0c3-1.4,4.5-2.8,5.9-5.6v-1.4
	C986.9,593.9,986.9,592.5,986.9,592.5z M927.5,567.4l-181.2-46.1c5.9-27.9,5.9-57.3,0-85.2l178.3-44.7
	C881.5,444.5,881.5,518.5,927.5,567.4L927.5,567.4z M340.7,479.4c0-12.6,1.5-25.1,4.5-37.7l147.1,37.7l-147.1,36.3
	C342.2,503.1,340.7,492,340.7,479.4z M680.9,359.3c17.8,18.2,31.2,40.5,38.6,64.2l-147.1,36.3L680.9,359.3z M556.1,444.5l40.1-138.3
	c25.3,8.4,49,20.9,68.3,37.7L556.1,444.5z M535.3,438.9l-38.6-138.3c25.3-4.2,52-4.2,78.7,0L535.3,438.9z M513,443.1l-107-100.6
	c19.3-16.8,43.1-29.3,68.3-36.3L513,443.1z M498.2,458.4l-147.1-37.7c8.9-23.7,22.3-46.1,40.1-64.2L498.2,458.4z M496.7,500.3
	l-107,100.6c-17.8-18.2-31.2-40.5-38.6-64.2L496.7,500.3z M513,514.3l-40.1,138.3c-25.3-8.4-49-20.9-68.3-37.7L513,514.3z
	 M535.3,519.9l38.6,138.3c-25.3,5.6-52,4.2-78.7,0L535.3,519.9z M556.1,514.3l107,100.6c-19.3,16.8-43.1,29.3-68.3,36.3L556.1,514.3
	z M572.5,498.9l147.1,37.7c-8.9,23.7-22.3,46.1-40.1,64.2L572.5,498.9z M578.4,479.4l147.1-36.3c3,12.6,4.5,23.7,4.5,36.3
	s-1.5,25.1-4.5,37.7L578.4,479.4z M920.1,371.8l-178.3,44.7c-8.9-26.5-25.3-51.7-44.6-72.6L829.5,221
	C816.1,285.3,854.7,348.1,920.1,371.8L920.1,371.8z M715.1,188.9c29.7,16.8,63.9,22.3,98,16.8L680.9,328.5
	c-22.3-19.6-49-33.5-78.7-43.3l49-170.4C663.1,147,685.4,172.1,715.1,188.9z M535.3,142.8c34.2,0,68.3-11.2,95.1-32.1l-49,170.4
	c-29.7-5.6-60.9-5.6-90.6,0l-47.5-167.6C468.5,131.6,501.2,142.8,535.3,142.8z M357.1,187.5c29.7-15.4,52-40.5,63.9-69.8l47.5,167.6
	c-28.2,8.4-55,23.7-77.2,41.9L260.5,202.9C293.2,208.4,327.3,202.9,357.1,187.5z M226.3,309c17.8-27.9,23.8-60.1,17.8-92.2
	l130.7,124.3c-20.8,20.9-35.7,46.1-46.1,74l-181.2-44.7C180.3,359.3,208.5,338.3,226.3,309z M141.6,390l181.2,46.1
	c-5.9,27.9-5.9,57.3,0,85.2L144.6,566c20.8-23.7,32.7-54.5,32.7-86.6S165.4,415.1,141.6,390z M150.6,585.5l178.3-44.7
	c8.9,26.5,25.3,51.7,44.6,72.6L241.2,736.4C253.1,673.5,214.4,609.3,150.6,585.5L150.6,585.5z M354.1,769.9
	c-22.3-12.6-47.5-18.2-74.3-18.2c-7.4,0-16.3,0-23.8,1.4l132.2-122.9c22.3,19.6,49,33.5,78.7,43.3l-49,170.4
	C407.6,811.8,383.8,786.6,354.1,769.9L354.1,769.9z M535.3,816c-34.2,0-68.3,11.2-95.1,32.1l49-170.4c29.7,5.6,60.9,5.6,90.6,0
	l47.5,167.6C600.7,827.1,568,816,535.3,816L535.3,816z M712.1,771.3c-29.7,15.4-52,40.5-63.9,69.8l-47.5-167.6
	c28.2-8.4,55-22.3,77.2-41.9l130.7,124.3C776,750.3,741.8,755.9,712.1,771.3L712.1,771.3z M844.3,648.4
	c-17.8,27.9-23.8,60.1-17.8,92.2L695.8,616.2c20.8-20.9,35.7-46.1,46.1-74l181.2,46.1C888.9,599.5,860.7,620.4,844.3,648.4z"/>
</svg>
