<?xml version="1.0" encoding="utf-8"?>
<!-- Generator: Adobe Illustrator 23.0.1, SVG Export Plug-In . SVG Version: 6.00 Build 0)  -->
<svg version="1.1" id="Layer_1" xmlns="http://www.w3.org/2000/svg" xmlns:xlink="http://www.w3.org/1999/xlink" x="0px" y="0px"
	 viewBox="0 0 3128.9 873" style="enable-background:new 0 0 3128.9 873;" xml:space="preserve">
<style type="text/css">
	.st0{fill:#FF01CB;}
</style>
<image style="overflow:visible;enable-background:new    ;" width="2503" height="691" xlink:href="spider-web-top_2-long - Copy.png"  transform="matrix(1.1986 0 0 1.0854 83.7075 54.8098)">
</image>
<path class="st0" d="M1009.2,669.3L1009.2,669.3C1009.2,667.9,1009.2,667.9,1009.2,669.3c0-1.4,0-1.4,0-2.8v-1.4c0,0,0,0,0-1.4v-1.4
	v-1.4c0,0,0-1.4-1.5-1.4l0,0l-1.5-1.4l0,0l-1.5-1.4c-60.9-30.7-83.2-100.6-50.5-157.8c10.4-18.2,25.3-33.5,44.6-44.7l0,0l0,0
	c0,0,1.5,0,1.5-1.4l0,0l1.5-1.4l0,0c0,0,0-1.4,1.5-1.4c0,0,0,0,0-1.4v-1.4c0,0,0,0,0-1.4v-1.4v1.4c0-1.4,0-1.4,0-1.4s0-1.4-1.5-1.4
	l0,0c0,0,0-1.4-1.5-1.4l0,0c0,0,0,0-1.5-1.4l0,0l-1.5-1.4l0,0c0,0-1.5,0-1.5-1.4l0,0h-1.5h-1.5l0,0
	c-68.3-2.8-121.8-55.9-118.8-120.1c1.5-19.6,7.4-39.1,17.8-55.9c0,0,0,0,0-1.4l0,0v-1.4l0,0v-1.4l0,0v-1.4c0,0,0,0,0-1.4v-1.4
	c0,0,0,0,0-1.4v-1.4l0,0l-1.5-1.4l-1.5-1.4l0,0h-1.5h-1.5h-1.5h-1.5h-1.5l0,0H880l0,0h-1.5l0,0H877
	c-59.4,32.1-135.2,12.6-169.4-43.3c-11.9-19.6-17.8-40.5-16.3-62.8V140l0,0v-1.4l0,0v-1.4l0,0l-1.5-1.4l0,0c0,0,0,0-1.5-1.4l0,0
	c0,0-1.5,0-1.5-1.4l0,0c0,0-1.5,0-1.5-1.4c-1.5,0-3,0-3,0h-1.5h-1.5H675h-1.5H672h-1.5l0,0c0,0-1.5,0-1.5,1.4l0,0l-1.5,1.4l0,0
	l-1.5,1.4c-22.3,37.7-63.9,61.5-109.9,61.5c-43.1,0-83.2-20.9-105.5-54.5l0,0l0,0l-1.5-1.4l0,0l-1.5-1.4l0,0c0,0-1.5,0-1.5-1.4l0,0
	h-1.5l0,0h-1.5l0,0c-1.5,0-1.5,0-1.5,0s-1.5,0-1.5,1.4l0,0c0,0-1.5,0-1.5,1.4l0,0c0,0,0,0-1.5,1.4l0,0c0,0,0,1.4-1.5,1.4l0,0
	c0,0,0,1.4-1.5,1.4l0,0v1.4c0,0,0,0,0,1.4l0,0c-1.5,64.2-59.4,114.5-127.8,111.7c-20.8-1.4-40.1-7-57.9-16.8h-1.5l0,0h-1.5l0,0h-1.5
	l0,0h-1.5h-1.5h-1.5h-1.5h-1.5l0,0l-1.5,1.4l0,0l-1.5,1.4l0,0v1.4v1.4v1.4c0,0,0,0,0,1.4v1.4c0,0,0,0,0,1.4v1.4l0,0v1.4
	c0,0,0,0,0,1.4c0,0,0,0,0,1.4c34.2,55.9,14.9,127.1-44.6,159.2c-20.8,11.2-43.1,16.8-66.9,15.4h-1.5h-1.5h-1.5h-1.5h-1.5h-1.5
	c0,0,0,0-1.5,0h-1.5l-1.5,1.4l0,0c0,0,0,1.4-1.5,1.4l0,0c0,0,0,1.4-1.5,1.4c0,1.4,0,1.4,0,1.4s0,0,0,1.4v1.4c0,0,0,0,0,1.4v1.4v1.4
	v1.4c0,0,0,0,0,1.4c0,0,0,1.4,1.5,1.4l0,0l1.5,1.4l0,0l1.5,1.4c40.1,20.9,65.4,60.1,65.4,103.3c0,40.5-22.3,78.2-57.9,99.2l0,0l0,0
	c0,0-1.5,0-1.5,1.4l0,0l-1.5,1.4l0,0c0,0,0,1.4-1.5,1.4c0,0,0,0,0,1.4v1.4c0,0,0,0,0,1.4v1.4c0,0,0,0,0,1.4c0,1.4,0,1.4,0,1.4v1.4
	v1.4c0,0,0,0,0,1.4c0,1.4,0,0,0,1.4v1.4h1.5l0,0h1.5c0,0,0,0,1.5,0h1.5h1.5h1.5h1.5c0,0,0,0,1.5,0c0,0,0,0,1.5,0
	c43.1,1.4,81.7,23.7,102.5,58.7c22.3,36.3,22.3,81-1.5,117.3c0,0,0,0,0,1.4l0,0v1.4l0,0v1.4l0,0v1.4v1.4v1.4c0,0,0,0,0,1.4v1.4l0,0
	l1.5,1.4l1.5,1.4l0,0h1.5h1.5h1.5h1.5h1.5l0,0l0,0h1.5l0,0h1.5h1.5h1.5c59.4-32.1,135.2-12.6,169.4,43.3
	c11.9,19.6,17.8,40.5,16.3,62.8v1.4l0,0v1.4l0,0v1.4l0,0c0,0,0,1.4,1.5,1.4l0,0c0,0,0,0,1.5,1.4l0,0c0,0,1.5,0,1.5,1.4l0,0
	c0,0,1.5,0,1.5,1.4c1.5,0,1.5,0,3,0l0,0h1.5l0,0h1.5l0,0h1.5l0,0c0,0,0,0,1.5,0l0,0l1.5-1.4l0,0c0,0,0,0,1.5-1.4l0,0l0,0
	c32.7-57.3,107-78.2,167.9-47.5c19.3,9.8,35.7,23.7,47.5,41.9l0,0c0,0,0,0,0,1.4l0,0l0,0h1.5l0,0h1.5h1.5h1.5h1.5h1.5h1.5h1.5l0,0
	h1.5l0,0h1.5c0,0,1.5,0,1.5-1.4l0,0c0,0,1.5,0,1.5-1.4l0,0c0,0,0,0,1.5-1.4l0,0c0,0,0-1.4,1.5-1.4l0,0c0,0,0-1.4,1.5-1.4l0,0v-1.4
	c0,0,0,0,0-1.4c0,0,0,0,0-1.4c3-64.2,59.4-114.5,127.8-111.7c20.8,1.4,41.6,7,59.4,16.8h1.5l0,0h1.5l0,0h1.5l0,0l0,0h1.5h1.5h1.5
	h1.5h1.5l0,0l1.5-1.4l1.5-1.4l0,0v-1.4c0,0,0,0,0-1.4v-1.4v-1.4v-1.4l0,0v-1.4l0,0v-1.4l0,0c0,0,0,0,0-1.4
	C853.2,799.2,874,728,933.4,695.9c20.8-11.2,43.1-16.8,66.9-15.4l0,0h1.5h1.5h1.5h1.5l0,0c3-1.4,4.5-2.8,5.9-5.6v-1.4
	C1009.2,670.7,1009.2,669.3,1009.2,669.3z M949.8,644.2l-181.2-46.1c5.9-27.9,5.9-57.3,0-85.2l178.3-44.7
	C903.7,521.3,903.7,595.3,949.8,644.2L949.8,644.2z M363,556.2c0-12.6,1.5-25.1,4.5-37.7l147.1,37.7l-147.1,36.3
	C364.5,579.9,363,568.8,363,556.2z M703.2,436.1c17.8,18.2,31.2,40.5,38.6,64.2l-147.1,36.3L703.2,436.1z M578.4,521.3L618.5,383
	c25.3,8.4,49,20.9,68.3,37.7L578.4,521.3z M557.6,515.7L519,377.4c25.3-4.2,52-4.2,78.7,0L557.6,515.7z M535.3,519.9l-107-100.6
	c19.3-16.8,43.1-29.3,68.3-36.3L535.3,519.9z M520.5,535.2l-147.1-37.7c8.9-23.7,22.3-46.1,40.1-64.2L520.5,535.2z M519,577.1
	L412,677.7c-17.8-18.2-31.2-40.5-38.6-64.2L519,577.1z M535.3,591.1l-40.1,138.3c-25.3-8.4-49-20.9-68.3-37.7L535.3,591.1z
	 M557.6,596.7L596.2,735c-25.3,5.6-52,4.2-78.7,0L557.6,596.7z M578.4,591.1l107,100.6C666.1,708.4,642.3,721,617,728L578.4,591.1z
	 M594.7,575.7l147.1,37.7c-8.9,23.7-22.3,46.1-40.1,64.2L594.7,575.7z M600.7,556.2l147.1-36.3c3,12.6,4.5,23.7,4.5,36.3
	c0,12.6-1.5,25.1-4.5,37.7L600.7,556.2z M942.4,448.7l-178.3,44.7c-8.9-26.5-25.3-51.7-44.6-72.6l132.2-122.9
	C838.4,362.1,877,424.9,942.4,448.7L942.4,448.7z M737.4,265.7c29.7,16.8,63.9,22.3,98,16.8L703.2,405.4
	c-22.3-19.6-49-33.5-78.7-43.3l49-170.4C685.4,223.8,707.6,248.9,737.4,265.7z M557.6,219.6c34.2,0,68.3-11.2,95.1-32.1l-49,170.4
	c-29.7-5.6-60.9-5.6-90.6,0l-47.5-167.6C490.8,208.4,523.4,219.6,557.6,219.6z M379.3,264.3c29.7-15.4,52-40.5,63.9-69.8l47.5,167.6
	c-28.2,8.4-55,23.7-77.2,41.9L282.8,279.7C315.5,285.3,349.6,279.7,379.3,264.3z M248.6,385.8c17.8-27.9,23.8-60.1,17.8-92.2
	l130.7,124.3c-20.8,20.9-35.7,46.1-46.1,74l-181.2-44.7C202.6,436.1,230.8,415.1,248.6,385.8z M163.9,466.8l181.2,46.1
	c-5.9,27.9-5.9,57.3,0,85.2l-178.3,44.7c20.8-23.7,32.7-54.5,32.7-86.6C199.6,524.1,187.7,492,163.9,466.8z M172.8,662.3l178.3-44.7
	c8.9,26.5,25.3,51.7,44.6,72.6L263.5,813.2C275.3,750.3,236.7,686.1,172.8,662.3L172.8,662.3z M376.4,846.7
	c-22.3-12.6-47.5-18.2-74.3-18.2c-7.4,0-16.3,0-23.8,1.4L410.5,707c22.3,19.6,49,33.5,78.7,43.3l-49,170.4
	C429.8,888.6,406.1,863.4,376.4,846.7L376.4,846.7z M557.6,892.8c-34.2,0-68.3,11.2-95.1,32.1l49-170.4c29.7,5.6,60.9,5.6,90.6,0
	l47.5,167.6C623,904,590.3,892.8,557.6,892.8L557.6,892.8z M734.4,848.1c-29.7,15.4-52,40.5-63.9,69.8L623,750.3
	c28.2-8.4,55-22.3,77.2-41.9l130.7,124.3C798.3,827.1,764.1,832.7,734.4,848.1L734.4,848.1z M866.6,725.2
	c-17.8,27.9-23.8,60.1-17.8,92.2L718,693.1c20.8-20.9,35.7-46.1,46.1-74l181.2,46.1C911.2,676.3,882.9,697.3,866.6,725.2z"/>
</svg>
