<?xml version="1.0" encoding="utf-8"?>
<!-- Generator: Adobe Illustrator 23.0.1, SVG Export Plug-In . SVG Version: 6.00 Build 0)  -->
<svg version="1.1" xmlns="http://www.w3.org/2000/svg" xmlns:xlink="http://www.w3.org/1999/xlink" x="0px" y="0px"
	 viewBox="0 0 624 624" style="enable-background:new 0 0 624 624;" xml:space="preserve">
<style type="text/css">
	.st0{fill-rule:evenodd;clip-rule:evenodd;fill:#FF0099;}
	.st1{fill:#FFFFFF;}
</style>
<g id="Master_Layer_3">
	<path class="st0" d="M312.5,0.5L312.5,0.5c171.6,0,312,140.4,312,312l0,0c0,171.6-140.4,312-312,312l0,0
		c-171.6,0-312-140.4-312-312l0,0C0.5,140.9,140.9,0.5,312.5,0.5z"/>
</g>
<g id="Layer_1">
	<path class="st1" d="M491.8,315.2L361.7,445.4c-0.7,0.7-1.7,1.2-2.8,1.2c-2.1,0-3.9-1.7-3.9-3.9v-78.4H135.9
		c-2.1,0-3.9-1.7-3.9-3.9v-95.8c0-2.1,1.7-3.9,3.9-3.9h219.2v-78.4l0,0c0-1,0.4-2,1.1-2.7c1.5-1.5,4-1.5,5.5,0l0,0l130.1,130.1l0,0
		C493.4,311.3,493.4,313.7,491.8,315.2L491.8,315.2L491.8,315.2z"/>
</g>
</svg>
