<?xml version="1.0" encoding="utf-8"?>
<!-- Generator: Adobe Illustrator 23.0.1, SVG Export Plug-In . SVG Version: 6.00 Build 0)  -->
<svg version="1.1" id="Layer_1" xmlns="http://www.w3.org/2000/svg" xmlns:xlink="http://www.w3.org/1999/xlink" x="0px" y="0px"
	 viewBox="0 0 683 106.9" style="enable-background:new 0 0 683 106.9;" xml:space="preserve">
<style type="text/css">
	.st0{fill:none;}
	.st1{enable-background:new    ;}
	.st2{fill:#FFFFFF;}
	.st3{fill:#FF01CB;}
</style>
<g>
	<g>
		<rect class="st0" width="683" height="106.9"/>
	</g>
	<g id="Brand">
		<g class="st1">
			<path class="st2" d="M13.9,82.7H4.1l22.2-80l22.2,80h-9.8L26.3,39L13.9,82.7z"/>
			<path class="st2" d="M59.1,47.8v34.8h-9.4V12.3l23.6,41.5l23.6-41.5v70.4h-9.4V47.8l-14.2,25L59.1,47.8z"/>
			<path class="st2" d="M144,16.7v9.4h-33v28.3h33v9.4h-33v9.4h33v9.4h-42.4v-66L144,16.7L144,16.7z"/>
			<path class="st2" d="M148.7,16.7h9.4v56.6h33v9.4h-42.4L148.7,16.7L148.7,16.7z"/>
			<path class="st2" d="M203.9,82.7h-9.4v-66h9.4V82.7z"/>
			<path class="st2" d="M214.9,82.7h-9.8l22.2-80l22.2,80h-9.8L227.4,39L214.9,82.7z"/>
			<path class="st2" d="M300.4,16.7h14.1v9.4h-14.1c-6.5,0-12.1,2.3-16.7,6.9s-6.9,10.2-6.9,16.7s2.3,12.1,6.9,16.7
				s10.2,6.9,16.7,6.9h4.7V54.4h-9.4V45h18.9v37.7h-14.1c-9.1,0-16.9-3.2-23.3-9.7c-6.4-6.4-9.7-14.2-9.7-23.3s3.2-16.9,9.7-23.3
				C283.5,19.9,291.3,16.7,300.4,16.7z"/>
			<path class="st2" d="M349.6,82.7c-9.1,0-16.9-3.2-23.3-9.7c-6.4-6.4-9.7-14.2-9.7-23.3s3.2-16.9,9.7-23.3
				c6.4-6.4,14.2-9.7,23.3-9.7c9.1,0,16.9,3.2,23.3,9.7c6.4,6.4,9.7,14.2,9.7,23.3s-3.2,16.9-9.7,23.3
				C366.5,79.5,358.7,82.7,349.6,82.7z M349.6,73.3c6.5,0,12.1-2.3,16.7-6.9s6.9-10.2,6.9-16.7s-2.3-12.1-6.9-16.7
				s-10.2-6.9-16.7-6.9s-12.1,2.3-16.7,6.9S326,43.2,326,49.7s2.3,12.1,6.9,16.7S343.1,73.3,349.6,73.3z"/>
			<path class="st2" d="M418.5,82.7c-9.1,0-16.9-3.2-23.3-9.7c-6.4-6.4-9.7-14.2-9.7-23.3s3.2-16.9,9.7-23.3
				c6.4-6.4,14.2-9.7,23.3-9.7c9.1,0,16.9,3.2,23.3,9.7c6.4,6.4,9.7,14.2,9.7,23.3s-3.2,16.9-9.7,23.3
				C435.4,79.5,427.6,82.7,418.5,82.7z M418.5,73.3c6.5,0,12.1-2.3,16.7-6.9s6.9-10.2,6.9-16.7s-2.3-12.1-6.9-16.7
				s-10.2-6.9-16.7-6.9s-12.1,2.3-16.7,6.9s-6.9,10.2-6.9,16.7s2.3,12.1,6.9,16.7S412,73.3,418.5,73.3z"/>
			<path class="st2" d="M469.2,16.7c9.1,0,16.9,3.2,23.3,9.7c6.4,6.4,9.7,14.2,9.7,23.3S499,66.6,492.5,73
				c-6.4,6.4-14.2,9.7-23.3,9.7H455v-66C455,16.7,469.2,16.7,469.2,16.7z M469.2,73.3c6.5,0,12.1-2.3,16.7-6.9s6.9-10.2,6.9-16.7
				s-2.3-12.1-6.9-16.7s-10.2-6.9-16.7-6.9h-4.7v47.1h4.7V73.3z"/>
			<path class="st2" d="M522.1,16.7c5.2,0,9.7,1.8,13.3,5.5s5.5,8.1,5.5,13.3h-9.4c0-2.6-0.9-4.8-2.8-6.7c-1.8-1.8-4.1-2.8-6.7-2.8
				c-2.6,0-4.8,0.9-6.7,2.8c-1.8,1.8-2.8,4.1-2.8,6.7c0,4.1,4.7,7.8,14.1,11.1c9.4,3.3,14.1,9,14.1,17.2c0,5.2-1.8,9.7-5.5,13.3
				s-8.1,5.5-13.3,5.5s-9.7-1.8-13.3-5.5s-5.5-8.1-5.5-13.3h9.4c0,2.6,0.9,4.8,2.8,6.7c1.8,1.8,4.1,2.8,6.7,2.8
				c2.6,0,4.8-0.9,6.7-2.8c1.8-1.8,2.8-4.1,2.8-6.7c0-4.1-4.7-7.8-14.1-11.1c-9.4-3.3-14.1-9-14.1-17.2c0-5.2,1.8-9.7,5.5-13.3
				C512.5,18.6,516.8,16.7,522.1,16.7z"/>
		</g>
		<g class="st1">
			<path class="st2" d="M639.5,38.4v44.3H630V2.8L663,61V16.7h9.4v79.9L639.5,38.4z"/>
		</g>
	</g>
</g>
<path class="st3" d="M634.9,65.5L634.9,65.5c0-0.2,0-0.2,0-0.2c0,0,0-0.1,0-0.1c0,0,0-0.1,0-0.1c0,0,0-0.1,0-0.1c0,0,0-0.1-0.1-0.1
	l0-0.1c0,0-0.1-0.1-0.1-0.1c0,0,0,0,0-0.1c-0.1-0.1-0.1-0.1-0.2-0.2l0,0c-0.1,0-0.1-0.1-0.2-0.1c-7.3-3.6-10-12.1-6.2-18.9
	c1.2-2.2,3.1-4,5.3-5.3l0.1-0.1l0.1-0.1c0,0,0.1-0.1,0.1-0.1c0,0,0,0,0-0.1c0.1-0.1,0.1-0.1,0.1-0.2l0,0c0-0.1,0.1-0.1,0.1-0.2
	c0,0,0-0.1,0-0.1s0-0.1,0-0.2c0,0,0-0.2,0-0.2v-0.2v-0.1c0.1-0.1,0-0.2,0-0.2c0-0.1-0.1-0.2-0.1-0.2c0,0,0,0,0-0.1
	c0-0.1-0.1-0.1-0.1-0.1c0,0,0,0-0.1-0.1c0,0-0.1-0.1-0.1-0.1c0,0,0,0-0.1-0.1c-0.1,0-0.1-0.1-0.2-0.1h0c-0.1-0.1-0.1-0.1-0.2-0.1
	c0,0,0,0-0.1,0c-0.1,0-0.1,0-0.2-0.2h-0.1h-0.1c-7.7-0.2-13.7-6.6-13.4-14.3c0.1-2.3,0.8-4.6,1.9-6.6c0,0,0-0.1,0.1-0.1
	c0,0,0-0.1,0-0.1c0-0.1-0.2-0.2-0.2-0.2v0c0,0,0.3-0.2,0.3-0.2v-0.1v-0.2v-0.1c0-0.1-0.1-0.1-0.1-0.1c0,0,0-0.1,0-0.1
	c0,0,0-0.1-0.1-0.1l0-0.1c0-0.1-0.1-0.1-0.2-0.2c-0.1-0.1-0.1-0.1-0.2-0.2l-0.1,0c0,0-0.1-0.1-0.1-0.1l-0.1,0c0,0-0.1,0-0.1,0
	l-0.1-0.1h-0.2h-0.1c-0.1,0-0.2,0.3-0.2,0.3h0c0,0-0.2-0.2-0.2-0.2l-0.1,0l-0.1,0.1c-6.7,3.9-15.2,1.6-19.1-5.1
	c-1.3-2.3-2-4.9-1.9-7.5V2l0,0c0.1-0.1,0-0.2,0-0.2c0,0,0,0,0-0.1c0,0,0-0.1-0.1-0.2c0-0.1,0-0.1,0-0.1l-0.1-0.1c0,0,0-0.1-0.1-0.1
	c0,0-0.1-0.1-0.1-0.1l-0.1-0.1c0,0-0.1-0.1-0.1-0.1l-0.1,0C598,1,597.9,1,597.9,1c-0.2,0.1-0.3,0-0.4,0h-0.1h-0.2h-0.1
	C597.1,1,597,1,597,1l-0.1,0c-0.1,0-0.1,0-0.2,0.1l-0.1,0c-0.1,0-0.1,0.1-0.1,0.1v0.1c0,0-0.2,0.1-0.2,0.2l0,0
	c-0.1,0.1-0.1,0.1-0.1,0.2c-2.4,4.6-7.2,7.4-12.3,7.4c-4.8,0-9.3-2.5-11.9-6.6L572,2.4c0,0,0-0.1-0.1-0.1c0,0-0.1-0.1-0.1-0.1l0,0
	c-0.1-0.1-0.1-0.1-0.2-0.2l0,0c-0.1,0-0.1-0.1-0.2-0.1h-0.1c-0.1,0-0.1,0-0.2,0.3h-0.1h-0.2h-0.1c-0.1-0.3-0.2-0.3-0.2-0.3
	c-0.1,0-0.2,0.1-0.2,0.1c0,0-0.1,0-0.1,0c0,0-0.1,0.1-0.1,0.1l-0.1,0.1c0,0-0.1,0.1-0.1,0.1L570,2.3c0,0.1-0.1,0.1-0.1,0.2
	c0,0,0,0,0,0c0,0.1-0.1,0.1-0.1,0.2l0,0.1c0,0.1,0.1,0.2,0.1,0.2V3v0.1c-0.3,7.7-6.8,13.7-14.5,13.4c-2.3-0.1-4.6-0.8-6.6-1.9
	l-0.1-0.1l-0.1,0c-0.1,0-0.2-0.1-0.2-0.1h0c-0.1,0-0.2,0.3-0.2,0.3H548h-0.2h-0.1c-0.1-0.3-0.1-0.2-0.1-0.2l-0.1,0
	c-0.1,0-0.1,0.1-0.1,0.1l-0.1,0c-0.1,0-0.1,0.1-0.2,0.2l0,0c-0.1,0.1-0.1,0.1-0.2,0.2c0,0,0,0,0,0.1c0,0-0.1,0.1-0.1,0.1l0,0.1
	c0,0.1,0,0.1,0,0.1c0,0,0,0.1,0,0.1c0,0.1,0,0.1-0.2,0.2v0.1c0.1,0.1,0.1,0.1,0,0.2v0c0.2,0.1,0.2,0.2,0.2,0.2c0,0,0,0.1,0,0.1
	c0,0,0,0.1,0.1,0.1c3.9,6.7,1.6,15.2-5.1,19.1c-2.3,1.3-7.6,1.8-7.6,1.8h-0.2c0,0-0.1,0.1-0.2,0.1l-0.1,0l-0.1,0l-0.1,0.1l-0.1,0.1
	c0,0-0.1,0.1-0.1,0.1l-0.1,0.1l-0.1,0.1l-0.1,0.1c0,0-0.1,0.1-0.1,0.1l0,0.1c0,0.1-0.1,0.2-0.1,0.2c0,0.1,0,0.2,0,0.2
	c0,0,0,0.1,0,0.1c0,0.1,0,0.1,0,0.2c0,0,0,0.1,0,0.1c0,0.1,0,0.1,0,0.1l0,0.1c0,0,0,0.1,0.1,0.1c0,0,0,0.1,0,0.1
	c0,0,0.1,0.1,0.1,0.1l0,0.1c0.1,0.1,0.1,0.1,0.2,0.2l0,0c0.1,0,0.1,0.1,0.2,0.1c4.6,2.4,7.4,7.2,7.4,12.3c0,4.8-2.5,9.3-6.6,11.9
	l-0.1,0l-0.1,0.1c0,0-0.1,0.1-0.1,0.1l-0.1,0.1c-0.1,0.1-0.2,0.2-0.2,0.2v0c0,0,0.1,0.1,0,0.2c0,0,0,0.1,0,0.1c0,0,0,0.1,0.3,0.2
	v0.1V65V65c-0.3,0.1-0.3,0.2-0.3,0.2c0,0.1,0,0.1,0.1,0.2l0,0.1c0,0,0,0.1,0.1,0.1c0,0,0,0.1,0.1,0.1l0.1,0.1l0.1,0.1l0.1,0.1
	l0.1,0.1c0,0,0.1,0,0.1,0.1l0.1,0l0.1,0l0.1,0l0.1,0c0,0,0.1,0.2,0.1,0.2h0.1c0,0,9.2,2.7,11.6,6.9c2.5,4.4,2.4,9.7-0.1,14
	c0,0,0,0.1-0.1,0.1c0,0,0,0.1,0,0.1c0,0.1-0.1,0.2-0.1,0.2v0c0.1,0.1,0,0.2,0.3,0.2V88v0.2l-0.2,0.1c0,0.1,0,0.1,0,0.2
	c0,0,0,0.1,0,0.1c0,0.1,0,0.1,0.1,0.1c0,0,0,0.1,0,0.1c0,0.1,0.1,0.1,0.2,0.2s0.1,0.1,0.2,0.2l0.1,0l0.1,0.1l0.1,0c0,0,0.1,0,0.1,0
	l0.1,0.1c0,0,0.2,0,0.2,0h0.1l0,0c0.1,0,0.2,0,0.2,0l0,0c0.1,0,0.1,0,0.2-0.1l0.1,0l0.1,0c6.6-3.8,15.2-1.6,19,5.1
	c1.3,2.3,2,4.9,1.9,7.5c0,0.1,0,0.2,0,0.2l0,0c0,0.1,0,0.2,0.1,0.2l0,0.1c0,0.1,0,0.1,0.1,0.2c0,0,0,0,0,0.1c0,0,0.1,0.1,0.1,0.1
	l0.1,0.1c0,0,0.1,0.1,0.1,0.1l0.1,0.1c0,0,0.1,0.1,0.1,0.1c0,0,0,0,0.1,0c0.1,0,0.2,0.1,0.2,0.1c0.1,0,0.2,0,0.3,0h0
	c0.1,0,0.1,0,0.2,0h0.1l0.1,0l0.1,0l0.1-0.1l0.1,0c0,0,0.1,0,0.1-0.1l0.1,0c0.1,0,0.1-0.1,0.2-0.1l0,0c0,0,0.1-0.1,0.1-0.1l0-0.1
	c0,0,0,0,0-0.1c3.6-6.8,12.1-9.3,18.9-5.7c2.2,1.2,4,2.8,5.3,4.9v0.1c0,0,0.1,0.1,0.1,0.1c0,0,0,0.1,0.1,0.1c0,0,0,0.1,0.1,0.1
	l0.1,0.1l0.1,0.1l0.1,0.1l0.1,0l0.1,0l0.1,0l0.1,0h0.1h0.1h0h0.1h0.1c0.1,0.1,0.1,0,0.2,0c0.1,0,0.2-0.1,0.2-0.1l0.1,0
	c0,0,0.1-0.1,0.1-0.1c0,0,0.1,0,0.1-0.1c0,0,0.1-0.1,0.1-0.1c0,0,0,0,0.1-0.1c0-0.1,0.1-0.1,0.1-0.2l0,0c0-0.1,0.1-0.1,0.1-0.2
	c0,0,0,0,0-0.1c0-0.1,0-0.1,0.1-0.2v-0.1v-0.1c0.2-7.7,6.7-13.7,14.4-13.4c2.4,0.1,4.7,0.8,6.7,2l0.1,0.1l0.1,0
	c0.1,0,0.2,0.1,0.2,0.1h0h0.2h0h0.1h0.2l0.1-0.1l0.1,0l0.1,0c0,0,0.1,0,0.1-0.1l0.1,0c0.1,0,0.1-0.1,0.2-0.2s0.1-0.1,0.2-0.2
	c0,0,0,0,0-0.1c0,0,0.1-0.1,0.1-0.2c0,0,0-0.1,0-0.1c0,0,0-0.1,0-0.2l-0.1-0.1v-0.2v-0.1c0.1-0.1,0.1-0.2,0.3-0.2v0
	c-0.2-0.1-0.2-0.2-0.3-0.2c0,0,0-0.1,0-0.1c0,0,0-0.1-0.1-0.1c-3.9-6.7-1.6-15.2,5.1-19.1c2.3-1.3,7.5-1.8,7.5-1.8h0h0.1h0.1l0.1,0
	l0.1,0l0,0c0.3-0.1,0.6-0.4,0.7-0.6c0-0.1,0.1-0.1,0.1-0.2C634.9,65.7,634.9,65.6,634.9,65.5z M628.2,62.6L607.8,57
	c0.7-3.3,0.7-6.8,0-10.2l20.1-5.3C623,47.7,623.1,56.6,628.2,62.6L628.2,62.6z M562.1,51.9c0-1.5,0.2-3,0.5-4.5l16.5,4.5l-16.6,4.4
	C562.2,54.9,562.1,53.4,562.1,51.9z M600.3,37.5c2,2.2,3.5,4.8,4.4,7.6l-16.5,4.4L600.3,37.5z M586.4,47.7l4.5-16.5
	c2.9,0.9,5.5,2.5,7.7,4.5L586.4,47.7z M583.9,47l-4.4-16.6c2.9-0.6,5.9-0.6,8.9,0L583.9,47z M581.5,47.7l-12-12.1
	c2.2-2,4.8-3.5,7.6-4.4L581.5,47.7z M579.7,49.5L563.2,45c0.9-2.9,2.5-5.5,4.5-7.7L579.7,49.5z M579.7,54.4l-12.1,12
	c-2-2.2-3.5-4.8-4.4-7.6L579.7,54.4z M581.5,56.2L577,72.7c-2.9-0.9-5.5-2.5-7.7-4.5L581.5,56.2z M583.9,56.8l4.4,16.6
	c-2.9,0.6-5.9,0.6-8.9,0L583.9,56.8z M586.4,56.2l12,12.1c-2.2,2-4.8,3.5-7.6,4.4L586.4,56.2z M588.1,54.4l16.6,4.5
	c-0.9,2.9-2.5,5.5-4.5,7.7L588.1,54.4z M588.8,51.9l16.6-4.4c0.3,1.4,0.4,2.9,0.4,4.4c0,1.5-0.2,3-0.5,4.5L588.8,51.9z M627.3,39.1
	l-20.1,5.3c-1-3.3-2.8-6.2-5-8.8l14.9-14.8C615.7,28.6,620,36.3,627.3,39.1L627.3,39.1z M604.3,17.1c3.3,1.9,7.2,2.6,11,2
	l-14.9,14.8c-2.6-2.3-5.5-4.1-8.8-5.1l5.5-20.4C598.4,12,600.9,15.1,604.3,17.1z M583.9,11.6c3.9,0,7.7-1.4,10.7-3.9l-5.5,20.4
	c-3.3-0.7-6.8-0.7-10.2,0l-5.3-20.1C576.5,10.3,580.2,11.6,583.9,11.6z M563.9,16.9c3.3-1.9,5.8-4.8,7.2-8.3l5.3,20.1
	c-3.3,1-6.2,2.8-8.8,5.1l-14.8-15C556.7,19.4,560.6,18.8,563.9,16.9z M549.1,31.6c1.9-3.3,2.6-7.2,2-11l14.8,14.9
	c-2.3,2.6-4.1,5.6-5.1,8.9l-20.4-5.5C544,37.5,547.1,35,549.1,31.6z M539.7,41.3l20.4,5.5c-0.7,3.3-0.7,6.8,0,10.2l-20.1,5.3
	c2.4-2.9,3.7-6.6,3.7-10.4C543.6,48,542.2,44.2,539.7,41.3z M540.6,64.7l20.1-5.3c1,3.3,2.8,6.2,5.1,8.8l-15,14.8
	C552.2,75.2,547.9,67.6,540.6,64.7L540.6,64.7z M563.6,86.8c-2.5-1.5-5.4-2.3-8.3-2.3c-0.9,0-1.8,0.1-2.7,0.2l15-14.8
	c2.6,2.3,5.5,4.1,8.8,5.1l-5.5,20.4C569.5,91.9,567,88.8,563.6,86.8L563.6,86.8z M583.9,92.3c-3.9,0-7.7,1.4-10.7,3.9l5.5-20.4
	c3.3,0.7,6.8,0.7,10.2,0l5.3,20.1C591.4,93.6,587.7,92.3,583.9,92.3L583.9,92.3z M603.9,87c-3.3,1.9-5.8,4.8-7.2,8.3l-5.4-20.1
	c3.3-1,6.2-2.7,8.8-5l14.8,15C611.2,84.4,607.3,85.1,603.9,87L603.9,87z M618.8,72.3c-1.9,3.3-2.6,7.2-2,11l-14.8-14.9
	c2.3-2.6,4.1-5.6,5.1-8.8l20.4,5.5C623.9,66.3,620.7,68.9,618.8,72.3z"/>
</svg>
