<?xml version="1.0" encoding="utf-8"?>
<!-- Generator: Adobe Illustrator 23.0.1, SVG Export Plug-In . SVG Version: 6.00 Build 0)  -->
<svg version="1.1" id="Layer_1" xmlns="http://www.w3.org/2000/svg" xmlns:xlink="http://www.w3.org/1999/xlink" x="0px" y="0px"
	 viewBox="0 0 435 65.2" style="enable-background:new 0 0 435 65.2;" xml:space="preserve">
<style type="text/css">
	.st0{fill:none;}
	.st1{fill:#FFFFFF;}
	.st2{font-family:'Rockout';}
	.st3{font-size:58.8707px;}
	.st4{fill:#FF01CB;}
</style>
<g>
	<rect class="st0" width="416.5" height="65.2"/>
</g>
<g id="Brand">
	<text transform="matrix(1 0 0 1 3.1074 50.423)" class="st1 st2 st3">AMELIA GOODS      </text>
	<text transform="matrix(1 0 0 1 384.2 50.4231)" class="st1 st2 st3">N</text>
</g>
<path class="st4" d="M388.5,40L388.5,40C388.5,39.9,388.5,39.9,388.5,40c0-0.1,0-0.1,0-0.2v-0.1c0,0,0,0,0-0.1v-0.1v-0.1
	c0,0,0-0.1-0.1-0.1l0,0l-0.1-0.1l0,0l-0.1-0.1c-4.1-2.2-5.6-7.2-3.4-11.3c0.7-1.3,1.7-2.4,3-3.2l0,0l0,0c0,0,0.1,0,0.1-0.1l0,0
	l0.1-0.1l0,0c0,0,0-0.1,0.1-0.1c0,0,0,0,0-0.1v-0.1c0,0,0,0,0-0.1v-0.1V24c0-0.1,0-0.1,0-0.1s0-0.1-0.1-0.1l0,0c0,0,0-0.1-0.1-0.1
	l0,0c0,0,0,0-0.1-0.1l0,0l-0.1-0.1l0,0c0,0-0.1,0-0.1-0.1l0,0h-0.1h-0.1l0,0c-4.6-0.2-8.2-4-8-8.6c0.1-1.4,0.5-2.8,1.2-4
	c0,0,0,0,0-0.1l0,0v-0.1l0,0v-0.1l0,0v-0.1c0,0,0,0,0-0.1v-0.1c0,0,0,0,0-0.1V10l0,0l-0.1-0.1l-0.1-0.1l0,0h-0.1h-0.1h-0.1H380h-0.1
	l0,0h-0.1l0,0h-0.1l0,0h-0.1c-4,2.3-9.1,0.9-11.4-3.1c-0.8-1.4-1.2-2.9-1.1-4.5V2.1l0,0V2l0,0V1.9l0,0L367,1.8l0,0c0,0,0,0-0.1-0.1
	l0,0c0,0-0.1,0-0.1-0.1l0,0c0,0-0.1,0-0.1-0.1c-0.1,0-0.2,0-0.2,0h-0.1h-0.1H366h-0.1h-0.1h-0.1l0,0c0,0-0.1,0-0.1,0.1l0,0l-0.1,0.1
	l0,0l-0.1,0.1c-1.5,2.7-4.3,4.4-7.4,4.4c-2.9,0-5.6-1.5-7.1-3.9l0,0l0,0l-0.1-0.1l0,0l-0.1-0.1l0,0c0,0-0.1,0-0.1-0.1l0,0h-0.1l0,0
	h-0.1l0,0c-0.1,0-0.1,0-0.1,0s-0.1,0-0.1,0.1l0,0c0,0-0.1,0-0.1,0.1l0,0c0,0,0,0-0.1,0.1l0,0c0,0,0,0.1-0.1,0.1l0,0
	c0,0,0,0.1-0.1,0.1l0,0v0.1c0,0,0,0,0,0.1l0,0c-0.1,4.6-4,8.2-8.6,8c-1.4-0.1-2.7-0.5-3.9-1.2h-0.1l0,0h-0.1l0,0H337l0,0h-0.1h-0.1
	h-0.1h-0.1h-0.1l0,0l-0.1,0.1l0,0l-0.1,0.1l0,0v0.1v0.1V10c0,0,0,0,0,0.1v0.1c0,0,0,0,0,0.1v0.1l0,0v0.1c0,0,0,0,0,0.1
	c0,0,0,0,0,0.1c2.3,4,1,9.1-3,11.4c-1.4,0.8-2.9,1.2-4.5,1.1h-0.1h-0.1h-0.1h-0.1h-0.1h-0.1c0,0,0,0-0.1,0H328l-0.1,0.1l0,0
	c0,0,0,0.1-0.1,0.1l0,0c0,0,0,0.1-0.1,0.1c0,0.1,0,0.1,0,0.1s0,0,0,0.1v0.1c0,0,0,0,0,0.1V24v0.1v0.1c0,0,0,0,0,0.1
	c0,0,0,0.1,0.1,0.1l0,0l0.1,0.1l0,0l0.1,0.1c2.7,1.5,4.4,4.3,4.4,7.4c0,2.9-1.5,5.6-3.9,7.1l0,0l0,0c0,0-0.1,0-0.1,0.1l0,0l-0.1,0.1
	l0,0c0,0,0,0.1-0.1,0.1c0,0,0,0,0,0.1v0.1c0,0,0,0,0,0.1v0.1c0,0,0,0,0,0.1s0,0.1,0,0.1v0.1v0.1c0,0,0,0,0,0.1s0,0,0,0.1v0.1h0.1
	l0,0h0.1c0,0,0,0,0.1,0h0.1h0.1h0.1h0.1c0,0,0,0,0.1,0c0,0,0,0,0.1,0c2.9,0.1,5.5,1.7,6.9,4.2c1.5,2.6,1.5,5.8-0.1,8.4
	c0,0,0,0,0,0.1l0,0v0.1l0,0v0.1l0,0v0.1v0.1v0.1c0,0,0,0,0,0.1v0.1l0,0L336,54l0.1,0.1l0,0h0.1h0.1h0.1h0.1h0.1l0,0l0,0h0.1l0,0h0.1
	h0.1h0.1c4-2.3,9.1-0.9,11.4,3.1c0.8,1.4,1.2,2.9,1.1,4.5v0.1l0,0v0.1l0,0V62l0,0c0,0,0,0.1,0.1,0.1l0,0c0,0,0,0,0.1,0.1l0,0
	c0,0,0.1,0,0.1,0.1l0,0c0,0,0.1,0,0.1,0.1c0.1,0,0.1,0,0.2,0l0,0h0.1l0,0h0.1l0,0h0.1l0,0c0,0,0,0,0.1,0l0,0l0.1-0.1l0,0
	c0,0,0,0,0.1-0.1l0,0l0,0c2.2-4.1,7.2-5.6,11.3-3.4c1.3,0.7,2.4,1.7,3.2,3l0,0c0,0,0,0,0,0.1l0,0l0,0h0.1l0,0h0.1h0.1h0.1h0.1h0.1
	h0.1h0.1l0,0h0.1l0,0h0.1c0,0,0.1,0,0.1-0.1l0,0c0,0,0.1,0,0.1-0.1l0,0c0,0,0,0,0.1-0.1l0,0c0,0,0-0.1,0.1-0.1l0,0
	c0,0,0-0.1,0.1-0.1l0,0v-0.1c0,0,0,0,0-0.1c0,0,0,0,0-0.1c0.2-4.6,4-8.2,8.6-8c1.4,0.1,2.8,0.5,4,1.2h0.1l0,0h0.1l0,0h0.1l0,0l0,0
	h0.1h0.1h0.1h0.1h0.1l0,0l0.1-0.1l0.1-0.1l0,0V54c0,0,0,0,0-0.1v-0.1v-0.1v-0.1l0,0v-0.1l0,0v-0.1l0,0c0,0,0,0,0-0.1
	c-2.3-4-0.9-9.1,3.1-11.4c1.4-0.8,2.9-1.2,4.5-1.1l0,0h0.1h0.1h0.1h0.1l0,0c0.2-0.1,0.3-0.2,0.4-0.4v-0.1
	C388.5,40.1,388.5,40,388.5,40z M384.5,38.2l-12.2-3.3c0.4-2,0.4-4.1,0-6.1l12-3.2C381.4,29.4,381.4,34.7,384.5,38.2L384.5,38.2z
	 M345,31.9c0-0.9,0.1-1.8,0.3-2.7l9.9,2.7l-9.9,2.6C345.1,33.6,345,32.8,345,31.9z M367.9,23.3c1.2,1.3,2.1,2.9,2.6,4.6l-9.9,2.6
	L367.9,23.3z M359.5,29.4l2.7-9.9c1.7,0.6,3.3,1.5,4.6,2.7L359.5,29.4z M358.1,29l-2.6-9.9c1.7-0.3,3.5-0.3,5.3,0L358.1,29z
	 M356.6,29.3l-7.2-7.2c1.3-1.2,2.9-2.1,4.6-2.6L356.6,29.3z M355.6,30.4l-9.9-2.7c0.6-1.7,1.5-3.3,2.7-4.6L355.6,30.4z M355.5,33.4
	l-7.2,7.2c-1.2-1.3-2.1-2.9-2.6-4.6L355.5,33.4z M356.6,34.4l-2.7,9.9c-1.7-0.6-3.3-1.5-4.6-2.7L356.6,34.4z M358.1,34.8l2.6,9.9
	c-1.7,0.4-3.5,0.3-5.3,0L358.1,34.8z M359.5,34.4l7.2,7.2c-1.3,1.2-2.9,2.1-4.6,2.6L359.5,34.4z M360.6,33.3l9.9,2.7
	c-0.6,1.7-1.5,3.3-2.7,4.6L360.6,33.3z M361,31.9l9.9-2.6c0.2,0.9,0.3,1.7,0.3,2.6s-0.1,1.8-0.3,2.7L361,31.9z M384,24.2l-12,3.2
	c-0.6-1.9-1.7-3.7-3-5.2l8.9-8.8C377,18,379.6,22.5,384,24.2L384,24.2z M370.2,11.1c2,1.2,4.3,1.6,6.6,1.2l-8.9,8.8
	c-1.5-1.4-3.3-2.4-5.3-3.1l3.3-12.2C366.7,8.1,368.2,9.9,370.2,11.1z M358.1,7.8c2.3,0,4.6-0.8,6.4-2.3l-3.3,12.2
	c-2-0.4-4.1-0.4-6.1,0l-3.2-12C353.6,7,355.8,7.8,358.1,7.8z M346.1,11c2-1.1,3.5-2.9,4.3-5l3.2,12c-1.9,0.6-3.7,1.7-5.2,3l-8.8-8.9
	C341.8,12.5,344.1,12.1,346.1,11z M337.3,19.7c1.2-2,1.6-4.3,1.2-6.6l8.8,8.9c-1.4,1.5-2.4,3.3-3.1,5.3L332,24.1
	C334.2,23.3,336.1,21.8,337.3,19.7z M331.6,25.5l12.2,3.3c-0.4,2-0.4,4.1,0,6.1l-12,3.2c1.4-1.7,2.2-3.9,2.2-6.2
	C334,29.6,333.2,27.3,331.6,25.5z M332.2,39.5l12-3.2c0.6,1.9,1.7,3.7,3,5.2l-8.9,8.8C339.1,45.8,336.5,41.2,332.2,39.5L332.2,39.5z
	 M345.9,52.7c-1.5-0.9-3.2-1.3-5-1.3c-0.5,0-1.1,0-1.6,0.1l8.9-8.8c1.5,1.4,3.3,2.4,5.3,3.1L350.2,58
	C349.5,55.7,347.9,53.9,345.9,52.7L345.9,52.7z M358.1,56c-2.3,0-4.6,0.8-6.4,2.3l3.3-12.2c2,0.4,4.1,0.4,6.1,0l3.2,12
	C362.5,56.8,360.3,56,358.1,56L358.1,56z M370,52.8c-2,1.1-3.5,2.9-4.3,5l-3.2-12c1.9-0.6,3.7-1.6,5.2-3l8.8,8.9
	C374.3,51.3,372,51.7,370,52.8L370,52.8z M378.9,44c-1.2,2-1.6,4.3-1.2,6.6l-8.8-8.9c1.4-1.5,2.4-3.3,3.1-5.3l12.2,3.3
	C381.9,40.5,380,42,378.9,44z"/>
</svg>
