<?xml version="1.0" encoding="utf-8"?>
<!-- Generator: Adobe Illustrator 23.0.1, SVG Export Plug-In . SVG Version: 6.00 Build 0)  -->
<svg version="1.1" id="Layer_1" xmlns="http://www.w3.org/2000/svg" xmlns:xlink="http://www.w3.org/1999/xlink" x="0px" y="0px"
	 viewBox="0 0 683 106.9" style="enable-background:new 0 0 683 106.9;" xml:space="preserve">
<style type="text/css">
	.st0{fill:none;}
	.st1{enable-background:new    ;}
	.st2{fill:#FFFFFF;}
	.st3{fill:#FF01CB;}
</style>
<g>
	<g>
		<rect class="st0" width="683" height="106.9"/>
	</g>
	<g id="Brand">
		<g class="st1">
			<path class="st2" d="M13.9,82.7H4.1l22.2-80l22.2,80h-9.8L26.3,39L13.9,82.7z"/>
			<path class="st2" d="M59.1,47.8v34.8h-9.4V12.3l23.6,41.5l23.6-41.5v70.4h-9.4V47.8L73.3,72.8L59.1,47.8z"/>
			<path class="st2" d="M144,16.7v9.4h-33v28.3h33v9.4h-33v9.4h33v9.4h-42.4v-66H144z"/>
			<path class="st2" d="M148.7,16.7h9.4v56.6h33v9.4h-42.4V16.7z"/>
			<path class="st2" d="M203.9,82.7h-9.4v-66h9.4V82.7z"/>
			<path class="st2" d="M214.9,82.7h-9.8l22.2-80l22.2,80h-9.8L227.4,39L214.9,82.7z"/>
			<path class="st2" d="M300.4,16.7h14.1v9.4h-14.1c-6.5,0-12.1,2.3-16.7,6.9c-4.6,4.6-6.9,10.2-6.9,16.7c0,6.5,2.3,12.1,6.9,16.7
				c4.6,4.6,10.2,6.9,16.7,6.9h4.7V54.4h-9.4V45h18.9v37.7h-14.1c-9.1,0-16.9-3.2-23.3-9.7c-6.4-6.4-9.7-14.2-9.7-23.3
				c0-9.1,3.2-16.9,9.7-23.3C283.5,19.9,291.3,16.7,300.4,16.7z"/>
			<path class="st2" d="M349.6,82.7c-9.1,0-16.9-3.2-23.3-9.7c-6.4-6.4-9.7-14.2-9.7-23.3c0-9.1,3.2-16.9,9.7-23.3
				c6.4-6.4,14.2-9.7,23.3-9.7c9.1,0,16.9,3.2,23.3,9.7c6.4,6.4,9.7,14.2,9.7,23.3c0,9.1-3.2,16.9-9.7,23.3
				C366.5,79.5,358.7,82.7,349.6,82.7z M349.6,73.3c6.5,0,12.1-2.3,16.7-6.9c4.6-4.6,6.9-10.2,6.9-16.7c0-6.5-2.3-12.1-6.9-16.7
				c-4.6-4.6-10.2-6.9-16.7-6.9c-6.5,0-12.1,2.3-16.7,6.9c-4.6,4.6-6.9,10.2-6.9,16.7c0,6.5,2.3,12.1,6.9,16.7
				C337.5,71,343.1,73.3,349.6,73.3z"/>
			<path class="st2" d="M418.5,82.7c-9.1,0-16.9-3.2-23.3-9.7c-6.4-6.4-9.7-14.2-9.7-23.3c0-9.1,3.2-16.9,9.7-23.3
				c6.4-6.4,14.2-9.7,23.3-9.7c9.1,0,16.9,3.2,23.3,9.7c6.4,6.4,9.7,14.2,9.7,23.3c0,9.1-3.2,16.9-9.7,23.3
				C435.4,79.5,427.6,82.7,418.5,82.7z M418.5,73.3c6.5,0,12.1-2.3,16.7-6.9c4.6-4.6,6.9-10.2,6.9-16.7c0-6.5-2.3-12.1-6.9-16.7
				c-4.6-4.6-10.2-6.9-16.7-6.9s-12.1,2.3-16.7,6.9c-4.6,4.6-6.9,10.2-6.9,16.7c0,6.5,2.3,12.1,6.9,16.7
				C406.4,71,412,73.3,418.5,73.3z"/>
			<path class="st2" d="M469.2,16.7c9.1,0,16.9,3.2,23.3,9.7c6.4,6.4,9.7,14.2,9.7,23.3c0,9.1-3.2,16.9-9.7,23.3
				c-6.4,6.4-14.2,9.7-23.3,9.7H455v-66H469.2z M469.2,73.3c6.5,0,12.1-2.3,16.7-6.9c4.6-4.6,6.9-10.2,6.9-16.7
				c0-6.5-2.3-12.1-6.9-16.7c-4.6-4.6-10.2-6.9-16.7-6.9h-4.7v47.1H469.2z"/>
			<path class="st2" d="M522.1,16.7c5.2,0,9.7,1.8,13.3,5.5s5.5,8.1,5.5,13.3h-9.4c0-2.6-0.9-4.8-2.8-6.7c-1.8-1.8-4.1-2.8-6.7-2.8
				c-2.6,0-4.8,0.9-6.7,2.8c-1.8,1.8-2.8,4.1-2.8,6.7c0,4.1,4.7,7.8,14.1,11.1c9.4,3.3,14.1,9,14.1,17.2c0,5.2-1.8,9.7-5.5,13.3
				s-8.1,5.5-13.3,5.5c-5.2,0-9.7-1.8-13.3-5.5s-5.5-8.1-5.5-13.3h9.4c0,2.6,0.9,4.8,2.8,6.7c1.8,1.8,4.1,2.8,6.7,2.8
				c2.6,0,4.8-0.9,6.7-2.8c1.8-1.8,2.8-4.1,2.8-6.7c0-4.1-4.7-7.8-14.1-11.1c-9.4-3.3-14.1-9-14.1-17.2c0-5.2,1.8-9.7,5.5-13.3
				S516.8,16.7,522.1,16.7z"/>
		</g>
		<g class="st1">
			<path class="st2" d="M639.5,38.4v44.3H630V2.8L663,61V16.7h9.4v79.9L639.5,38.4z"/>
		</g>
	</g>
	<path class="st3" d="M637.1,65.6L637.1,65.6C637.1,65.4,637.1,65.4,637.1,65.6c0-0.2,0-0.2,0-0.3v-0.2c0,0,0,0,0-0.2v-0.2v-0.2
		c0,0,0-0.2-0.2-0.2l0,0l-0.2-0.2l0,0l-0.2-0.2c-6.7-3.6-9.2-11.8-5.6-18.5c1.1-2.1,2.8-3.9,4.9-5.2l0,0l0,0c0,0,0.2,0,0.2-0.2l0,0
		l0.2-0.2l0,0c0,0,0-0.2,0.2-0.2c0,0,0,0,0-0.2v-0.2c0,0,0,0,0-0.2v-0.2v0.2c0-0.2,0-0.2,0-0.2s0-0.2-0.2-0.2l0,0c0,0,0-0.2-0.2-0.2
		l0,0c0,0,0,0-0.2-0.2l0,0l-0.2-0.2l0,0c0,0-0.2,0-0.2-0.2l0,0h-0.2h-0.2l0,0c-7.5-0.3-13.4-6.6-13.1-14.1c0.2-2.3,0.8-4.6,2-6.6
		c0,0,0,0,0-0.2l0,0v-0.2l0,0v-0.2l0,0v-0.2c0,0,0,0,0-0.2v-0.2c0,0,0,0,0-0.2v-0.2l0,0l-0.2-0.2l-0.2-0.2l0,0h-0.2h-0.2h-0.2h-0.2
		H623l0,0h-0.2l0,0h-0.2l0,0h-0.2c-6.6,3.8-14.9,1.5-18.7-5.1c-1.3-2.3-2-4.8-1.8-7.4V3.4l0,0V3.3l0,0V3.1l0,0L601.8,3l0,0
		c0,0,0,0-0.2-0.2l0,0c0,0-0.2,0-0.2-0.2l0,0c0,0-0.2,0-0.2-0.2c-0.2,0-0.3,0-0.3,0h-0.2h-0.2h-0.5H600h-0.2h-0.2l0,0
		c0,0-0.2,0-0.2,0.2l0,0l-0.2,0.2l0,0L599.2,3c-2.5,4.4-7.1,7.2-12.1,7.2c-4.8,0-9.2-2.5-11.6-6.4l0,0l0,0l-0.2-0.2l0,0l-0.2-0.2
		l0,0c0,0-0.2,0-0.2-0.2l0,0h-0.2l0,0h-0.2l0,0c-0.2,0-0.2,0-0.2,0s-0.2,0-0.2,0.2l0,0c0,0-0.2,0-0.2,0.2l0,0c0,0,0,0-0.2,0.2l0,0
		c0,0,0,0.2-0.2,0.2l0,0c0,0,0,0.2-0.2,0.2l0,0v0.2c0,0,0,0,0,0.2l0,0c-0.2,7.5-6.6,13.4-14.1,13.1c-2.3-0.2-4.4-0.8-6.4-2H553l0,0
		h-0.2l0,0h-0.2l0,0h-0.2h-0.2h-0.2H552h-0.2l0,0l-0.2,0.2l0,0l-0.2,0.2l0,0v0.2v0.2v0.2c0,0,0,0,0,0.2v0.2c0,0,0,0,0,0.2v0.2l0,0
		v0.2c0,0,0,0,0,0.2c0,0,0,0,0,0.2c3.8,6.6,1.6,14.9-4.9,18.7c-2.3,1.3-4.8,2-7.4,1.8H539h-0.2h-0.2h-0.2h-0.2h-0.2c0,0,0,0-0.2,0
		h-0.2l-0.2,0.2l0,0c0,0,0,0.2-0.2,0.2l0,0c0,0,0,0.2-0.2,0.2c0,0.2,0,0.2,0,0.2s0,0,0,0.2V39c0,0,0,0,0,0.2v0.2v0.2v0.2
		c0,0,0,0,0,0.2c0,0,0,0.2,0.2,0.2l0,0l0.2,0.2l0,0l0.2,0.2c4.4,2.5,7.2,7.1,7.2,12.1c0,4.8-2.5,9.2-6.4,11.6l0,0l0,0
		c0,0-0.2,0-0.2,0.2l0,0l-0.2,0.2l0,0c0,0,0,0.2-0.2,0.2c0,0,0,0,0,0.2v0.2c0,0,0,0,0,0.2v0.2c0,0,0,0,0,0.2c0,0.2,0,0.2,0,0.2v0.2
		v0.2c0,0,0,0,0,0.2c0,0.2,0,0,0,0.2v0.2h0.2l0,0h0.2c0,0,0,0,0.2,0h0.2h0.2h0.2h0.2c0,0,0,0,0.2,0c0,0,0,0,0.2,0
		c4.8,0.2,9,2.8,11.3,6.9c2.5,4.3,2.5,9.5-0.2,13.8c0,0,0,0,0,0.2l0,0v0.2l0,0v0.2l0,0v0.2v0.2v0.2c0,0,0,0,0,0.2v0.2l0,0l0.2,0.2
		l0.2,0.2l0,0h0.2h0.2h0.2h0.2h0.2l0,0l0,0h0.2l0,0h0.2h0.2h0.2c6.6-3.8,14.9-1.5,18.7,5.1c1.3,2.3,2,4.8,1.8,7.4v0.2l0,0v0.2l0,0
		v0.2l0,0c0,0,0,0.2,0.2,0.2l0,0c0,0,0,0,0.2,0.2l0,0c0,0,0.2,0,0.2,0.2l0,0c0,0,0.2,0,0.2,0.2c0.2,0,0.2,0,0.3,0l0,0h0.2l0,0h0.2
		l0,0h0.2l0,0c0,0,0,0,0.2,0l0,0l0.2-0.2l0,0c0,0,0,0,0.2-0.2l0,0l0,0c3.6-6.7,11.8-9.2,18.5-5.6c2.1,1.1,3.9,2.8,5.2,4.9l0,0
		c0,0,0,0,0,0.2l0,0l0,0h0.2l0,0h0.2h0.2h0.2h0.2h0.2h0.2h0.2l0,0h0.2l0,0h0.2c0,0,0.2,0,0.2-0.2l0,0c0,0,0.2,0,0.2-0.2l0,0
		c0,0,0,0,0.2-0.2l0,0c0,0,0-0.2,0.2-0.2l0,0c0,0,0-0.2,0.2-0.2l0,0v-0.2c0,0,0,0,0-0.2c0,0,0,0,0-0.2c0.3-7.5,6.6-13.4,14.1-13.1
		c2.3,0.2,4.6,0.8,6.6,2h0.2l0,0h0.2l0,0h0.2l0,0l0,0h0.2h0.2h0.2h0.2h0.2l0,0l0.2-0.2l0.2-0.2l0,0v-0.2c0,0,0,0,0-0.2v-0.2v-0.2
		v-0.2l0,0v-0.2l0,0v-0.2l0,0c0,0,0,0,0-0.2c-3.8-6.6-1.5-14.9,5.1-18.7c2.3-1.3,4.8-2,7.4-1.8l0,0h0.2h0.2h0.2h0.2l0,0
		c0.3-0.2,0.5-0.3,0.7-0.7v-0.2C637.1,65.8,637.1,65.6,637.1,65.6z M630.5,62.6l-20-5.4c0.7-3.3,0.7-6.7,0-10l19.7-5.2
		C625.4,48.2,625.4,56.9,630.5,62.6L630.5,62.6z M565.8,52.3c0-1.5,0.2-3,0.5-4.4l16.2,4.4l-16.2,4.3
		C565.9,55.1,565.8,53.8,565.8,52.3z M603.3,38.2c2,2.1,3.4,4.8,4.3,7.5L591.3,50L603.3,38.2z M589.5,48.2L594,32
		c2.8,1,5.4,2.5,7.5,4.4L589.5,48.2z M587.2,47.6L583,31.3c2.8-0.5,5.7-0.5,8.7,0L587.2,47.6z M584.8,48L573,36.2
		c2.1-2,4.8-3.4,7.5-4.3L584.8,48z M583.1,49.9l-16.2-4.4c1-2.8,2.5-5.4,4.4-7.5L583.1,49.9z M583,54.8l-11.8,11.8
		c-2-2.1-3.4-4.8-4.3-7.5L583,54.8z M584.8,56.4l-4.4,16.2c-2.8-1-5.4-2.5-7.5-4.4L584.8,56.4z M587.2,57.1l4.3,16.2
		c-2.8,0.7-5.7,0.5-8.7,0L587.2,57.1z M589.5,56.4l11.8,11.8c-2.1,2-4.8,3.4-7.5,4.3L589.5,56.4z M591.3,54.6l16.2,4.4
		c-1,2.8-2.5,5.4-4.4,7.5L591.3,54.6z M592,52.3l16.2-4.3c0.3,1.5,0.5,2.8,0.5,4.3c0,1.5-0.2,3-0.5,4.4L592,52.3z M629.7,39.7
		L610,44.9c-1-3.1-2.8-6.1-4.9-8.5L619.7,22C618.2,29.5,622.5,36.9,629.7,39.7L629.7,39.7z M607.1,18.2c3.3,2,7.1,2.6,10.8,2
		l-14.6,14.4c-2.5-2.3-5.4-3.9-8.7-5.1l5.4-20C601.3,13.3,603.8,16.2,607.1,18.2z M587.2,12.8c3.8,0,7.5-1.3,10.5-3.8l-5.4,20
		c-3.3-0.7-6.7-0.7-10,0l-5.2-19.7C579.9,11.5,583.5,12.8,587.2,12.8z M567.6,18c3.3-1.8,5.7-4.8,7.1-8.2l5.2,19.7
		c-3.1,1-6.1,2.8-8.5,4.9l-14.4-14.6C560.5,20.5,564.3,19.8,567.6,18z M553.1,32.3c2-3.3,2.6-7.1,2-10.8l14.4,14.6
		c-2.3,2.5-3.9,5.4-5.1,8.7l-20-5.2C548,38.2,551.2,35.7,553.1,32.3z M543.8,41.8l20,5.4c-0.7,3.3-0.7,6.7,0,10l-19.7,5.2
		c2.3-2.8,3.6-6.4,3.6-10.2C547.7,48.5,546.4,44.8,543.8,41.8z M544.8,64.8l19.7-5.2c1,3.1,2.8,6.1,4.9,8.5l-14.6,14.4
		C556.1,75.1,551.8,67.6,544.8,64.8L544.8,64.8z M567.2,86.4c-2.5-1.5-5.2-2.1-8.2-2.1c-0.8,0-1.8,0-2.6,0.2L571,70
		c2.5,2.3,5.4,3.9,8.7,5.1l-5.4,20C573.1,91.3,570.5,88.4,567.2,86.4L567.2,86.4z M587.2,91.8c-3.8,0-7.5,1.3-10.5,3.8l5.4-20
		c3.3,0.7,6.7,0.7,10,0l5.2,19.7C594.4,93.1,590.8,91.8,587.2,91.8L587.2,91.8z M606.7,86.6c-3.3,1.8-5.7,4.8-7.1,8.2l-5.2-19.7
		c3.1-1,6.1-2.6,8.5-4.9l14.4,14.6C613.8,84.1,610,84.8,606.7,86.6L606.7,86.6z M621.3,72.2c-2,3.3-2.6,7.1-2,10.8l-14.4-14.6
		c2.3-2.5,3.9-5.4,5.1-8.7l20,5.4C626.3,66.4,623.1,68.9,621.3,72.2z"/>
</g>
</svg>
