<?xml version="1.0" encoding="utf-8"?>
<!-- Generator: Adobe Illustrator 23.0.1, SVG Export Plug-In . SVG Version: 6.00 Build 0)  -->
<svg version="1.1" id="logo" xmlns="http://www.w3.org/2000/svg" xmlns:xlink="http://www.w3.org/1999/xlink" x="0px" y="0px"
	 viewBox="0 0 357.6 165.3" style="enable-background:new 0 0 357.6 165.3;" xml:space="preserve">
<style type="text/css">
	.st0{fill:#FFFFFF;}
	.st1{font-family:'Ebrima';}
	.st2{font-size:55px;}
</style>
<g>
	<g>
		<text transform="matrix(0.9948 0 0 1 137.5291 89.0941)" class="st0 st1 st2">Goodson</text>
		<text transform="matrix(0.9948 0 0 1 146.8895 134.4223)" class="st0 st1 st2">Gardens</text>
		<g id="icon_8_">
			<path class="st0" d="M127,155c0.6-0.2-2-8.4-1.7-19.2c0.2-4.7,1.1-6.1,0.5-9.9c-0.7-5.3-3.3-9.5-5.3-12.1
				c-2.6,2.9-6.4,6.5-11.4,9.8c-7.2,4.6-13.9,6.7-18.6,7.7c4.4,4.3,8.6,6.6,11.5,7.8c2.9,1.3,6.3,2.2,9.5,3.1c6.9,2,7.9,1.6,9.8,3.1
				C126.1,148.9,126.4,155.1,127,155z"/>
			<ellipse class="st0" cx="84.1" cy="85.2" rx="38.9" ry="39.1"/>
			<path class="st0" d="M77.4,0c-0.5,0,0.9,7.8-2.7,15.7c-2.3,5.1-4.8,5.7-7.5,10.4c-2,3.6-4,9.2-3.2,17.9c2.2-1.5,7.7-4.7,15.3-4.9
				c6.6-0.2,11.5,1.9,13.9,3.1c0.8-9-1.4-14.3-3.6-17.5c-2.8-4-5-4-7.8-8.3C76.8,8.8,78,0,77.4,0z"/>
			<path class="st0" d="M19.8,30.7c5.1,5.2,7.1,10.2,7.8,14.1c1.1,5.9-0.7,7.9,0.8,12.5c1.1,3.4,4,7.7,11.7,11.3
				c0-1.7,0.1-8.9,5.6-15.2c5.7-6.4,13-7.3,14.6-7.5c-5-6.3-9.6-8.4-13.2-9c-5.4-0.9-7.3,1.5-13.2,0.8C27.5,37,22.8,33.5,19.8,30.7z
				"/>
			<path class="st0" d="M78.2,147c-4.7,4.3-10.3,1.3-16.6,6.2c-6.1,4.7-7.7,12.4-8.4,12.1c-0.9-0.3,5.1-11.6,0.9-17.2
				c-0.7-0.9-1.6-1.5-3.7-4.1c-2-2.5-3.4-4.5-3.7-4.8c-3.6-5.6,1.2-20.1,1.7-21.6c0.8,1,2.3,3,4.7,5c3.9,3.3,7.5,4.6,9.9,5.5
				c7.6,2.7,14.8,2.7,19.2,2.3C83.1,140.1,80.7,144.7,78.2,147z"/>
			<path class="st0" d="M0,102.6c7.2-0.9,12.4,0.4,15.9,2.2c5.1,2.6,5.8,4.6,10.4,6.9c3.8,1.9,9.8,3.4,19,1.1
				c-1.7-1.3-4.1-3.7-6.2-7c-2.6-4.3-3.5-8.1-3.9-10.2c-0.5-2.2-1.2-6-0.3-10.9c0.7-4.3,2.3-7.5,3.4-9.4c-9.3,2-14.2,5.9-17,9.2
				c-3.6,4.3-3.4,7-7.3,11.1C9.6,100.1,4,101.8,0,102.6z"/>
			<path class="st0" d="M125.3,53.6c-0.5,2.1-1.9,4.8-3.8,7.2l0,0c-0.4-1.8-1.2-4.2-2.8-6.8c-2.1-3.5-4.5-5.6-5.3-6.2
				c-0.9-0.7-3.1-2.4-6.4-3.7c-3.7-1.4-7-1.6-9.2-1.5c1.4-1.3,3.5-3.1,6.2-5c2.1-1.5,3.2-2.3,4.5-2.8c2.6-1,5-1.1,9.3-1.1
				c2.8,0,4.4,0.1,5.9-1.1c0.8-0.6,0.9-1.1,1.7-2.2c2.1-3,5.2-5,5.7-4.6c0.6,0.5-4.9,5-5.9,12.4c-0.4,3.1-0.1,7.3,0,9.1
				C125.4,51.1,125.8,51.7,125.3,53.6z"/>
		</g>
	</g>
</g>
<g id="Brand">
</g>
</svg>
